<svg width="50" height="50" viewBox="0 0 50 50" fill="none" xmlns="http://www.w3.org/2000/svg">
<path d="M50 25C50 16.4198 45.6769 8.85019 39.0905 4.34785L25 3.26083L10.9095 4.34775C4.32324 8.85019 0 16.4199 0 25C0 33.5804 4.32324 41.1498 10.9095 45.6521L25 46.7392L39.0905 45.6522C45.6769 41.1498 50 33.5804 50 25Z" fill="#0052B4"/>
<path d="M39.0905 4.34785C35.0783 1.60508 30.227 0 25 0C19.7732 0 14.9217 1.60508 10.9095 4.34785H39.0905Z" fill="#A2001D"/>
<path d="M10.9095 45.6521C14.9216 48.3949 19.7732 50 25 50C30.227 50 35.0783 48.3949 39.0905 45.6521H10.9095Z" fill="#A2001D"/>
<path d="M25 36.9565C31.6034 36.9565 36.9565 31.6034 36.9565 25C36.9565 18.3966 31.6034 13.0435 25 13.0435C18.3966 13.0435 13.0435 18.3966 13.0435 25C13.0435 31.6034 18.3966 36.9565 25 36.9565Z" fill="#F0F0F0"/>
<path d="M25 34.7826C30.4028 34.7826 34.7826 30.4028 34.7826 25C34.7826 19.5972 30.4028 15.2174 25 15.2174C19.5972 15.2174 15.2174 19.5972 15.2174 25C15.2174 30.4028 19.5972 34.7826 25 34.7826Z" fill="#6DA544"/>
<path d="M25 31.5218C28.6019 31.5218 31.5218 28.6019 31.5218 25C31.5218 21.3981 28.6019 18.4782 25 18.4782C21.3981 18.4782 18.4782 21.3981 18.4782 25C18.4782 28.6019 21.3981 31.5218 25 31.5218Z" fill="#F0F0F0"/>
<path d="M25 23.3695L21.4674 25V27.7174L25 29.8913L28.5326 27.7174V25L25 23.3695Z" fill="#0052B4"/>
<path d="M21.4674 21.7392H28.5326V25H21.4674V21.7392Z" fill="#FFDA44"/>
</svg>
