<svg width="50" height="50" viewBox="0 0 50 50" fill="none" xmlns="http://www.w3.org/2000/svg">
<path d="M50 25C50 38.807 38.807 50 25 50C11.193 50 0 38.807 0 25C0 25.006 25 0.00273438 25 0C38.807 0 50 11.193 50 25Z" fill="#D80027"/>
<path d="M25 11.9565V20.3885L16.3044 11.9565H25Z" fill="#0052B4"/>
<path d="M13.0435 25H20.3883L13.0435 15.2174L11.9565 22.8261L13.0435 25Z" fill="#0052B4"/>
<path d="M24.9331 25H25C25 24.9775 25 24.9557 25 24.9331C24.9777 24.9555 24.9555 24.9777 24.9331 25Z" fill="#F0F0F0"/>
<path d="M25 13.0435C25 8.64453 25 5.76221 25 0H24.9958C11.1905 0.00234375 0 11.1942 0 25H13.0435V17.6552L20.3883 25H24.9332C24.9555 24.9777 24.9777 24.9555 25.0001 24.9331C25.0001 23.2488 25.0001 21.746 25.0001 20.3885L17.6551 13.0435H25Z" fill="#F0F0F0"/>
<path d="M12.648 3.26083C8.73792 5.4873 5.48723 8.73788 3.26086 12.6479V26.0869H9.78264V9.78281V9.78261H26.0869C26.0869 7.72568 26.0869 5.76611 26.0869 3.26083H12.648Z" fill="#D80027"/>
<path d="M25.9938 22.9193L16.1177 13.0435H13.0435V13.0437L25.9936 25.9937H25.9937C25.9938 25.9938 25.9938 23.874 25.9938 22.9193Z" fill="#D80027"/>
<path d="M28.2609 13.0435V24.9999C28.2609 30.8241 43.4782 30.8241 43.4782 24.9999V13.0435H28.2609Z" fill="#F3F3F3"/>
<path d="M28.2609 25V24.9999C28.2609 30.8241 35.8696 32.6087 35.8696 32.6087C35.8696 32.6087 43.4782 30.8241 43.4782 24.9999V25H28.2609Z" fill="#6DA544"/>
<path d="M35.8695 20.2174L32.3369 21.7392V25L35.8695 27.1739L39.4021 25V21.7392L35.8695 20.2174Z" fill="#A2001D"/>
<path d="M32.3369 18.4782H39.4021V21.7391H32.3369V18.4782Z" fill="#338AF3"/>
</svg>
