<svg width="50" height="50" viewBox="0 0 50 50" fill="none" xmlns="http://www.w3.org/2000/svg">
<path d="M50 25C50 38.807 38.807 50 25 50C11.193 50 0 38.807 0 25C0 11.193 25 0 25 0C25 0 50 11.193 50 25Z" fill="#A2001D"/>
<path d="M0 25C0 11.193 11.193 0 25 0C38.807 0 50 11.193 50 25" fill="#0052B4"/>
<path d="M33.6956 31.5218L25 30.4348L16.3044 31.5218V18.4783H33.6956V31.5218Z" fill="#F0F0F0"/>
<path d="M25 30.4347C27.4013 30.4347 29.3479 28.4881 29.3479 26.0869C29.3479 23.6856 27.4013 21.739 25 21.739C22.5988 21.739 20.6522 23.6856 20.6522 26.0869C20.6522 28.4881 22.5988 30.4347 25 30.4347Z" fill="#0052B4"/>
<path d="M25 28.2608C26.2006 28.2608 27.1739 27.2875 27.1739 26.0869C27.1739 24.8863 26.2006 23.913 25 23.913C23.7994 23.913 22.8261 24.8863 22.8261 26.0869C22.8261 27.2875 23.7994 28.2608 25 28.2608Z" fill="#A2001D"/>
<path d="M21.7392 20.6521H28.2608L25 23.913L21.7392 20.6521Z" fill="#6DA544"/>
<path d="M23.9131 22.826H26.087V29.3478H23.9131V22.826Z" fill="#FFDA44"/>
<path d="M28.4782 28.6956H21.5216L16.3044 31.5217H33.6956L28.4782 28.6956Z" fill="#6DA544"/>
</svg>
