<svg width="50" height="50" viewBox="0 0 50 50" fill="none" xmlns="http://www.w3.org/2000/svg">
<path d="M25 50C38.8071 50 50 38.8071 50 25C50 11.1929 38.8071 0 25 0C11.1929 0 0 11.1929 0 25C0 38.8071 11.1929 50 25 50Z" fill="#F0F0F0"/>
<path d="M34.4134 19.5653H28.1377L25 14.1305L21.8624 19.5653H15.5866L18.7247 25L15.5866 30.4348H21.8624L25 35.8696L28.1377 30.4348H34.4134L31.2753 25L34.4134 19.5653ZM28.855 25L26.9276 28.3387H23.0727L21.145 25L23.0726 21.6614H26.9275L28.855 25ZM25 18.3226L25.7174 19.5652H24.2828L25 18.3226ZM19.2174 21.6614H20.6521L19.9348 22.9039L19.2174 21.6614ZM19.2174 28.3387L19.9349 27.0961L20.6522 28.3387H19.2174ZM25 31.6774L24.2827 30.4348H25.7174L25 31.6774ZM30.7826 28.3387H29.3478L30.0653 27.0961L30.7826 28.3387ZM29.3478 21.6614H30.7826L30.0652 22.9039L29.3478 21.6614Z" fill="#0052B4"/>
<path d="M40.5622 5.43481H9.43779C7.15625 7.252 5.19961 9.45923 3.66933 11.9566H46.3307C44.8003 9.45933 42.8437 7.252 40.5622 5.43481Z" fill="#0052B4"/>
<path d="M9.43779 44.5652H40.5621C42.8437 42.748 44.8003 40.5408 46.3306 38.0435H3.66933C5.19971 40.5407 7.15635 42.748 9.43779 44.5652Z" fill="#0052B4"/>
</svg>
