<svg width="50" height="50" viewBox="0 0 50 50" fill="none" xmlns="http://www.w3.org/2000/svg">
<path d="M25 50C38.8071 50 50 38.8071 50 25C50 11.1929 38.8071 0 25 0C11.1929 0 0 11.1929 0 25C0 38.8071 11.1929 50 25 50Z" fill="#496E2D"/>
<path d="M29.3478 23.9575C28.7341 23.9575 28.1515 24.0799 27.6105 24.2746C27.9069 23.6141 28.1056 22.8791 28.1056 22.0942C28.1056 18.9887 25 16.6595 25 16.6595C25 16.6595 21.8945 18.9887 21.8945 22.0942C21.8945 22.879 22.0932 23.6141 22.3896 24.2746C21.8485 24.0801 21.2659 23.9575 20.6523 23.9575C17.5467 23.9575 15.2175 27.0631 15.2175 27.0631C15.2175 27.0631 17.5467 30.1687 20.6523 30.1687C22.4731 30.1687 24.026 29.1016 25.0001 28.2182C25.9743 29.1015 27.5272 30.1687 29.348 30.1687C32.4536 30.1687 34.7828 27.0631 34.7828 27.0631C34.7828 27.0631 32.4534 23.9575 29.3478 23.9575Z" fill="#F0F0F0"/>
<path d="M25.0001 9.78262L25.6416 11.7568H27.7175L26.0383 12.9772L26.6793 14.9514L25.0001 13.7311L23.3209 14.9514L23.9619 12.9772L22.2827 11.7568H24.3586L25.0001 9.78262Z" fill="#FFDA44"/>
<path d="M17.1063 13.2357L18.3405 14.3468L19.7787 13.5165L19.1033 15.0336L20.3374 16.1449L18.6858 15.9713L18.0104 17.4884L17.6649 15.8641L16.0134 15.6904L17.4515 14.86L17.1063 13.2357Z" fill="#FFDA44"/>
<path d="M11.3276 19.0144L12.9521 19.3596L13.7824 17.9214L13.9561 19.5729L15.5803 19.9184L14.0633 20.5938L14.2369 22.2452L13.1255 21.0113L11.6085 21.6867L12.4389 20.2484L11.3276 19.0144Z" fill="#FFDA44"/>
<path d="M32.894 13.2357L31.66 14.3468L30.2218 13.5165L30.8971 15.0336L29.6631 16.1449L31.3147 15.9713L31.99 17.4884L32.3355 15.8641L33.987 15.6904L32.5489 14.86L32.894 13.2357Z" fill="#FFDA44"/>
<path d="M38.6726 19.0144L37.0481 19.3596L36.2179 17.9214L36.0441 19.5729L34.4199 19.9184L35.9369 20.5938L35.7633 22.2452L36.8747 21.0113L38.3917 21.6867L37.5613 20.2484L38.6726 19.0144Z" fill="#FFDA44"/>
<path d="M25 38.8645C27.4668 38.8645 29.7407 38.0414 31.5647 36.6566H18.4353C20.2593 38.0413 22.5331 38.8645 25 38.8645Z" fill="#F0F0F0"/>
<path d="M15.0359 32.3427C15.3809 33.1323 15.8184 33.8719 16.3323 34.5506H33.668C34.1819 33.872 34.6194 33.1323 34.9644 32.3427H15.0359Z" fill="#F0F0F0"/>
</svg>
