<svg width="50" height="50" viewBox="0 0 50 50" fill="none" xmlns="http://www.w3.org/2000/svg">
<path d="M35.8695 2.48066C32.5828 0.891406 28.8956 0 25 0C21.1044 0 17.4172 0.891406 14.1305 2.48066L11.9565 25L14.1305 47.5193C17.4172 49.1086 21.1044 50 25 50C28.8956 50 32.5828 49.1086 35.8695 47.5193L38.0435 25L35.8695 2.48066Z" fill="#FFDA44"/>
<path d="M14.1305 2.48154C5.76807 6.52519 0 15.0886 0 25C0 34.9114 5.76807 43.4748 14.1305 47.5185V2.48154Z" fill="#0052B4"/>
<path d="M35.8696 2.48154V47.5185C44.2319 43.4748 50.0001 34.9114 50.0001 25C50.0001 15.0886 44.2319 6.52519 35.8696 2.48154Z" fill="#0052B4"/>
<path d="M32.0653 27.1739L33.6957 29.3479V20.6522L32.0653 22.8261H27.174V17.9348L29.3479 16.3044H20.6522L22.8261 17.9348V22.8261H17.9348L16.3044 20.6522V29.3479L17.9348 27.1739H22.8261V32.0652L20.6522 33.6956H29.3479L27.174 32.0652V27.1739H32.0653Z" fill="#D80027"/>
<path d="M31.5218 23.9131H26.087V18.4782H23.9131V23.9131H18.4783V26.0869H23.9131V31.5218H26.087V26.0869H31.5218V23.9131Z" fill="#F0F0F0"/>
</svg>
