<svg width="50" height="50" viewBox="0 0 50 50" fill="none" xmlns="http://www.w3.org/2000/svg">
<path d="M25 50C38.8071 50 50 38.8071 50 25C50 11.1929 38.8071 0 25 0C11.1929 0 0 11.1929 0 25C0 38.8071 11.1929 50 25 50Z" fill="#F0F0F0"/>
<path d="M23.9131 25H50C50 22.7434 49.6992 20.5577 49.1388 18.4782H23.9131V25Z" fill="#D80027"/>
<path d="M23.9131 11.9565H46.3307C44.8003 9.45926 42.8438 7.25194 40.5622 5.43475H23.9131V11.9565Z" fill="#D80027"/>
<path d="M25.0002 50C30.8839 50 36.2918 47.9664 40.5624 44.5652H9.43799C13.7086 47.9664 19.1165 50 25.0002 50Z" fill="#D80027"/>
<path d="M3.66943 38.0434H46.3308C47.5594 36.0388 48.5121 33.8473 49.1389 31.5217H0.861328C1.48799 33.8473 2.44082 36.0388 3.66943 38.0434Z" fill="#D80027"/>
<path d="M25 25C25 11.193 25 9.56523 25 0C11.193 0 0 11.193 0 25H25Z" fill="#0052B4"/>
<path d="M16.6244 21.3994C13.2101 21.3994 10.4423 18.6315 10.4423 15.2174C10.4423 11.8032 13.2102 9.03536 16.6244 9.03536C17.6889 9.03536 18.6906 9.3046 19.5651 9.77842C18.1932 8.43692 16.317 7.6088 14.2466 7.6088C10.0446 7.6088 6.63794 11.0153 6.63794 15.2175C6.63794 19.4196 10.0446 22.8262 14.2466 22.8262C16.317 22.8262 18.1932 21.9981 19.5651 20.6565C18.6906 21.1302 17.689 21.3994 16.6244 21.3994Z" fill="#FFDA44"/>
<path d="M18.3665 10.8695L19.4641 13.1647L21.9427 12.592L20.8327 14.881L22.8261 16.4617L20.3442 17.0212L20.3512 19.5652L18.3665 17.9736L16.3817 19.5652L16.3886 17.0212L13.9067 16.4617L15.9001 14.881L14.79 12.592L17.2688 13.1647L18.3665 10.8695Z" fill="#FFDA44"/>
</svg>
