<svg width="50" height="50" viewBox="0 0 50 50" fill="none" xmlns="http://www.w3.org/2000/svg">
<path d="M25 50C38.8071 50 50 38.8071 50 25C50 11.1929 38.8071 0 25 0C11.1929 0 0 11.1929 0 25C0 38.8071 11.1929 50 25 50Z" fill="#338AF3"/>
<path d="M11.9565 27.1739H38.0435V30.4348H11.9565V27.1739Z" fill="#818085"/>
<path d="M16.3044 17.3913L25 18.4784L33.6957 17.3913V12.1739L30.2174 13.9131L25 8.69561L19.7827 13.9131L16.3044 12.1739V17.3913Z" fill="#FFDA44"/>
<path d="M14.1306 33.6958H10.8696V27.7175L11.9566 26.0869L10.8696 24.4565V20.6522H14.1306V33.6958Z" fill="#F0F0F0"/>
<path d="M39.1306 33.6958H35.8696V20.6522H39.1306V24.4564L38.0436 26.1143L39.1306 27.7177V33.6958Z" fill="#F0F0F0"/>
<path d="M10.8696 24.4565H39.1305V27.7174H10.8696V24.4565Z" fill="#ACABB1"/>
<path d="M25 38.0435C20.2052 38.0435 16.3044 34.1426 16.3044 29.3478V17.3914H33.6958V29.3478C33.6957 34.1426 29.7949 38.0435 25 38.0435Z" fill="#F0F0F0"/>
<path d="M25 34.7826C22.0032 34.7826 19.5652 32.3445 19.5652 29.3479V20.6523H30.4347V29.3479C30.4347 32.3445 27.9967 34.7826 25 34.7826Z" fill="#0052B4"/>
<path d="M16.3044 17.3913H19.5653V20.6522H16.3044V17.3913Z" fill="#D80027"/>
<path d="M30.4348 17.3913H33.6957V20.6522H30.4348V17.3913Z" fill="#D80027"/>
<path d="M30.4348 24.4565H33.6957V27.7174H30.4348V24.4565Z" fill="#D80027"/>
<path d="M16.3044 24.4565H19.5653V27.7174H16.3044V24.4565Z" fill="#D80027"/>
<path d="M23.3696 17.3913H26.6305V20.6522H23.3696V17.3913Z" fill="#D80027"/>
<path d="M25.0001 34.7826C24.4321 34.7826 23.8846 34.6947 23.3696 34.5324V37.888C23.8981 37.9888 24.4427 38.0436 25.0001 38.0436C25.5575 38.0436 26.1021 37.9888 26.6306 37.888V34.5324C26.1156 34.6946 25.5681 34.7826 25.0001 34.7826Z" fill="#D80027"/>
<path d="M19.638 30.2301L17.0356 32.8324C17.4868 33.8597 18.1306 34.7834 18.9218 35.5578L21.2265 33.2531C20.404 32.4585 19.8311 31.4077 19.638 30.2301Z" fill="#D80027"/>
<path d="M32.9644 32.8326L30.3621 30.2303C30.1689 31.4078 29.596 32.4585 28.7737 33.2534L31.0784 35.5581C31.8694 34.7836 32.5132 33.8599 32.9644 32.8326Z" fill="#D80027"/>
</svg>
