<svg width="50" height="50" viewBox="0 0 50 50" fill="none" xmlns="http://www.w3.org/2000/svg">
<path d="M50 25C50 38.807 38.807 50 25 50C11.193 50 0 38.807 0 25C0 25.006 25 0.00273438 25 0C38.807 0 50 11.193 50 25Z" fill="#0052B4"/>
<path d="M24.9331 25H25C25 24.9775 25 24.9557 25 24.9331C24.9777 24.9555 24.9555 24.9777 24.9331 25Z" fill="#F0F0F0"/>
<path d="M25 13.0435C25 8.64453 25 5.76221 25 0H24.9958C11.1906 0.00234375 0 11.1942 0 25H13.0435V17.6552L20.3884 25H24.9332C24.9555 24.9777 24.9778 24.9555 25.0001 24.9331C25.0001 23.2488 25.0001 21.746 25.0001 20.3885L17.6551 13.0435H25Z" fill="#F0F0F0"/>
<path d="M12.6479 3.26083C8.73779 5.4873 5.48721 8.73788 3.26074 12.6479V25H9.78252V9.78281V9.78261H24.9999C24.9999 7.72568 24.9999 5.76611 24.9999 3.26083H12.6479Z" fill="#D80027"/>
<path d="M24.9999 21.9257L16.1178 13.0435C16.1178 13.0435 13.0435 13.0437 13.0435 13.0435V13.0437L24.9998 25H24.9999C24.9999 25 24.9999 22.8802 24.9999 21.9257Z" fill="#D80027"/>
<path d="M43.2937 18.5507L43.8333 20.2114H45.5795L44.1668 21.2378L44.7064 22.8984L43.2937 21.8722L41.881 22.8984L42.4206 21.2378L41.0078 20.2114H42.754L43.2937 18.5507Z" fill="#D80027"/>
<path d="M37.0518 30.5071L37.8612 32.9983H40.4805L38.3613 34.5378L39.1709 37.0289L37.0518 35.4893L34.9326 37.0289L35.7422 34.5378L33.623 32.9983H36.2423L37.0518 30.5071Z" fill="#D80027"/>
<path d="M37.2876 10.942L37.9622 13.0181H40.1449L38.3789 14.3008L39.0535 16.3768L37.2876 15.0936L35.5217 16.3768L36.1962 14.3008L34.4304 13.0181H36.613L37.2876 10.942Z" fill="#D80027"/>
<path d="M31.2812 18.4782L32.0906 20.9694H34.71L32.5908 22.5089L33.4004 25L31.2812 23.4604L29.1621 25L29.9717 22.5089L27.8525 20.9694H30.4718L31.2812 18.4782Z" fill="#D80027"/>
</svg>
