<svg width="50" height="50" viewBox="0 0 50 50" fill="none" xmlns="http://www.w3.org/2000/svg">
<path d="M25 50C38.8071 50 50 38.8071 50 25C50 11.1929 38.8071 0 25 0C11.1929 0 0 11.1929 0 25C0 38.8071 11.1929 50 25 50Z" fill="#F0F0F0"/>
<path d="M44.6375 20.1087H36.4129C36.4129 18.608 35.1963 17.3914 33.6956 17.3914L31.5216 21.7392C31.5216 21.7392 33.8405 28.2609 33.768 28.2609H36.4853C37.9862 28.2609 39.2027 27.0444 39.2027 25.5436C40.7036 25.5436 41.9201 24.327 41.9201 22.8262H41.8296C43.3303 22.8261 44.6375 21.6096 44.6375 20.1087Z" fill="#ACABB1"/>
<path d="M5.3623 20.1087H13.5869C13.5869 18.608 14.8035 17.3914 16.3043 17.3914L18.4782 21.7392C18.4782 21.7392 16.1593 28.2609 16.2319 28.2609H13.5145C12.0137 28.2609 10.7971 27.0444 10.7971 25.5436C9.29629 25.5436 8.07977 24.327 8.07977 22.8262H8.17027C6.66943 22.8261 5.3623 21.6096 5.3623 20.1087Z" fill="#ACABB1"/>
<path d="M33.6957 34.7826V35.8695H16.3043V34.7826H11.9565V39.1304H16.3043V40.2173H33.6957V39.1304H38.0435V34.7826H33.6957Z" fill="#FFDA44"/>
<path d="M16.3043 17.3912V28.2607C16.3043 34.9169 24.9999 36.9564 24.9999 36.9564C24.9999 36.9564 33.6955 34.9169 33.6955 28.2607V17.3912L24.9999 16.3043L16.3043 17.3912Z" fill="#0052B4"/>
<path d="M16.3044 21.7395H33.6957V28.2613H16.3044V21.7395Z" fill="#D80027"/>
<path d="M29.3477 11.9565V13.587L28.2608 14.1305L27.1739 13.0435V9.78259H22.8261V13.0435L21.7392 14.1305L20.6521 13.587V11.9565H16.3043V17.3913H33.6956V11.9565H29.3477Z" fill="#FFDA44"/>
</svg>
