<svg width="50" height="50" viewBox="0 0 50 50" fill="none" xmlns="http://www.w3.org/2000/svg">
<path d="M50 25C50 38.807 38.807 50 25 50C11.193 50 0 38.807 0 25C8.58691 16.4131 15.8695 9.13047 25 0C38.807 0 50 11.193 50 25Z" fill="#D80027"/>
<path d="M25 25C25 11.193 25 9.56523 25 0C11.193 0 0 11.193 0 25H25Z" fill="#0052B4"/>
<path d="M21.7391 14.631L18.6859 16.0673L20.3117 19.0242L16.9964 18.3898L16.5761 21.7392L14.267 19.2759L11.9576 21.7392L11.5376 18.3898L8.22214 19.024L9.84792 16.0671L6.7948 14.631L9.84802 13.1949L8.22214 10.2379L11.5375 10.8722L11.9577 7.52295L14.267 9.98623L16.5762 7.52295L16.9964 10.8722L20.3118 10.2379L18.6859 13.195L21.7391 14.631Z" fill="#F0F0F0"/>
<path d="M14.2674 19.284C16.8375 19.284 18.921 17.2005 18.921 14.6304C18.921 12.0603 16.8375 9.97681 14.2674 9.97681C11.6973 9.97681 9.61377 12.0603 9.61377 14.6304C9.61377 17.2005 11.6973 19.284 14.2674 19.284Z" fill="#0052B4"/>
<path d="M14.2669 17.1106C12.8997 17.1106 11.7874 15.9982 11.7874 14.6309C11.7874 13.2636 12.8998 12.1512 14.2669 12.1512C15.6342 12.1512 16.7466 13.2636 16.7466 14.6309C16.7465 15.9982 15.634 17.1106 14.2669 17.1106Z" fill="#F0F0F0"/>
</svg>
