<svg width="50" height="50" viewBox="0 0 50 50" fill="none" xmlns="http://www.w3.org/2000/svg">
<path d="M25 50C38.8071 50 50 38.8071 50 25C50 11.1929 38.8071 0 25 0C11.1929 0 0 11.1929 0 25C0 38.8071 11.1929 50 25 50Z" fill="#FFDA44"/>
<path d="M7.32224 42.6777C8.37097 43.7264 9.48992 44.6617 10.6636 45.4851L45.4849 10.6637C44.6617 9.49001 43.7263 8.37107 42.6776 7.32234C41.6288 6.27361 40.5099 5.33845 39.3362 4.51501L4.51501 39.3364C5.33826 40.5098 6.27361 41.6289 7.32224 42.6777Z" fill="black"/>
<path d="M7.32228 7.32228C-0.564638 15.2094 -2.0788 27.0542 2.77696 36.4627L36.4627 2.77706C27.0542 -2.0787 15.2093 -0.56444 7.32228 7.32228Z" fill="#6DA544"/>
<path d="M42.6777 42.6778C50.5646 34.7909 52.0787 22.9458 47.2231 13.5374L13.5374 47.2231C22.9457 52.0789 34.7907 50.5647 42.6777 42.6778Z" fill="#338AF3"/>
</svg>
