<svg width="50" height="50" viewBox="0 0 50 50" fill="none" xmlns="http://www.w3.org/2000/svg">
<path d="M25 50C38.8071 50 50 38.8071 50 25C50 11.1929 38.8071 0 25 0C11.1929 0 0 11.1929 0 25C0 38.8071 11.1929 50 25 50Z" fill="#F0F0F0"/>
<path d="M10.9094 4.34785C14.9216 1.60508 19.773 0 25 0C30.2269 0 35.0783 1.60508 39.0905 4.34785L25 5.43477L10.9094 4.34785Z" fill="#FFDA44"/>
<path d="M7.32363 42.6764L18.8512 31.1491L25 20.6522L31.1481 31.1484L42.6764 42.6764C47.2008 38.1526 50 31.9037 50 25C50 16.4199 45.6769 8.85015 39.0905 4.3479H10.9095C4.32314 8.85015 0 16.4199 0 25C0 31.9037 2.79922 38.1526 7.32363 42.6764Z" fill="#D80027"/>
<path d="M48.1008 34.5724L29.8225 26.9984L31.1473 31.1472L42.6764 42.6763C44.9784 40.3747 46.8336 37.6264 48.1008 34.5724Z" fill="#0052B4"/>
<path d="M50 25.0001C50 21.609 49.3241 18.3761 48.1008 15.4277L25 25.0001H50Z" fill="#0052B4"/>
<path d="M42.6764 7.32368C41.5775 6.22505 40.3774 5.22769 39.0905 4.3479H33.5578L25 25L42.6764 7.32368Z" fill="#0052B4"/>
<path d="M25.0001 4.3479H16.4424L25.0001 25V4.3479Z" fill="#0052B4"/>
<path d="M7.32373 7.32373C5.02178 9.62549 3.1666 12.3736 1.89941 15.4276L25.0001 25.0001L7.32373 7.32373Z" fill="#0052B4"/>
<path d="M0 25C0 28.3911 0.675879 31.624 1.89922 34.5724L25 25H0Z" fill="#0052B4"/>
<path d="M10.9094 45.6522C14.9215 48.395 19.773 50.0001 25 50.0001C30.2269 50.0001 35.0783 48.395 39.0905 45.6522H10.9094Z" fill="#FFDA44"/>
<path d="M25 25L31.1488 31.1488C32.7225 29.5751 33.6958 27.4013 33.6958 25C33.6958 20.1975 29.8026 16.3044 25.0001 16.3044C20.1977 16.3044 16.3044 20.1975 16.3044 25C16.3044 27.4012 17.2777 29.5751 18.8514 31.1488L25 25Z" fill="#FFDA44"/>
<path d="M28.8043 37.5001C28.8043 39.6011 27.1009 40.2175 25 40.2175C22.899 40.2175 21.1956 39.6011 21.1956 37.5001C21.1956 35.399 22.899 33.6957 25 33.6957C27.1009 33.6957 28.8043 35.399 28.8043 37.5001Z" fill="#FFDA44"/>
<path d="M28.8043 37.5C28.8043 39.6011 27.1009 41.3044 25 41.3044C22.899 41.3044 21.1956 39.6011 21.1956 37.5" fill="#0052B4"/>
</svg>
