<svg width="50" height="50" viewBox="0 0 50 50" fill="none" xmlns="http://www.w3.org/2000/svg">
<path d="M50 25C50 23.8948 49.9274 22.8065 49.7883 21.7391H21.7389C16.6314 16.6319 7.32191 7.32305 7.3223 7.32227C-2.44077 17.0853 -2.44077 32.9144 7.3223 42.6777L21.7392 28.2609H49.7883C49.9273 27.1934 50 26.1051 50 25Z" fill="black"/>
<path d="M49.9928 25.5686C49.9917 25.6168 49.9906 25.6653 49.9893 25.7135C49.9904 25.6651 49.9916 25.6168 49.9928 25.5686Z" fill="#F0F0F0"/>
<path d="M49.9688 26.2517C49.9666 26.2995 49.9632 26.347 49.9607 26.3947C49.9632 26.3471 49.9664 26.2995 49.9688 26.2517Z" fill="#F0F0F0"/>
<path d="M49.935 26.7966C49.93 26.8668 49.9251 26.9371 49.9194 27.0071C49.9251 26.9371 49.9299 26.8668 49.935 26.7966Z" fill="#F0F0F0"/>
<path d="M49.8516 22.2751C49.8607 22.3587 49.8699 22.4422 49.8782 22.526C49.8699 22.4421 49.8606 22.3587 49.8516 22.2751Z" fill="#F0F0F0"/>
<path d="M49.9604 23.6052C49.9631 23.6529 49.9663 23.7004 49.9686 23.7482C49.9662 23.7004 49.9631 23.6528 49.9604 23.6052Z" fill="#F0F0F0"/>
<path d="M49.9893 24.2866C49.9906 24.3349 49.9916 24.3833 49.9928 24.4315C49.9917 24.3831 49.9905 24.3349 49.9893 24.2866Z" fill="#F0F0F0"/>
<path d="M49.9194 22.9927C49.9251 23.0627 49.93 23.1329 49.935 23.2031C49.9299 23.1329 49.9251 23.0627 49.9194 22.9927Z" fill="#F0F0F0"/>
<path d="M49.7882 21.739C49.7995 21.8247 49.8094 21.9108 49.8197 21.9966C48.3359 9.60584 37.7904 0 24.9999 0C18.0962 0 11.8461 2.79833 7.32202 7.32264L21.7384 21.7391H49.7882V21.739Z" fill="#D80027"/>
<path d="M49.7882 28.2608H21.7384L7.32202 42.6773C11.8461 47.2015 18.0962 49.9999 24.9999 49.9999C37.7904 49.9999 48.336 40.3941 49.8197 28.0032C49.8094 28.089 49.7993 28.1751 49.7882 28.2608Z" fill="#6DA544"/>
<path d="M49.8782 27.4739C49.8699 27.5577 49.8607 27.6412 49.8516 27.7248C49.8607 27.6412 49.87 27.5578 49.8782 27.4739Z" fill="#F0F0F0"/>
<path d="M49.9351 23.2034C49.9445 23.3371 49.9531 23.471 49.9605 23.6053C49.953 23.471 49.9445 23.3371 49.9351 23.2034Z" fill="black"/>
<path d="M49.8198 21.9968C49.8311 22.0895 49.8417 22.1824 49.8517 22.2753C49.8415 22.1824 49.8309 22.0896 49.8198 21.9968Z" fill="black"/>
<path d="M49.8782 22.5261C49.8934 22.6813 49.9072 22.8369 49.9196 22.993C49.9073 22.8369 49.8935 22.6812 49.8782 22.5261Z" fill="black"/>
<path d="M49.9998 25C49.9998 25.1901 49.9969 25.3795 49.9927 25.5685C49.9969 25.3794 49.9998 25.19 49.9998 25Z" fill="black"/>
<path d="M49.9604 26.3948C49.953 26.5291 49.9444 26.663 49.9351 26.7967C49.9444 26.663 49.9529 26.5291 49.9604 26.3948Z" fill="black"/>
<path d="M49.9196 27.0071C49.9072 27.163 49.8934 27.3187 49.8782 27.4738C49.8935 27.3187 49.9073 27.163 49.9196 27.0071Z" fill="black"/>
<path d="M49.8517 27.7249C49.8417 27.8178 49.8311 27.9106 49.8198 28.0034C49.8309 27.9107 49.8415 27.8178 49.8517 27.7249Z" fill="black"/>
<path d="M49.9927 24.4314C49.9969 24.6205 49.9998 24.8099 49.9998 24.9999C49.9998 24.8099 49.9969 24.6205 49.9927 24.4314Z" fill="black"/>
<path d="M49.9688 23.7483C49.9775 23.9272 49.9842 24.1068 49.9893 24.2867C49.9842 24.1067 49.9776 23.9272 49.9688 23.7483Z" fill="black"/>
<path d="M49.9893 25.7136C49.9842 25.8935 49.9775 26.0731 49.9688 26.252C49.9777 26.073 49.9843 25.8935 49.9893 25.7136Z" fill="black"/>
<path d="M49.976 23.9042H20.8203L5.84409 8.93018C5.36001 9.44072 4.8353 10.1536 4.51079 10.6613L18.8329 24.991L4.49878 39.3254C4.78257 39.8303 5.40083 40.5776 5.83491 41.0638L20.8206 26.0781H49.9795C49.9951 25.7175 50 25.3554 50 24.9912C49.9999 24.5031 49.9864 24.1432 49.976 23.9042Z" fill="#FFDA44"/>
<path d="M6.07289 30.3295V28.2355C8.16254 28.2355 9.86244 26.5354 9.86244 24.4459C9.86244 22.9675 8.65961 21.7648 7.18129 21.7648C6.17416 21.7648 5.35473 22.5841 5.35473 23.5914C5.35473 24.2355 5.87866 24.7595 6.5228 24.7595C6.88686 24.7595 7.18305 24.4631 7.18305 24.0991H9.27699C9.27699 25.6179 8.04145 26.8535 6.52289 26.8535C4.72417 26.8536 3.26099 25.3901 3.26099 23.5916C3.26099 21.4298 5.01977 19.6711 7.18139 19.6711C9.81439 19.6711 11.9566 21.8133 11.9566 24.4462C11.9565 27.6901 9.31713 30.3295 6.07289 30.3295Z" fill="#FFDA44"/>
</svg>
