<svg width="50" height="50" viewBox="0 0 50 50" fill="none" xmlns="http://www.w3.org/2000/svg">
<path d="M50 25C50 21.942 49.45 19.0126 48.445 16.3044L25 15.2174L1.55498 16.3043C0.550098 19.0126 0 21.942 0 25C0 28.058 0.550098 30.9874 1.55498 33.6956L25 34.7826L48.445 33.6957C49.45 30.9874 50 28.058 50 25Z" fill="#0052B4"/>
<path d="M25 50C35.7491 50 44.9127 43.2156 48.445 33.6956H1.55499C5.08732 43.2156 14.2509 50 25 50Z" fill="#FF9811"/>
<path d="M1.55499 16.3044H48.4451C44.9127 6.78437 35.7491 0 25 0C14.2509 0 5.08732 6.78437 1.55499 16.3044Z" fill="#D80027"/>
</svg>
