<svg width="50" height="50" viewBox="0 0 50 50" fill="none" xmlns="http://www.w3.org/2000/svg">
<path d="M50 25C50 21.942 49.45 19.0126 48.445 16.3044L25 15.2174L1.55498 16.3043C0.550098 19.0126 0 21.942 0 25C0 28.058 0.550098 30.9874 1.55498 33.6956L25 34.7826L48.445 33.6957C49.45 30.9874 50 28.058 50 25Z" fill="#D80027"/>
<path d="M25 50C35.7491 50 44.9127 43.2156 48.445 33.6956H1.55499C5.08732 43.2156 14.2509 50 25 50Z" fill="#6DA544"/>
<path d="M1.55499 16.3044H48.4451C44.9127 6.78437 35.7491 0 25 0C14.2509 0 5.08732 6.78437 1.55499 16.3044Z" fill="#338AF3"/>
<path d="M25.5435 32.0652C21.6415 32.0652 18.4782 28.902 18.4782 25C18.4782 21.098 21.6415 17.9348 25.5435 17.9348C26.7601 17.9348 27.9049 18.2424 28.9043 18.784C27.3364 17.2507 25.1922 16.3043 22.8261 16.3043C18.0236 16.3043 14.1305 20.1975 14.1305 24.9999C14.1305 29.8023 18.0237 33.6955 22.8261 33.6955C25.1923 33.6955 27.3365 32.7491 28.9043 31.2158C27.9049 31.7576 26.7601 32.0652 25.5435 32.0652Z" fill="#F0F0F0"/>
<path d="M30.9782 20.1087L31.9141 22.7406L34.4369 21.5412L33.2376 24.0641L35.8695 25L33.2376 25.9359L34.4369 28.4588L31.9141 27.2594L30.9782 29.8913L30.0425 27.2594L27.5195 28.4588L28.7189 25.9359L26.0869 25L28.7189 24.0641L27.5195 21.5412L30.0425 22.7406L30.9782 20.1087Z" fill="#F0F0F0"/>
</svg>
