<svg width="50" height="50" viewBox="0 0 50 50" fill="none" xmlns="http://www.w3.org/2000/svg">
<path d="M25 50C38.8071 50 50 38.8071 50 25C50 11.1929 38.8071 0 25 0C11.1929 0 0 11.1929 0 25C0 38.8071 11.1929 50 25 50Z" fill="#FFDA44"/>
<path d="M15.2174 16.3044H48.4449C44.9127 6.78437 35.749 0 25 0C18.0963 0 11.8469 2.79873 7.32312 7.32314L15.2174 16.3044Z" fill="#338AF3"/>
<path d="M15.2174 33.6956H48.4449C44.9127 43.2156 35.749 50 25 50C18.0963 50 11.8469 47.2013 7.32312 42.6769L15.2174 33.6956Z" fill="#338AF3"/>
<path d="M7.32225 7.32227C-2.44083 17.0854 -2.44083 32.9145 7.32225 42.6777C11.3567 38.6433 15.2369 34.7631 25 25L7.32225 7.32227Z" fill="black"/>
</svg>
