<svg width="50" height="50" viewBox="0 0 50 50" fill="none" xmlns="http://www.w3.org/2000/svg">
<path d="M25 50C38.8071 50 50 38.8071 50 25C50 11.1929 38.8071 0 25 0C11.1929 0 0 11.1929 0 25C0 38.8071 11.1929 50 25 50Z" fill="#F0F0F0"/>
<path d="M0.211716 28.2608C0.793356 32.725 2.55332 36.8183 5.16826 40.2202L18.4782 28.2608H0.211716Z" fill="#D80027"/>
<path d="M21.7392 49.7884V31.5218L9.77979 44.8318C13.1818 47.4468 17.275 49.2069 21.7392 49.7884Z" fill="#D80027"/>
<path d="M21.7392 0.211624C17.275 0.793265 13.1818 2.55323 9.77979 5.16817L21.7392 18.4783V0.211624Z" fill="#D80027"/>
<path d="M0.211716 21.7392H18.4782L5.16816 9.77979C2.55322 13.1817 0.793259 17.275 0.211716 21.7392Z" fill="#D80027"/>
<path d="M28.2608 0.211624V18.4782L40.2204 5.16817C36.8184 2.55342 32.7251 0.793167 28.2608 0.211624Z" fill="#D80027"/>
<path d="M49.7884 21.7392C49.2067 17.275 47.4468 13.1817 44.8318 9.77969L31.5218 21.7392H49.7884Z" fill="#D80027"/>
<path d="M31.5218 28.2608L44.8319 40.2203C47.4468 36.8183 49.2068 32.725 49.7885 28.2608H31.5218Z" fill="#D80027"/>
<path d="M28.2608 49.7884C32.725 49.2068 36.8184 47.4468 40.2203 44.8318L28.2608 31.5218V49.7884Z" fill="#D80027"/>
<path d="M44.8338 40.2223L29.6117 25.0001L29.6116 25L44.8338 9.77774C44.1773 8.92461 43.4592 8.10391 42.6777 7.32227C41.8963 6.54082 41.0755 5.82256 40.2223 5.16621L25.0001 20.3884H25L9.77783 5.16621C8.92471 5.82266 8.10391 6.54073 7.32227 7.32227C6.54082 8.10391 5.82256 8.92461 5.16621 9.77783L20.3884 24.9999L20.3885 25L5.16631 40.2223C5.82276 41.0753 6.54092 41.8961 7.32237 42.6777C8.10391 43.4592 8.92471 44.1774 9.77793 44.8338L25 29.6116L40.2223 44.8338C41.0753 44.1773 41.8961 43.4592 42.6777 42.6777C43.4593 41.8961 44.1773 41.0753 44.8338 40.2223Z" fill="#496E2D"/>
<path d="M28.2608 49.7884V28.2611V28.2609H49.7884C49.9275 27.1935 50 26.1052 50 25C50 23.8949 49.9274 22.8066 49.7884 21.7393H28.261L28.2609 21.7392V0.211719C27.1936 0.0727539 26.1054 0 25 0C23.8948 9.76563e-05 22.8065 0.0727539 21.7392 0.211719L21.7393 21.739V21.7392H0.211719C0.0726562 22.8065 0 23.8948 0 25C9.76563e-05 26.1054 0.0726562 27.1935 0.211719 28.2608H21.7391L21.7392 49.7884C22.8066 49.9273 23.8946 50 25 50C26.1054 50 27.1936 49.9273 28.2608 49.7884Z" fill="#F0F0F0"/>
</svg>
