<svg width="50" height="50" viewBox="0 0 50 50" fill="none" xmlns="http://www.w3.org/2000/svg">
<path d="M25 50C38.8071 50 50 38.8071 50 25C50 11.1929 38.8071 0 25 0C11.1929 0 0 11.1929 0 25C0 38.8071 11.1929 50 25 50Z" fill="#F0F0F0"/>
<path d="M45.833 27.9919C43.7497 27.9919 43.7497 26.087 41.6663 26.087C39.583 26.087 39.583 27.9919 37.4998 27.9919C35.4166 27.9919 35.4165 26.087 33.3333 26.087C31.25 26.087 31.25 27.9919 29.1666 27.9919C27.0832 27.9919 27.0831 26.087 24.9996 26.087C22.9163 26.087 22.9163 27.9919 20.8331 27.9919C18.7501 27.9919 18.7501 26.087 16.6668 26.087C14.5833 26.087 14.5833 27.9919 12.4998 27.9919C10.4163 27.9919 10.4163 26.087 8.33283 26.087C6.24982 26.087 6.24982 27.9919 4.16652 27.9919C2.09445 27.9919 2.08243 26.108 0.0325317 26.0879C0.0902466 27.2313 0.22677 28.3541 0.433215 29.452C2.09376 29.6959 2.23917 31.3251 4.16671 31.3251C6.25001 31.3251 6.25001 29.4204 8.33302 29.4204C10.4165 29.4204 10.4165 31.3251 12.5 31.3251C14.5835 31.3251 14.5835 29.4204 16.667 29.4204C18.7503 29.4204 18.7503 31.3251 20.8333 31.3251C22.9166 31.3251 22.9166 29.4204 24.9998 29.4204C27.0833 29.4204 27.0833 31.3251 29.1668 31.3251C31.2503 31.3251 31.2503 29.4204 33.3335 29.4204C35.4168 29.4204 35.4168 31.3251 37.5 31.3251C39.5833 31.3251 39.5833 29.4204 41.6665 29.4204C43.75 29.4204 43.75 31.3251 45.8332 31.3251C47.7609 31.3251 47.9063 29.696 49.5669 29.452C49.7735 28.354 49.9098 27.2314 49.9678 26.0879C47.9174 26.1081 47.9052 27.9919 45.833 27.9919Z" fill="#0052B4"/>
<path d="M41.6663 32.6087C39.583 32.6087 39.583 34.5136 37.4998 34.5136C35.4166 34.5136 35.4165 32.6087 33.3333 32.6087C31.25 32.6087 31.25 34.5136 29.1666 34.5136C27.0831 34.5136 27.0831 32.6087 24.9996 32.6087C22.9163 32.6087 22.9163 34.5136 20.8331 34.5136C18.7501 34.5136 18.7501 32.6087 16.6668 32.6087C14.5833 32.6087 14.5833 34.5136 12.4998 34.5136C10.4163 34.5136 10.4163 32.6087 8.33282 32.6087C6.24982 32.6087 6.24982 34.5136 4.16652 34.5136C2.63185 34.5136 2.22667 33.4806 1.28693 32.9364C1.85607 34.6375 2.60363 36.2566 3.50646 37.7726C3.70197 37.8197 3.91935 37.8469 4.16642 37.8469C6.24972 37.8469 6.24972 35.9422 8.33273 35.9422C10.4162 35.9422 10.4162 37.8469 12.4997 37.8469C14.5832 37.8469 14.5832 35.9422 16.6667 35.9422C18.75 35.9422 18.75 37.8469 20.833 37.8469C22.9163 37.8469 22.9163 35.9422 24.9995 35.9422C27.083 35.9422 27.083 37.8469 29.1665 37.8469C31.25 37.8469 31.25 35.9422 33.3332 35.9422C35.4165 35.9422 35.4165 37.8469 37.4997 37.8469C39.5829 37.8469 39.583 35.9422 41.6662 35.9422C43.7497 35.9422 43.7497 37.8469 45.8329 37.8469C46.0802 37.8469 46.2978 37.8197 46.4934 37.7725C47.3963 36.2566 48.1438 34.6375 48.7128 32.9365C47.7731 33.4807 47.3678 34.5137 45.8329 34.5137C43.7498 34.5136 43.7498 32.6087 41.6663 32.6087Z" fill="#0052B4"/>
<path d="M49.4184 19.6232C47.8955 19.9393 47.7014 21.4701 45.833 21.4701C43.7497 21.4701 43.7497 19.5652 41.6663 19.5652C39.583 19.5652 39.583 21.4701 37.4998 21.4701C35.4166 21.4701 35.4165 19.5652 33.3333 19.5652C31.25 19.5652 31.25 21.4701 29.1666 21.4701C27.0832 21.4701 27.0831 19.5652 24.9996 19.5652C23.8739 19.5652 23.3564 20.1213 22.7899 20.6326V23.9659C23.3564 23.4547 23.8738 22.8987 24.9996 22.8987C27.0831 22.8987 27.0831 24.8034 29.1666 24.8034C31.2501 24.8034 31.2501 22.8987 33.3333 22.8987C35.4166 22.8987 35.4166 24.8034 37.4998 24.8034C39.583 24.8034 39.5831 22.8987 41.6663 22.8987C43.7498 22.8987 43.7498 24.8034 45.833 24.8034C47.7607 24.8034 47.9061 23.1743 49.5667 22.9304C49.6732 22.9304 49.7921 22.9293 49.9139 22.9278C49.8216 21.8035 49.6546 20.7004 49.4184 19.6232Z" fill="#0052B4"/>
<path d="M47.5922 14.2846C47.1605 14.6472 46.6615 14.9483 45.8331 14.9483C43.7498 14.9483 43.7498 13.0435 41.6664 13.0435C39.5831 13.0435 39.5831 14.9483 37.4999 14.9483C35.4167 14.9483 35.4166 13.0435 33.3334 13.0435C31.2501 13.0435 31.2501 14.9483 29.1667 14.9483C27.0833 14.9483 27.0832 13.0435 24.9997 13.0435C23.8741 13.0435 23.3565 13.5995 22.79 14.1108V17.4441C23.3565 16.9329 23.874 16.377 24.9997 16.377C27.0832 16.377 27.0832 18.2816 29.1667 18.2816C31.25 18.2816 31.25 16.377 33.3333 16.377C35.4166 16.377 35.4166 18.2816 37.4998 18.2816C39.583 18.2816 39.583 16.377 41.6663 16.377C43.7498 16.377 43.7498 18.2816 45.833 18.2816C47.3113 18.2816 47.7418 17.3241 48.611 16.7673C48.3148 15.918 47.9746 15.0894 47.5922 14.2846Z" fill="#0052B4"/>
<path d="M41.8442 6.52687C41.7864 6.52374 41.7275 6.52179 41.6663 6.52179C39.583 6.52179 39.583 8.42667 37.4998 8.42667C35.4165 8.42667 35.4165 6.52179 33.3333 6.52179C31.25 6.52179 31.25 8.42667 29.1665 8.42667C27.083 8.42667 27.083 6.52179 24.9995 6.52179C23.8738 6.52179 23.3562 7.07784 22.7897 7.58917V10.9225C23.3562 10.4112 23.8737 9.85529 24.9995 9.85529C27.083 9.85529 27.083 11.76 29.1665 11.76C31.25 11.76 31.25 9.85529 33.3332 9.85529C35.4165 9.85529 35.4165 11.76 37.4997 11.76C39.5829 11.76 39.583 9.85529 41.6662 9.85529C43.7497 9.85529 43.7497 11.76 45.8329 11.76C45.9612 11.76 46.081 11.7524 46.1945 11.7388C44.9845 9.8087 43.5192 8.05509 41.8442 6.52687Z" fill="#0052B4"/>
<path d="M31.3898 0.825574C30.818 1.34003 30.3012 1.90507 29.1665 1.90507C27.083 1.90507 27.083 0.000378418 24.9996 0.000183105H24.9992C23.9219 0.000280762 23.4018 0.509753 22.8623 1.00184V4.33524C23.4017 3.84315 23.922 3.33358 24.9996 3.33358C27.0831 3.33358 27.0831 5.23827 29.1666 5.23827C31.25 5.23827 31.25 3.33358 33.3333 3.33358C35.4166 3.33358 35.4166 5.23827 37.4998 5.23827C38.3739 5.23827 38.881 4.90272 39.3294 4.51346C36.9528 2.84794 34.2733 1.58563 31.3898 0.825574Z" fill="#0052B4"/>
<path d="M29.1665 47.557C27.083 47.557 27.083 45.6521 24.9995 45.6521C22.9162 45.6521 22.9162 47.557 20.833 47.557C18.75 47.557 18.75 45.6521 16.6667 45.6521C15.0709 45.6521 14.6966 46.7687 13.6732 47.292C16.4954 48.7289 19.627 49.6448 22.9414 49.915C23.454 49.4467 23.9747 48.9855 24.9995 48.9855C26.0246 48.9855 26.5453 49.4467 27.058 49.9151C30.3726 49.645 33.5043 48.729 36.3267 47.2921C35.303 46.7689 34.9288 45.652 33.3332 45.652C31.25 45.6521 31.25 47.557 29.1665 47.557Z" fill="#0052B4"/>
<path d="M37.4998 41.0353C35.4165 41.0353 35.4165 39.1305 33.3333 39.1305C31.25 39.1305 31.25 41.0353 29.1666 41.0353C27.0831 41.0353 27.0831 39.1305 24.9996 39.1305C22.9163 39.1305 22.9163 41.0353 20.8331 41.0353C18.7501 41.0353 18.7501 39.1305 16.6668 39.1305C14.5833 39.1305 14.5833 41.0353 12.4998 41.0353C10.4163 41.0353 10.4163 39.1305 8.33285 39.1305C6.8347 39.1305 6.414 40.1158 5.52094 40.669C6.0807 41.3642 6.67582 42.0296 7.3056 42.6604C7.58773 42.5399 7.91879 42.4639 8.33275 42.4639C10.4162 42.4639 10.4162 44.3685 12.4997 44.3685C14.5832 44.3685 14.5832 42.4639 16.6667 42.4639C18.75 42.4639 18.75 44.3685 20.833 44.3685C22.9163 44.3685 22.9163 42.4639 24.9995 42.4639C27.083 42.4639 27.083 44.3685 29.1665 44.3685C31.25 44.3685 31.25 42.4639 33.3332 42.4639C35.4164 42.4639 35.4165 44.3685 37.4997 44.3685C39.5829 44.3685 39.583 42.4639 41.6662 42.4639C42.0807 42.4639 42.4118 42.5399 42.6941 42.6606C43.324 42.0297 43.9191 41.3643 44.4788 40.6691C43.5857 40.116 43.165 39.1306 41.6663 39.1306C39.583 39.1305 39.583 41.0353 37.4998 41.0353Z" fill="#0052B4"/>
<path d="M24.9331 25H25C25 24.9775 25 24.9557 25 24.9331C24.9777 24.9555 24.9555 24.9777 24.9331 25Z" fill="#F0F0F0"/>
<path d="M25 13.0435V20.3885L16.3044 11.9565L25 13.0435Z" fill="#0052B4"/>
<path d="M13.0436 25H20.3883L13.0435 15.2174L11.9565 22.8261L13.0436 25Z" fill="#0052B4"/>
<path d="M25 13.0435C25 8.64453 25 5.76221 25 0H24.9958C11.1906 0.00234375 0 11.1942 0 25H13.0436V17.6552L20.3883 25H24.9332C24.9555 24.9777 24.9777 24.9555 25.0001 24.9331C25.0001 23.2488 25.0001 21.746 25.0001 20.3885L17.6551 13.0435H25Z" fill="#F0F0F0"/>
<path d="M12.648 3.26083C8.73792 5.4873 5.48733 8.73788 3.26086 12.6479V25H9.78264V9.78281V9.78261H25C25 7.72568 25 5.76611 25 3.26083H12.648Z" fill="#D80027"/>
<path d="M25 21.9257L16.1177 13.0435H13.0435V13.0437L24.9998 25H25C25 25 25 22.8802 25 21.9257Z" fill="#D80027"/>
<path d="M32.6087 13.0435H42.3913L37.5 17.9348L32.6087 13.0435Z" fill="#6DA544"/>
<path d="M36.4131 16.8478H38.587V22.8261H36.4131V16.8478Z" fill="#A2001D"/>
<path d="M36.4131 32.6087H38.587V38.5869H36.4131V32.6087Z" fill="#A2001D"/>
<path d="M44.0218 29.3479C44.0218 27.547 42.5618 26.087 40.761 26.087C39.9256 26.087 39.1641 26.4015 38.587 26.918V25H39.6739V22.8261H38.587V21.7392H36.4131V22.8261H35.3262V25H36.4131V26.918C35.836 26.4015 35.0745 26.087 34.2392 26.087C32.4383 26.087 30.9783 27.547 30.9783 29.3479C30.9783 30.3134 31.3984 31.1806 32.0652 31.7777V33.6957H42.9348V31.7777C43.6018 31.1806 44.0218 30.3134 44.0218 29.3479Z" fill="#FFDA44"/>
<path d="M40.7608 28.2608C40.4179 28.2608 40.1779 28.4114 40.0368 28.5376L38.5869 29.8355H36.4131L34.9632 28.5376C34.822 28.4114 34.582 28.2608 34.2391 28.2608C33.6398 28.2608 33.1522 28.7484 33.1522 29.3477C33.1522 29.7699 33.3799 30.0366 33.5155 30.1582L34.2392 30.8062V31.5217H40.761V30.8062L41.4847 30.1582C41.6204 30.0367 41.848 29.7699 41.848 29.3477C41.8478 28.7484 41.3602 28.2608 40.7608 28.2608Z" fill="#D80027"/>
</svg>
