<svg width="50" height="50" viewBox="0 0 50 50" fill="none" xmlns="http://www.w3.org/2000/svg">
<path d="M25 50C38.8071 50 50 38.8071 50 25C50 11.1929 38.8071 0 25 0C11.1929 0 0 11.1929 0 25C0 38.8071 11.1929 50 25 50Z" fill="#F0F0F0"/>
<path d="M25 0C18.0964 0 11.8464 2.79824 7.32227 7.32227L25 25V0Z" fill="black"/>
<path d="M0 25C0 31.9036 2.79824 38.1536 7.32227 42.6777L25 25H0Z" fill="black"/>
<path d="M25 50C31.9036 50 38.1536 47.2018 42.6777 42.6777L25 25V50Z" fill="black"/>
<path d="M50 25C50 18.0964 47.2018 11.8464 42.6777 7.32227L25 25H50Z" fill="black"/>
<path d="M16.3044 17.3913L25 18.4785L33.6957 17.3913V12.1739L30.2174 13.9131L25 8.69562L19.7827 13.9131L16.3044 12.1739V17.3913Z" fill="#FFDA44"/>
<path d="M25 38.0434C20.2052 38.0434 16.3044 34.1426 16.3044 29.3478V20.6526L19.5653 17.3915H30.4348L33.6957 20.6526V29.3478C33.6957 34.1426 29.7949 38.0434 25 38.0434Z" fill="#D80027"/>
<path d="M25 34.7826C22.0032 34.7826 19.5652 32.3445 19.5652 29.3479V20.6523H30.4347V29.3478C30.4347 32.3445 27.9967 34.7826 25 34.7826Z" fill="#F0F0F0"/>
<path d="M16.3044 17.3913H19.5653V20.6521H16.3044V17.3913Z" fill="#FFDA44"/>
<path d="M30.4348 17.3913H33.6957V20.6521H30.4348V17.3913Z" fill="#FFDA44"/>
<path d="M30.4348 24.4565H33.6957V27.7174H30.4348V24.4565Z" fill="#FFDA44"/>
<path d="M16.3044 24.4565H19.5653V27.7174H16.3044V24.4565Z" fill="#FFDA44"/>
<path d="M25.0001 34.7826C24.4321 34.7826 23.8846 34.6947 23.3696 34.5324V37.888C23.8981 37.9888 24.4427 38.0435 25.0001 38.0435C25.5575 38.0435 26.1021 37.9888 26.6306 37.888V34.5324C26.1156 34.6946 25.5681 34.7826 25.0001 34.7826Z" fill="#FFDA44"/>
<path d="M19.638 30.23L17.0356 32.8324C17.4868 33.8596 18.1306 34.7834 18.9218 35.5578L21.2265 33.2531C20.404 32.4585 19.8311 31.4077 19.638 30.23Z" fill="#FFDA44"/>
<path d="M32.9645 32.8326L30.3622 30.2303C30.169 31.4078 29.5962 32.4585 28.7738 33.2534L31.0785 35.5581C31.8695 34.7836 32.5134 33.8599 32.9645 32.8326Z" fill="#FFDA44"/>
<path d="M23.9131 22.4639V24.2754C23.9131 24.8756 24.3997 25.3623 25 25.3623C25.6003 25.3623 26.0869 24.8756 26.0869 24.2754V22.4639H23.9131Z" fill="#0052B4"/>
<path d="M23.9131 29.7103V31.5218C23.9131 32.122 24.3997 32.6087 25 32.6087C25.6003 32.6087 26.0869 32.122 26.0869 31.5218V29.7103H23.9131Z" fill="#0052B4"/>
<path d="M27.1738 26.0869V27.8986C27.1738 28.4988 27.6604 28.9855 28.2607 28.9855C28.861 28.9855 29.3477 28.4988 29.3477 27.8986V26.0869H27.1738Z" fill="#0052B4"/>
<path d="M23.9131 26.0869V27.8986C23.9131 28.4988 24.3997 28.9855 25 28.9855C25.6003 28.9855 26.0869 28.4988 26.0869 27.8986V26.0869H23.9131Z" fill="#0052B4"/>
<path d="M20.6521 26.0869V27.8986C20.6521 28.4988 21.1387 28.9855 21.739 28.9855C22.3393 28.9855 22.8259 28.4988 22.8259 27.8986V26.0869H20.6521Z" fill="#0052B4"/>
</svg>
