<svg width="50" height="50" viewBox="0 0 50 50" fill="none" xmlns="http://www.w3.org/2000/svg">
<path d="M47.224 13.5367C46.0689 11.2985 44.5547 9.19774 42.6785 7.32157C40.8023 5.4453 38.7014 3.93114 36.4633 2.77606L18.8511 18.8509L2.77618 36.4631C3.93136 38.7013 5.44552 40.8021 7.32169 42.6783C9.19786 44.5545 11.2987 46.0686 13.5368 47.2238L31.149 31.1489L47.224 13.5367Z" fill="#FFDA44"/>
<path d="M7.32167 42.6784C8.3704 43.7272 9.48945 44.6625 10.6632 45.4861L45.4858 10.6632C44.6625 9.48948 43.7271 8.37043 42.6784 7.3217C41.6296 6.27297 40.5106 5.33772 39.3369 4.51428L4.51425 39.3369C5.33759 40.5105 6.27285 41.6297 7.32167 42.6784Z" fill="#D80027"/>
<path d="M7.32157 7.32154C-0.565834 15.2089 -2.07999 27.0544 2.77606 36.4631L36.4632 2.77613C27.0544 -2.07983 15.2089 -0.565474 7.32157 7.32154Z" fill="#338AF3"/>
<path d="M42.6784 42.6784C50.5657 34.7911 52.0798 22.9456 47.224 13.5369L13.5369 47.2239C22.9456 52.0799 34.7912 50.5658 42.6784 42.6784Z" fill="#338AF3"/>
<path d="M13.3228 7.60791L14.6719 11.76H19.0375L15.5057 14.326L16.8547 18.4779L13.3228 15.9118L9.79081 18.4779L11.14 14.326L7.608 11.76H11.9736L13.3228 7.60791Z" fill="#FFDA44"/>
</svg>
