<svg width="50" height="50" viewBox="0 0 50 50" fill="none" xmlns="http://www.w3.org/2000/svg">
<path d="M22.8261 27.1739C22.8261 27.1739 7.33691 7.31885 7.32227 7.32236C11.8463 2.79824 18.0964 0 25 0C38.807 0 50 11.193 50 25L22.8261 27.1739Z" fill="#338AF3"/>
<path d="M22.8261 25C22.8261 25 7.33691 42.6812 7.32227 42.6776C11.8463 47.2018 18.0964 50 25 50C38.807 50 50 38.807 50 25H22.8261Z" fill="#6DA544"/>
<path d="M7.32225 7.32227C-2.44083 17.0854 -2.44083 32.9145 7.32225 42.6777C11.3567 38.6433 15.2369 34.7631 25 25L7.32225 7.32227Z" fill="#F0F0F0"/>
<path d="M10.1182 18.4782L11.7368 23.4602H16.9757L12.7376 26.5395L14.3562 31.5218L10.1182 28.4426L5.88001 31.5218L7.49895 26.5395L3.26086 23.4602H8.49934L10.1182 18.4782Z" fill="#D80027"/>
</svg>
