<svg width="50" height="50" viewBox="0 0 50 50" fill="none" xmlns="http://www.w3.org/2000/svg">
<path d="M22.8261 22.826C22.8261 22.826 7.33691 42.6812 7.32227 42.6776C11.8463 47.2017 18.0964 50 25 50C38.807 50 50 38.807 50 25L22.8261 22.826Z" fill="#338AF3"/>
<path d="M22.8261 25C22.8261 25 7.33691 7.31885 7.32227 7.32236C11.8463 2.79824 18.0964 0 25 0C38.807 0 50 11.193 50 25H22.8261Z" fill="#6DA544"/>
<path d="M7.32225 7.32227C-2.44083 17.0854 -2.44083 32.9145 7.32225 42.6777C7.32157 42.6817 50 25 50 25L7.32225 7.32227Z" fill="#D80027"/>
<path d="M13.0434 14.674C8.24862 14.674 4.34784 18.5748 4.34784 23.3696V26.6304C4.34784 31.4252 8.24872 35.326 13.0434 35.326C17.8382 35.326 21.739 31.4251 21.739 26.6304V23.3696C21.7391 18.5748 17.8383 14.674 13.0434 14.674ZM18.4782 26.6305C18.4782 29.0594 16.8765 31.1208 14.6738 31.8151V28.261L16.9808 25.9539L14.6751 23.6482L14.6738 22.8276V21.7393H11.4131V25L9.1076 27.3054L11.4131 29.6108V31.8152C9.21044 31.1209 7.60868 29.0595 7.60868 26.6306V23.3698C7.60868 20.373 10.0468 17.935 13.0434 17.935C16.0401 17.935 18.4782 20.3731 18.4782 23.3698V26.6305Z" fill="#FFDA44"/>
</svg>
