<svg width="50" height="50" viewBox="0 0 50 50" fill="none" xmlns="http://www.w3.org/2000/svg">
<path d="M25 50C38.8071 50 50 38.8071 50 25C50 11.1929 38.8071 0 25 0C11.1929 0 0 11.1929 0 25C0 38.8071 11.1929 50 25 50Z" fill="#F0F0F0"/>
<path d="M3.03973 13.0435H46.9601C42.7201 5.27236 34.4761 0 25 0C15.5239 0 7.27987 5.27236 3.03973 13.0435Z" fill="#D80027"/>
<path d="M25 50C34.4761 50 42.7201 44.7276 46.9602 36.9565H3.03973C7.27987 44.7276 15.5239 50 25 50Z" fill="#D80027"/>
<path d="M33.6956 25C33.6956 29.8026 29.8024 32.6087 25 32.6087C20.1975 32.6087 16.3044 29.8026 16.3044 25C16.3044 20.1975 20.1975 16.3044 25 16.3044C29.8024 16.3044 33.6956 20.1975 33.6956 25Z" fill="#FFDA44"/>
<path d="M33.6956 25C33.6956 29.8025 29.8024 33.6956 25 33.6956C20.1975 33.6956 16.3044 29.8025 16.3044 25" fill="#0052B4"/>
<path d="M19.5652 22.826H21.7392V27.1739H19.5652V22.826Z" fill="#D80027"/>
<path d="M28.2609 22.826H30.4348V27.1739H28.2609V22.826Z" fill="#D80027"/>
<path d="M23.9131 19.5652H26.087V27.1739H23.9131V19.5652Z" fill="#D80027"/>
</svg>
