<svg width="50" height="50" viewBox="0 0 50 50" fill="none" xmlns="http://www.w3.org/2000/svg">
<path d="M25 50C38.8071 50 50 38.8071 50 25C50 11.1929 38.8071 0 25 0C11.1929 0 0 11.1929 0 25C0 38.8071 11.1929 50 25 50Z" fill="#F0F0F0"/>
<path d="M25 0C20.58 0 16.4288 1.14863 12.8261 3.16133V46.8387C16.4289 48.8514 20.58 50 25 50C38.807 50 50 38.807 50 25C50 11.193 38.807 0 25 0Z" fill="#6DA544"/>
<path d="M12.8996 3.12024C11.3269 3.99182 9.85831 5.02776 8.51661 6.20549C8.65225 6.08655 8.78926 5.96897 8.92735 5.85295L28.0743 25L8.92725 44.1471C8.78907 44.0311 8.65215 43.9135 8.51651 43.7946C9.85821 44.9723 11.3269 46.0081 12.8995 46.8798L50 25L12.8996 3.12024Z" fill="#F0F0F0"/>
<path d="M10.7881 4.43188C10.0257 4.95981 9.29346 5.52788 8.59571 6.13501L25 25L8.59561 43.8651C9.29337 44.4722 10.0256 45.0404 10.788 45.5682L45.7205 25L10.7881 4.43188Z" fill="#FFDA44"/>
<path d="M8.92725 5.85291C8.37148 6.3199 7.83516 6.80945 7.32227 7.32224L22.8261 25L7.32227 42.6777C7.83516 43.1906 8.37139 43.6802 8.92725 44.147L28.0743 25L8.92725 5.85291Z" fill="black"/>
<path d="M7.32225 7.32227C-2.44083 17.0854 -2.44083 32.9145 7.32225 42.6777C11.3567 38.6433 15.2369 34.7631 25 25L7.32225 7.32227Z" fill="#D80027"/>
</svg>
