<svg width="50" height="50" viewBox="0 0 50 50" fill="none" xmlns="http://www.w3.org/2000/svg">
<path d="M25 50C38.8071 50 50 38.8071 50 25C50 11.1929 38.8071 0 25 0C11.1929 0 0 11.1929 0 25C0 38.8071 11.1929 50 25 50Z" fill="#F0F0F0"/>
<path d="M25 0C15.0885 0 6.5244 5.76807 2.48065 14.1305H47.5192C43.4756 5.76807 34.9114 0 25 0Z" fill="#FF9811"/>
<path d="M25 50C34.9114 50 43.4756 44.2319 47.5193 35.8695H2.48065C6.5244 44.2319 15.0885 50 25 50Z" fill="#6DA544"/>
<path d="M25 33.6957C29.8024 33.6957 33.6956 29.8025 33.6956 25C33.6956 20.1976 29.8024 16.3044 25 16.3044C20.1975 16.3044 16.3044 20.1976 16.3044 25C16.3044 29.8025 20.1975 33.6957 25 33.6957Z" fill="#0052B4"/>
<path d="M25 30.4347C28.0015 30.4347 30.4348 28.0015 30.4348 24.9999C30.4348 21.9984 28.0015 19.5652 25 19.5652C21.9985 19.5652 19.5652 21.9984 19.5652 24.9999C19.5652 28.0015 21.9985 30.4347 25 30.4347Z" fill="#F0F0F0"/>
<path d="M25 18.2936L26.6767 22.0961L30.8079 21.6468L28.3532 25L30.8079 28.3532L26.6767 27.9039L25 31.7065L23.3233 27.9039L19.1921 28.3531L21.6468 25L19.1921 21.6468L23.3233 22.0961L25 18.2936Z" fill="#0052B4"/>
</svg>
