<svg width="50" height="50" viewBox="0 0 50 50" fill="none" xmlns="http://www.w3.org/2000/svg">
<path d="M25 50C38.8071 50 50 38.8071 50 25C50 11.1929 38.8071 0 25 0C11.1929 0 0 11.1929 0 25C0 38.8071 11.1929 50 25 50Z" fill="#F0F0F0"/>
<path d="M25 0C14.2509 0 5.08732 6.78437 1.55499 16.3044H48.4451C44.9127 6.78437 35.7491 0 25 0Z" fill="#A2001D"/>
<path d="M25 50C35.7491 50 44.9127 43.2156 48.445 33.6956H1.55499C5.08732 43.2156 14.2509 50 25 50Z" fill="black"/>
<path d="M19.0218 23.3696C19.0081 23.3696 18.9947 23.3705 18.9811 23.3707V23.3696H14.2021C14.4443 22.4334 15.2938 21.7391 16.3044 21.7391V18.4783C13.3076 18.4783 10.8696 20.9164 10.8696 23.913V26.5761V26.6305H18.9811H19.0218C19.3215 26.6305 19.5652 26.8744 19.5652 27.174V28.2609H8.69562V31.5217H22.8261V27.1739C22.8261 25.0762 21.1194 23.3696 19.0218 23.3696Z" fill="#496E2D"/>
<path d="M27.1739 28.2609V18.4783H23.9131V31.5218H29.3479V28.2609H27.1739Z" fill="#496E2D"/>
<path d="M38.0435 28.261V18.4783H34.7826V28.261H33.6956V25.0001H30.4348V31.5219H40.2174V28.261H38.0435Z" fill="#496E2D"/>
</svg>
