<svg width="50" height="50" viewBox="0 0 50 50" fill="none" xmlns="http://www.w3.org/2000/svg">
<path d="M2.48066 14.1305C0.891406 17.4172 0 21.1044 0 25C0 28.8956 0.891406 32.5828 2.48066 35.8695L25 38.0435L47.5193 35.8695C49.1086 32.5828 50 28.8956 50 25C50 21.1044 49.1086 17.4172 47.5193 14.1305L25 11.9565L2.48066 14.1305Z" fill="black"/>
<path d="M2.48157 35.8695C6.52512 44.2319 15.0885 50 25 50C34.9115 50 43.4749 44.2319 47.5185 35.8695H2.48157Z" fill="#496E2D"/>
<path d="M2.48157 14.1305H47.5185C43.4749 5.76807 34.9115 0 25 0C15.0885 0 6.52512 5.76807 2.48157 14.1305Z" fill="#D80027"/>
<path d="M30.8189 20.4283L32.8701 23.255L36.1921 22.1778L34.1376 25.002L36.1886 27.8286L32.8679 26.7474L30.8134 29.5716L30.8155 26.0793L27.4946 24.998L30.8167 23.9209L30.8189 20.4283Z" fill="#F0F0F0"/>
<path d="M25.2208 32.0652C21.3189 32.0652 18.1556 28.9019 18.1556 25C18.1556 21.098 21.3189 17.9348 25.2208 17.9348C26.4375 17.9348 27.5823 18.2424 28.5817 18.784C27.0137 17.2507 24.8696 16.3043 22.5035 16.3043C17.7009 16.3043 13.8079 20.1975 13.8079 24.9999C13.8079 29.8023 17.701 33.6955 22.5035 33.6955C24.8697 33.6955 27.0138 32.7491 28.5817 31.2158C27.5822 31.7576 26.4375 32.0652 25.2208 32.0652Z" fill="#F0F0F0"/>
</svg>
