<svg width="50" height="50" viewBox="0 0 50 50" fill="none" xmlns="http://www.w3.org/2000/svg">
<path d="M25 50C38.8071 50 50 38.8071 50 25C50 11.1929 38.8071 0 25 0C11.1929 0 0 11.1929 0 25C0 38.8071 11.1929 50 25 50Z" fill="#F0F0F0"/>
<path d="M25 0C14.2508 0 5.08726 6.78437 1.55493 16.3044H48.4451C44.9126 6.78437 35.7491 0 25 0Z" fill="#D80027"/>
<path d="M25 50C35.7491 50 44.9126 43.2156 48.445 33.6956H1.55493C5.08726 43.2156 14.2508 50 25 50Z" fill="black"/>
<path d="M14.9376 19.0217L16.2865 23.1733H20.6521L17.1203 25.7395L18.4693 29.8913L14.9376 27.3253L11.4059 29.8913L12.7549 25.7395L9.22314 23.1733H13.5887L14.9376 19.0217Z" fill="#6DA544"/>
<path d="M35.0621 19.0217L36.411 23.1733H40.7767L37.2448 25.7395L38.5938 29.8913L35.0621 27.3253L31.5304 29.8913L32.8794 25.7395L29.3477 23.1733H33.7132L35.0621 19.0217Z" fill="#6DA544"/>
</svg>
