<svg width="50" height="50" viewBox="0 0 50 50" fill="none" xmlns="http://www.w3.org/2000/svg">
<path d="M25 50C38.8071 50 50 38.8071 50 25C50 11.1929 38.8071 0 25 0C11.1929 0 0 11.1929 0 25C0 38.8071 11.1929 50 25 50Z" fill="#338AF3"/>
<path d="M24.9278 16.3044C20.1251 16.3044 16.2322 20.1976 16.2322 25C16.2322 29.8025 20.1252 33.6957 24.9278 33.6957C29.7301 33.6957 33.6234 29.8025 33.6234 25C33.6234 20.1976 29.73 16.3044 24.9278 16.3044ZM22.7539 25C22.7539 23.7995 23.7271 22.8261 24.9278 22.8261C26.1284 22.8261 27.1017 23.7995 27.1017 25C27.1017 26.2007 26.1284 27.174 24.9278 27.174C23.7271 27.174 22.7539 26.2007 22.7539 25ZM27.1817 21.2814C26.8443 21.0764 26.4765 20.9172 26.0871 20.8097V18.5832C27.0676 18.7591 27.9717 19.1536 28.7477 19.7155L27.1817 21.2814ZM23.9132 20.7725C23.5053 20.8701 23.12 21.025 22.7659 21.2285L21.1926 19.6552C21.9879 19.0984 22.9125 18.7137 23.9132 18.5572V20.7725ZM22.7658 28.7716C23.1199 28.975 23.5052 29.13 23.9131 29.2275V31.4427C22.9124 31.2864 21.9879 30.9015 21.1926 30.3447L22.7658 28.7716ZM26.0872 29.1904C26.4765 29.0829 26.8445 28.9238 27.1817 28.7188L28.7476 30.2847C27.9716 30.8465 27.0676 31.2411 26.0871 31.417V29.1905H26.0872V29.1904ZM28.6993 27.1622C28.8908 26.8289 29.0405 26.4683 29.1386 26.0871H31.3576C31.1943 27.0599 30.816 27.9592 30.2726 28.7352L28.6993 27.1622ZM29.1386 23.9131C29.0405 23.5318 28.8908 23.1715 28.6993 22.8381L30.2725 21.2649C30.8159 22.041 31.1943 22.9402 31.3575 23.913H29.1385V23.9131H29.1386ZM19.6431 21.1802L21.209 22.7461C20.9914 23.1045 20.8241 23.4967 20.7168 23.9131H18.4979C18.6671 22.9047 19.0674 21.9752 19.6431 21.1802ZM18.4979 26.087H20.7168C20.824 26.5034 20.9913 26.8956 21.209 27.254L19.6431 28.8199C19.0674 28.0249 18.6671 27.0955 18.4979 26.087Z" fill="#F0F0F0"/>
<path d="M39.0581 25C39.0581 21.1348 37.5056 17.6327 34.9909 15.0815L32.6852 17.3873C34.6098 19.3482 35.7973 22.0354 35.7973 25C35.7973 31.0031 30.9308 35.8695 24.9277 35.8695C18.9245 35.8695 14.0582 31.0031 14.0582 25C14.0582 21.9983 15.2747 19.281 17.2418 17.3141L14.936 15.0083C12.3789 17.5654 10.7974 21.098 10.7974 25C10.7974 31.4663 15.1408 36.9182 21.0694 38.5972C20.4194 39.8319 20.5185 41.3865 21.447 42.5452C22.6665 41.5679 23.9291 40.556 25.0002 39.6978C26.0713 40.5561 27.334 41.5679 28.5534 42.5452C29.4911 41.375 29.5834 39.8007 28.9118 38.56C34.7756 36.8397 39.0581 31.4204 39.0581 25Z" fill="#F0F0F0"/>
</svg>
