<svg width="50" height="50" viewBox="0 0 50 50" fill="none" xmlns="http://www.w3.org/2000/svg">
<path d="M25 50C38.8071 50 50 38.8071 50 25C50 11.1929 38.8071 0 25 0C11.1929 0 0 11.1929 0 25C0 38.8071 11.1929 50 25 50Z" fill="#F0F0F0"/>
<path d="M14.1304 33.6956L16.3043 48.4452C19.0125 49.4501 21.9419 50 24.9999 50C35.7489 50 44.9126 43.2156 48.4448 33.6956H14.1304Z" fill="black"/>
<path d="M14.1304 16.3044L16.3043 1.55479C19.0125 0.549805 21.9419 0 24.9999 0C35.7489 0 44.9126 6.78437 48.4448 16.3044H14.1304Z" fill="#6DA544"/>
<path d="M0 25C0 35.7491 6.78447 44.9126 16.3044 48.445V1.55493C6.78447 5.08726 0 14.2508 0 25Z" fill="#A2001D"/>
</svg>
