<svg width="50" height="50" viewBox="0 0 50 50" fill="none" xmlns="http://www.w3.org/2000/svg">
<path d="M1.18047 17.3915C0.414648 19.7907 -9.7639e-05 22.3466 1.72417e-08 24.9999C-9.7639e-05 27.6532 0.414746 30.2093 1.18057 32.6085L25 33.6957L48.8194 32.6087C49.5852 30.2094 50.0001 27.6532 50.0001 25C50 22.3467 49.5853 19.7907 48.8194 17.3914L25 16.3044L1.18047 17.3915Z" fill="#F0F0F0"/>
<path d="M48.8193 17.3914L24.9999 16.3044L1.18037 17.3914C0.953418 18.1027 0.758008 18.828 0.594238 19.5653H49.4052C49.2416 18.8279 49.0463 18.1025 48.8193 17.3914Z" fill="#D80027"/>
<path d="M0.594482 30.4346C0.758057 31.1719 0.953467 31.8971 1.18042 32.6084L1.18276 32.6085L24.9998 33.6954L48.8192 32.6085C49.0461 31.8972 49.2416 31.1719 49.4052 30.4346H0.594482Z" fill="#D80027"/>
<path d="M24.9999 50C36.1538 50 45.6001 42.695 48.8193 32.6086H1.18054C4.39978 42.6949 13.8463 50 24.9999 50Z" fill="#6DA544"/>
<path d="M24.9999 9.79109e-10C13.8461 9.76572e-05 4.39985 7.30508 1.18042 17.3913L48.8192 17.3914C45.6001 7.30498 36.1538 -9.76553e-05 24.9999 9.79109e-10Z" fill="#338AF3"/>
<path d="M11.4244 10.3263C11.4244 7.98477 13.07 6.02871 15.2676 5.54883C14.9299 5.475 14.5794 5.43506 14.2194 5.43506C11.5181 5.43506 9.32812 7.6249 9.32812 10.3264C9.32812 13.0278 11.5179 15.2177 14.2194 15.2177C14.5794 15.2177 14.9298 15.1776 15.2676 15.1039C13.0701 14.6238 11.4244 12.6678 11.4244 10.3263Z" fill="#F0F0F0"/>
<path d="M18.1586 12.5496L18.4896 13.5686H19.5611L18.6943 14.1985L19.0254 15.2175L18.1586 14.5877L17.2916 15.2175L17.6228 14.1985L16.7559 13.5686H17.8273L18.1586 12.5496Z" fill="#F0F0F0"/>
<path d="M21.5786 12.5496L21.9097 13.5686H22.9812L22.1143 14.1985L22.4455 15.2175L21.5786 14.5877L20.7117 15.2175L21.0428 14.1985L20.176 13.5686H21.2474L21.5786 12.5496Z" fill="#F0F0F0"/>
<path d="M24.9986 12.5496L25.3296 13.5686H26.4012L25.5343 14.1985L25.8654 15.2175L24.9986 14.5877L24.1316 15.2175L24.4628 14.1985L23.5958 13.5686H24.6674L24.9986 12.5496Z" fill="#F0F0F0"/>
<path d="M28.4186 12.5496L28.7498 13.5686H29.8211L28.9543 14.1985L29.2855 15.2175L28.4186 14.5877L27.5516 15.2175L27.8829 14.1985L27.0159 13.5686H28.0874L28.4186 12.5496Z" fill="#F0F0F0"/>
<path d="M31.8385 12.5496L32.1696 13.5686H33.2411L32.3743 14.1985L32.7054 15.2175L31.8385 14.5877L30.9716 15.2175L31.3027 14.1985L30.4359 13.5686H31.5073L31.8385 12.5496Z" fill="#F0F0F0"/>
<path d="M21.5786 8.99219L21.9097 10.0111H22.9812L22.1143 10.6411L22.4455 11.6601L21.5786 11.0303L20.7117 11.6601L21.0428 10.6411L20.176 10.0111H21.2474L21.5786 8.99219Z" fill="#F0F0F0"/>
<path d="M24.9986 8.99219L25.3296 10.0111H26.4012L25.5343 10.6411L25.8654 11.6601L24.9986 11.0303L24.1316 11.6601L24.4628 10.6411L23.5958 10.0111H24.6674L24.9986 8.99219Z" fill="#F0F0F0"/>
<path d="M28.4186 8.99219L28.7498 10.0111H29.8211L28.9543 10.6411L29.2855 11.6601L28.4186 11.0303L27.5516 11.6601L27.8829 10.6411L27.0159 10.0111H28.0874L28.4186 8.99219Z" fill="#F0F0F0"/>
<path d="M31.8385 8.99219L32.1696 10.0111H33.2411L32.3743 10.6411L32.7054 11.6601L31.8385 11.0303L30.9716 11.6601L31.3027 10.6411L30.4359 10.0111H31.5073L31.8385 8.99219Z" fill="#F0F0F0"/>
<path d="M24.9986 5.43481L25.3296 6.45395H26.4012L25.5343 7.08374L25.8654 8.10288L24.9986 7.4731L24.1316 8.10288L24.4628 7.08374L23.5958 6.45395H24.6674L24.9986 5.43481Z" fill="#F0F0F0"/>
<path d="M28.4186 5.43481L28.7498 6.45395H29.8211L28.9543 7.08374L29.2855 8.10288L28.4186 7.4731L27.5516 8.10288L27.8829 7.08374L27.0159 6.45395H28.0874L28.4186 5.43481Z" fill="#F0F0F0"/>
<path d="M31.8385 5.43481L32.1696 6.45395H33.2411L32.3743 7.08374L32.7054 8.10288L31.8385 7.4731L30.9716 8.10288L31.3027 7.08374L30.4359 6.45395H31.5073L31.8385 5.43481Z" fill="#F0F0F0"/>
</svg>
