<svg width="24" height="24" viewBox="0 0 24 24" fill="none" xmlns="http://www.w3.org/2000/svg">
<path fill-rule="evenodd" clip-rule="evenodd" d="M23.0652 2.43801C24 3.82164 24 5.74776 24 9.6C24 13.4522 24 15.3784 23.0652 16.762C22.6605 17.361 22.1405 17.8753 21.5349 18.2755C20.2045 19.1547 18.378 19.1978 14.8524 19.1999V19.2385L13.112 22.8247C12.7475 23.5759 11.6773 23.5759 11.3127 22.8247L9.57237 19.2385V19.2C5.76668 19.1999 3.84794 19.1893 2.46511 18.2755C1.85947 17.8753 1.33946 17.361 0.934786 16.762C0 15.3784 0 13.4522 0 9.6C0 5.74776 0 3.82164 0.934786 2.43801C1.33946 1.83903 1.85947 1.32474 2.46511 0.92451C3.86412 0 5.81165 0 9.70671 0H14.2933C18.1884 0 20.1359 0 21.5349 0.92451C22.1405 1.32474 22.6605 1.83903 23.0652 2.43801Z" fill="black"/>
<path d="M16.7597 11.0755L18.4061 12.7219C18.7341 13.0499 18.7341 13.5817 18.4061 13.9097C16.6329 15.6829 13.8256 15.8824 11.8195 14.3778L11.7025 14.29C10.1892 13.1551 8.84493 11.8108 7.70996 10.2975L7.62224 10.1805C6.11761 8.17436 6.31712 5.36709 8.09034 3.59387C8.41833 3.26588 8.95009 3.26588 9.27808 3.59387L10.9245 5.24026C11.315 5.63079 11.315 6.26395 10.9245 6.65447L9.78983 7.78912C9.5696 8.00935 9.515 8.34579 9.65429 8.62436C10.4595 10.2347 11.7653 11.5405 13.3756 12.3457C13.6542 12.485 13.9907 12.4304 14.2109 12.2102L15.3455 11.0755C15.736 10.685 16.3692 10.685 16.7597 11.0755Z" fill="white"/>
</svg>
