<svg width="50" height="50" viewBox="0 0 50 50" fill="none" xmlns="http://www.w3.org/2000/svg">
<path d="M35.8695 2.48066C32.5828 0.891406 28.8955 0 25 0C21.1045 0 17.4172 0.891406 14.1305 2.48066L11.9565 25L14.1305 47.5193C17.4172 49.1086 21.1045 50 25 50C28.8955 50 32.5828 49.1086 35.8695 47.5193L38.0435 25L35.8695 2.48066Z" fill="#D80027"/>
<path d="M14.1305 2.48154C5.76816 6.52519 0 15.0886 0 25C0 34.9114 5.76816 43.4748 14.1305 47.5185V2.48154Z" fill="black"/>
<path d="M35.8695 2.48154V47.5185C44.2318 43.4748 50 34.9114 50 25C50 15.0886 44.2318 6.52519 35.8695 2.48154Z" fill="#496E2D"/>
<path d="M25 16.3044C20.1974 16.3044 16.3044 20.1976 16.3044 25C16.3044 29.8024 20.1975 33.6956 25 33.6956C29.8024 33.6956 33.6956 29.8024 33.6956 25C33.6956 20.1976 29.8025 16.3044 25 16.3044ZM25 30.4348C21.9984 30.4348 19.5652 28.0015 19.5652 25C19.5652 21.9985 21.9985 19.5652 25 19.5652C28.0015 19.5652 30.4348 21.9985 30.4348 25C30.4348 28.0015 28.0016 30.4348 25 30.4348Z" fill="#FFDA44"/>
<path d="M25 21.7392C23.7993 21.7392 22.826 22.7124 22.826 23.9131V27.1739H27.1739V23.9131C27.1739 22.7124 26.2007 21.7392 25 21.7392Z" fill="#FFDA44"/>
</svg>
