<svg width="50" height="50" viewBox="0 0 50 50" fill="none" xmlns="http://www.w3.org/2000/svg">
<path d="M25 50C38.8071 50 50 38.8071 50 25C50 11.1929 38.8071 0 25 0C11.1929 0 0 11.1929 0 25C0 38.8071 11.1929 50 25 50Z" fill="#F0F0F0"/>
<path d="M25 0C16.1357 0 8.34962 4.61357 3.91055 11.5702L37.8128 46.4696C45.1119 42.1042 50 34.1233 50 25C50 11.193 38.807 0 25 0Z" fill="#FFDA44"/>
<path d="M50 25C50 18.5135 47.5295 12.6045 43.4782 8.16132V41.8388C47.5295 37.3955 50 31.4865 50 25Z" fill="#0052B4"/>
<path d="M31.2294 47.0579L33.848 47.0562L34.6559 44.5651L35.4666 47.0553L36.7801 47.0545C37.5854 46.6233 38.3645 46.1495 39.1141 45.6356L4.36416 10.8858C3.7915 11.7214 3.26924 12.5938 2.79961 13.4981L3.1084 14.4466L5.72705 14.4449L3.60947 15.9854L4.42021 18.4756L2.30068 16.9377L1.03652 17.8572C0.362598 20.1205 0 22.5179 0 25C0 38.807 11.193 50 25 50C27.9191 50 30.721 49.4988 33.3252 48.5789L31.2294 47.0579ZM5.57607 23.9131L6.38369 21.4221L4.26436 19.884L6.88301 19.8823L7.69072 17.3912L8.50146 19.8813L11.1201 19.8797L9.00244 21.4202L9.81318 23.9103L7.69365 22.3725L5.57607 23.9131ZM10.9691 29.3478L11.7768 26.8568L9.65742 25.3187L12.2761 25.3171L13.0838 22.826L13.8945 25.3161L16.5132 25.3144L14.3956 26.855L15.2063 29.3451L13.0868 27.8072L10.9691 29.3478ZM16.3621 34.7826L17.1697 32.2916L15.0504 30.7535L17.669 30.7518L18.4768 28.2607L19.2875 30.7509L21.9062 30.7492L19.7886 32.2897L20.5993 34.7799L18.4798 33.2418L16.3621 34.7826ZM23.8728 38.6768L21.7551 40.2174L22.5627 37.7264L20.4434 36.1883L23.062 36.1866L23.8698 33.6955L24.6806 36.1856L27.2992 36.184L25.1816 37.7245L25.9924 40.2146L23.8728 38.6768ZM27.1481 45.6521L27.9558 43.1611L25.8364 41.623L28.4551 41.6214L29.2628 39.1303L30.0735 41.6204L32.6922 41.6187L30.5746 43.1593L31.3853 45.6494L29.2658 44.1113L27.1481 45.6521Z" fill="#0052B4"/>
</svg>
