<svg width="50" height="50" viewBox="0 0 50 50" fill="none" xmlns="http://www.w3.org/2000/svg">
<path d="M0 25C0 29.331 1.10186 33.4047 3.03975 36.9565L25 39.1304L46.9603 36.9565C48.8981 33.4047 50 29.331 50 25C50 20.6689 48.8981 16.5953 46.9603 13.0434L25 10.8695L3.03975 13.0434C1.10186 16.5953 0 20.6689 0 25H0Z" fill="#D80027"/>
<path d="M3.03973 13.0435H46.9601C42.7201 5.27236 34.4761 0 25 0C15.5239 0 7.27987 5.27236 3.03973 13.0435Z" fill="#0052B4"/>
<path d="M25 50C34.4761 50 42.7201 44.7276 46.9602 36.9565H3.03973C7.27987 44.7276 15.5239 50 25 50Z" fill="#0052B4"/>
<path d="M33.6956 29.8913V26.6305H31.5218V22.2826L29.3478 20.1087L27.1739 22.2826V17.9348L25 15.7609L22.8261 17.9348V22.2826L20.6521 20.1087L18.4782 22.2826V26.6305H16.3044V29.8913H14.1305V33.1522H35.8695V29.8913H33.6956Z" fill="#F0F0F0"/>
</svg>
