<svg width="50" height="50" viewBox="0 0 50 50" fill="none" xmlns="http://www.w3.org/2000/svg">
<path d="M25 50C38.8071 50 50 38.8071 50 25C50 11.1929 38.8071 0 25 0C11.1929 0 0 11.1929 0 25C0 38.8071 11.1929 50 25 50Z" fill="#6DA544"/>
<path d="M38.3773 35.8696L39.0634 37.304L40.6126 36.946L39.9188 38.3768L41.1646 39.3647L39.6135 39.7143L39.6179 41.3044L38.3773 40.3096L37.1369 41.3044L37.1412 39.7143L35.5901 39.3647L36.8359 38.3768L36.1422 36.946L37.6913 37.304L38.3773 35.8696Z" fill="#FFDA44"/>
<path d="M31.9953 20.6522L32.6814 22.0866L34.2307 21.7285L33.5368 23.1594L34.7826 24.1473L33.2315 24.4969L33.2358 26.0869L31.9953 25.0922L30.7549 26.0869L30.7591 24.4969L29.2081 24.1473L30.4539 23.1594L29.7601 21.7285L31.3094 22.0866L31.9953 20.6522Z" fill="#FFDA44"/>
<path d="M38.3774 11.9565L39.0634 13.391L40.6126 13.0328L39.919 14.4637L41.1647 15.4517L39.6135 15.8012L39.6177 17.3913L38.3774 16.3965L37.1369 17.3913L37.1412 15.8012L35.5902 15.4517L36.8359 14.4637L36.1422 13.0328L37.6913 13.391L38.3774 11.9565Z" fill="#FFDA44"/>
<path d="M43.9518 18.4782L44.6379 19.9127L46.1872 19.5546L45.4934 20.9854L46.7392 21.9733L45.1881 22.3229L45.1924 23.9131L43.9518 22.9183L42.7114 23.9131L42.7156 22.3229L41.1646 21.9733L42.4104 20.9854L41.7166 19.5546L43.2658 19.9127L43.9518 18.4782Z" fill="#FFDA44"/>
<path d="M39.9657 26.0869L40.5055 27.7478H42.2517L40.8389 28.7741L41.3786 30.4348L39.9657 29.4085L38.5531 30.4348L39.0927 28.7741L37.68 27.7478H39.4262L39.9657 26.0869Z" fill="#FFDA44"/>
<path d="M27.7174 32.0653C23.8153 32.0653 20.652 28.902 20.652 25C20.652 21.0981 23.8152 17.9348 27.7174 17.9348C28.934 17.9348 30.0788 18.2425 31.0782 18.784C29.5103 17.2506 27.3663 16.3043 24.9998 16.3043C20.1975 16.3043 16.3043 20.1975 16.3043 24.9999C16.3043 29.8024 20.1975 33.6955 24.9998 33.6955C27.3662 33.6955 29.5103 32.7492 31.0781 31.2158C30.0788 31.7575 28.934 32.0653 27.7174 32.0653Z" fill="#FFDA44"/>
<path d="M15.7213 9.78263C14.9693 8.48341 13.5655 7.6087 11.9565 7.6087C10.3476 7.6087 8.94375 8.48341 8.1918 9.78263H15.7213Z" fill="#FFDA44"/>
<path d="M15.7357 9.80774L11.9565 13.5869L8.17734 9.80774C7.81611 10.4416 7.60879 11.1747 7.60879 11.9566C7.60879 14.3578 9.55537 16.3044 11.9566 16.3044C14.3579 16.3044 16.3045 14.3579 16.3045 11.9566C16.3044 11.1747 16.097 10.4416 15.7357 9.80774Z" fill="#FFDA44"/>
<path d="M10.8695 12.5V16.1674C11.2169 16.2567 11.5812 16.3043 11.9564 16.3043C12.3317 16.3043 12.696 16.2566 13.0434 16.1674V12.5H10.8695Z" fill="#A2001D"/>
</svg>
