<svg width="50" height="50" viewBox="0 0 50 50" fill="none" xmlns="http://www.w3.org/2000/svg">
<path d="M25 50C38.8071 50 50 38.8071 50 25C50 11.1929 38.8071 0 25 0C11.1929 0 0 11.1929 0 25C0 38.8071 11.1929 50 25 50Z" fill="#FCFCFC"/>
<path d="M33.7047 21.1751C33.7047 15.8876 29.4184 11.6014 24.131 11.6014C20.2292 11.6014 16.875 13.9363 15.3836 17.2844L14.2029 21.5651L15.2898 22.6521L13.1158 26.9999L15.2898 28.0868L14.2029 29.1737V30.2607L15.2898 31.3476V33.5215L16.3767 34.6084L19.6375 33.5215C19.6375 33.5215 19.6375 34.6084 20.7244 35.6954C21.8114 36.7823 22.8985 38.9564 22.8985 38.9564C22.8985 38.9564 26.1593 40.0433 28.3332 36.7824C30.5072 33.5216 32.6811 32.4346 32.6811 32.4346L30.5858 28.2438C32.502 26.4935 33.7047 23.9752 33.7047 21.1751Z" fill="black"/>
<path d="M34.485 24.8361C38.9019 24.0911 39.6376 15.4421 39.6376 15.4421H33.5507C36.7028 23.0508 33.4035 23.5626 33.4035 23.5626C32.9566 23.2301 16.9607 15.6523 16.4536 15.4597C16.3315 15.6231 15.8818 16.0525 15.3351 17.3894C14.7883 18.7264 14.6541 19.9291 14.6541 19.9291C14.9102 20.096 31.8978 26.0277 32.3468 26.0771C33.2379 26.6598 34.3344 28.402 33.7216 33.5679L39.5804 31.9167C39.5806 31.9167 37.5922 26.6273 34.485 24.8361Z" fill="#ACABB1"/>
</svg>
