<svg width="50" height="50" viewBox="0 0 50 50" fill="none" xmlns="http://www.w3.org/2000/svg">
<path d="M33.6958 1.55508C30.9874 0.550098 28.0581 0 25 0C21.942 0 19.0127 0.550098 16.3045 1.55488L15.2175 25L16.3044 48.4451C19.0127 49.45 21.942 50 25 50C28.0582 50 30.9874 49.45 33.6958 48.4449L34.7828 25L33.6958 1.55508Z" fill="#FFDA44"/>
<path d="M0 25.0001C0 35.7491 6.78437 44.9127 16.3044 48.445V1.55493C6.78437 5.08735 0 14.2508 0 25.0001Z" fill="#D80027"/>
<path d="M50 25C50 14.2508 43.2156 5.08735 33.6956 1.55493V48.4451C43.2156 44.9127 50 35.7491 50 25Z" fill="#6DA544"/>
</svg>
