<svg width="50" height="50" viewBox="0 0 50 50" fill="none" xmlns="http://www.w3.org/2000/svg">
<path d="M50 25C50 38.807 38.807 50 25 50C11.193 50 0 38.807 0 25C1.08691 25 25 21.7392 25 21.7392L50 25Z" fill="#D80027"/>
<path d="M0 25C0 11.193 11.193 0 25 0C38.807 0 50 11.193 50 25" fill="#0052B4"/>
<path d="M18.4783 17.3913C18.4783 15.5904 17.0183 14.1305 15.2174 14.1305C14.382 14.1305 13.6206 14.4449 13.0435 14.9614V13.0435H14.1304V10.8695H13.0435V9.78262H10.8696V10.8695H9.78267V13.0435H10.8696V14.9614C10.2925 14.4449 9.5311 14.1305 8.69565 14.1305C6.89478 14.1305 5.43481 15.5904 5.43481 17.3913C5.43481 18.3568 5.85483 19.224 6.52173 19.8212V21.7392H17.3913V19.8212C18.0584 19.224 18.4783 18.3568 18.4783 17.3913Z" fill="#FFDA44"/>
</svg>
