<svg width="50" height="50" viewBox="0 0 50 50" fill="none" xmlns="http://www.w3.org/2000/svg">
<path d="M25 50C38.8071 50 50 38.8071 50 25C50 11.1929 38.8071 0 25 0C11.1929 0 0 11.1929 0 25C0 38.8071 11.1929 50 25 50Z" fill="#496E2D"/>
<path d="M25 28.8819C20.8374 28.8819 17.3598 25.9563 16.5066 22.0496C16.3755 22.6502 16.3044 23.273 16.3044 23.913C16.3044 28.7156 20.1975 32.6086 25 32.6086C29.8026 32.6086 33.6957 28.7155 33.6957 23.913C33.6957 23.273 33.6246 22.6502 33.4935 22.0495C32.6403 25.9564 29.1627 28.8819 25 28.8819Z" fill="#FFDA44"/>
<path d="M24.9999 17.3913L25.8093 19.8824H28.4287L26.3097 21.422L27.119 23.9131L24.9999 22.3734L22.8809 23.9131L23.6903 21.422L21.5713 19.8824H24.1905L24.9999 17.3913Z" fill="#FFDA44"/>
</svg>
