<svg width="50" height="50" viewBox="0 0 50 50" fill="none" xmlns="http://www.w3.org/2000/svg">
<path d="M25 50C38.8071 50 50 38.8071 50 25C50 11.1929 38.8071 0 25 0C11.1929 0 0 11.1929 0 25C0 38.8071 11.1929 50 25 50Z" fill="#F0F0F0"/>
<path d="M49.8532 27.7174L49.8526 27.7166L49.8525 27.7174H49.8532Z" fill="#0052B4"/>
<path d="M49.8525 27.7174C49.8525 27.7172 49.8526 27.717 49.8526 27.7166L22.4361 0.129974C21.1993 0.256049 19.9891 0.47226 18.8122 0.771967C7.99785 3.52538 0 25 0 25C0 25 34.9998 48.4214 38.9927 45.7191C39.7916 45.1785 40.5576 44.5929 41.2869 43.9659L25.0386 27.7174H49.8525Z" fill="#0052B4"/>
<path d="M43.4782 25L19.1646 0.686432C8.17266 3.31504 0 13.2023 0 25C0 38.807 11.193 50 25 50C30.2372 50 35.0974 48.3885 39.1142 45.6358L18.4782 25H43.4782Z" fill="#D80027"/>
<path d="M23.7766 36.9134L20.7234 35.4772L22.3492 32.5203L19.0338 33.1546L18.6137 29.8052L16.3044 32.2686L13.9951 29.8052L13.5749 33.1546L10.2596 32.5202L11.8855 35.4772L8.83215 36.9134L11.8855 38.3494L10.2596 41.3064L13.5751 40.6723L13.995 44.0215L16.3044 41.5581L18.6137 44.0215L19.0338 40.6723L22.3491 41.3065L20.7233 38.3496L23.7766 36.9134Z" fill="#F0F0F0"/>
<path d="M21.7391 13.8655L19.5184 12.8211L20.701 10.6704L18.2895 11.1318L17.984 8.69562L16.3044 10.4873L14.6248 8.69562L14.3191 11.1318L11.9077 10.6704L13.0903 12.8211L10.8695 13.8655L16.3044 14.9526L21.7391 13.8655Z" fill="#F0F0F0"/>
<path d="M22.8261 13.8655C22.8261 17.4674 19.9062 20.3873 16.3044 20.3873C12.7025 20.3873 9.78259 17.4674 9.78259 13.8655" fill="#F0F0F0"/>
</svg>
