<svg width="50" height="50" viewBox="0 0 50 50" fill="none" xmlns="http://www.w3.org/2000/svg">
<path d="M33.6956 1.55488C30.9872 0.550098 28.058 1.29978e-08 25 1.29978e-08C21.942 -9.76433e-05 19.0127 0.550098 16.3044 1.55488L14.1305 24.9999L16.3044 48.4449C19.0126 49.45 21.9419 50 25 50C28.0579 50 30.9873 49.45 33.6956 48.4449L35.8695 25L33.6956 1.55488Z" fill="#FFDA44"/>
<path d="M50 25C50 14.251 43.2156 5.08722 33.6956 1.55499V48.4452C43.2156 44.9126 49.9999 35.7492 50 25Z" fill="#D80027"/>
<path d="M0 24.9999C0 35.7492 6.78438 44.9126 16.3042 48.4451L16.3043 1.55505C6.78437 5.08728 0 14.2508 0 24.9999H0Z" fill="#0052B4"/>
</svg>
