<svg width="50" height="50" viewBox="0 0 50 50" fill="none" xmlns="http://www.w3.org/2000/svg">
<path d="M50 25C50 38.807 38.807 50 25 50C11.193 50 0 38.807 0 25C1.08691 25 25 21.7391 25 21.7391L50 25Z" fill="#338AF3"/>
<path d="M0 25C0 11.193 11.193 0 25 0C38.807 0 50 11.193 50 25" fill="#F0F0F0"/>
<path d="M34.9233 17.2504L24.9999 27.1739L15.0765 17.2504C13.7932 19.1553 13.0435 21.4482 13.0435 23.913V27.1738C13.0435 32.4097 16.4268 36.87 21.1218 38.4844C20.4951 39.7125 20.6008 41.2452 21.519 42.3912C22.7386 41.4137 24.0012 40.4019 25.0723 39.5437C26.1434 40.402 27.4061 41.4138 28.6255 42.3912C29.5545 41.2318 29.6525 39.6761 29.0012 38.4408C33.632 36.7914 36.9563 32.3638 36.9563 27.1738V23.9131C36.9564 21.4482 36.2066 19.1554 34.9233 17.2504Z" fill="#6DA544"/>
<path d="M25 35.8695C20.2052 35.8695 16.3044 31.9686 16.3044 27.1739V23.9131C16.3044 19.1182 20.2053 15.2175 25 15.2175C29.7948 15.2175 33.6957 19.1183 33.6957 23.9131V27.1739C33.6957 31.9686 29.7949 35.8695 25 35.8695Z" fill="#FFDA44"/>
<path d="M30.4347 27.1739V23.9131C30.4347 20.9163 27.9966 18.4783 25 18.4783C22.0033 18.4783 19.5652 20.9164 19.5652 23.9131V27.1739L25 28.2609L30.4347 27.1739Z" fill="#338AF3"/>
<path d="M19.5652 27.174C19.5652 30.1707 22.0033 32.6087 25 32.6087C27.9966 32.6087 30.4347 30.1706 30.4347 27.174H19.5652Z" fill="#6DA544"/>
<path d="M31.5217 15.2174C31.5217 13.4165 30.0618 11.9566 28.2609 11.9566C27.4254 11.9566 26.664 12.271 26.087 12.7875V10.8695H27.1739V8.69562H26.087V7.6087H23.913V8.69562H22.8261V10.8695H23.913V12.7875C23.336 12.271 22.5745 11.9566 21.7391 11.9566C19.9382 11.9566 18.4783 13.4165 18.4783 15.2174C18.4783 16.1829 18.8983 17.0501 19.5652 17.6473V19.5652H30.4347V17.6473C31.1017 17.0501 31.5217 16.1829 31.5217 15.2174Z" fill="#FFDA44"/>
</svg>
