<svg width="50" height="50" viewBox="0 0 50 50" fill="none" xmlns="http://www.w3.org/2000/svg">
<path d="M48.445 33.6956C49.45 30.9873 50 28.058 50 25C50 21.942 49.45 19.0127 48.445 16.3044L25 14.1305L1.55498 16.3044C0.55 19.0127 0 21.942 0 25C0 28.058 0.55 30.9873 1.55498 33.6956L25 35.8696L48.445 33.6956Z" fill="#F0F0F0"/>
<path d="M25.0001 50C35.7491 50 44.9127 43.2156 48.445 33.6956H1.55493C5.08735 43.2156 14.2508 50 25.0001 50Z" fill="#338AF3"/>
<path d="M25 0C14.2508 0 5.08735 6.78437 1.55493 16.3044H48.4451C44.9127 6.78437 35.7491 0 25 0Z" fill="#6DA544"/>
</svg>
