<svg width="50" height="50" viewBox="0 0 50 50" fill="none" xmlns="http://www.w3.org/2000/svg">
<path d="M25 50C38.8071 50 50 38.8071 50 25C50 11.1929 38.8071 0 25 0C11.1929 0 0 11.1929 0 25C0 38.8071 11.1929 50 25 50Z" fill="#F0F0F0"/>
<path d="M0 25.0001C0 11.193 11.193 0 25 0C38.807 0 50 11.193 50 25.0001" fill="#D80027"/>
<path d="M15.2175 13.0434C15.2175 9.40102 17.7773 6.35825 21.1957 5.61167C20.6703 5.49702 20.1253 5.43481 19.5652 5.43481C15.363 5.43481 11.9565 8.84126 11.9565 13.0435C11.9565 17.2458 15.363 20.6522 19.5652 20.6522C20.1251 20.6522 20.6702 20.59 21.1957 20.4752C17.7773 19.7287 15.2175 16.6859 15.2175 13.0434Z" fill="#F0F0F0"/>
<path d="M25.0001 5.97827L25.5397 7.63892H27.2859L25.8731 8.66538L26.4128 10.326L25.0001 9.29976L23.5874 10.326L24.1271 8.66538L22.7144 7.63892H24.4604L25.0001 5.97827Z" fill="#F0F0F0"/>
<path d="M20.7642 9.23914L21.3038 10.8999H23.05L21.6373 11.9262L22.1769 13.5869L20.7642 12.5606L19.3513 13.5869L19.8911 11.9262L18.4783 10.8999H20.2245L20.7642 9.23914Z" fill="#F0F0F0"/>
<path d="M29.2359 9.23914L29.7757 10.8999H31.5218L30.109 11.9262L30.6487 13.5869L29.2359 12.5606L27.8232 13.5869L28.3629 11.9262L26.9502 10.8999H28.6963L29.2359 9.23914Z" fill="#F0F0F0"/>
<path d="M27.6056 14.1304L28.1452 15.7911H29.8913L28.4786 16.8175L29.0183 18.4781L27.6056 17.4519L26.1929 18.4781L26.7325 16.8175L25.3198 15.7911H27.0658L27.6056 14.1304Z" fill="#F0F0F0"/>
<path d="M22.3947 14.1304L22.9343 15.7911H24.6806L23.2678 16.8175L23.8075 18.4781L22.3947 17.4519L20.9819 18.4781L21.5216 16.8175L20.1089 15.7911H21.8551L22.3947 14.1304Z" fill="#F0F0F0"/>
</svg>
