<svg width="50" height="50" viewBox="0 0 50 50" fill="none" xmlns="http://www.w3.org/2000/svg">
<path d="M25 50C38.8071 50 50 38.8071 50 25C50 11.1929 38.8071 0 25 0C11.1929 0 0 11.1929 0 25C0 38.8071 11.1929 50 25 50Z" fill="#F0F0F0"/>
<path d="M25 50C38.807 50 50 38.8071 50 25C50 21.942 49.45 19.0126 48.445 16.3044H1.55498C0.550098 19.0126 0 21.942 0 25C0 38.8071 11.193 50 25 50Z" fill="#0052B4"/>
<path d="M25 50C35.7491 50 44.9126 43.2156 48.445 33.6956H1.55493C5.08726 43.2156 14.2508 50 25 50Z" fill="#D80027"/>
<path d="M6.4646 14.1305V26.6018C6.4646 33.6959 15.7323 35.8697 15.7323 35.8697C15.7323 35.8697 24.9999 33.6959 24.9999 26.6018V14.1305H6.4646Z" fill="#F0F0F0"/>
<path d="M8.63855 14.1305V26.6018C8.63855 27.4346 8.82351 28.2211 9.18992 28.9585H22.2746C22.641 28.2212 22.826 27.4346 22.826 26.6018V14.1305H8.63855Z" fill="#D80027"/>
<path d="M20.0801 22.8261H16.8194V20.6522H18.9933V18.4783H16.8194V16.3044H14.6455V18.4783H12.4716V20.6522H14.6455V22.8261H11.3845V25H14.6455V27.174H16.8194V25H20.0801V22.8261Z" fill="#F0F0F0"/>
<path d="M12.1553 31.9932C13.5562 32.8736 14.9955 33.3847 15.7323 33.612C16.4691 33.3848 17.9083 32.8736 19.3092 31.9932C20.7219 31.1053 21.7123 30.0899 22.2746 28.9585C21.6543 28.5198 20.8976 28.261 20.0801 28.261C19.7825 28.261 19.4933 28.2962 19.2153 28.361C18.6261 27.0223 17.2887 26.087 15.7324 26.087C14.176 26.087 12.8385 27.0223 12.2495 28.361C11.9714 28.2962 11.6822 28.261 11.3846 28.261C10.5671 28.261 9.8104 28.5198 9.19019 28.9585C9.7522 30.0898 10.7425 31.1052 12.1553 31.9932Z" fill="#0052B4"/>
</svg>
