<svg width="50" height="50" viewBox="0 0 50 50" fill="none" xmlns="http://www.w3.org/2000/svg">
<path d="M25 0C23.1334 0 21.3151 0.206348 19.5653 0.594238L18.4784 24.9999L19.5653 49.4057C21.3152 49.7936 23.1335 50 25 50C38.8071 50 50 38.807 50 24.9999C49.9999 11.1929 38.8071 0 25 0V0Z" fill="#496E2D"/>
<path d="M6.5218 8.16125C2.47063 12.6042 0.00012207 18.5134 0.00012207 24.9999C0.00012207 31.4865 2.47073 37.3956 6.5219 41.8388L7.60881 24.9999L6.5218 8.16125Z" fill="#496E2D"/>
<path d="M36.5645 18.8572C37.7945 15.4289 36.4127 11.7003 33.4472 9.84326C33.9806 9.9127 34.5146 10.0383 35.0415 10.2272C38.9969 11.6464 41.0529 16.003 39.6338 19.9583C38.2146 23.9139 33.858 25.9697 29.9026 24.5506C29.3756 24.3615 28.8835 24.1188 28.4277 23.8334C31.8975 24.2853 35.3346 22.2855 36.5645 18.8572Z" fill="#F0F0F0"/>
<path d="M29.7425 8.90356L28.6737 10.2846L27.0302 9.69487L28.0132 11.138L26.9446 12.5189L28.6209 12.03L29.6041 13.473L29.6568 11.7277L31.3332 11.2387L29.6897 10.6492L29.7425 8.90356Z" fill="#F0F0F0"/>
<path d="M32.6285 13.4034L31.5596 14.7844L29.9161 14.1947L30.8992 15.6378L29.8304 17.0187L31.5067 16.5296L32.4899 17.9729L32.5428 16.2275L34.2191 15.7384L32.5756 15.1488L32.6285 13.4034Z" fill="#F0F0F0"/>
<path d="M24.6543 10.5425L23.5854 11.9233L21.942 11.3338L22.9251 12.7769L21.8563 14.1578L23.5325 13.6688L24.5157 15.1119L24.5686 13.3666L26.2449 12.8776L24.6014 12.2879L24.6543 10.5425Z" fill="#F0F0F0"/>
<path d="M24.5371 15.6969L23.4683 17.0779L21.8248 16.4882L22.808 17.9314L21.739 19.3122L23.4155 18.8234L24.3986 20.2663L24.4514 18.521L26.1278 18.0321L24.4841 17.4423L24.5371 15.6969Z" fill="#F0F0F0"/>
<path d="M29.442 17.4568L28.3731 18.8376L26.7297 18.248L27.7129 19.6912L26.6439 21.0719L28.3204 20.5831L29.3035 22.0262L29.3563 20.2807L31.0327 19.7918L29.389 19.2022L29.442 17.4568Z" fill="#F0F0F0"/>
<path d="M6.52173 8.16123V41.8387C9.92798 45.5744 14.4524 48.2722 19.5652 49.4056V0.594238C14.4523 1.72764 9.92808 4.42539 6.52173 8.16123Z" fill="#D80027"/>
<path d="M11.4994 13.1625L9.31567 11.5358V9.2353L11.4994 7.60864H14.5877L16.7714 9.2353V11.5358L14.5877 13.1625H11.4994Z" fill="#F0F0F0"/>
<path d="M13.0436 7.60864H11.4994L9.31567 9.2353V10.36H13.0436V7.60864Z" fill="#FF9811"/>
<path d="M13.0436 13.1626H14.5877L16.7714 11.5358V10.3623H13.0436V13.1626Z" fill="#FF9811"/>
<path d="M11.4994 42.3911L9.31567 40.7643V38.4639L11.4994 36.8372H14.5877L16.7714 38.4639V40.7643L14.5877 42.3911H11.4994Z" fill="#F0F0F0"/>
<path d="M13.0436 36.8372H11.4994L9.31567 38.4639V39.5886H13.0436V36.8372Z" fill="#FF9811"/>
<path d="M13.0436 42.391H14.5877L16.7714 40.7643V39.5908H13.0436V42.391Z" fill="#FF9811"/>
<path d="M11.4994 27.7769L9.31567 26.1502V23.8498L11.4994 22.223H14.5877L16.7714 23.8498V26.1502L14.5877 27.7769H11.4994Z" fill="#496E2D"/>
<path d="M16.8479 31.3561H15.8967V30.405H14.2253L13.0435 29.2231L11.8617 30.405H10.1903V31.3561H9.23926V33.2582H10.1903V34.2093H11.8616L13.0436 35.3912L14.2253 34.2093H15.8967V33.2582H16.8479V31.3561Z" fill="#496E2D"/>
<path d="M16.8479 16.7417H15.8967V15.7905H14.2253L13.0435 14.6086L11.8617 15.7905H10.1903V16.7417H9.23926V18.6438H10.1903V19.5949H11.8616L13.0436 20.7769L14.2253 19.5949H15.8967V18.6438H16.8479V16.7417Z" fill="#496E2D"/>
<path d="M11.9564 23.9128H14.1303V26.0868H11.9564V23.9128Z" fill="#D80027"/>
<path d="M13.0433 18.7792C13.6436 18.7792 14.1302 18.2925 14.1302 17.6923C14.1302 17.092 13.6436 16.6053 13.0433 16.6053C12.443 16.6053 11.9564 17.092 11.9564 17.6923C11.9564 18.2925 12.443 18.7792 13.0433 18.7792Z" fill="#D80027"/>
<path d="M13.0433 33.3943C13.6436 33.3943 14.1302 32.9077 14.1302 32.3074C14.1302 31.7071 13.6436 31.2205 13.0433 31.2205C12.443 31.2205 11.9564 31.7071 11.9564 32.3074C11.9564 32.9077 12.443 33.3943 13.0433 33.3943Z" fill="#D80027"/>
</svg>
