<svg width="30" height="30" viewBox="0 0 30 30" fill="none" xmlns="http://www.w3.org/2000/svg">
<path d="M6.27105 1.54056L7.2897 0.521904C7.60093 0.210675 8.10553 0.210675 8.41676 0.521904L13.4619 5.56706C13.8524 5.95758 13.8524 6.59075 13.4619 6.98127L11.2329 9.21029C10.1575 10.2857 9.89093 11.9285 10.5711 13.2888C11.8816 15.9099 14.007 18.0352 16.6281 19.3458C17.9884 20.0259 19.6312 19.7593 20.7066 18.684L22.9356 16.455C23.3261 16.0644 23.9593 16.0644 24.3498 16.455L29.395 21.5001C29.7062 21.8113 29.7062 22.3159 29.395 22.6272L28.3763 23.6458C24.7542 27.2679 19.0199 27.6755 14.9219 24.602C11.2806 21.871 8.04588 18.6363 5.31488 14.995C2.24141 10.897 2.64893 5.16268 6.27105 1.54056Z" fill="black"/>
</svg>
