<svg width="25" height="25" viewBox="0 0 25 25" fill="none" xmlns="http://www.w3.org/2000/svg">
<rect width="25" height="25" rx="12.5" fill="#EFEFEF"/>
<path d="M8.4373 17.0443C8.33314 16.9358 8.26439 16.8099 8.23105 16.6667C8.19772 16.5191 8.19772 16.3737 8.23105 16.2305C8.26439 16.0872 8.33105 15.9635 8.43105 15.8594L11.3623 12.806L8.43105 9.75912C8.33105 9.65495 8.26439 9.53126 8.23105 9.38803C8.19772 9.2448 8.19772 9.10157 8.23105 8.95834C8.26439 8.81077 8.33314 8.68273 8.4373 8.57422C8.5373 8.47006 8.65605 8.40061 8.79355 8.36589C8.93522 8.32683 9.0748 8.32683 9.2123 8.36589C9.35397 8.40061 9.4748 8.46789 9.5748 8.56771L12.4998 11.6211L15.4311 8.57422C15.5311 8.47006 15.6477 8.40061 15.7811 8.36589C15.9186 8.32683 16.0561 8.32683 16.1936 8.36589C16.3352 8.40061 16.4561 8.47223 16.5561 8.58073C16.6644 8.6849 16.7352 8.81077 16.7686 8.95834C16.8019 9.10157 16.8019 9.2448 16.7686 9.38803C16.7352 9.53126 16.6665 9.65495 16.5623 9.75912L13.6436 12.806L16.5623 15.8594C16.6665 15.9635 16.7352 16.0872 16.7686 16.2305C16.8019 16.3737 16.8019 16.5191 16.7686 16.6667C16.7352 16.8099 16.6644 16.9336 16.5561 17.0378C16.4561 17.1463 16.3352 17.2201 16.1936 17.2591C16.0561 17.2938 15.9186 17.2938 15.7811 17.2591C15.6477 17.2244 15.5311 17.1528 15.4311 17.0443L12.4998 13.9974L9.5748 17.0508C9.4748 17.1506 9.35397 17.2201 9.2123 17.2591C9.0748 17.2938 8.93522 17.2938 8.79355 17.2591C8.65605 17.2201 8.5373 17.1484 8.4373 17.0443Z" fill="#848488"/>
</svg>
