<svg width="20" height="20" viewBox="0 0 20 20" fill="none" xmlns="http://www.w3.org/2000/svg">
<path d="M4.87185 0.63031C5.65817 0.127041 6.05133 -0.124593 6.33106 0.0609817C6.61078 0.246557 6.50502 0.772192 6.2935 1.82346C5.62405 5.15064 6.60207 8.73412 9.22754 11.3124C11.665 13.7061 14.9848 14.7053 18.1589 14.31C19.241 14.1753 19.7821 14.1079 19.9513 14.3948C20.1206 14.6818 19.8377 15.0495 19.2719 15.7849C18.9752 16.1706 18.6479 16.5408 18.29 16.8923C14.1059 21.0011 7.32214 21.0011 3.13806 16.8923C-1.04602 12.7834 -1.04602 6.12159 3.13806 2.01271C3.67662 1.48384 4.25824 1.02304 4.87185 0.63031Z" fill="black"/>
<path d="M13.9685 1.69973C14.3835 0.625967 14.591 0.0890836 14.9282 0.0146741C15.0168 -0.00489135 15.1084 -0.00489135 15.1971 0.0146741C15.5342 0.0890836 15.7418 0.625967 16.1568 1.69973C16.3928 2.31036 16.5108 2.61568 16.7317 2.82334C16.7936 2.88159 16.8608 2.93346 16.9324 2.97824C17.1876 3.13788 17.5062 3.16749 18.1435 3.22671C19.2221 3.32697 19.7615 3.37709 19.9262 3.69623C19.9603 3.76233 19.9835 3.83389 19.9948 3.90794C20.0494 4.26551 19.6529 4.63986 18.8599 5.38857L18.6397 5.59649C18.269 5.94652 18.0836 6.12154 17.9764 6.33996C17.9121 6.47098 17.8689 6.61209 17.8487 6.75763C17.815 7.00026 17.8693 7.25415 17.9779 7.76195L18.0167 7.94338C18.2114 8.85404 18.3087 9.30936 18.1872 9.53317C18.078 9.73421 17.877 9.86291 17.6549 9.87392C17.4076 9.88618 17.0592 9.59156 16.3624 9.00232C15.9033 8.6141 15.6738 8.42 15.419 8.34417C15.1861 8.27488 14.9392 8.27488 14.7063 8.34417C14.4515 8.42 14.2219 8.6141 13.7629 9.00232C13.0661 9.59156 12.7177 9.88618 12.4704 9.87392C12.2483 9.86291 12.0472 9.73421 11.9381 9.53317C11.8166 9.30936 11.9139 8.85404 12.1086 7.94338L12.1474 7.76195C12.2559 7.25415 12.3102 7.00026 12.2765 6.75763C12.2563 6.61209 12.2132 6.47098 12.1489 6.33996C12.0417 6.12154 11.8563 5.94652 11.4856 5.59649L11.2654 5.38858C10.4724 4.63986 10.0759 4.26551 10.1305 3.90794C10.1418 3.83389 10.165 3.76233 10.1991 3.69623C10.3638 3.37709 10.9031 3.32697 11.9818 3.22671C12.619 3.16749 12.9376 3.13788 13.1928 2.97824C13.2644 2.93346 13.3317 2.88159 13.3936 2.82334C13.6144 2.61568 13.7324 2.31036 13.9685 1.69973Z" fill="black"/>
</svg>
