<svg width="24" height="24" viewBox="0 0 24 24" fill="none" xmlns="http://www.w3.org/2000/svg">
<path d="M7.29395 0.509766C7.29825 0.549742 7.30294 0.613005 7.29688 0.709961C7.28745 0.860432 7.2608 1.04381 7.2207 1.27051L7.0625 2.08984C6.25305 6.11372 7.37367 10.438 10.4219 13.6289L10.7227 13.9346C13.6672 16.8268 17.6426 18.0847 21.4814 17.7129L21.8525 17.6719C22.5174 17.5891 22.9646 17.5348 23.2734 17.5371C23.373 17.5379 23.4385 17.5455 23.4805 17.5527C23.4695 17.5806 23.4534 17.6194 23.4258 17.6699C23.3653 17.7805 23.279 17.9093 23.1641 18.0674L22.7295 18.6416C22.4731 18.9749 22.1967 19.2984 21.9004 19.6104L21.5977 19.918C16.8467 24.5846 9.18661 24.6575 4.34473 20.1367L4.11621 19.918C-0.629625 15.2563 -0.703899 7.74779 3.89355 2.99707L4.11621 2.77246C4.65991 2.23843 5.24168 1.76506 5.85254 1.35156L6.11621 1.17773C6.60294 0.866146 6.91804 0.665388 7.15234 0.561523C7.21656 0.533063 7.26252 0.518172 7.29395 0.509766Z" fill="white" stroke="black"/>
<path d="M19.0688 0.50293C19.0894 0.52503 19.1359 0.582284 19.2056 0.714844C19.2701 0.837791 19.3379 0.991867 19.4165 1.18359L19.6899 1.87988C19.805 2.17759 19.9028 2.42933 20.0005 2.63086C20.0764 2.78745 20.1603 2.93227 20.27 3.0625L20.3892 3.1875C20.4319 3.22773 20.4765 3.26595 20.5229 3.30176L20.6675 3.40234C20.8679 3.52763 21.0787 3.59066 21.3052 3.63184C21.414 3.65162 21.5345 3.66804 21.6665 3.68262L22.0972 3.72461C22.6509 3.77608 23.0167 3.81096 23.2681 3.86719C23.4034 3.89747 23.4634 3.9253 23.4858 3.93848C23.4906 3.94967 23.494 3.96125 23.4966 3.97363C23.4894 3.99498 23.4629 4.05883 23.3599 4.18359C23.2764 4.28467 23.167 4.39887 23.0278 4.53613L22.5171 5.02539L22.2964 5.2334C21.9964 5.51666 21.7523 5.73847 21.5913 6.00293L21.5278 6.12012C21.4619 6.25442 21.4126 6.39606 21.3804 6.54199L21.353 6.68848C21.3165 6.9514 21.3548 7.21785 21.4185 7.5332L21.4888 7.86621L21.5278 8.04785C21.6271 8.512 21.6949 8.82976 21.7251 9.06055C21.7458 9.21828 21.7402 9.2872 21.7388 9.30664C21.7152 9.34251 21.6837 9.36263 21.6519 9.37012C21.6294 9.35972 21.5724 9.33057 21.4673 9.25586C21.3753 9.1905 21.2683 9.10706 21.1401 9.00195L20.6851 8.62012C20.4613 8.43086 20.2728 8.27118 20.1079 8.15137C19.9805 8.05883 19.851 7.97817 19.7085 7.91797L19.562 7.86523C19.2769 7.7804 18.976 7.76942 18.687 7.83301L18.564 7.86523C18.3607 7.92572 18.1869 8.02799 18.0171 8.15137C17.9345 8.21137 17.8463 8.28167 17.7505 8.36035L17.4399 8.62012C17.0844 8.92077 16.8424 9.12525 16.6587 9.25586C16.5524 9.33137 16.4942 9.35899 16.4722 9.36914C16.4406 9.36134 16.4085 9.34233 16.3853 9.30664C16.3838 9.28708 16.3803 9.21804 16.4009 9.06055C16.416 8.94514 16.4401 8.80793 16.4731 8.6416L16.5972 8.04785L16.6362 7.86621C16.7244 7.45396 16.799 7.12981 16.7837 6.82031L16.772 6.68848C16.7513 6.54002 16.7127 6.39482 16.6577 6.25586L16.5981 6.12012C16.4808 5.88103 16.2997 5.68321 16.0718 5.46289L15.8286 5.2334L15.6089 5.02539C15.2023 4.64154 14.9329 4.38557 14.7661 4.18359C14.661 4.05628 14.6339 3.9927 14.6274 3.97266C14.63 3.96068 14.6336 3.94933 14.6382 3.93848C14.6599 3.92554 14.7198 3.89788 14.8569 3.86719C14.9826 3.83908 15.1367 3.81615 15.3286 3.79395L16.0278 3.72461C16.3378 3.6958 16.6022 3.67138 16.8198 3.63184C16.9896 3.60097 17.1508 3.55789 17.3052 3.48535L17.4575 3.40234C17.5072 3.37128 17.5557 3.33752 17.6021 3.30176L17.7358 3.1875C17.9069 3.02659 18.0242 2.83972 18.1255 2.63086C18.1744 2.52997 18.2231 2.4165 18.2739 2.29102L18.4351 1.87988C18.6474 1.33061 18.7912 0.9608 18.9204 0.714844C18.9904 0.581701 19.0367 0.524753 19.0571 0.50293C19.0611 0.502747 19.0649 0.502723 19.0688 0.50293Z" fill="white" stroke="black"/>
</svg>
