<svg width="24" height="24" viewBox="0 0 24 24" fill="none" xmlns="http://www.w3.org/2000/svg">
<path d="M19.8062 21.1456C19.7324 21.1796 19.6544 21.2061 19.5743 21.2247C19.5631 21.2276 19.5509 21.2303 19.5383 21.2325L6.51502 23.8483C6.22059 23.9077 5.91452 23.8601 5.65158 23.7143L5.63994 23.7083C5.40227 23.5739 5.21664 23.3703 5.10332 23.1198L0.477116 12.8942C0.382247 12.6845 0.35146 12.4537 0.387963 12.2265L0.437804 12.23C0.442819 12.4538 0.521141 12.6329 0.664045 12.7482C0.834328 12.8854 1.08875 12.9285 1.38027 12.8691L15.0812 10.0382C15.6329 9.92721 16.181 10.2099 16.4144 10.7256L20.4006 19.5364C20.6765 20.1464 20.4099 20.8682 19.8063 21.1455L19.8062 21.1456Z" fill="#E67E22"/>
<path d="M0.412986 12.2306C0.425321 12.7781 0.854537 13.0018 1.38544 12.894C1.38705 12.8938 1.38835 12.8932 1.38995 12.893L15.0865 10.063C15.6239 9.95489 16.1644 10.2336 16.3918 10.7362L20.378 19.547C20.6545 20.1583 20.3723 20.8579 19.796 21.1227C19.7246 21.1554 19.6488 21.1816 19.569 21.2001C19.5576 21.203 19.5461 21.2057 19.5344 21.2077L6.51036 23.8236C6.20891 23.8844 5.90655 23.83 5.65293 23.6861L5.65243 23.6863C5.42659 23.5586 5.23996 23.3605 5.12634 23.1094L0.500133 12.8837C0.40406 12.6712 0.378388 12.4454 0.412986 12.2306ZM0.363445 12.2225C0.326039 12.4545 0.357529 12.6904 0.454503 12.9047L5.08081 23.1303C5.19634 23.3857 5.38557 23.5932 5.62796 23.7304L5.65012 23.7429L5.65083 23.7426C5.91648 23.8864 6.22415 23.9328 6.52019 23.8731L19.5442 21.2572C19.5557 21.2552 19.5688 21.2524 19.5817 21.249C19.6619 21.2305 19.7416 21.2033 19.8169 21.1688C20.4331 20.8856 20.7053 20.1487 20.4236 19.5261L16.4374 10.7152C16.1992 10.1888 15.6396 9.90021 15.0766 10.0135L1.38193 12.8431L1.38033 12.8433L1.37611 12.8444H1.37551C1.09141 12.9022 0.844408 12.8611 0.679942 12.7285C0.542954 12.6182 0.467941 12.4457 0.463128 12.2296L0.363546 12.2226L0.363445 12.2225Z" fill="#66142E"/>
<path d="M1.18964 13.7895C1.1743 13.7966 1.15695 13.7998 1.1389 13.7981C1.01545 13.7865 0.902631 13.7586 0.793923 13.7127C0.742878 13.691 0.71881 13.6318 0.740271 13.5804C0.761732 13.5289 0.820398 13.5047 0.871543 13.5262C0.961097 13.5641 1.05456 13.5871 1.15745 13.5967C1.21261 13.6019 1.25322 13.6511 1.24801 13.7067C1.2446 13.7441 1.22133 13.7748 1.18964 13.7894V13.7895Z" fill="white"/>
<path d="M19.2902 20.5326C19.2833 20.5357 19.2759 20.5382 19.2681 20.5397L18.6316 20.6676C18.5773 20.6785 18.5245 20.6429 18.5137 20.5883C18.5029 20.5335 18.5383 20.4802 18.5924 20.4694L19.2289 20.3415C19.2833 20.3306 19.336 20.3662 19.3469 20.4209C19.3561 20.4678 19.3316 20.5136 19.2902 20.5326ZM19.7246 20.1358C19.7118 20.1416 19.6976 20.145 19.6826 20.1449C19.6273 20.1446 19.5825 20.0991 19.5828 20.0433C19.583 20.0033 19.5742 19.9632 19.5567 19.9243L19.356 19.4808C19.333 19.4301 19.3553 19.3701 19.4056 19.3469C19.456 19.3238 19.5155 19.3462 19.5385 19.3969L19.7392 19.8404C19.7689 19.9061 19.7838 19.9748 19.7834 20.0443C19.7832 20.085 19.7591 20.1199 19.7246 20.1358ZM18.0173 20.7882C18.0104 20.7914 18.003 20.7938 17.9952 20.7953L17.3587 20.9232C17.3044 20.9341 17.2516 20.8985 17.2408 20.8439C17.23 20.7891 17.2653 20.7358 17.3195 20.725L17.956 20.5971C18.0104 20.5862 18.0631 20.6218 18.074 20.6765C18.0832 20.7234 18.0587 20.7692 18.0173 20.7882ZM16.7444 21.0439C16.7375 21.047 16.7301 21.0495 16.7223 21.0511L16.0858 21.1789C16.0315 21.1898 15.9787 21.1542 15.9679 21.0996C15.9571 21.0448 15.9925 20.9914 16.0466 20.9807L16.6831 20.8529C16.7375 20.8419 16.7902 20.8775 16.8011 20.9322C16.8103 20.9791 16.7858 21.0249 16.7444 21.0439ZM15.4715 21.2996C15.4646 21.3027 15.4571 21.3052 15.4494 21.3068L14.8129 21.4346C14.7586 21.4455 14.7058 21.4099 14.695 21.3553C14.6842 21.3006 14.7194 21.2473 14.7737 21.2364L15.4102 21.1086C15.4646 21.0976 15.5173 21.1332 15.5281 21.1879C15.5374 21.2348 15.5129 21.2806 15.4715 21.2996ZM14.1985 21.5552C14.1916 21.5583 14.1841 21.5608 14.1764 21.5624L13.5399 21.6902C13.4856 21.7011 13.4328 21.6656 13.422 21.6109C13.4111 21.5562 13.4464 21.503 13.5007 21.492L14.1372 21.3642C14.1916 21.3532 14.2443 21.3888 14.2551 21.4435C14.2644 21.4904 14.2399 21.5362 14.1985 21.5552ZM19.2196 18.9358C19.1693 18.9589 19.1097 18.9365 19.0867 18.8857L18.8175 18.2906C18.7945 18.2399 18.8168 18.1799 18.8671 18.1567C18.9175 18.1336 18.977 18.156 19 18.2067L19.2692 18.8018C19.2922 18.8526 19.27 18.9126 19.2196 18.9358ZM12.9256 21.8109C12.9187 21.814 12.9112 21.8166 12.9035 21.8181L12.267 21.9459C12.2127 21.9568 12.1599 21.9213 12.1491 21.8666C12.1382 21.8119 12.1734 21.7585 12.2278 21.7477L12.8643 21.6199C12.9187 21.609 12.9714 21.6445 12.9822 21.6992C12.9915 21.7461 12.967 21.7919 12.9256 21.8109ZM11.6527 22.0666C11.6457 22.0698 11.6383 22.0723 11.6306 22.0738L10.9941 22.2016C10.9397 22.2125 10.887 22.177 10.8762 22.1223C10.8653 22.0676 10.9004 22.0143 10.9549 22.0034L11.5914 21.8756C11.6457 21.8647 11.6985 21.9002 11.7093 21.9549C11.7186 22.0018 11.6941 22.0476 11.6527 22.0666ZM10.3798 22.3222C10.3728 22.3253 10.3654 22.3279 10.3577 22.3294L9.7212 22.4572C9.66684 22.4682 9.61409 22.4326 9.60326 22.3779C9.59243 22.3231 9.62783 22.27 9.68198 22.259L10.3185 22.1312C10.3728 22.1203 10.4256 22.1558 10.4364 22.2105C10.4456 22.2574 10.4212 22.3032 10.3798 22.3222ZM9.10685 22.5779C9.09994 22.5811 9.09251 22.5836 9.08479 22.5851L8.44829 22.7129C8.39393 22.7239 8.34118 22.6883 8.33035 22.6336C8.31952 22.5788 8.35492 22.5257 8.40908 22.5147L9.04558 22.3869C9.09993 22.376 9.15268 22.4116 9.16352 22.4662C9.17274 22.5131 9.14827 22.5589 9.10685 22.5779ZM7.83385 22.8336C7.82693 22.8368 7.81951 22.8393 7.81179 22.8408L7.17528 22.9686C7.12093 22.9796 7.06818 22.944 7.05735 22.8893C7.04652 22.8345 7.08192 22.7813 7.13607 22.7704L7.77257 22.6426C7.82693 22.6317 7.87968 22.6673 7.89051 22.7219C7.89973 22.7688 7.87527 22.8146 7.83385 22.8336ZM18.6811 17.7456C18.6307 17.7687 18.5712 17.7463 18.5482 17.6955L18.2789 17.1004C18.256 17.0497 18.2782 16.9897 18.3286 16.9665C18.3789 16.9434 18.4385 16.9658 18.4615 17.0165L18.7307 17.6116C18.7537 17.6624 18.7314 17.7224 18.6811 17.7456ZM6.56094 23.0892C6.55402 23.0924 6.5466 23.0949 6.53888 23.0964L6.37311 23.1297C6.19571 23.174 6.03605 23.2019 5.88934 23.2141C5.83408 23.2187 5.78574 23.1774 5.78113 23.1217C5.77662 23.0661 5.81773 23.0174 5.87279 23.0126C6.00868 23.0013 6.158 22.9751 6.32938 22.9324L6.49967 22.8981C6.55402 22.8872 6.60677 22.9227 6.6176 22.9774C6.62683 23.0243 6.60236 23.0701 6.56094 23.0891V23.0892ZM18.1427 16.5553C18.0923 16.5784 18.0327 16.556 18.0098 16.5052L17.7405 15.9101C17.7176 15.8594 17.7398 15.7994 17.7902 15.7762C17.8405 15.7531 17.9001 15.7755 17.923 15.8262L18.1923 16.4213C18.2153 16.4721 18.193 16.5321 18.1427 16.5553ZM17.6041 15.3651C17.5538 15.3882 17.4942 15.3658 17.4713 15.315L17.202 14.7199C17.179 14.6692 17.2013 14.6092 17.2516 14.586C17.302 14.5629 17.3615 14.5853 17.3845 14.6361L17.6538 15.2312C17.6767 15.2819 17.6545 15.3419 17.6041 15.3651ZM17.0656 14.1748C17.0153 14.1979 16.9557 14.1755 16.9327 14.1247L16.6635 13.5296C16.6405 13.4789 16.6628 13.4189 16.7131 13.3957C16.7634 13.3726 16.823 13.395 16.846 13.4458L17.1152 14.0409C17.1382 14.0916 17.1159 14.1516 17.0656 14.1748ZM16.5272 12.9846C16.4768 13.0077 16.4173 12.9853 16.3943 12.9345L16.125 12.3394C16.1021 12.2887 16.1243 12.2287 16.1747 12.2055C16.225 12.1824 16.2846 12.2048 16.3076 12.2556L16.5768 12.8507C16.5998 12.9014 16.5775 12.9614 16.5272 12.9846ZM15.9887 11.7944C15.9383 11.8175 15.8787 11.7951 15.8558 11.7443L15.5865 11.1492C15.5635 11.0985 15.5858 11.0385 15.6362 11.0153C15.6865 10.9922 15.7461 11.0146 15.769 11.0654L16.0383 11.6605C16.0613 11.7112 16.039 11.7712 15.9887 11.7944ZM15.1848 10.9686C15.178 10.9718 15.1708 10.9742 15.1632 10.9757L14.5275 11.1071C14.4733 11.1183 14.4202 11.083 14.4092 11.0284C14.398 10.9737 14.4332 10.9204 14.4873 10.9091L15.123 10.7777C15.1773 10.7665 15.2303 10.8018 15.2413 10.8564C15.2509 10.9034 15.2264 10.9495 15.1848 10.9686ZM13.9133 11.2314C13.9065 11.2346 13.8993 11.237 13.8917 11.2385L13.2559 11.3698C13.2017 11.381 13.1486 11.3457 13.1376 11.291C13.1264 11.2364 13.1616 11.183 13.2157 11.1718L13.8515 11.0405C13.9058 11.0293 13.9588 11.0646 13.9698 11.1192C13.9794 11.1662 13.9549 11.2123 13.9133 11.2314ZM12.6418 11.4941C12.635 11.4972 12.6278 11.4997 12.6202 11.5012L11.9844 11.6326C11.9302 11.6438 11.8771 11.6085 11.8661 11.5538C11.8549 11.4992 11.8901 11.4458 11.9442 11.4346L12.58 11.3032C12.6342 11.292 12.6873 11.3272 12.6983 11.3819C12.7079 11.4289 12.6834 11.475 12.6418 11.4941ZM11.3703 11.7568C11.3634 11.7599 11.3563 11.7622 11.3487 11.7639L10.7129 11.8951C10.6587 11.9064 10.6056 11.8711 10.5946 11.8164C10.5834 11.7617 10.6186 11.7085 10.6727 11.6971L11.3085 11.5659C11.3627 11.5546 11.4158 11.5899 11.4268 11.6446C11.4364 11.6916 11.4119 11.7377 11.3703 11.7568ZM10.0987 12.0195C10.0918 12.0226 10.0847 12.025 10.0771 12.0265L9.4413 12.1579C9.38705 12.1691 9.334 12.1339 9.32297 12.0792C9.31184 12.0245 9.34714 11.9712 9.40109 11.9599L10.0369 11.8285C10.0911 11.8173 10.1442 11.8526 10.1552 11.9073C10.1648 11.9543 10.1403 12.0004 10.0987 12.0195ZM8.82716 12.2822C8.82034 12.2854 8.81322 12.2878 8.8056 12.2893L8.1699 12.4207C8.11565 12.4319 8.0626 12.3967 8.05156 12.342C8.04043 12.2873 8.07563 12.234 8.12969 12.2227L8.76539 12.0913C8.81964 12.0801 8.87269 12.1154 8.88372 12.1701C8.89325 12.217 8.86878 12.2631 8.82716 12.2822ZM7.55566 12.5449C7.54884 12.5481 7.54172 12.5505 7.5341 12.552L6.8983 12.6834C6.84404 12.6946 6.79099 12.6593 6.77996 12.6047C6.76883 12.55 6.80393 12.4966 6.85808 12.4854L7.49388 12.354C7.54814 12.3428 7.60119 12.3781 7.61222 12.4327C7.62175 12.4797 7.59728 12.5258 7.55566 12.5449ZM6.28416 12.8077C6.27734 12.8108 6.27022 12.8133 6.2626 12.8148L5.62679 12.9461C5.57254 12.9573 5.51949 12.922 5.50846 12.8673C5.49733 12.8127 5.53263 12.7594 5.58658 12.7481L6.22238 12.6168C6.27664 12.6056 6.32969 12.6408 6.34072 12.6955C6.35024 12.7425 6.32577 12.7886 6.28416 12.8077ZM5.01265 13.0704C5.00583 13.0735 4.99871 13.0759 4.99109 13.0775L4.35529 13.2087C4.30104 13.22 4.24799 13.1847 4.23696 13.13C4.22582 13.0753 4.26102 13.0221 4.31508 13.0108L4.95088 12.8795C5.00513 12.8682 5.05818 12.9035 5.06921 12.9582C5.07874 13.0052 5.05427 13.0513 5.01265 13.0704ZM3.74115 13.3332C3.73433 13.3363 3.72721 13.3386 3.71959 13.3402L3.08379 13.4715C3.02953 13.4827 2.97648 13.4475 2.96545 13.3928C2.95432 13.3381 2.98952 13.2848 3.04357 13.2735L3.67938 13.1422C3.73363 13.131 3.78668 13.1663 3.79771 13.221C3.80724 13.268 3.78277 13.3141 3.74115 13.3332ZM2.46965 13.5958C2.46283 13.599 2.45571 13.6013 2.44809 13.6029L1.81229 13.7342C1.75803 13.7454 1.70498 13.7102 1.69395 13.6555C1.68282 13.6008 1.71802 13.5474 1.77207 13.5362L2.40787 13.4049C2.46213 13.3937 2.51518 13.429 2.52621 13.4837C2.53574 13.5307 2.51127 13.5767 2.46965 13.5958Z" fill="white"/>
<path d="M5.28615 23.1126C5.25967 23.1247 5.22818 23.1252 5.2001 23.1113C5.08728 23.0551 4.99121 22.9765 4.91449 22.8781C4.8803 22.8342 4.88782 22.7707 4.93144 22.7362C4.97497 22.7015 5.03804 22.7094 5.07224 22.7533C5.13031 22.8279 5.20331 22.8873 5.28895 22.93C5.3386 22.9548 5.35895 23.0154 5.33438 23.0655C5.32375 23.0871 5.3064 23.1033 5.28615 23.1126Z" fill="white"/>
<g opacity="0.55">
<path d="M16.3914 10.7362L16.5577 11.1041C16.3304 10.6016 15.7899 10.3228 15.2524 10.4309L1.55592 13.2608C1.55432 13.261 1.55301 13.2616 1.55141 13.2618C1.05891 13.3621 0.653764 13.1767 0.588379 12.7119C0.763876 12.9001 1.0545 12.9614 1.38494 12.894C1.38654 12.8938 1.38784 12.8932 1.38945 12.893L15.086 10.0631C15.6234 9.95491 16.1639 10.2337 16.3913 10.7362H16.3914Z" fill="white"/>
</g>
<g opacity="0.55">
<path d="M0.57919 12.5984C0.579992 12.638 0.583402 12.6759 0.588617 12.7118C0.581497 12.7045 0.574778 12.697 0.568359 12.6889C0.570766 12.6589 0.574076 12.6285 0.57919 12.5984Z" fill="white"/>
<path d="M0.57919 12.5984C0.579992 12.638 0.583402 12.6759 0.588617 12.7118C0.581497 12.7045 0.574778 12.697 0.568359 12.6889C0.570766 12.6589 0.574076 12.6285 0.57919 12.5984Z" stroke="#66142E" stroke-width="0.25" stroke-miterlimit="10"/>
</g>
<path d="M19.8576 21.2607C19.7765 21.298 19.6911 21.3273 19.6022 21.3478C19.5912 21.3508 19.5754 21.3543 19.5595 21.357L6.53941 23.9722C5.89819 24.1012 5.26069 23.7723 4.98922 23.1722L0.362909 12.9466C0.257711 12.7141 0.223615 12.4581 0.264129 12.2062C0.276565 12.1289 0.34546 12.0739 0.42298 12.0793C0.500499 12.0848 0.561171 12.1487 0.562976 12.2271C0.567188 12.415 0.627559 12.5571 0.742184 12.6494C0.882983 12.7628 1.1005 12.797 1.35482 12.7455C1.35632 12.745 1.35783 12.7447 1.35933 12.7444L15.0558 9.91449C15.6655 9.79179 16.2707 10.1039 16.5282 10.6732L20.5144 19.4841C20.681 19.8524 20.6746 20.2716 20.4968 20.6345C20.3593 20.9149 20.1334 21.1339 19.8576 21.2607ZM0.710294 12.9837L5.26289 23.0465C5.4762 23.5179 5.97682 23.7763 6.48054 23.6748L19.5046 21.0589C19.5161 21.0569 19.5234 21.0552 19.5307 21.0534C19.8372 20.9824 20.0895 20.7813 20.2271 20.5002C20.3647 20.2194 20.3697 19.8948 20.2407 19.6099L16.2545 10.7991C16.0552 10.3584 15.5868 10.1168 15.1155 10.2117L1.4198 13.0415C1.4183 13.0419 1.41659 13.0422 1.41479 13.0425C1.14854 13.0967 0.904945 13.0754 0.710294 12.9837Z" fill="#66142E"/>
<path d="M16.8656 9.65241C16.7357 9.36527 16.5017 9.14787 16.2067 9.04023C16.0089 8.96807 15.7951 8.95179 15.5883 8.99333L1.29443 12.0714L15.1043 5.72534C15.4393 5.57142 15.8201 5.5793 16.1491 5.74718C16.3955 5.872 16.5867 6.07252 16.7018 6.32701L20.7148 15.1971C20.7704 15.3202 20.805 15.4503 20.8177 15.5838C20.8523 15.9424 20.7284 16.2953 20.478 16.5521C20.3769 16.6556 20.2591 16.7395 20.1277 16.8016L20.1047 16.8124L16.8655 9.65251L16.8656 9.65241Z" fill="#E67E22"/>
<path d="M15.1145 5.7483C15.4544 5.59214 15.8288 5.61216 16.1376 5.76972C16.3692 5.88707 16.5631 6.08183 16.6788 6.33743L20.6918 15.2075C20.7475 15.3308 20.7804 15.4584 20.7926 15.5861C20.8264 15.936 20.7035 16.2846 20.4599 16.5344C20.3636 16.6331 20.2485 16.7164 20.1169 16.7786L16.8881 9.64201C16.7527 9.34264 16.506 9.12281 16.215 9.01659C16.0176 8.94453 15.8 8.92512 15.5832 8.96868L1.51375 11.9983L15.1145 5.7483ZM15.0937 5.70231L1.49299 11.9524L1.07471 12.1446L1.52418 12.0478L15.5937 9.018C15.7952 8.97758 16.0044 8.99344 16.198 9.06399C16.4866 9.16931 16.7154 9.38196 16.8425 9.66293L20.0712 16.7996L20.0923 16.8461L20.1381 16.8244C20.2722 16.7611 20.3924 16.6755 20.4956 16.5698C20.7514 16.3078 20.8777 15.9474 20.8424 15.5814C20.8296 15.4451 20.7942 15.3123 20.7373 15.1867L16.7243 6.31661C16.6068 6.05686 16.4117 5.8522 16.16 5.72465C15.8243 5.55333 15.4356 5.54525 15.0936 5.70241L15.0937 5.70231Z" fill="#66142E"/>
<g opacity="0.3">
<path d="M16.6792 6.33742L20.6922 15.2075C20.7479 15.3307 20.7808 15.4584 20.793 15.5861C20.8268 15.936 20.7039 16.2846 20.4603 16.5342C20.364 16.633 20.249 16.7164 20.1173 16.7785L16.8885 9.6419C16.7531 9.34253 16.5064 9.1227 16.2154 9.01648L15.3369 7.07473L15.5177 6.82508C16.0905 6.54189 16.4864 6.22554 16.138 5.76971C16.3696 5.88706 16.5635 6.08182 16.6792 6.33742Z" fill="#66142E"/>
</g>
<path d="M20.1794 16.9165C20.1434 16.9331 20.1023 16.9346 20.0651 16.9208C20.0273 16.9069 19.9968 16.8783 19.9801 16.8414L16.7514 9.70475C16.552 9.26418 16.0838 9.02252 15.6127 9.11713L1.54519 12.1466C1.47017 12.1628 1.39496 12.1193 1.37089 12.0459C1.34682 11.9724 1.38152 11.8925 1.45132 11.8604L15.0522 5.61031C15.72 5.30336 16.5112 5.60131 16.8158 6.27454L20.8287 15.1446C20.8902 15.2805 20.9284 15.4242 20.9423 15.5717C20.9806 15.9674 20.8438 16.3571 20.5672 16.6406C20.4556 16.7548 20.3256 16.8474 20.1807 16.9159L20.1793 16.9165H20.1794ZM2.83093 11.5597L15.5519 8.82038C16.1625 8.69769 16.7675 9.00979 17.025 9.57912L20.1862 16.5663C20.2464 16.5262 20.302 16.4801 20.3528 16.4281C20.5667 16.2088 20.6724 15.9073 20.6429 15.601C20.6322 15.4867 20.6026 15.3757 20.5549 15.2706L16.542 6.40047C16.3062 5.87946 15.6939 5.64882 15.1769 5.88633L2.83093 11.5597Z" fill="#66142E"/>
<g opacity="0.3">
<path d="M1.76465 11.9444L4.46941 10.7014L4.83284 11.2074L1.76465 11.9444Z" fill="#66142E"/>
</g>
<g opacity="0.3">
<path d="M6.68115 10.8857L6.81343 10.8248L7.51692 10.5015L13.3799 7.80718L14.0839 7.48366L15.3692 6.89311C16.4048 6.44163 16.4454 5.9953 16.0178 5.71635C15.5093 5.44821 14.7331 5.84532 13.88 6.43354L6.68115 10.8856V10.8857Z" fill="#66142E"/>
</g>
<path d="M20.1285 21.045C19.9588 21.123 19.7722 21.1834 19.574 21.2248L19.5633 21.1754C19.64 21.1577 19.7149 21.1321 19.7856 21.0997C20.364 20.8338 20.6195 20.142 20.3551 19.5574L16.3689 10.7466C16.2947 10.5824 16.1819 10.4361 16.0432 10.3234C15.7755 10.1058 15.4285 10.02 15.0914 10.0877L1.38803 12.9191C1.08387 12.981 0.814906 12.9344 0.63279 12.7877C0.477851 12.6629 0.393111 12.4704 0.387695 12.2312C0.449771 11.842 0.69657 11.5159 1.04797 11.3544L15.5083 4.70938C16.1134 4.43134 16.83 4.70119 17.1059 5.31095L21.1188 14.1811C21.6615 15.3394 21.328 15.8891 20.4756 16.5542L20.4424 16.5165C20.6825 16.2704 20.8011 15.9323 20.7679 15.5885C20.7558 15.4606 20.7227 15.336 20.6693 15.2179L16.6563 6.34782C16.6126 6.2511 16.5569 6.16226 16.4909 6.08362L16.4887 6.081L16.4883 6.08009C16.156 5.68197 15.596 5.55493 15.1252 5.77122L1.73361 11.9252L15.5784 8.9438C15.9634 8.86658 16.3627 8.98352 16.6467 9.25671C16.7578 9.36283 16.8468 9.48897 16.9113 9.63137L20.8782 18.3995C21.1839 18.9742 21.2595 19.5366 21.0962 20.0247C20.9471 20.4697 20.6126 20.8225 20.1285 21.045Z" fill="#D3623B"/>
<path d="M15.5184 4.73242C16.112 4.45963 16.8123 4.72373 17.0828 5.32156L21.0958 14.1917C21.6409 15.3553 21.2754 15.8982 20.4599 16.5344C20.7035 16.2847 20.8263 15.9362 20.7926 15.5862C20.7806 15.4584 20.7476 15.3309 20.6918 15.2076L16.6788 6.33751C16.6337 6.23765 16.5767 6.14719 16.5099 6.06745L16.5095 6.06654C16.1774 5.66651 15.6086 5.52127 15.1145 5.74837L1.51377 11.9983L15.5833 8.96856C15.9693 8.89114 16.357 9.01343 16.6291 9.275C16.7359 9.37698 16.8243 9.50069 16.8882 9.64188L20.8551 18.41C21.4772 19.5795 21.0819 20.5789 20.1178 21.0219C19.9509 21.0986 19.7672 21.1586 19.5685 21.1999C19.6483 21.1814 19.7243 21.1553 19.7956 21.1225C20.3719 20.8577 20.654 20.1581 20.3775 19.5468L16.3913 10.736C16.3131 10.5631 16.1978 10.4167 16.0585 10.3035C15.7926 10.0874 15.4386 9.99189 15.086 10.0627L1.38952 12.893C1.38791 12.8932 1.38661 12.8938 1.385 12.894C0.854098 13.0019 0.424882 12.7781 0.412547 12.2306C0.470712 11.8683 0.701867 11.5412 1.05818 11.3774L15.5184 4.73242ZM15.4977 4.68643L1.03732 11.3314C0.6782 11.4964 0.426085 11.8295 0.363007 12.2225L0.362305 12.227V12.2317C0.368021 12.4786 0.45597 12.6776 0.616826 12.8073C0.804457 12.9585 1.07994 13.007 1.39262 12.9439L1.39433 12.9437L1.39884 12.9426L1.39954 12.9424L15.0961 10.1125C15.4257 10.0462 15.7651 10.1302 16.027 10.343C16.1629 10.4533 16.2731 10.5965 16.3457 10.7571L20.3319 19.5679C20.5906 20.1398 20.3407 20.8167 19.7748 21.0767C19.7056 21.1086 19.6325 21.1334 19.5574 21.1508L19.5788 21.2495C19.7788 21.2079 19.9672 21.1469 20.1386 21.068C20.6291 20.8426 20.9684 20.4846 21.1196 20.0329C21.2852 19.5384 21.2093 18.9695 20.9 18.3876L16.9339 9.62096C16.8681 9.47552 16.7771 9.34686 16.6636 9.23831C16.3737 8.95966 15.9662 8.8402 15.5736 8.91893L1.95281 11.8521L15.1354 5.79426C15.5949 5.58312 16.1413 5.70633 16.4667 6.09373L16.4715 6.1C16.536 6.17681 16.5904 6.26383 16.6332 6.35843L20.6462 15.2285C20.6983 15.3438 20.7308 15.4658 20.7426 15.591C20.7751 15.9273 20.659 16.2582 20.4242 16.499L20.4907 16.5744C20.8459 16.2971 21.1942 15.9844 21.3354 15.5775C21.4704 15.1884 21.4086 14.7413 21.1412 14.1701L17.1284 5.30063C16.8468 4.67815 16.1152 4.40273 15.4977 4.68653V4.68643Z" fill="#66142E"/>
<g opacity="0.55">
<path d="M20.3778 19.547L20.5078 19.8344C20.6497 20.148 20.6446 20.4852 20.5276 20.7745C20.272 20.9747 19.9471 21.1213 19.5688 21.2C20.2937 21.0325 20.6886 20.2339 20.3778 19.5469V19.547Z" fill="white"/>
<path d="M20.3778 19.547L20.5078 19.8344C20.6497 20.148 20.6446 20.4852 20.5276 20.7745C20.272 20.9747 19.9471 21.1213 19.5688 21.2C20.2937 21.0325 20.6886 20.234 20.3778 19.547Z" stroke="#66142E" stroke-width="0.25" stroke-miterlimit="10"/>
</g>
<g opacity="0.55">
<path d="M20.8555 18.41C20.9133 18.5184 20.9625 18.6258 21.0029 18.731C20.9973 18.7197 20.9916 18.7085 20.9854 18.6973L20.8555 18.41Z" fill="white"/>
<path d="M20.8555 18.41C20.9133 18.5184 20.9625 18.6258 21.0029 18.731C20.9973 18.7197 20.9916 18.7085 20.9854 18.6973L20.8555 18.41Z" stroke="#66142E" stroke-width="0.25" stroke-miterlimit="10"/>
</g>
<g opacity="0.55">
<path d="M20.7926 15.5861C20.7806 15.4583 20.7476 15.3307 20.6918 15.2075L20.8218 15.4948C20.8775 15.618 20.9104 15.7457 20.9226 15.8734C20.931 15.959 20.9295 16.0446 20.9196 16.1286C20.7904 16.2647 20.6356 16.3975 20.46 16.5342C20.7036 16.2846 20.8264 15.936 20.7926 15.5861Z" fill="white"/>
<path d="M20.7926 15.5861C20.7806 15.4583 20.7476 15.3307 20.6918 15.2075L20.8218 15.4948C20.8775 15.618 20.9104 15.7457 20.9226 15.8734C20.931 15.959 20.9295 16.0446 20.9196 16.1286C20.7904 16.2647 20.6356 16.3975 20.46 16.5342C20.7036 16.2846 20.8264 15.936 20.7926 15.5861Z" stroke="#66142E" stroke-width="0.25" stroke-miterlimit="10"/>
</g>
<g opacity="0.55">
<path d="M17.0829 5.32148L17.2129 5.60883C16.9424 5.0111 16.2421 4.747 15.6486 5.01969L1.1883 11.6648C0.831986 11.8286 0.600931 12.1558 0.542666 12.5181C0.54397 12.5758 0.550187 12.6296 0.560216 12.68C0.470161 12.5686 0.416709 12.4188 0.412598 12.2307C0.470762 11.8685 0.701917 11.5412 1.05823 11.3775L15.5186 4.73235C16.1122 4.45956 16.8125 4.72376 17.0829 5.32148Z" fill="white"/>
</g>
<g opacity="0.3">
<path d="M20.8551 18.41C21.5848 19.7819 20.9147 20.9197 19.5685 21.2C20.2934 21.0325 20.6883 20.2339 20.3775 19.5469L16.3913 10.7361C16.3131 10.5631 16.1978 10.4168 16.0585 10.3036C15.6447 9.65453 16.0268 9.12512 16.6291 9.27491C16.7359 9.37689 16.8244 9.5006 16.8882 9.64179L20.8551 18.4099V18.41Z" fill="#66142E"/>
</g>
<path d="M20.1841 21.159C20.0061 21.2408 19.8103 21.3045 19.599 21.3485C19.5183 21.3653 19.4392 21.3135 19.4216 21.2324C19.4041 21.1512 19.4547 21.0709 19.535 21.0524C19.8372 20.9825 20.0893 20.7813 20.227 20.5003C20.3646 20.2195 20.3696 19.8949 20.2407 19.61L16.2545 10.7991C16.0551 10.3585 15.5868 10.1169 15.1154 10.2118L1.41982 13.0415C1.41832 13.0419 1.41662 13.0422 1.41481 13.0425C1.07154 13.1123 0.765972 13.0568 0.554272 12.8862C0.369448 12.7373 0.268462 12.5118 0.262244 12.234C0.262044 12.2247 0.262646 12.2154 0.26415 12.2063C0.332644 11.78 0.606219 11.4185 0.995923 11.2394L15.4562 4.59447C16.1241 4.28752 16.9152 4.58548 17.2198 5.2586L21.2328 14.1288C21.8049 15.3499 21.4166 15.9798 20.5521 16.6542C20.4898 16.7032 20.4002 16.6946 20.3476 16.6351C20.295 16.5755 20.2972 16.485 20.3528 16.4281C20.5667 16.2087 20.6725 15.9072 20.6429 15.6009C20.6322 15.4867 20.6026 15.3756 20.5549 15.2705L16.542 6.40039C16.3062 5.87937 15.6939 5.64873 15.1769 5.88624L2.83112 11.5597L15.5521 8.8204C16.1627 8.6977 16.7677 9.00981 17.0252 9.57913L20.9901 18.3428C21.3462 19.0146 21.4012 19.6883 21.1452 20.2402C20.9594 20.6405 20.6268 20.9555 20.1842 21.159H20.1841ZM1.35935 12.7444L15.0559 9.91448C15.6655 9.79178 16.2707 10.1039 16.5282 10.6732L20.5144 19.4841C20.6734 19.8354 20.6748 20.2332 20.5202 20.5841C20.6709 20.4486 20.7898 20.29 20.8726 20.1117C21.0912 19.6407 21.0393 19.0771 20.7226 18.4817C20.7211 18.4788 20.7197 18.4759 20.7183 18.473L16.7515 9.70486C16.5521 9.2642 16.0839 9.02264 15.6128 9.11724L1.54528 12.1466C1.47027 12.1628 1.39505 12.1193 1.37099 12.0459C1.34692 11.9725 1.38162 11.8925 1.45141 11.8604L15.0522 5.61032C15.7201 5.30338 16.5113 5.60133 16.8158 6.27455L20.8288 15.1446C20.8903 15.2805 20.9285 15.4242 20.9424 15.5718C20.9524 15.6747 20.9505 15.7773 20.9373 15.8778C21.2672 15.4559 21.3073 14.9978 20.9599 14.2563L16.946 5.38433C16.7104 4.86332 16.0979 4.63268 15.5809 4.87029L1.12068 11.5153C0.826944 11.6504 0.619457 11.9209 0.563398 12.241C0.570217 12.422 0.630388 12.5594 0.742204 12.6495C0.883003 12.763 1.10052 12.7971 1.35484 12.7454C1.35634 12.7451 1.35785 12.7447 1.35935 12.7444Z" fill="#66142E"/>
<path d="M15.5137 6.99449C15.4861 7.00723 15.4578 7.01986 15.4289 7.03239L6.74363 11.0236C6.66801 11.0584 6.57886 11.0247 6.54436 10.9485C6.50987 10.8723 6.54326 10.7825 6.61887 10.7477L15.3069 6.75526C16.0202 6.44346 16.1152 6.19968 16.1226 6.10922C16.1319 5.99643 16.0263 5.90264 15.9362 5.84381C15.8665 5.79833 15.8464 5.70444 15.8915 5.6342C15.9367 5.56385 16.0298 5.54374 16.0995 5.58932C16.3881 5.77741 16.4343 5.98956 16.4223 6.13439C16.3972 6.43982 16.0916 6.72888 15.5137 6.99449Z" fill="#66142E"/>
<g opacity="0.3">
<path d="M17.1364 5.43962L21.0959 14.1916C21.641 15.3551 21.2755 15.898 20.4601 16.5343C20.7037 16.2846 20.8265 15.936 20.7927 15.5861C20.7807 15.4584 20.7477 15.3307 20.6919 15.2075L16.679 6.33743C16.6338 6.23767 16.5769 6.14721 16.51 6.06737L16.5096 6.06646C16.2084 5.29732 16.4744 4.55749 17.1364 5.43962Z" fill="#66142E"/>
</g>
<g opacity="0.3">
<path d="M16.3438 11.6056L20.0125 19.7147C20.191 20.1092 20.0191 20.5759 19.6295 20.7549C19.5816 20.777 19.5309 20.7941 19.4789 20.8058L19.4672 20.809L6.43143 23.427C6.37497 23.4385 6.3177 23.4437 6.26074 23.4433C11.3834 21.2976 15.4799 16.9157 16.3438 11.6057V11.6056Z" fill="#66142E"/>
</g>
<path d="M22.6476 12.7109L22.0963 12.5566C21.9653 12.5199 21.8869 12.3867 21.9156 12.2544C21.9165 12.2499 21.9179 12.2449 21.9191 12.2405L22.7979 9.05217C22.8355 8.91572 22.9758 8.83558 23.1115 8.87358L23.6628 9.02791C23.7985 9.06591 23.8776 9.20751 23.84 9.34396L22.9612 12.5323C22.9236 12.6687 22.7833 12.7489 22.6476 12.7109Z" fill="#F7C714"/>
<path d="M22.8319 12.7201C22.7741 12.7467 22.707 12.7537 22.6411 12.7352L22.0898 12.5809C21.9469 12.5409 21.8596 12.3951 21.8912 12.249C21.8922 12.2442 21.8937 12.2385 21.8951 12.2336L22.7738 9.04538C22.8151 8.89549 22.9697 8.80756 23.1183 8.8491L23.6697 9.00353C23.8183 9.04518 23.9056 9.20092 23.8643 9.35071L22.9855 12.5391C22.9626 12.6225 22.9044 12.6867 22.8318 12.7202L22.8319 12.7201ZM22.6546 12.6866C22.7766 12.7208 22.9034 12.6484 22.9373 12.5256L23.8161 9.33727C23.85 9.21426 23.7783 9.08641 23.6562 9.05235L23.1049 8.89792C22.9828 8.86376 22.8561 8.93612 22.8222 9.05902L21.9435 12.2475C21.9424 12.2514 21.9412 12.2558 21.9404 12.2597C21.9144 12.3799 21.9859 12.4995 22.1032 12.5324L22.6546 12.6867V12.6866Z" fill="#66142E"/>
<path d="M22.3341 10.73L21.9541 12.1091L22.9963 12.4008L23.3763 11.0217L22.3341 10.73Z" fill="#F89E1D"/>
<g opacity="0.55">
<path d="M22.7505 9.21773L22.5659 9.88763L23.6081 10.1793L23.7927 9.50942L22.7505 9.21773Z" fill="#FCE5E5"/>
</g>
<path d="M22.8834 12.8354C22.7969 12.8751 22.7002 12.8829 22.6074 12.8569L22.0562 12.7026C21.9519 12.6735 21.8651 12.6051 21.8119 12.5101C21.7586 12.4151 21.7453 12.3049 21.7743 12.1998L22.6529 9.01163C22.7127 8.79473 22.9365 8.66718 23.1518 8.72742L23.703 8.88175C23.8073 8.91086 23.8941 8.97929 23.9473 9.07429C24.0006 9.1693 24.0139 9.27946 23.9849 9.38458L23.1062 12.5727C23.0773 12.6778 23.0095 12.7653 22.9152 12.8189C22.9048 12.8249 22.8941 12.8303 22.8833 12.8353L22.8834 12.8354ZM23.0001 9.02527C22.9731 9.0377 22.9514 9.06166 22.9428 9.09279L22.0641 12.2809C22.0567 12.308 22.0601 12.3363 22.0738 12.3608C22.0875 12.3852 22.1099 12.4028 22.1367 12.4104L22.688 12.5647C22.7148 12.5723 22.7431 12.5685 22.7673 12.555C22.7915 12.5412 22.809 12.5187 22.8165 12.4917L23.6952 9.30352C23.7026 9.27643 23.6992 9.24813 23.6855 9.22367C23.6717 9.19921 23.6494 9.18163 23.6226 9.17405L23.0713 9.01971C23.0468 9.01284 23.0218 9.01547 23.0002 9.02537L23.0001 9.02527Z" fill="#66142E"/>
<path d="M3.22112 17.6388C2.08871 17.1569 1.00414 17.1129 0.656857 17.5079C0.656857 17.5079 0.109305 17.919 0.201968 18.7014C0.148316 19.264 0.921506 20.005 2.07959 20.4978C2.9662 20.8751 3.82353 20.984 4.32074 20.824C4.32074 20.824 5.13926 20.692 5.09964 19.4262C5.16764 18.8989 4.37258 18.1288 3.22112 17.6388Z" fill="#F7C714"/>
<path d="M4.477 20.797C4.38875 20.8375 4.32708 20.8485 4.32477 20.8489C3.805 21.0164 2.93954 20.8912 2.06988 20.5211C0.902472 20.0242 0.124769 19.2765 0.176816 18.7016C0.0879645 17.941 0.601419 17.5195 0.639728 17.4893C1.00426 17.0785 2.09305 17.1312 3.23087 17.6154C4.38063 18.1047 5.19473 18.8845 5.12453 19.4293C5.15392 20.3574 4.71718 20.6865 4.477 20.797ZM0.882115 17.3772C0.797675 17.416 0.727978 17.465 0.67563 17.5246L0.671819 17.5281C0.666504 17.5321 0.137003 17.9404 0.226858 18.6984V18.7037C0.174109 19.2572 0.939979 19.9854 2.08923 20.4745C2.93533 20.8346 3.80821 20.9622 4.31294 20.7999C4.32457 20.7976 5.1129 20.6548 5.07439 19.4269C5.14208 18.8998 4.34091 18.1428 3.21121 17.662C2.27697 17.2644 1.35144 17.1614 0.881914 17.3772H0.882115Z" fill="#66142E"/>
<path d="M2.85964 19.7148L2.55518 20.7091L4.05482 20.9976C4.05482 20.9976 4.44573 20.1878 4.43911 20.0367C4.43911 20.0367 2.96464 20.0347 2.85964 19.7148Z" fill="#F89E1D"/>
<g opacity="0.55">
<path d="M1.0338 18.571L0.854492 19.7809L1.66399 20.3182L1.90667 19.3372L1.0338 18.571Z" fill="#FCE5E5"/>
</g>
<g opacity="0.55">
<path d="M0.667403 18.0769C0.667403 18.0769 0.370963 18.3873 0.53934 18.9074C0.53934 18.9074 0.594095 19.4594 1.07155 19.7693C1.07155 19.7693 0.347998 19.1691 0.294146 19.1173C0.240393 19.0655 0.152344 18.128 0.152344 18.128L0.357325 17.8674L0.667403 18.077V18.0769Z" fill="white"/>
</g>
<g opacity="0.55">
<path d="M1.89603 17.4406C1.89603 17.4406 1.41116 17.4667 1.07189 17.6195C0.884262 17.704 0.802631 17.9235 0.89409 18.1089C1.01403 18.3521 1.29031 18.7399 1.92672 19.2329L0.856985 18.4766C0.856985 18.4766 0.481421 17.8134 0.58351 17.5627C0.58351 17.5627 1.26334 17.1003 1.89603 17.4406Z" fill="white"/>
</g>
<path d="M4.11263 19.1372C4.22519 18.8668 3.69424 18.3845 2.92672 18.06C2.15919 17.7355 1.44575 17.6916 1.3332 17.962C1.22064 18.2323 1.75159 18.7146 2.51911 19.0391C3.28663 19.3637 4.00008 19.4076 4.11263 19.1372Z" fill="#F9DD6A"/>
<path d="M3.99292 19.2818C3.72175 19.4065 3.1402 19.3286 2.50931 19.0618C1.71707 18.7269 1.19017 18.2392 1.30991 17.9516C1.42975 17.6639 2.14408 17.7011 2.93632 18.0361C3.72857 18.371 4.25546 18.8587 4.13572 19.1463C4.11135 19.2048 4.06231 19.25 3.99292 19.2818ZM1.47247 17.8622C1.41551 17.8884 1.3755 17.9247 1.35614 17.9712C1.25095 18.224 1.78787 18.7021 2.52867 19.0153C3.26947 19.3284 3.98419 19.3794 4.08939 19.1268C4.19459 18.874 3.65767 18.3959 2.91687 18.0827C2.31235 17.8272 1.72529 17.7461 1.47247 17.8622Z" fill="#66142E"/>
<path d="M4.01541 19.3304C3.70072 19.475 3.05469 19.3494 2.48919 19.1103C1.78098 18.8109 1.11008 18.2959 1.26191 17.9314C1.41374 17.5667 2.24831 17.6883 2.95651 17.9877C3.66472 18.2871 4.33562 18.8021 4.18379 19.1666C4.1532 19.2401 4.09484 19.2939 4.01541 19.3304ZM1.49407 17.9097C1.44904 17.9304 1.41825 17.9578 1.40421 17.9915C1.32198 18.1891 1.77186 18.6382 2.54886 18.9668C3.3035 19.2859 3.95915 19.3037 4.04139 19.1065C4.12362 18.9089 3.67374 18.4597 2.89674 18.1312C2.27087 17.8666 1.71299 17.8092 1.49407 17.9098V17.9097Z" fill="#66142E"/>
<path d="M2.99911 18.2991C3.13208 18.3533 3.22906 18.4612 3.23387 18.6106L3.40285 18.6808L3.34439 18.8532L3.19887 18.7917C3.16076 18.8879 3.09408 18.9701 3.04183 19.0055L2.84657 18.8716C2.90323 18.8311 2.97073 18.7624 3.00372 18.6777C3.03852 18.5885 3.00994 18.5229 2.93964 18.4938C2.87305 18.4661 2.81849 18.4896 2.72914 18.5712C2.60419 18.6878 2.46088 18.7402 2.30273 18.6719C2.15491 18.608 2.07719 18.4784 2.10618 18.3305L1.94873 18.264L2.03247 18.1122L2.17638 18.172C2.21529 18.1146 2.25861 18.0765 2.29772 18.0501L2.46279 18.1636C2.42789 18.1863 2.37163 18.23 2.33322 18.3072C2.29391 18.3863 2.32109 18.445 2.37604 18.4681C2.44353 18.4966 2.49538 18.4621 2.59596 18.3781C2.72794 18.2653 2.85219 18.2393 2.99911 18.2991Z" fill="#66142E"/>
<mask id="mask0_70_8046" style="mask-type:luminance" maskUnits="userSpaceOnUse" x="0" y="17" width="6" height="3">
<path d="M5.06893 19.543C5.28854 19.0188 4.4612 18.166 3.22101 17.6383C1.98082 17.1105 0.79742 17.1077 0.577811 17.6319C0.358203 18.1561 1.18555 19.0089 2.42574 19.5366C3.66593 20.0643 4.84932 20.0672 5.06893 19.543Z" fill="white"/>
</mask>
<g mask="url(#mask0_70_8046)">
<g opacity="0.27">
<path d="M4.58082 18.1561L0.764009 19.4961C0.676562 19.1187 0.694613 18.7132 0.837317 18.3243L3.80162 17.2838C4.1482 17.4958 4.41485 17.8025 4.58082 18.156V18.1561Z" fill="#FCE5E5"/>
</g>
<g opacity="0.27">
<path d="M4.77424 18.9266L1.16651 20.3009C1.01428 20.128 0.950803 20.0242 0.864258 19.8125L4.69752 18.4671C4.7603 18.6862 4.78767 18.6943 4.77434 18.9266H4.77424Z" fill="#FCE5E5"/>
</g>
</g>
<path d="M4.82836 19.9362C4.64815 20.0189 4.41219 20.0621 4.12958 20.0614C3.61402 20.0602 2.99156 19.9153 2.37672 19.6538C1.05267 19.0903 0.211684 18.1808 0.461993 17.5831C0.712403 16.9854 1.9457 16.9587 3.26975 17.5222C3.88449 17.7838 4.42161 18.1325 4.78203 18.504C5.16873 18.9025 5.31163 19.2892 5.18437 19.5927C5.1222 19.7412 5.00075 19.8569 4.82826 19.9362H4.82836ZM0.919891 17.4742C0.807071 17.526 0.72925 17.596 0.693449 17.6815C0.528482 18.0753 1.21934 18.8863 2.4745 19.4205C3.05925 19.6693 3.64732 19.807 4.13019 19.8082C4.56913 19.8092 4.86898 19.6948 4.95312 19.4943C5.03716 19.2937 4.90939 18.9972 4.60252 18.681C4.26487 18.333 3.75693 18.0043 3.17207 17.7554C2.18929 17.3371 1.32704 17.2872 0.919891 17.4743V17.4742Z" fill="#66142E"/>
<path d="M4.53465 20.9352C4.45753 20.9706 4.39666 20.9876 4.36738 20.9945C3.8107 21.1703 2.90894 21.0427 2.0112 20.6607C1.30259 20.3592 0.763766 20.0077 0.409763 19.6162C-0.146915 19.0004 -0.134981 18.0585 0.43694 17.4717C0.481767 17.4258 0.517267 17.3945 0.535519 17.3792C0.954807 16.9237 2.0827 16.9624 3.28912 17.4757C4.50888 17.9948 5.33973 18.8154 5.27515 19.4337C5.30223 20.4386 4.81294 20.8073 4.53445 20.9352H4.53465ZM4.29146 20.6495C4.32335 20.6436 4.95795 20.5099 4.92415 19.4317C4.92385 19.4222 4.92435 19.4127 4.92556 19.4033C4.9754 19.017 4.31172 18.2949 3.15284 17.8016C2.02013 17.3195 1.04356 17.3348 0.788235 17.6251C0.781115 17.6332 0.773293 17.6405 0.764869 17.6472C0.764869 17.6472 0.73338 17.6726 0.68745 17.7196C0.245999 18.1725 0.238076 18.9009 0.669298 19.3779C0.988904 19.7314 1.48631 20.0534 2.14779 20.3349C2.9628 20.6816 3.79475 20.8076 4.26719 20.6555C4.27512 20.6529 4.28324 20.6509 4.29146 20.6495Z" fill="#66142E"/>
<path d="M8.99512 0.330658C9.52362 0.307871 10.0357 0.425862 10.4883 0.65683L10.6787 0.762299C10.7492 0.805147 10.8179 0.850807 10.8848 0.899017L11.0791 1.05136C11.2726 1.216 11.4457 1.40534 11.5938 1.61581L11.7334 1.83359L11.7344 1.83456C11.8549 2.04015 11.9525 2.26323 12.0234 2.50058L12.085 2.74277C12.4269 4.34309 11.4593 5.91946 9.91016 6.33945L9.75879 6.37656C9.33734 6.46805 8.91742 6.4662 8.52051 6.38535L8.35254 6.34628C8.10424 6.28065 7.86589 6.18314 7.64355 6.0582L7.42676 5.92441C7.35874 5.87853 7.29261 5.82953 7.22852 5.77792L7.04297 5.61484H7.04199C6.67581 5.26898 6.39214 4.8288 6.23145 4.32089L6.16992 4.09921V4.09824L6.1543 4.03085C5.81219 2.42995 6.7807 0.852985 8.33008 0.433197L8.48145 0.397064C8.56764 0.378389 8.65356 0.363133 8.73926 0.352142L8.99512 0.330658Z" fill="#F7C714" stroke="#66142E" stroke-width="0.25"/>
<path d="M8.68311 1.33859C9.73193 1.11103 10.7706 1.72991 11.0952 2.73898L11.1509 2.94504C11.3773 4.00432 10.762 5.05171 9.76221 5.37863L9.55713 5.4343C8.50849 5.66188 7.46987 5.04361 7.14502 4.03488L7.08936 3.82785C6.86296 2.76852 7.47811 1.72113 8.47803 1.39426L8.68311 1.33859Z" fill="#F9DD6A" stroke="#66142E" stroke-width="0.25"/>
<path d="M9.99039 3.6954C10.0512 3.98002 9.94129 4.26788 9.62146 4.45001L9.69524 4.7956L9.25842 4.89039L9.19617 4.59887C8.95281 4.64552 8.70663 4.63254 8.57274 4.59157L8.58548 4.14781C8.73668 4.18811 8.96086 4.21312 9.17685 4.16634C9.40949 4.11577 9.51131 3.99205 9.47979 3.84481C9.44987 3.70446 9.32631 3.64727 9.03652 3.60846C8.63673 3.55884 8.34977 3.40375 8.27973 3.07546C8.21346 2.76502 8.36734 2.46864 8.70609 2.30531L8.63204 1.95877L9.06886 1.86398L9.13768 2.18632C9.31719 2.16401 9.46275 2.17753 9.57705 2.20201L9.5525 2.63847C9.45362 2.61426 9.28016 2.58546 9.06121 2.63306C8.84186 2.68065 8.75694 2.80396 8.78203 2.92146C8.81275 3.06519 8.95281 3.10129 9.26513 3.14915C9.69216 3.21054 9.92251 3.37793 9.99039 3.69581V3.6954Z" fill="#66142E"/>
<path d="M3.17676 6.84695C3.55673 6.83055 3.92552 6.91526 4.25098 7.08133L4.3877 7.1575C4.43852 7.18838 4.48796 7.22139 4.53613 7.25613L4.67578 7.36551C4.81515 7.48409 4.94031 7.62016 5.04688 7.77176L5.14648 7.92801H5.14746C5.23421 8.07587 5.30439 8.23667 5.35547 8.4075L5.39941 8.58231C5.63738 9.69652 4.9929 10.7937 3.94141 11.137L3.72656 11.1956C3.46668 11.252 3.20738 11.2597 2.95898 11.2239L2.71484 11.1741C2.53626 11.1269 2.36504 11.057 2.20508 10.9671L2.0498 10.8704C2.00094 10.8374 1.95331 10.802 1.90723 10.7649L1.77344 10.6487V10.6477L1.66406 10.5374C1.45313 10.3078 1.28857 10.0305 1.18945 9.71707L1.14551 9.55789V9.55692L1.13477 9.50809C0.896871 8.3939 1.54081 7.29694 2.5918 6.9534L2.80762 6.89481C2.86959 6.88138 2.93158 6.87048 2.99316 6.86258L3.17676 6.84695Z" fill="#F7C714" stroke="#66142E" stroke-width="0.25"/>
<path d="M2.95557 7.58221C3.70406 7.41998 4.44632 7.86163 4.67822 8.58221L4.71729 8.72968C4.8898 9.53687 4.3784 10.3345 3.57959 10.508C2.83094 10.6705 2.08888 10.2287 1.85693 9.508L1.81689 9.36053C1.65514 8.60366 2.0951 7.85558 2.80908 7.62225L2.95557 7.58221Z" fill="#F9DD6A" stroke="#66142E" stroke-width="0.25"/>
<path d="M3.90291 9.27073C3.9473 9.47859 3.86705 9.68882 3.63347 9.82183L3.68736 10.0742L3.36834 10.1434L3.32288 9.93055C3.14515 9.96462 2.96536 9.95514 2.86758 9.92522L2.87689 9.60114C2.98731 9.63056 3.15103 9.64883 3.30877 9.61467C3.47867 9.57773 3.55303 9.48738 3.53001 9.37985C3.50816 9.27735 3.41792 9.23558 3.20629 9.20724C2.91431 9.171 2.70474 9.05774 2.6536 8.81799C2.60519 8.59127 2.71758 8.37482 2.96497 8.25553L2.91089 8.00245L3.2299 7.93323L3.28016 8.16864C3.41126 8.15234 3.51756 8.16222 3.60104 8.18009L3.58311 8.49884C3.5109 8.48117 3.38422 8.46013 3.22432 8.49489C3.06412 8.52965 3.0021 8.61971 3.02042 8.70552C3.04286 8.81048 3.14515 8.83685 3.37324 8.8718C3.68511 8.91663 3.85334 9.03888 3.90291 9.27103V9.27073Z" fill="#66142E"/>
</svg>
