<svg width="16" height="16" viewBox="0 0 16 16" fill="none" xmlns="http://www.w3.org/2000/svg">
<path d="M14.72 4.92L14.72 4.192C14.72 3.51498 14.72 3.17647 14.6269 2.89874C14.3745 2.14506 13.6386 1.55636 12.6965 1.35442C12.3494 1.28 11.9262 1.28 11.08 1.28" stroke="black" stroke-linecap="round" stroke-linejoin="round"/>
<path d="M14.72 11.08L14.72 11.808C14.72 12.485 14.72 12.8235 14.6269 13.1013C14.3745 13.855 13.6386 14.4437 12.6965 14.6456C12.3494 14.72 11.9262 14.72 11.08 14.72" stroke="black" stroke-linecap="round" stroke-linejoin="round"/>
<path d="M4.91992 14.72L4.31326 14.72C3.17925 14.72 2.61225 14.72 2.18992 14.4274C1.91325 14.2357 1.68349 13.96 1.52376 13.628C1.27992 13.1212 1.27992 12.4408 1.27992 11.08" stroke="black" stroke-linecap="round" stroke-linejoin="round"/>
<path d="M4.91992 1.28L4.31326 1.28C3.17925 1.28 2.61225 1.28 2.18992 1.5726C1.91325 1.76429 1.68349 2.03999 1.52376 2.372C1.27992 2.8788 1.27992 3.5592 1.27992 4.92" stroke="black" stroke-linecap="round" stroke-linejoin="round"/>
<path d="M14.4398 8L1.55981 8" stroke="black" stroke-linecap="round" stroke-linejoin="round"/>
</svg>
