<svg width="50" height="50" viewBox="0 0 50 50" fill="none" xmlns="http://www.w3.org/2000/svg">
<path d="M25 50C38.8071 50 50 38.8071 50 25C50 11.1929 38.8071 0 25 0C11.1929 0 0 11.1929 0 25C0 38.8071 11.1929 50 25 50Z" fill="#D80027"/>
<path d="M39.1305 18.5556H30.0752C30.6342 17.9702 30.9782 17.1777 30.9782 16.3044C30.9782 14.5035 29.5183 13.0435 27.7174 13.0435C26.5828 13.0435 25.5841 13.6232 25 14.5022C24.4159 13.6232 23.4171 13.0435 22.2826 13.0435C20.4817 13.0435 19.0218 14.5035 19.0218 16.3044C19.0218 17.1777 19.3658 17.9703 19.9248 18.5556H10.8696C10.8696 20.9568 12.9611 22.9033 15.3622 22.9033H15.2173C15.2173 25.3047 17.1639 27.2513 19.5652 27.2513C19.5652 28.029 19.7702 28.7581 20.128 29.3893L16.5216 32.9959L19.2886 35.7627L23.2136 31.8378C23.3673 31.8941 23.5264 31.9394 23.6906 31.9701L21.3188 37.3251L25 41.3044L28.6812 37.3249L26.3094 31.9699C26.4737 31.9392 26.6327 31.894 26.7864 31.8376L30.7114 35.7625L33.4784 32.9956L29.8719 29.3891C30.2298 28.7579 30.4348 28.0287 30.4348 27.251C32.836 27.251 34.7826 25.3045 34.7826 22.903H34.6378C37.0389 22.9032 39.1305 20.9568 39.1305 18.5556Z" fill="black"/>
</svg>
