<svg width="50" height="50" viewBox="0 0 50 50" fill="none" xmlns="http://www.w3.org/2000/svg">
<path d="M35.8695 2.48066C32.5828 0.891406 28.8955 0 25 0C21.1045 0 17.4172 0.891406 14.1305 2.48066L11.9565 25L14.1305 47.5193C17.4172 49.1086 21.1045 50 25 50C28.8955 50 32.5828 49.1086 35.8695 47.5193L38.0435 25L35.8695 2.48066Z" fill="#FFDA44"/>
<path d="M14.1305 2.48154C5.76816 6.52509 0 15.0885 0 25C0 34.9115 5.76816 43.4749 14.1305 47.5184V2.48154Z" fill="#0052B4"/>
<path d="M35.8695 2.48154V47.5184C44.2318 43.4749 50 34.9114 50 25C50 15.0886 44.2318 6.52509 35.8695 2.48154Z" fill="#0052B4"/>
<path d="M32.6087 15.2174L34.067 15.9465L32.6087 15.2174L31.1503 14.4883C31.0624 14.6642 29.1582 18.5385 28.8472 24.4565H26.6305V15.2174L25 13.0435L23.3695 15.2174V24.4565H21.1528C20.8417 18.5385 18.9376 14.6642 18.8496 14.4883L15.933 15.9466C15.9531 15.9866 17.9349 20.0203 17.9349 26.087V27.7175H23.3696V36.9566H26.6305V27.7175H32.0652V26.0869C32.0652 22.9504 32.6079 20.3641 33.0633 18.7467C33.5597 16.983 34.0639 15.953 34.0689 15.9428L32.6087 15.2174Z" fill="black"/>
</svg>
