<svg width="50" height="50" viewBox="0 0 50 50" fill="none" xmlns="http://www.w3.org/2000/svg">
<path d="M25 50C38.8071 50 50 38.8071 50 25C50 11.1929 38.8071 0 25 0C11.1929 0 0 11.1929 0 25C0 38.8071 11.1929 50 25 50Z" fill="#F0F0F0"/>
<path d="M25 50C32.5772 50 39.3666 46.6285 43.9512 41.3044H6.04871C10.6334 46.6285 17.4227 50 25 50Z" fill="#0052B4"/>
<path d="M50 25C50 11.193 38.807 0 25 0C11.193 0 0 11.193 0 25C0 27.2565 0.300781 29.4423 0.86123 31.5218H49.1389C49.6992 29.4423 50 27.2565 50 25Z" fill="#0052B4"/>
<path d="M1.98712 34.7826C2.46906 35.915 3.03243 37.0041 3.66945 38.0434H46.3308C46.9676 37.004 47.531 35.9149 48.0131 34.7826H1.98712Z" fill="#D80027"/>
<path d="M17.8701 26.6305L18.2748 27.876H19.5845L18.525 28.6458L18.9297 29.8913L17.8701 29.1215L16.8106 29.8913L17.2154 28.6458L16.1559 27.876H17.4656L17.8701 26.6305Z" fill="#FFDA44"/>
<path d="M17.8701 42.9348L18.2748 44.1804H19.5845L18.525 44.9501L18.9297 46.1957L17.8701 45.4259L16.8106 46.1957L17.2154 44.9501L16.1559 44.1804H17.4656L17.8701 42.9348Z" fill="#FFDA44"/>
<path d="M10.2807 37.4208L10.6854 38.6662H11.995L10.9355 39.436L11.3402 40.6817L10.2807 39.9119L9.22109 40.6817L9.62598 39.436L8.56641 38.6662H9.87598L10.2807 37.4208Z" fill="#FFDA44"/>
<path d="M13.1796 28.2609L13.5843 29.5065H14.8938L13.8344 30.2762L14.2391 31.5218L13.1796 30.752L12.12 31.5218L12.5249 30.2762L11.4652 29.5065H12.7749L13.1796 28.2609Z" fill="#FFDA44"/>
<path d="M8.56641 33.3902L9.87578 33.3903L10.2806 32.1445L10.6854 33.3902L11.995 33.3901L10.9354 34.1599L11.3402 35.4055L10.2806 34.6357L9.22109 35.4052L9.62578 34.1598L8.56641 33.3902Z" fill="#FFDA44"/>
<path d="M12.1201 44.3273L12.5248 43.082L11.4651 42.3123H12.7748L13.1796 41.0667L13.5844 42.3122H14.894L13.8344 43.0819L14.2391 44.3276L13.1795 43.5577L12.1201 44.3273Z" fill="#FFDA44"/>
<path d="M25.4568 37.4208L25.0522 38.6662H23.7425L24.8019 39.436L24.3972 40.6817L25.4568 39.9119L26.5163 40.6817L26.1115 39.436L27.1711 38.6662H25.8614L25.4568 37.4208Z" fill="#FFDA44"/>
<path d="M22.5578 28.2609L22.1532 29.5065H20.8436L21.9029 30.2762L21.4983 31.5218L22.5578 30.752L23.6174 31.5218L23.2126 30.2762L24.2722 29.5065H22.9625L22.5578 28.2609Z" fill="#FFDA44"/>
<path d="M27.1711 33.3902L25.8616 33.3903L25.4568 32.1445L25.0522 33.3902L23.7425 33.3901L24.802 34.1599L24.3972 35.4055L25.4568 34.6357L26.5163 35.4052L26.1116 34.1598L27.1711 33.3902Z" fill="#FFDA44"/>
<path d="M23.6173 44.3273L23.2127 43.082L24.2723 42.3123H22.9626L22.5578 41.0667L22.1531 42.3122H20.8434L21.903 43.0819L21.4983 44.3276L22.5579 43.5577L23.6173 44.3273Z" fill="#FFDA44"/>
</svg>
