<svg width="50" height="50" viewBox="0 0 50 50" fill="none" xmlns="http://www.w3.org/2000/svg">
<path d="M25 50C38.8071 50 50 38.8071 50 25C50 11.1929 38.8071 0 25 0C11.1929 0 0 11.1929 0 25C0 38.8071 11.1929 50 25 50Z" fill="#FCFCFC"/>
<path d="M39.1305 21.7391C38.3696 21.7391 37.4275 21.7391 35.8696 21.7391C35.8696 27.7423 31.003 32.6087 25.0001 32.6087C18.9969 32.6087 14.1306 27.7423 14.1306 21.7391C13.0798 21.7391 11.9203 21.7391 10.8697 21.7391C10.8697 28.2054 15.2131 33.6573 21.1418 35.3363C20.4918 36.5711 20.5908 38.1257 21.5193 39.2844C22.7389 38.3069 24.0015 37.2951 25.0726 36.4369C26.1437 37.2952 27.4063 38.307 28.6258 39.2844C29.5635 38.1141 29.6558 36.5398 28.9842 35.2991C34.848 33.5789 39.1305 28.1594 39.1305 21.7391Z" fill="#6DA544"/>
<path d="M16.3044 20.6521C16.3044 20.6521 16.3044 26.0869 21.7392 26.0869L22.8261 27.1738H25C25 27.1738 26.0869 23.913 28.2608 23.913C28.2608 23.913 28.2608 21.7391 30.4348 21.7391C32.6087 21.7391 33.6956 21.7391 33.6956 21.7391C33.6956 21.7391 32.6087 17.3912 38.0435 14.1304L35.8695 13.0435C35.8695 13.0435 28.2608 18.4782 22.8261 17.3913V19.5652H20.6522L19.5652 18.4783L16.3044 20.6521Z" fill="#FFDA44"/>
</svg>
