<svg width="50" height="50" viewBox="0 0 50 50" fill="none" xmlns="http://www.w3.org/2000/svg">
<path d="M0 25C0 11.193 11.193 0 25 0C38.807 0 50 11.193 50 25C48.9131 25 25 28.2608 25 28.2608L0 25Z" fill="#F0F0F0"/>
<path d="M50 25C50 38.807 38.807 50 25 50C11.193 50 0 38.807 0 25" fill="#D80027"/>
<path d="M17.3913 36.9565C23.9947 36.9565 29.3479 31.6034 29.3479 25C29.3479 18.3966 23.9947 13.0435 17.3913 13.0435C10.7879 13.0435 5.43477 18.3966 5.43477 25C5.43477 31.6034 10.7879 36.9565 17.3913 36.9565Z" fill="#F0F0F0"/>
<path d="M5.43477 25C5.43477 18.3968 10.7879 13.0435 17.3913 13.0435C23.9948 13.0435 29.3479 18.3967 29.3479 25" fill="#D80027"/>
</svg>
