<svg width="50" height="50" viewBox="0 0 50 50" fill="none" xmlns="http://www.w3.org/2000/svg">
<path d="M25 50C38.8071 50 50 38.8071 50 25C50 11.1929 38.8071 0 25 0C11.1929 0 0 11.1929 0 25C0 38.8071 11.1929 50 25 50Z" fill="#F0F0F0"/>
<path d="M5.71448 9.091H44.2856C42.861 7.36591 41.2086 5.83612 39.3757 4.54559H10.6243C8.79143 5.83593 7.13918 7.36581 5.71448 9.091Z" fill="#F0F0F0"/>
<path d="M0 25C0 25.7663 0.0364258 26.5239 0.103906 27.2728H49.8961C49.9636 26.5239 50 25.7663 50 25C50 24.2337 49.9636 23.4761 49.8961 22.7273H0.103906C0.0364258 23.4761 0 24.2337 0 25H0Z" fill="#F0F0F0"/>
<path d="M2.72617 36.3636H47.2738C48.01 34.9235 48.6103 33.4029 49.0586 31.8183H0.941406C1.38955 33.4029 1.99014 34.9236 2.72617 36.3636Z" fill="#F0F0F0"/>
<path d="M10.6243 45.4546H39.3756C41.2085 44.1641 42.8609 42.6343 44.2855 40.9092H5.71448C7.13918 42.6341 8.79143 44.1641 10.6243 45.4546Z" fill="#F0F0F0"/>
<path d="M0.941284 18.1818H49.0587C48.6104 16.5971 48.0099 15.0764 47.2738 13.6364H2.72615C1.99011 15.0764 1.38953 16.5971 0.941284 18.1818Z" fill="#F0F0F0"/>
<path d="M11.9565 4.54541H39.3757C35.3093 1.68232 30.3513 0 25 0C21.7392 0 16.0229 1.68232 11.9565 4.54541Z" fill="#D80027"/>
<path d="M23.9131 13.6364H47.2738C46.4425 12.0101 45.4384 10.4868 44.2855 9.091H23.9131V13.6364Z" fill="#D80027"/>
<path d="M23.9131 22.7273H49.8961C49.7555 21.1666 49.4728 19.6467 49.0587 18.1819H23.9131V22.7273Z" fill="#D80027"/>
<path d="M0.941382 31.8183H49.0586C49.4728 30.3536 49.7554 28.8336 49.8961 27.2729H0.103882C0.244507 28.8336 0.527124 30.3535 0.941382 31.8183Z" fill="#D80027"/>
<path d="M5.71448 40.909H44.2856C45.4384 39.513 46.4425 37.9897 47.2739 36.3636H2.7262C3.55754 37.9898 4.56165 39.5132 5.71448 40.909Z" fill="#D80027"/>
<path d="M25 50C30.3512 50 35.3092 48.3177 39.3756 45.4546H10.6243C14.6907 48.3177 19.6487 50 25 50Z" fill="#D80027"/>
<path d="M0.941284 18.1818C0.527026 19.6467 0.244507 21.1665 0.103882 22.7272H25V0C13.5566 0 3.90925 7.68867 0.941284 18.1818Z" fill="#0052B4"/>
<path d="M14.8816 6.52179L16.5003 11.5037H21.7391L17.501 14.583L19.1196 19.5652L14.8816 16.4861L10.6434 19.5652L12.2624 14.583L8.02429 11.5037H13.2629L14.8816 6.52179Z" fill="#F0F0F0"/>
</svg>
