<svg width="50" height="50" viewBox="0 0 50 50" fill="none" xmlns="http://www.w3.org/2000/svg">
<path d="M25 50C38.8071 50 50 38.8071 50 25C50 11.1929 38.8071 0 25 0C11.1929 0 0 11.1929 0 25C0 38.8071 11.1929 50 25 50Z" fill="#F0F0F0"/>
<path d="M49.7856 21.7391C49.096 16.467 46.7278 11.3727 42.6775 7.32236C38.6272 3.27207 33.5328 0.903809 28.2607 0.214161L28.2608 21.7391H49.7856Z" fill="#0052B4"/>
<path d="M21.739 0.214161C16.4669 0.903809 11.3725 3.27197 7.32222 7.32227C3.27202 11.3727 0.90376 16.4671 0.214111 21.7393L21.7391 21.7392L21.739 0.214161Z" fill="#0052B4"/>
<path d="M0.214111 28.2609C0.90376 33.533 3.27202 38.6275 7.32222 42.6777C11.3725 46.7279 16.4668 49.0961 21.7391 49.786L21.739 28.2611L0.214111 28.2609Z" fill="#0052B4"/>
<path d="M28.261 49.7857C33.5331 49.0961 38.6274 46.7279 42.6777 42.6776C46.728 38.6273 49.0961 33.533 49.7858 28.2609H28.261V49.7857Z" fill="#0052B4"/>
<path d="M33.5341 15.8631C33.5341 15.5307 33.8043 15.2604 34.1369 15.2604H35.4283C37.4697 15.2604 39.1305 13.5997 39.1305 11.5584C39.1305 9.51709 37.4698 7.85625 35.4283 7.85625H34.2019C33.8016 7.55557 33.2646 7.37012 32.6722 7.37012C31.4366 7.37012 30.4349 8.17139 30.4349 9.15986C30.4349 10.1388 31.4174 10.9329 32.6366 10.9483L32.636 10.9555H35.4283C35.7608 10.9555 36.031 11.2258 36.031 11.5582C36.031 11.8906 35.7608 12.1608 35.4283 12.1608H34.1369C32.0955 12.1608 30.4348 13.8216 30.4348 15.8629C30.4348 17.9042 32.0954 19.565 34.1369 19.565H39.1304V16.4656H34.1369C33.8043 16.4657 33.5341 16.1955 33.5341 15.8631Z" fill="#F0F0F0"/>
<path d="M13.9691 15.8631C13.9691 15.5307 14.2393 15.2604 14.5718 15.2604H15.8632C17.9046 15.2604 19.5655 13.5997 19.5655 11.5584C19.5655 9.51709 17.9047 7.85625 15.8632 7.85625H14.6369C14.2366 7.55557 13.6996 7.37012 13.1072 7.37012C11.8715 7.37012 10.8699 8.17139 10.8699 9.15986C10.8699 10.1388 11.8524 10.9329 13.0715 10.9483L13.0709 10.9555H15.8633C16.1958 10.9555 16.4661 11.2258 16.4661 11.5582C16.4661 11.8906 16.1958 12.1608 15.8633 12.1608H14.5719C12.5305 12.1608 10.8699 13.8216 10.8699 15.8629C10.8699 17.9042 12.5304 19.565 14.5719 19.565H19.5654V16.4656H14.5718C14.2393 16.4657 13.9691 16.1955 13.9691 15.8631Z" fill="#F0F0F0"/>
<path d="M33.534 38.9277C33.534 38.5953 33.8042 38.3251 34.1367 38.3251H35.4281C37.4695 38.3251 39.1304 36.6644 39.1304 34.623C39.1304 32.5817 37.4696 30.9209 35.4281 30.9209H34.2018C33.8015 30.6202 33.2645 30.4348 32.6721 30.4348C31.4363 30.4348 30.4347 31.2361 30.4347 32.2245C30.4347 33.2034 31.4172 33.9976 32.6363 34.013L32.6357 34.0201H35.428C35.7605 34.0201 36.0308 34.2904 36.0308 34.6229C36.0308 34.9553 35.7605 35.2255 35.428 35.2255H34.1366C32.0952 35.2255 30.4346 36.8862 30.4346 38.9275C30.4346 40.9688 32.0951 42.6297 34.1366 42.6297H39.1303V39.5304H34.1367C33.8042 39.5305 33.534 39.2601 33.534 38.9277Z" fill="#F0F0F0"/>
<path d="M13.9689 38.9277C13.9689 38.5953 14.2392 38.3251 14.5717 38.3251H15.8631C17.9045 38.3251 19.5653 36.6644 19.5653 34.623C19.5653 32.5817 17.9046 30.9209 15.8631 30.9209H14.6367C14.2364 30.6202 13.6994 30.4348 13.107 30.4348C11.8713 30.4348 10.8696 31.2361 10.8696 32.2245C10.8696 33.2034 11.8521 33.9976 13.0713 34.013L13.0707 34.0201H15.8631C16.1956 34.0201 16.4658 34.2904 16.4658 34.6229C16.4658 34.9553 16.1956 35.2255 15.8631 35.2255H14.5717C12.5303 35.2255 10.8696 36.8862 10.8696 38.9275C10.8696 40.9688 12.5302 42.6297 14.5717 42.6297H19.5652V39.5304H14.5717C14.2392 39.5305 13.9689 39.2601 13.9689 38.9277Z" fill="#F0F0F0"/>
</svg>
