<svg width="50" height="50" viewBox="0 0 50 50" fill="none" xmlns="http://www.w3.org/2000/svg">
<path d="M35.8695 2.48066C32.5828 0.891406 28.8955 0 25 0C21.1045 0 17.4172 0.891406 14.1305 2.48066L11.9565 25L14.1305 47.5193C17.4172 49.1086 21.1045 50 25 50C28.8955 50 32.5828 49.1086 35.8695 47.5193L38.0435 25L35.8695 2.48066Z" fill="#FFDA44"/>
<path d="M14.1305 2.48154C5.76816 6.52519 0 15.0886 0 25C0 34.9114 5.76816 43.4748 14.1305 47.5184V2.48154Z" fill="#0052B4"/>
<path d="M35.8695 2.48154V47.5184C44.2318 43.4748 50 34.9114 50 25C50 15.0886 44.2318 6.52519 35.8695 2.48154Z" fill="#D80027"/>
<path d="M33.6957 19.6698H27.7174C27.7174 18.169 26.5008 16.9524 25 16.9524C23.4993 16.9524 22.2827 18.169 22.2827 19.6698H16.3044C16.3044 21.1475 17.5917 22.3452 19.0691 22.3452H18.98C18.98 23.8229 20.1779 25.0209 21.6556 25.0209C21.6556 26.3292 22.5953 27.4163 23.8363 27.6487L21.7279 32.4087C22.7381 32.8193 23.8422 33.0476 25 33.0476C26.1578 33.0476 27.262 32.8193 28.2721 32.4087L26.1638 27.6487C27.4048 27.4163 28.3445 26.3292 28.3445 25.0209C29.8222 25.0209 31.0201 23.8229 31.0201 22.3452H30.9309C32.4085 22.3452 33.6957 21.1474 33.6957 19.6698Z" fill="#FF9811"/>
<path d="M25 23.3695L21.4674 25V28.2608L25 30.4348L28.5326 28.2608V25L25 23.3695Z" fill="#0052B4"/>
<path d="M21.4674 21.7392H28.5326V25H21.4674V21.7392Z" fill="#D80027"/>
</svg>
