<svg width="50" height="50" viewBox="0 0 50 50" fill="none" xmlns="http://www.w3.org/2000/svg">
<path d="M25 50C38.8071 50 50 38.8071 50 25C50 11.1929 38.8071 0 25 0C11.1929 0 0 11.1929 0 25C0 38.8071 11.1929 50 25 50Z" fill="#0052B4"/>
<path d="M35.7291 26.7441C35.8211 26.1761 35.8696 25.5936 35.8696 25C35.8696 25.5936 35.8211 26.1761 35.7291 26.7441L40.2175 25L35.7291 23.256L33.2638 22.2981L29.2584 20.7417L27.702 16.7363C30.3265 17.5966 32.4033 19.6734 33.2637 22.298L35.729 23.2559C34.984 18.6566 31.3433 15.0158 26.7441 14.2709L25.0001 9.78262L23.256 14.271C18.6567 15.0161 15.0161 18.6567 14.2711 23.256L9.78271 25L14.2712 26.7441C15.0162 31.3434 18.6568 34.984 23.2561 35.729L25.0001 40.2174L26.7442 35.729C31.3434 34.984 34.9841 31.3433 35.7291 26.7441ZM27.579 22.4212L25.0001 25H34.2154L27.5789 27.5789L25.0001 25V34.2154L22.4212 27.5788L25.0001 25H15.7848L22.4212 22.4212L25.0001 25V15.7847L27.579 22.4212ZM22.298 16.7364L20.7416 20.7418L16.7364 22.2982C17.5967 19.6734 19.6735 17.5968 22.298 16.7364ZM16.7365 27.7021L20.7416 29.2584L22.298 33.2636C19.6735 32.4032 17.5969 30.3266 16.7365 27.7021ZM27.7021 33.2636L29.2585 29.2584L33.2637 27.7021C32.4033 30.3266 30.3267 32.4032 27.7021 33.2636Z" fill="#F0F0F0"/>
<path d="M34.2153 25H25L27.5789 27.5789L34.2153 25Z" fill="#0052B4"/>
<path d="M15.7847 25H25L22.4211 22.4212L15.7847 25Z" fill="#0052B4"/>
<path d="M25 34.2154V25L22.4211 27.5789L25 34.2154Z" fill="#0052B4"/>
<path d="M25 25L27.5789 22.4212L25 15.7847V25Z" fill="#0052B4"/>
<path d="M23.9131 3.26083H26.087V7.60869H23.9131V3.26083Z" fill="#F0F0F0"/>
<path d="M3.26074 23.9131H7.60859V26.087H3.26074V23.9131Z" fill="#F0F0F0"/>
<path d="M23.9131 42.3913H26.087V46.7391H23.9131V42.3913Z" fill="#F0F0F0"/>
<path d="M42.3911 23.9131H46.739V26.087H42.3911V23.9131Z" fill="#F0F0F0"/>
</svg>
