<svg width="50" height="50" viewBox="0 0 50 50" fill="none" xmlns="http://www.w3.org/2000/svg">
<path d="M25 50C38.8071 50 50 38.8071 50 25C50 11.1929 38.8071 0 25 0C11.1929 0 0 11.1929 0 25C0 38.8071 11.1929 50 25 50Z" fill="#F0F0F0"/>
<path d="M25 0C15.0885 0 6.52446 5.76807 2.48071 14.1305H47.5193C43.4756 5.76807 34.9115 0 25 0Z" fill="#338AF3"/>
<path d="M25 50C34.9115 50 43.4756 44.2319 47.5194 35.8695H2.48071C6.52446 44.2319 15.0885 50 25 50Z" fill="#338AF3"/>
<path d="M25 17.3913C20.7979 17.3913 17.3914 20.7978 17.3914 25C17.3914 29.2021 20.7979 32.6087 25 32.6087C29.2022 32.6087 32.6087 29.2021 32.6087 25C32.6087 20.7978 29.2022 17.3913 25 17.3913ZM25 29.3478C22.5989 29.3478 20.6522 27.4014 20.6522 25C20.6522 22.5986 22.5988 20.6521 25 20.6521C27.4013 20.6521 29.3479 22.5986 29.3479 25C29.3479 27.4014 27.4012 29.3478 25 29.3478Z" fill="#FFDA44"/>
<path d="M28.7654 26.0869L25 25L21.2346 26.0869L19.9795 28.2608H30.0204L28.7654 26.0869Z" fill="#0052B4"/>
<path d="M25 19.5652L22.4897 23.9131L25 25L27.5103 23.9131L25 19.5652Z" fill="#338AF3"/>
<path d="M21.2346 26.0869H28.7655L27.5103 23.9131H22.4898L21.2346 26.0869Z" fill="#6DA544"/>
</svg>
