<svg width="50" height="50" viewBox="0 0 50 50" fill="none" xmlns="http://www.w3.org/2000/svg">
<path d="M25 50C38.8071 50 50 38.8071 50 25C50 11.1929 38.8071 0 25 0C11.1929 0 0 11.1929 0 25C0 38.8071 11.1929 50 25 50Z" fill="#F0F0F0"/>
<path d="M48.0498 15.3079C44.2638 6.31465 35.37 0 25.0001 0C18.0964 0 11.8471 2.79873 7.32324 7.32314L13.584 15.3079H48.0498Z" fill="black"/>
<path d="M13.655 34.6016L7.32324 42.6769C11.8471 47.2013 18.0964 50 25.0001 50C35.405 50 44.3241 43.6432 48.0884 34.6016H13.655Z" fill="#496E2D"/>
<path d="M5.43481 18.3877V31.5217H49.1389C49.6997 29.4425 50 27.2565 50 25C50 22.7107 49.6917 20.4939 49.1152 18.3877H5.43481Z" fill="#A2001D"/>
<path d="M7.32231 7.32227C-2.44077 17.0854 -2.44077 32.9145 7.32231 42.6777C11.3568 38.6433 15.237 34.7631 25 25L7.32231 7.32227Z" fill="#0052B4"/>
<path d="M8.14312 18.7844L11.1944 23.0423L16.1874 21.4559L13.0808 25.674L16.1321 29.9321L11.1606 28.281L8.05396 32.499L8.08813 27.2604L3.11646 25.6091L8.10903 24.0228L8.14312 18.7844Z" fill="#FFDA44"/>
</svg>
