<svg width="50" height="50" viewBox="0 0 50 50" fill="none" xmlns="http://www.w3.org/2000/svg">
<path d="M13.5368 2.776C11.2987 3.93118 9.1978 5.44534 7.32163 7.32151C5.44536 9.19778 3.9312 11.2987 2.77612 13.5367L18.851 31.149L36.4632 47.2239C38.7014 46.0687 40.8023 44.5545 42.6785 42.6784C44.5547 40.8022 46.0688 38.7013 47.224 36.4632L31.1491 18.8509L13.5368 2.776Z" fill="#F0F0F0"/>
<path d="M42.6784 42.6784C43.7271 41.6297 44.6625 40.5106 45.4859 39.3369L10.6632 4.51404C9.48945 5.33738 8.37041 6.27273 7.32168 7.32146C6.27295 8.37019 5.3376 9.48923 4.51416 10.6631L39.3369 45.4857C40.5105 44.6624 41.6297 43.7271 42.6784 42.6784Z" fill="black"/>
<path d="M7.32148 42.6783C15.2089 50.5657 27.0543 52.0798 36.4631 47.2237L2.77607 13.5366C-2.07989 22.9454 -0.565535 34.7909 7.32148 42.6783Z" fill="#D80027"/>
<path d="M42.6782 7.3216C34.7908 -0.565702 22.9454 -2.07976 13.5366 2.776L47.2236 36.4633C52.0797 27.0545 50.5656 15.2089 42.6782 7.3216Z" fill="#D80027"/>
</svg>
