<svg width="193" height="71" viewBox="0 0 193 71" fill="none" xmlns="http://www.w3.org/2000/svg">
<path d="M21.4336 32.0078L14.4023 18.0039L14.1484 22.7109C14.0703 24.0781 13.9987 25.4388 13.9336 26.793C13.8815 28.1341 13.7773 29.4167 13.6211 30.6406C13.4648 31.8516 13.2174 32.9779 12.8789 34.0195C12.5534 35.0612 12.0716 35.9661 11.4336 36.7344C10.8086 37.4896 9.98828 38.082 8.97266 38.5117C7.97005 38.9414 6.71354 39.1562 5.20312 39.1562C4.53906 39.1562 3.90104 39.1042 3.28906 39C2.67708 38.8828 2.13672 38.7266 1.66797 38.5312C1.19922 38.3359 0.828125 38.1081 0.554688 37.8477C0.268229 37.5742 0.125 37.2812 0.125 36.9688C0.125 36.7344 0.157552 36.5 0.222656 36.2656C0.28776 36.0182 0.385417 35.7969 0.515625 35.6016C0.645833 35.3932 0.808594 35.2305 1.00391 35.1133C1.1862 34.9831 1.39453 34.918 1.62891 34.918C1.77214 34.918 1.89583 34.9896 2 35.1328C2.11719 35.276 2.23438 35.4583 2.35156 35.6797C2.46875 35.888 2.59896 36.1159 2.74219 36.3633C2.89844 36.6107 3.09375 36.8451 3.32812 37.0664C3.57552 37.2747 3.86849 37.4505 4.20703 37.5938C4.54557 37.737 4.96875 37.8086 5.47656 37.8086C6.47917 37.8086 7.31901 37.6393 7.99609 37.3008C8.6862 36.9492 9.2526 36.4479 9.69531 35.7969C10.138 35.1458 10.4766 34.3581 10.7109 33.4336C10.9453 32.5091 11.1211 31.4609 11.2383 30.2891C11.2904 29.638 11.3424 29.013 11.3945 28.4141C11.4466 27.8021 11.4987 27.1966 11.5508 26.5977C11.6029 25.9987 11.6484 25.3932 11.6875 24.7812C11.7396 24.1562 11.7917 23.4987 11.8438 22.8086C11.9089 21.806 11.9674 20.8555 12.0195 19.957C12.0716 19.0456 12.1107 18.1992 12.1367 17.418C12.1758 16.6367 12.2018 15.9336 12.2148 15.3086C12.2409 14.6836 12.2604 14.1432 12.2734 13.6875C12.0521 13.2318 11.8568 12.8672 11.6875 12.5938C11.5182 12.3073 11.3424 12.0924 11.1602 11.9492C10.9779 11.793 10.776 11.6888 10.5547 11.6367C10.3333 11.5846 10.0664 11.5586 9.75391 11.5586C9.49349 11.5586 9.16797 11.6107 8.77734 11.7148C8.39974 11.806 8.0026 11.9427 7.58594 12.125C7.18229 12.3073 6.77214 12.5352 6.35547 12.8086C5.95182 13.069 5.58724 13.375 5.26172 13.7266C4.94922 14.0651 4.6888 14.4427 4.48047 14.8594C4.28516 15.276 4.1875 15.7253 4.1875 16.207C4.1875 16.6237 4.23958 16.9557 4.34375 17.2031C4.46094 17.4505 4.59115 17.6393 4.73438 17.7695C4.89062 17.8867 5.04036 17.9648 5.18359 18.0039C5.33984 18.0299 5.45052 18.043 5.51562 18.043C5.84115 18.043 6.10807 17.9909 6.31641 17.8867C6.52474 17.7695 6.71354 17.6523 6.88281 17.5352C7.05208 17.4049 7.20833 17.2878 7.35156 17.1836C7.50781 17.0664 7.68359 17.0078 7.87891 17.0078C8.03516 17.0078 8.19792 17.0469 8.36719 17.125C8.54948 17.1901 8.71224 17.3008 8.85547 17.457C9.01172 17.6133 9.14193 17.8216 9.24609 18.082C9.35026 18.3294 9.40234 18.6354 9.40234 19C9.40234 19.5208 9.29818 19.9701 9.08984 20.3477C8.89453 20.7253 8.63411 21.0443 8.30859 21.3047C7.99609 21.5521 7.63151 21.7409 7.21484 21.8711C6.8112 21.9883 6.40755 22.0469 6.00391 22.0469C5.37891 22.0469 4.8125 21.9427 4.30469 21.7344C3.8099 21.513 3.38672 21.2135 3.03516 20.8359C2.68359 20.4583 2.41667 20.0156 2.23438 19.5078C2.05208 19 1.96094 18.4596 1.96094 17.8867C1.96094 16.5326 2.27344 15.3542 2.89844 14.3516C3.52344 13.3359 4.34375 12.4896 5.35938 11.8125C6.375 11.1354 7.52083 10.6341 8.79688 10.3086C10.0859 9.97005 11.3945 9.80078 12.7227 9.80078C13.7904 9.80078 14.6823 9.91146 15.3984 10.1328C16.1146 10.3411 16.7135 10.6276 17.1953 10.9922C17.6771 11.3438 18.0742 11.7604 18.3867 12.2422C18.6992 12.724 18.9857 13.2318 19.2461 13.7656L24.4023 24.2344C25.7435 21.5911 26.9609 19.2279 28.0547 17.1445C29.1615 15.0482 30.1836 13.2057 31.1211 11.6172C32.0586 10.0286 32.931 8.67448 33.7383 7.55469C34.5586 6.4349 35.3464 5.52344 36.1016 4.82031C36.8698 4.10417 37.625 3.58333 38.3672 3.25781C39.1224 2.93229 39.9036 2.76953 40.7109 2.76953C41.401 2.76953 41.9609 2.91927 42.3906 3.21875C42.8203 3.50521 43.0352 3.94141 43.0352 4.52734C43.0352 5.04818 42.9505 5.47786 42.7812 5.81641C42.612 6.15495 42.3776 6.32422 42.0781 6.32422C41.8307 6.32422 41.6419 6.23307 41.5117 6.05078C41.3815 5.85547 41.2513 5.64714 41.1211 5.42578C41.0039 5.20443 40.8542 5.0026 40.6719 4.82031C40.4896 4.625 40.2227 4.52734 39.8711 4.52734C39.6628 4.52734 39.4089 4.58594 39.1094 4.70312C38.8099 4.82031 38.4974 4.99609 38.1719 5.23047C37.8594 5.46484 37.5469 5.75781 37.2344 6.10938C36.9219 6.46094 36.6484 6.87109 36.4141 7.33984C36.1797 7.80859 35.9974 8.34245 35.8672 8.94141C35.737 9.54036 35.6979 10.1979 35.75 10.9141C35.8021 11.7344 35.8737 12.6979 35.9648 13.8047C36.056 14.8984 36.1536 16.0768 36.2578 17.3398C36.375 18.5898 36.4922 19.8854 36.6094 21.2266C36.7396 22.5677 36.8698 23.8893 37 25.1914C37.1302 26.4935 37.2539 27.7435 37.3711 28.9414C37.5013 30.1393 37.6185 31.2266 37.7227 32.2031C37.8268 33.1667 37.9245 33.987 38.0156 34.6641C38.1068 35.3281 38.1784 35.7839 38.2305 36.0312C38.3086 36.4089 38.4128 36.7148 38.543 36.9492C38.6732 37.1706 38.9076 37.2812 39.2461 37.2812C39.5977 37.2812 39.9297 37.2227 40.2422 37.1055C40.5547 36.9753 40.8346 36.8451 41.082 36.7148L41.3945 37.4375C41.1602 37.6068 40.8607 37.8021 40.4961 38.0234C40.1445 38.2318 39.7344 38.4336 39.2656 38.6289C38.8099 38.8242 38.3021 38.987 37.7422 39.1172C37.1953 39.2474 36.6029 39.3125 35.9648 39.3125C35.0664 39.3125 34.3568 39.2018 33.8359 38.9805C33.3151 38.7461 32.9115 38.4661 32.625 38.1406C32.3516 37.8021 32.1628 37.4505 32.0586 37.0859C31.9674 36.7083 31.8958 36.3698 31.8438 36.0703C31.7266 35.4062 31.6029 34.6055 31.4727 33.668C31.3424 32.7305 31.2122 31.7279 31.082 30.6602C30.9648 29.5794 30.8477 28.4727 30.7305 27.3398C30.6133 26.194 30.5026 25.0807 30.3984 24C30.3073 22.9062 30.2227 21.8776 30.1445 20.9141C30.0664 19.9505 30.0013 19.1107 29.9492 18.3945C29.5586 19.0326 29.194 19.651 28.8555 20.25C28.5299 20.8359 28.2109 21.4414 27.8984 22.0664C27.5859 22.6784 27.2669 23.3229 26.9414 24C26.6159 24.6771 26.2708 25.4128 25.9062 26.207C25.5547 27.0013 25.1641 27.8737 24.7344 28.8242C24.3177 29.7747 23.8555 30.8359 23.3477 32.0078H21.4336ZM52.6641 28.8828C52.6641 28.5573 52.5599 28.3099 52.3516 28.1406C52.1432 27.9714 51.8763 27.8867 51.5508 27.8867C51.0951 27.8867 50.6589 27.9909 50.2422 28.1992C49.8385 28.4076 49.4805 28.7135 49.168 29.1172C48.8555 29.5208 48.6081 30.0221 48.4258 30.6211C48.2435 31.207 48.1523 31.8906 48.1523 32.6719C48.1523 33.4271 48.2044 34.0521 48.3086 34.5469C48.4258 35.0417 48.5755 35.4388 48.7578 35.7383C48.9531 36.0247 49.1745 36.2266 49.4219 36.3438C49.6693 36.4609 49.9297 36.5195 50.2031 36.5195C50.5417 36.5195 50.8607 36.4349 51.1602 36.2656C51.4596 36.0833 51.7201 35.8555 51.9414 35.582C52.1628 35.3086 52.3385 35.0026 52.4688 34.6641C52.599 34.3255 52.6641 33.987 52.6641 33.6484V28.8828ZM49.5586 20.3281C49.1159 20.3281 48.7057 20.3802 48.3281 20.4844C47.9505 20.5885 47.625 20.7188 47.3516 20.875C47.0781 21.0312 46.8633 21.207 46.707 21.4023C46.5508 21.5846 46.4727 21.7604 46.4727 21.9297C46.4727 22.125 46.5703 22.2682 46.7656 22.3594C46.974 22.4375 47.2018 22.5352 47.4492 22.6523C47.6966 22.7565 47.918 22.9128 48.1133 23.1211C48.3216 23.3164 48.4258 23.6224 48.4258 24.0391C48.4258 24.3125 48.3672 24.5664 48.25 24.8008C48.1458 25.0221 47.9961 25.224 47.8008 25.4062C47.6185 25.5755 47.3971 25.7122 47.1367 25.8164C46.8893 25.9076 46.6289 25.9531 46.3555 25.9531C45.6263 25.9531 45.0339 25.7057 44.5781 25.2109C44.1354 24.7161 43.9141 24.0586 43.9141 23.2383C43.9141 22.444 44.1224 21.7669 44.5391 21.207C44.9557 20.6341 45.4961 20.1654 46.1602 19.8008C46.8372 19.4362 47.599 19.1693 48.4453 19C49.2917 18.8177 50.138 18.7266 50.9844 18.7266C52 18.7266 52.9701 18.8372 53.8945 19.0586C54.819 19.2799 55.6328 19.6315 56.3359 20.1133C57.0521 20.5951 57.6185 21.207 58.0352 21.9492C58.4648 22.6914 58.6797 23.5898 58.6797 24.6445V35.6797C58.6797 35.7969 58.6862 35.9271 58.6992 36.0703C58.7122 36.2135 58.7448 36.3438 58.7969 36.4609C58.849 36.5781 58.9271 36.6758 59.0312 36.7539C59.1354 36.832 59.2852 36.8711 59.4805 36.8711C59.7148 36.8711 59.9297 36.7865 60.125 36.6172C60.3333 36.4349 60.5156 36.2526 60.6719 36.0703L61.1602 36.4805C60.9648 36.7539 60.7305 37.0534 60.457 37.3789C60.1836 37.7044 59.8516 38.0104 59.4609 38.2969C59.0703 38.5833 58.6146 38.8242 58.0938 39.0195C57.5729 39.2148 56.9805 39.3125 56.3164 39.3125C55.4961 39.3125 54.7669 39.0716 54.1289 38.5898C53.4909 38.0951 53.0742 37.3398 52.8789 36.3242C52.4622 36.8841 52.026 37.3529 51.5703 37.7305C51.1276 38.1081 50.6719 38.4141 50.2031 38.6484C49.7344 38.8828 49.2591 39.0521 48.7773 39.1562C48.3086 39.2604 47.8333 39.3125 47.3516 39.3125C46.7266 39.3125 46.1211 39.2148 45.5352 39.0195C44.9492 38.8242 44.4219 38.5182 43.9531 38.1016C43.4974 37.6719 43.1263 37.1185 42.8398 36.4414C42.5664 35.7643 42.4297 34.9375 42.4297 33.9609C42.4297 32.776 42.6641 31.806 43.1328 31.0508C43.6016 30.2956 44.2135 29.6641 44.9688 29.1562C45.737 28.6354 46.6029 28.1927 47.5664 27.8281C48.543 27.4635 49.5391 27.0794 50.5547 26.6758C51.3099 26.3763 51.8568 25.9336 52.1953 25.3477C52.5469 24.7487 52.7227 24.1367 52.7227 23.5117C52.7227 22.5482 52.4362 21.7799 51.8633 21.207C51.3034 20.6211 50.5352 20.3281 49.5586 20.3281ZM69.832 24.0391C70.2878 23.4271 70.776 22.8086 71.2969 22.1836C71.8177 21.5456 72.3776 20.9727 72.9766 20.4648C73.5755 19.957 74.2266 19.5404 74.9297 19.2148C75.6328 18.8893 76.401 18.7266 77.2344 18.7266C77.9766 18.7266 78.5951 18.8763 79.0898 19.1758C79.5846 19.4622 79.9818 19.8138 80.2812 20.2305C80.5938 20.6341 80.8086 21.0573 80.9258 21.5C81.056 21.9427 81.1211 22.3203 81.1211 22.6328C81.1211 23.2057 81.043 23.8047 80.8867 24.4297C80.7435 25.0417 80.4896 25.6536 80.125 26.2656C79.7734 26.8646 79.2982 27.4505 78.6992 28.0234C78.1003 28.5833 77.3451 29.0977 76.4336 29.5664C77.6576 32.1576 78.849 34.3906 80.0078 36.2656C81.1667 38.1276 82.2799 39.6576 83.3477 40.8555C84.4284 42.0664 85.4635 42.9583 86.4531 43.5312C87.4427 44.1042 88.3867 44.3906 89.2852 44.3906C89.4414 44.3906 89.5977 44.3711 89.7539 44.332C89.9102 44.293 90.0534 44.2474 90.1836 44.1953C90.3268 44.1432 90.4766 44.0781 90.6328 44L91.0039 44.6836C90.6523 44.8789 90.2943 45.0612 89.9297 45.2305C89.5651 45.4128 89.1484 45.569 88.6797 45.6992C88.2109 45.8294 87.6706 45.9336 87.0586 46.0117C86.4466 46.0898 85.7174 46.1289 84.8711 46.1289C84.1029 46.1289 83.3411 46.0378 82.5859 45.8555C81.8438 45.6732 81.0951 45.3477 80.3398 44.8789C79.5846 44.4102 78.8164 43.7852 78.0352 43.0039C77.2669 42.2227 76.4727 41.2331 75.6523 40.0352C74.8451 38.8372 74.0117 37.4115 73.1523 35.7578C72.293 34.1042 71.401 32.1706 70.4766 29.957C71.7266 29.0326 72.7096 28.1797 73.4258 27.3984C74.1419 26.6042 74.6823 25.888 75.0469 25.25C75.4115 24.612 75.6393 24.0456 75.7305 23.5508C75.8216 23.056 75.8672 22.6328 75.8672 22.2812C75.8672 22.2292 75.8607 22.1445 75.8477 22.0273C75.8346 21.8971 75.7891 21.7734 75.7109 21.6562C75.6458 21.5391 75.5417 21.4349 75.3984 21.3438C75.2682 21.2526 75.0794 21.207 74.832 21.207C74.3503 21.207 73.862 21.4154 73.3672 21.832C72.8724 22.2357 72.3971 22.7435 71.9414 23.3555C71.4987 23.9544 71.0951 24.6055 70.7305 25.3086C70.3659 25.9987 70.0664 26.6302 69.832 27.2031V37.2812C69.832 37.4505 69.7995 37.6523 69.7344 37.8867C69.6823 38.1211 69.5456 38.3424 69.3242 38.5508C69.1159 38.7591 68.8034 38.9349 68.3867 39.0781C67.9831 39.2344 67.4362 39.3125 66.7461 39.3125C66.056 39.3125 65.5156 39.2279 65.125 39.0586C64.7344 38.9023 64.4414 38.7135 64.2461 38.4922C64.0638 38.2708 63.9466 38.043 63.8945 37.8086C63.8555 37.5742 63.8359 37.3854 63.8359 37.2422V12.0469C63.8359 11.6693 63.7448 11.3438 63.5625 11.0703C63.3932 10.7839 63.1003 10.6406 62.6836 10.6406C62.4622 10.6406 62.2669 10.6797 62.0977 10.7578C61.9414 10.8229 61.7721 10.9271 61.5898 11.0703L61.1992 10.6016C61.4987 10.3542 61.8307 10.1133 62.1953 9.87891C62.5599 9.63151 62.957 9.41667 63.3867 9.23438C63.8294 9.05208 64.2982 8.90234 64.793 8.78516C65.2878 8.66797 65.8086 8.60938 66.3555 8.60938C67.2018 8.60938 67.8594 8.72656 68.3281 8.96094C68.7969 9.18229 69.1419 9.46224 69.3633 9.80078C69.5846 10.1263 69.7148 10.4779 69.7539 10.8555C69.806 11.2201 69.832 11.5456 69.832 11.832V24.0391ZM91.082 24.0391C91.5378 23.4271 92.026 22.8086 92.5469 22.1836C93.0677 21.5456 93.6276 20.9727 94.2266 20.4648C94.8255 19.957 95.4766 19.5404 96.1797 19.2148C96.8828 18.8893 97.651 18.7266 98.4844 18.7266C99.2266 18.7266 99.8451 18.8763 100.34 19.1758C100.835 19.4622 101.232 19.8138 101.531 20.2305C101.844 20.6341 102.059 21.0573 102.176 21.5C102.306 21.9427 102.371 22.3203 102.371 22.6328C102.371 23.2057 102.293 23.8047 102.137 24.4297C101.993 25.0417 101.74 25.6536 101.375 26.2656C101.023 26.8646 100.548 27.4505 99.9492 28.0234C99.3503 28.5833 98.5951 29.0977 97.6836 29.5664C98.9076 32.1576 100.099 34.3906 101.258 36.2656C102.417 38.1276 103.53 39.6576 104.598 40.8555C105.678 42.0664 106.714 42.9583 107.703 43.5312C108.693 44.1042 109.637 44.3906 110.535 44.3906C110.691 44.3906 110.848 44.3711 111.004 44.332C111.16 44.293 111.303 44.2474 111.434 44.1953C111.577 44.1432 111.727 44.0781 111.883 44L112.254 44.6836C111.902 44.8789 111.544 45.0612 111.18 45.2305C110.815 45.4128 110.398 45.569 109.93 45.6992C109.461 45.8294 108.921 45.9336 108.309 46.0117C107.697 46.0898 106.967 46.1289 106.121 46.1289C105.353 46.1289 104.591 46.0378 103.836 45.8555C103.094 45.6732 102.345 45.3477 101.59 44.8789C100.835 44.4102 100.066 43.7852 99.2852 43.0039C98.5169 42.2227 97.7227 41.2331 96.9023 40.0352C96.0951 38.8372 95.2617 37.4115 94.4023 35.7578C93.543 34.1042 92.651 32.1706 91.7266 29.957C92.9766 29.0326 93.9596 28.1797 94.6758 27.3984C95.3919 26.6042 95.9323 25.888 96.2969 25.25C96.6615 24.612 96.8893 24.0456 96.9805 23.5508C97.0716 23.056 97.1172 22.6328 97.1172 22.2812C97.1172 22.2292 97.1107 22.1445 97.0977 22.0273C97.0846 21.8971 97.0391 21.7734 96.9609 21.6562C96.8958 21.5391 96.7917 21.4349 96.6484 21.3438C96.5182 21.2526 96.3294 21.207 96.082 21.207C95.6003 21.207 95.112 21.4154 94.6172 21.832C94.1224 22.2357 93.6471 22.7435 93.1914 23.3555C92.7487 23.9544 92.3451 24.6055 91.9805 25.3086C91.6159 25.9987 91.3164 26.6302 91.082 27.2031V37.2812C91.082 37.4505 91.0495 37.6523 90.9844 37.8867C90.9323 38.1211 90.7956 38.3424 90.5742 38.5508C90.3659 38.7591 90.0534 38.9349 89.6367 39.0781C89.2331 39.2344 88.6862 39.3125 87.9961 39.3125C87.306 39.3125 86.7656 39.2279 86.375 39.0586C85.9844 38.9023 85.6914 38.7135 85.4961 38.4922C85.3138 38.2708 85.1966 38.043 85.1445 37.8086C85.1055 37.5742 85.0859 37.3854 85.0859 37.2422V12.0469C85.0859 11.6693 84.9948 11.3438 84.8125 11.0703C84.6432 10.7839 84.3503 10.6406 83.9336 10.6406C83.7122 10.6406 83.5169 10.6797 83.3477 10.7578C83.1914 10.8229 83.0221 10.9271 82.8398 11.0703L82.4492 10.6016C82.7487 10.3542 83.0807 10.1133 83.4453 9.87891C83.8099 9.63151 84.207 9.41667 84.6367 9.23438C85.0794 9.05208 85.5482 8.90234 86.043 8.78516C86.5378 8.66797 87.0586 8.60938 87.6055 8.60938C88.4518 8.60938 89.1094 8.72656 89.5781 8.96094C90.0469 9.18229 90.3919 9.46224 90.6133 9.80078C90.8346 10.1263 90.9648 10.4779 91.0039 10.8555C91.056 11.2201 91.082 11.5456 91.082 11.832V24.0391ZM115.086 28.8828C115.086 28.5573 114.982 28.3099 114.773 28.1406C114.565 27.9714 114.298 27.8867 113.973 27.8867C113.517 27.8867 113.081 27.9909 112.664 28.1992C112.26 28.4076 111.902 28.7135 111.59 29.1172C111.277 29.5208 111.03 30.0221 110.848 30.6211C110.665 31.207 110.574 31.8906 110.574 32.6719C110.574 33.4271 110.626 34.0521 110.73 34.5469C110.848 35.0417 110.997 35.4388 111.18 35.7383C111.375 36.0247 111.596 36.2266 111.844 36.3438C112.091 36.4609 112.352 36.5195 112.625 36.5195C112.964 36.5195 113.283 36.4349 113.582 36.2656C113.882 36.0833 114.142 35.8555 114.363 35.582C114.585 35.3086 114.76 35.0026 114.891 34.6641C115.021 34.3255 115.086 33.987 115.086 33.6484V28.8828ZM111.98 20.3281C111.538 20.3281 111.128 20.3802 110.75 20.4844C110.372 20.5885 110.047 20.7188 109.773 20.875C109.5 21.0312 109.285 21.207 109.129 21.4023C108.973 21.5846 108.895 21.7604 108.895 21.9297C108.895 22.125 108.992 22.2682 109.188 22.3594C109.396 22.4375 109.624 22.5352 109.871 22.6523C110.118 22.7565 110.34 22.9128 110.535 23.1211C110.743 23.3164 110.848 23.6224 110.848 24.0391C110.848 24.3125 110.789 24.5664 110.672 24.8008C110.568 25.0221 110.418 25.224 110.223 25.4062C110.04 25.5755 109.819 25.7122 109.559 25.8164C109.311 25.9076 109.051 25.9531 108.777 25.9531C108.048 25.9531 107.456 25.7057 107 25.2109C106.557 24.7161 106.336 24.0586 106.336 23.2383C106.336 22.444 106.544 21.7669 106.961 21.207C107.378 20.6341 107.918 20.1654 108.582 19.8008C109.259 19.4362 110.021 19.1693 110.867 19C111.714 18.8177 112.56 18.7266 113.406 18.7266C114.422 18.7266 115.392 18.8372 116.316 19.0586C117.241 19.2799 118.055 19.6315 118.758 20.1133C119.474 20.5951 120.04 21.207 120.457 21.9492C120.887 22.6914 121.102 23.5898 121.102 24.6445V35.6797C121.102 35.7969 121.108 35.9271 121.121 36.0703C121.134 36.2135 121.167 36.3438 121.219 36.4609C121.271 36.5781 121.349 36.6758 121.453 36.7539C121.557 36.832 121.707 36.8711 121.902 36.8711C122.137 36.8711 122.352 36.7865 122.547 36.6172C122.755 36.4349 122.938 36.2526 123.094 36.0703L123.582 36.4805C123.387 36.7539 123.152 37.0534 122.879 37.3789C122.605 37.7044 122.273 38.0104 121.883 38.2969C121.492 38.5833 121.036 38.8242 120.516 39.0195C119.995 39.2148 119.402 39.3125 118.738 39.3125C117.918 39.3125 117.189 39.0716 116.551 38.5898C115.913 38.0951 115.496 37.3398 115.301 36.3242C114.884 36.8841 114.448 37.3529 113.992 37.7305C113.549 38.1081 113.094 38.4141 112.625 38.6484C112.156 38.8828 111.681 39.0521 111.199 39.1562C110.73 39.2604 110.255 39.3125 109.773 39.3125C109.148 39.3125 108.543 39.2148 107.957 39.0195C107.371 38.8242 106.844 38.5182 106.375 38.1016C105.919 37.6719 105.548 37.1185 105.262 36.4414C104.988 35.7643 104.852 34.9375 104.852 33.9609C104.852 32.776 105.086 31.806 105.555 31.0508C106.023 30.2956 106.635 29.6641 107.391 29.1562C108.159 28.6354 109.025 28.1927 109.988 27.8281C110.965 27.4635 111.961 27.0794 112.977 26.6758C113.732 26.3763 114.279 25.9336 114.617 25.3477C114.969 24.7487 115.145 24.1367 115.145 23.5117C115.145 22.5482 114.858 21.7799 114.285 21.207C113.725 20.6211 112.957 20.3281 111.98 20.3281ZM132.254 22.4375C132.736 21.7474 133.283 21.1289 133.895 20.582C134.142 20.3477 134.415 20.1198 134.715 19.8984C135.027 19.6771 135.353 19.4818 135.691 19.3125C136.043 19.1302 136.408 18.987 136.785 18.8828C137.176 18.7786 137.573 18.7266 137.977 18.7266C138.849 18.7266 139.63 18.8958 140.32 19.2344C141.01 19.5729 141.59 20.1393 142.059 20.9336C142.527 21.7279 142.885 22.7826 143.133 24.0977C143.38 25.3997 143.504 27.0208 143.504 28.9609C143.504 30.849 143.335 32.4896 142.996 33.8828C142.658 35.276 142.215 36.4609 141.668 37.4375C141.121 38.4141 140.503 39.2083 139.812 39.8203C139.122 40.4453 138.426 40.9336 137.723 41.2852C137.02 41.6367 136.342 41.8776 135.691 42.0078C135.04 42.151 134.48 42.2292 134.012 42.2422L133.816 41.4414C134.402 41.2982 134.923 41.0312 135.379 40.6406C135.835 40.25 136.219 39.612 136.531 38.7266C136.844 37.8281 137.078 36.6237 137.234 35.1133C137.404 33.6029 137.488 31.6562 137.488 29.2734C137.488 27.6328 137.41 26.3242 137.254 25.3477C137.111 24.3581 136.915 23.6094 136.668 23.1016C136.434 22.5807 136.16 22.2422 135.848 22.0859C135.548 21.9167 135.242 21.832 134.93 21.832C134.552 21.832 134.22 21.9362 133.934 22.1445C133.647 22.3398 133.393 22.5677 133.172 22.8281C132.964 23.0885 132.781 23.349 132.625 23.6094C132.482 23.8698 132.358 24.0651 132.254 24.1953V37.2422C132.254 37.4115 132.228 37.6198 132.176 37.8672C132.124 38.1016 131.993 38.3294 131.785 38.5508C131.59 38.7591 131.29 38.9349 130.887 39.0781C130.496 39.2344 129.956 39.3125 129.266 39.3125C128.576 39.3125 128.029 39.2279 127.625 39.0586C127.221 38.9023 126.915 38.7135 126.707 38.4922C126.512 38.2708 126.388 38.043 126.336 37.8086C126.284 37.5742 126.258 37.3854 126.258 37.2422V12.0469C126.258 11.6693 126.167 11.3438 125.984 11.0703C125.815 10.7839 125.522 10.6406 125.105 10.6406C124.884 10.6406 124.689 10.6797 124.52 10.7578C124.363 10.8229 124.194 10.9271 124.012 11.0703L123.621 10.6016C123.921 10.3542 124.253 10.1133 124.617 9.87891C124.982 9.63151 125.379 9.41667 125.809 9.23438C126.251 9.05208 126.72 8.90234 127.215 8.78516C127.71 8.66797 128.23 8.60938 128.777 8.60938C129.624 8.60938 130.281 8.72656 130.75 8.96094C131.219 9.18229 131.564 9.46224 131.785 9.80078C132.007 10.1263 132.137 10.4779 132.176 10.8555C132.228 11.2201 132.254 11.5456 132.254 11.832V22.4375ZM171.395 26.9688H168.582V38.4336C168.582 40.2044 168.283 41.7474 167.684 43.0625C167.085 44.3906 166.245 45.4909 165.164 46.3633C164.096 47.2487 162.827 47.9062 161.355 48.3359C159.884 48.7786 158.283 49 156.551 49C155.887 49 155.249 48.9414 154.637 48.8242C154.025 48.7201 153.484 48.5703 153.016 48.375C152.547 48.1797 152.169 47.9453 151.883 47.6719C151.609 47.4115 151.473 47.1185 151.473 46.793C151.473 46.5586 151.505 46.3177 151.57 46.0703C151.635 45.8359 151.733 45.6211 151.863 45.4258C151.993 45.2305 152.15 45.0677 152.332 44.9375C152.527 44.8203 152.742 44.7617 152.977 44.7617C153.133 44.7617 153.263 44.8333 153.367 44.9766C153.471 45.1198 153.582 45.2956 153.699 45.5039C153.816 45.7122 153.953 45.9401 154.109 46.1875C154.266 46.4479 154.461 46.6823 154.695 46.8906C154.93 47.099 155.216 47.2747 155.555 47.418C155.893 47.5612 156.316 47.6328 156.824 47.6328C157.827 47.6328 158.712 47.4505 159.48 47.0859C160.249 46.7214 160.887 46.207 161.395 45.543C161.915 44.8919 162.306 44.1042 162.566 43.1797C162.84 42.2682 162.977 41.2591 162.977 40.1523V38.9609C162.43 39.0781 161.876 39.1628 161.316 39.2148C160.77 39.2799 160.151 39.3125 159.461 39.3125C157.69 39.3125 156.03 39.0456 154.48 38.5117C152.931 37.9648 151.577 37.125 150.418 35.9922C149.272 34.8594 148.367 33.4141 147.703 31.6562C147.039 29.8984 146.707 27.8021 146.707 25.3672C146.707 23.6745 146.889 22.112 147.254 20.6797C147.618 19.2474 148.126 17.9583 148.777 16.8125C149.428 15.6536 150.197 14.638 151.082 13.7656C151.98 12.8932 152.951 12.1641 153.992 11.5781C155.047 10.9922 156.154 10.5495 157.312 10.25C158.484 9.95052 159.669 9.80078 160.867 9.80078C162 9.80078 163.055 9.91146 164.031 10.1328C165.008 10.3411 165.854 10.6536 166.57 11.0703C167.299 11.474 167.872 11.9818 168.289 12.5938C168.706 13.1927 168.914 13.8763 168.914 14.6445C168.914 14.9961 168.849 15.3672 168.719 15.7578C168.602 16.1354 168.426 16.487 168.191 16.8125C167.957 17.125 167.658 17.3854 167.293 17.5938C166.941 17.7891 166.531 17.8867 166.062 17.8867C165.503 17.8867 165.086 17.7305 164.812 17.418C164.552 17.0924 164.35 16.6953 164.207 16.2266C164.077 15.7578 163.979 15.2435 163.914 14.6836C163.849 14.1237 163.738 13.6094 163.582 13.1406C163.426 12.6719 163.185 12.2812 162.859 11.9688C162.547 11.6432 162.085 11.4805 161.473 11.4805C161.017 11.4805 160.503 11.5911 159.93 11.8125C159.357 12.0339 158.777 12.3854 158.191 12.8672C157.605 13.3359 157.026 13.9414 156.453 14.6836C155.893 15.4128 155.392 16.2917 154.949 17.3203C154.52 18.349 154.168 19.5339 153.895 20.875C153.634 22.2031 153.504 23.7005 153.504 25.3672C153.504 27.2161 153.621 28.7982 153.855 30.1133C154.09 31.4154 154.396 32.5091 154.773 33.3945C155.164 34.2669 155.607 34.9635 156.102 35.4844C156.609 35.9922 157.13 36.3763 157.664 36.6367C158.198 36.8971 158.725 37.0664 159.246 37.1445C159.78 37.2096 160.268 37.2422 160.711 37.2422C161.167 37.2422 161.583 37.2096 161.961 37.1445C162.339 37.0664 162.677 36.9622 162.977 36.832V26.9688H159.539V25.2305H171.395V26.9688ZM173.367 29C173.367 27.2943 173.615 25.8034 174.109 24.5273C174.604 23.2383 175.262 22.1641 176.082 21.3047C176.915 20.4453 177.879 19.8008 178.973 19.3711C180.066 18.9414 181.212 18.7266 182.41 18.7266C183.608 18.7266 184.754 18.9284 185.848 19.332C186.941 19.7227 187.898 20.3281 188.719 21.1484C189.552 21.9688 190.216 23.0104 190.711 24.2734C191.206 25.5234 191.453 27.0078 191.453 28.7266C191.453 30.4323 191.206 31.9427 190.711 33.2578C190.216 34.5729 189.552 35.6797 188.719 36.5781C187.898 37.4766 186.941 38.1602 185.848 38.6289C184.754 39.0846 183.608 39.3125 182.41 39.3125C181.212 39.3125 180.066 39.0977 178.973 38.668C177.879 38.2253 176.915 37.5742 176.082 36.7148C175.262 35.8555 174.604 34.7812 174.109 33.4922C173.615 32.2031 173.367 30.7057 173.367 29ZM185.379 28.8047C185.379 27.763 185.34 26.7604 185.262 25.7969C185.197 24.8203 185.06 23.9544 184.852 23.1992C184.643 22.444 184.344 21.8451 183.953 21.4023C183.562 20.9466 183.048 20.7188 182.41 20.7188C181.772 20.7188 181.258 20.9596 180.867 21.4414C180.477 21.9102 180.177 22.5352 179.969 23.3164C179.76 24.0846 179.624 24.9635 179.559 25.9531C179.493 26.9427 179.461 27.9583 179.461 29C179.461 30.0417 179.493 31.0638 179.559 32.0664C179.624 33.056 179.76 33.9414 179.969 34.7227C180.177 35.5039 180.477 36.1354 180.867 36.6172C181.258 37.0859 181.772 37.3203 182.41 37.3203C183.048 37.3203 183.562 37.0729 183.953 36.5781C184.344 36.0833 184.643 35.4323 184.852 34.625C185.06 33.8177 185.197 32.9062 185.262 31.8906C185.34 30.875 185.379 29.8464 185.379 28.8047Z" fill="white"/>
<path d="M6.55469 60.9766V59.7266H9.74219C10.5495 59.7266 11.1745 59.5182 11.6172 59.1016C12.0599 58.6797 12.2812 58.099 12.2812 57.3594V57.3438C12.2812 56.599 12.0599 56.0182 11.6172 55.6016C11.1745 55.1849 10.5495 54.9766 9.74219 54.9766H6.55469V53.7266H10.1016C10.8099 53.7266 11.4349 53.8776 11.9766 54.1797C12.5182 54.4818 12.9427 54.9036 13.25 55.4453C13.5625 55.987 13.7188 56.6146 13.7188 57.3281V57.3438C13.7188 58.0573 13.5625 58.6875 13.25 59.2344C12.9427 59.7812 12.5182 60.2083 11.9766 60.5156C11.4349 60.8229 10.8099 60.9766 10.1016 60.9766H6.55469ZM5.85156 65V53.7266H7.25781V65H5.85156ZM17.8516 65.1484C17.3203 65.1484 16.8411 65.0469 16.4141 64.8438C15.9922 64.6406 15.6562 64.3516 15.4062 63.9766C15.1615 63.6016 15.0391 63.1589 15.0391 62.6484V62.6328C15.0391 62.1328 15.1589 61.7057 15.3984 61.3516C15.638 60.9922 15.987 60.7109 16.4453 60.5078C16.9036 60.3047 17.4583 60.1849 18.1094 60.1484L21.2031 59.9609V61.0469L18.2734 61.2344C17.6328 61.2708 17.1641 61.4036 16.8672 61.6328C16.5755 61.862 16.4297 62.1849 16.4297 62.6016V62.6172C16.4297 63.0443 16.5911 63.3776 16.9141 63.6172C17.237 63.8516 17.6432 63.9688 18.1328 63.9688C18.5964 63.9688 19.0078 63.8776 19.3672 63.6953C19.7266 63.5078 20.0078 63.2552 20.2109 62.9375C20.4193 62.6198 20.5234 62.2604 20.5234 61.8594V59.2344C20.5234 58.7135 20.3646 58.3177 20.0469 58.0469C19.7344 57.7708 19.263 57.6328 18.6328 57.6328C18.1276 57.6328 17.7135 57.724 17.3906 57.9062C17.0677 58.0833 16.8516 58.3359 16.7422 58.6641L16.7344 58.6875H15.375L15.3828 58.6406C15.4557 58.1979 15.638 57.8125 15.9297 57.4844C16.2266 57.151 16.6094 56.8932 17.0781 56.7109C17.5469 56.5234 18.0807 56.4297 18.6797 56.4297C19.3672 56.4297 19.9479 56.5417 20.4219 56.7656C20.901 56.9896 21.263 57.3125 21.5078 57.7344C21.7578 58.151 21.8828 58.651 21.8828 59.2344V65H20.5234V63.7578H20.3984C20.2214 64.0547 20.0052 64.3073 19.75 64.5156C19.5 64.724 19.2161 64.8828 18.8984 64.9922C18.5807 65.0964 18.2318 65.1484 17.8516 65.1484ZM24.3672 65V56.5781H25.7266V57.8438H25.8516C26.0651 57.3958 26.3724 57.0495 26.7734 56.8047C27.1745 56.5547 27.6849 56.4297 28.3047 56.4297C29.2526 56.4297 29.9792 56.7005 30.4844 57.2422C30.9948 57.7786 31.25 58.5469 31.25 59.5469V65H29.8906V59.875C29.8906 59.1146 29.7292 58.5521 29.4062 58.1875C29.0885 57.8177 28.5938 57.6328 27.9219 57.6328C27.474 57.6328 27.0859 57.7292 26.7578 57.9219C26.4297 58.1146 26.1745 58.388 25.9922 58.7422C25.8151 59.0964 25.7266 59.5208 25.7266 60.0156V65H24.3672ZM36.8203 65.1484C36.112 65.1484 35.4922 64.9688 34.9609 64.6094C34.4297 64.25 34.0182 63.7448 33.7266 63.0938C33.4349 62.4375 33.2891 61.6719 33.2891 60.7969V60.7812C33.2891 59.901 33.4349 59.1354 33.7266 58.4844C34.0182 57.8333 34.4271 57.3281 34.9531 56.9688C35.4844 56.6094 36.1068 56.4297 36.8203 56.4297C37.2057 56.4297 37.5677 56.4922 37.9062 56.6172C38.25 56.737 38.5547 56.9062 38.8203 57.125C39.0859 57.3438 39.2943 57.6042 39.4453 57.9062H39.5703V53.2344H40.9297V65H39.5703V63.6562H39.4453C39.2734 63.9688 39.0573 64.237 38.7969 64.4609C38.5365 64.6797 38.2396 64.849 37.9062 64.9688C37.5729 65.0885 37.2109 65.1484 36.8203 65.1484ZM37.1328 63.9453C37.6432 63.9453 38.0833 63.8177 38.4531 63.5625C38.8229 63.3073 39.1068 62.9453 39.3047 62.4766C39.5026 62.0026 39.6016 61.4427 39.6016 60.7969V60.7812C39.6016 60.1302 39.5026 59.5703 39.3047 59.1016C39.1068 58.6328 38.8229 58.2708 38.4531 58.0156C38.0833 57.7604 37.6432 57.6328 37.1328 57.6328C36.6224 57.6328 36.1823 57.7604 35.8125 58.0156C35.4479 58.2656 35.1667 58.625 34.9688 59.0938C34.776 59.5625 34.6797 60.125 34.6797 60.7812V60.7969C34.6797 61.4479 34.776 62.0104 34.9688 62.4844C35.1667 62.9531 35.4479 63.3151 35.8125 63.5703C36.1823 63.8203 36.6224 63.9453 37.1328 63.9453ZM46.3594 65.1484C45.724 65.1484 45.1901 65.0286 44.7578 64.7891C44.3255 64.5443 44 64.1901 43.7812 63.7266C43.5677 63.2578 43.4609 62.6927 43.4609 62.0312V56.5781H44.8203V61.7031C44.8203 62.4583 44.9661 63.0208 45.2578 63.3906C45.5547 63.7604 46.0391 63.9453 46.7109 63.9453C47.0807 63.9453 47.4062 63.8906 47.6875 63.7812C47.974 63.6719 48.2135 63.5156 48.4062 63.3125C48.599 63.1042 48.7422 62.8542 48.8359 62.5625C48.9349 62.2656 48.9844 61.9323 48.9844 61.5625V56.5781H50.3438V65H48.9844V63.7422H48.8594C48.724 64.0391 48.5391 64.2943 48.3047 64.5078C48.0703 64.7161 47.7891 64.875 47.4609 64.9844C47.138 65.0938 46.7708 65.1484 46.3594 65.1484ZM55.1953 65.1484C54.6641 65.1484 54.1849 65.0469 53.7578 64.8438C53.3359 64.6406 53 64.3516 52.75 63.9766C52.5052 63.6016 52.3828 63.1589 52.3828 62.6484V62.6328C52.3828 62.1328 52.5026 61.7057 52.7422 61.3516C52.9818 60.9922 53.3307 60.7109 53.7891 60.5078C54.2474 60.3047 54.8021 60.1849 55.4531 60.1484L58.5469 59.9609V61.0469L55.6172 61.2344C54.9766 61.2708 54.5078 61.4036 54.2109 61.6328C53.9193 61.862 53.7734 62.1849 53.7734 62.6016V62.6172C53.7734 63.0443 53.9349 63.3776 54.2578 63.6172C54.5807 63.8516 54.987 63.9688 55.4766 63.9688C55.9401 63.9688 56.3516 63.8776 56.7109 63.6953C57.0703 63.5078 57.3516 63.2552 57.5547 62.9375C57.763 62.6198 57.8672 62.2604 57.8672 61.8594V59.2344C57.8672 58.7135 57.7083 58.3177 57.3906 58.0469C57.0781 57.7708 56.6068 57.6328 55.9766 57.6328C55.4714 57.6328 55.0573 57.724 54.7344 57.9062C54.4115 58.0833 54.1953 58.3359 54.0859 58.6641L54.0781 58.6875H52.7188L52.7266 58.6406C52.7995 58.1979 52.9818 57.8125 53.2734 57.4844C53.5703 57.151 53.9531 56.8932 54.4219 56.7109C54.8906 56.5234 55.4245 56.4297 56.0234 56.4297C56.7109 56.4297 57.2917 56.5417 57.7656 56.7656C58.2448 56.9896 58.6068 57.3125 58.8516 57.7344C59.1016 58.151 59.2266 58.651 59.2266 59.2344V65H57.8672V63.7578H57.7422C57.5651 64.0547 57.349 64.3073 57.0938 64.5156C56.8438 64.724 56.5599 64.8828 56.2422 64.9922C55.9245 65.0964 55.5755 65.1484 55.1953 65.1484ZM61.7109 65V56.5781H63.0703V57.8438H63.1953C63.4089 57.3958 63.7161 57.0495 64.1172 56.8047C64.5182 56.5547 65.0286 56.4297 65.6484 56.4297C66.5964 56.4297 67.3229 56.7005 67.8281 57.2422C68.3385 57.7786 68.5938 58.5469 68.5938 59.5469V65H67.2344V59.875C67.2344 59.1146 67.0729 58.5521 66.75 58.1875C66.4323 57.8177 65.9375 57.6328 65.2656 57.6328C64.8177 57.6328 64.4297 57.7292 64.1016 57.9219C63.7734 58.1146 63.5182 58.388 63.3359 58.7422C63.1589 59.0964 63.0703 59.5208 63.0703 60.0156V65H61.7109ZM76.4297 60.9766V59.7266H79.6172C80.4245 59.7266 81.0495 59.5182 81.4922 59.1016C81.9349 58.6797 82.1562 58.099 82.1562 57.3594V57.3438C82.1562 56.599 81.9349 56.0182 81.4922 55.6016C81.0495 55.1849 80.4245 54.9766 79.6172 54.9766H76.4297V53.7266H79.9766C80.6849 53.7266 81.3099 53.8776 81.8516 54.1797C82.3932 54.4818 82.8177 54.9036 83.125 55.4453C83.4375 55.987 83.5938 56.6146 83.5938 57.3281V57.3438C83.5938 58.0573 83.4375 58.6875 83.125 59.2344C82.8177 59.7812 82.3932 60.2083 81.8516 60.5156C81.3099 60.8229 80.6849 60.9766 79.9766 60.9766H76.4297ZM75.7266 65V53.7266H77.1328V65H75.7266ZM88.9297 65.1484C88.1276 65.1484 87.4375 64.9714 86.8594 64.6172C86.2865 64.263 85.8438 63.763 85.5312 63.1172C85.224 62.4661 85.0703 61.7005 85.0703 60.8203V60.8125C85.0703 59.9427 85.224 59.1797 85.5312 58.5234C85.8438 57.8672 86.2839 57.3542 86.8516 56.9844C87.4193 56.6146 88.0833 56.4297 88.8438 56.4297C89.6094 56.4297 90.2656 56.6068 90.8125 56.9609C91.3646 57.3151 91.7865 57.8099 92.0781 58.4453C92.375 59.0755 92.5234 59.8099 92.5234 60.6484V61.1797H85.7734V60.0938H91.8281L91.1562 61.0859V60.5469C91.1562 59.8854 91.0573 59.3411 90.8594 58.9141C90.6615 58.487 90.388 58.1693 90.0391 57.9609C89.6901 57.7474 89.2891 57.6406 88.8359 57.6406C88.3828 57.6406 87.9766 57.7526 87.6172 57.9766C87.263 58.1953 86.9818 58.5208 86.7734 58.9531C86.5651 59.3854 86.4609 59.9167 86.4609 60.5469V61.0859C86.4609 61.6849 86.5625 62.1979 86.7656 62.625C86.9688 63.0469 87.2578 63.3724 87.6328 63.6016C88.0078 63.8255 88.4505 63.9375 88.9609 63.9375C89.3411 63.9375 89.6719 63.8854 89.9531 63.7812C90.2344 63.6771 90.4661 63.5443 90.6484 63.3828C90.8307 63.2214 90.9583 63.0573 91.0312 62.8906L91.0625 62.8203H92.4219L92.4062 62.8828C92.3333 63.1693 92.2031 63.4479 92.0156 63.7188C91.8333 63.9844 91.5964 64.2266 91.3047 64.4453C91.013 64.6589 90.6667 64.8307 90.2656 64.9609C89.8698 65.0859 89.4245 65.1484 88.9297 65.1484ZM94.6328 65V56.5781H95.9922V57.8281H96.1172C96.2786 57.3854 96.5521 57.0417 96.9375 56.7969C97.3229 56.5521 97.7995 56.4297 98.3672 56.4297C98.4974 56.4297 98.625 56.4375 98.75 56.4531C98.8802 56.4635 98.9792 56.474 99.0469 56.4844V57.8047C98.9062 57.7786 98.7682 57.7604 98.6328 57.75C98.5026 57.7344 98.362 57.7266 98.2109 57.7266C97.7786 57.7266 97.3958 57.8125 97.0625 57.9844C96.7292 58.1562 96.4661 58.3958 96.2734 58.7031C96.0859 59.0104 95.9922 59.3698 95.9922 59.7812V65H94.6328ZM99.5234 67.8906C99.487 67.8906 99.4505 67.8906 99.4141 67.8906C99.3724 67.8906 99.3307 67.8906 99.2891 67.8906V66.6875C99.3255 66.6875 99.3594 66.6875 99.3906 66.6875C99.4219 66.6875 99.4557 66.6875 99.4922 66.6875C99.9505 66.6875 100.273 66.5938 100.461 66.4062C100.654 66.224 100.75 65.901 100.75 65.4375V56.5781H102.109V65.4141C102.109 66.2786 101.898 66.9062 101.477 67.2969C101.06 67.6927 100.409 67.8906 99.5234 67.8906ZM101.43 54.9531C101.174 54.9531 100.953 54.862 100.766 54.6797C100.583 54.4922 100.492 54.2708 100.492 54.0156C100.492 53.7552 100.583 53.5339 100.766 53.3516C100.953 53.1693 101.174 53.0781 101.43 53.0781C101.69 53.0781 101.911 53.1693 102.094 53.3516C102.276 53.5339 102.367 53.7552 102.367 54.0156C102.367 54.2708 102.276 54.4922 102.094 54.6797C101.911 54.862 101.69 54.9531 101.43 54.9531ZM106.992 65.1484C106.461 65.1484 105.982 65.0469 105.555 64.8438C105.133 64.6406 104.797 64.3516 104.547 63.9766C104.302 63.6016 104.18 63.1589 104.18 62.6484V62.6328C104.18 62.1328 104.299 61.7057 104.539 61.3516C104.779 60.9922 105.128 60.7109 105.586 60.5078C106.044 60.3047 106.599 60.1849 107.25 60.1484L110.344 59.9609V61.0469L107.414 61.2344C106.773 61.2708 106.305 61.4036 106.008 61.6328C105.716 61.862 105.57 62.1849 105.57 62.6016V62.6172C105.57 63.0443 105.732 63.3776 106.055 63.6172C106.378 63.8516 106.784 63.9688 107.273 63.9688C107.737 63.9688 108.148 63.8776 108.508 63.6953C108.867 63.5078 109.148 63.2552 109.352 62.9375C109.56 62.6198 109.664 62.2604 109.664 61.8594V59.2344C109.664 58.7135 109.505 58.3177 109.188 58.0469C108.875 57.7708 108.404 57.6328 107.773 57.6328C107.268 57.6328 106.854 57.724 106.531 57.9062C106.208 58.0833 105.992 58.3359 105.883 58.6641L105.875 58.6875H104.516L104.523 58.6406C104.596 58.1979 104.779 57.8125 105.07 57.4844C105.367 57.151 105.75 56.8932 106.219 56.7109C106.688 56.5234 107.221 56.4297 107.82 56.4297C108.508 56.4297 109.089 56.5417 109.562 56.7656C110.042 56.9896 110.404 57.3125 110.648 57.7344C110.898 58.151 111.023 58.651 111.023 59.2344V65H109.664V63.7578H109.539C109.362 64.0547 109.146 64.3073 108.891 64.5156C108.641 64.724 108.357 64.8828 108.039 64.9922C107.721 65.0964 107.372 65.1484 106.992 65.1484ZM113.586 65V53.2344H114.945V65H113.586ZM119.867 65.1484C119.336 65.1484 118.857 65.0469 118.43 64.8438C118.008 64.6406 117.672 64.3516 117.422 63.9766C117.177 63.6016 117.055 63.1589 117.055 62.6484V62.6328C117.055 62.1328 117.174 61.7057 117.414 61.3516C117.654 60.9922 118.003 60.7109 118.461 60.5078C118.919 60.3047 119.474 60.1849 120.125 60.1484L123.219 59.9609V61.0469L120.289 61.2344C119.648 61.2708 119.18 61.4036 118.883 61.6328C118.591 61.862 118.445 62.1849 118.445 62.6016V62.6172C118.445 63.0443 118.607 63.3776 118.93 63.6172C119.253 63.8516 119.659 63.9688 120.148 63.9688C120.612 63.9688 121.023 63.8776 121.383 63.6953C121.742 63.5078 122.023 63.2552 122.227 62.9375C122.435 62.6198 122.539 62.2604 122.539 61.8594V59.2344C122.539 58.7135 122.38 58.3177 122.062 58.0469C121.75 57.7708 121.279 57.6328 120.648 57.6328C120.143 57.6328 119.729 57.724 119.406 57.9062C119.083 58.0833 118.867 58.3359 118.758 58.6641L118.75 58.6875H117.391L117.398 58.6406C117.471 58.1979 117.654 57.8125 117.945 57.4844C118.242 57.151 118.625 56.8932 119.094 56.7109C119.562 56.5234 120.096 56.4297 120.695 56.4297C121.383 56.4297 121.964 56.5417 122.438 56.7656C122.917 56.9896 123.279 57.3125 123.523 57.7344C123.773 58.151 123.898 58.651 123.898 59.2344V65H122.539V63.7578H122.414C122.237 64.0547 122.021 64.3073 121.766 64.5156C121.516 64.724 121.232 64.8828 120.914 64.9922C120.596 65.0964 120.247 65.1484 119.867 65.1484ZM126.383 65V56.5781H127.742V57.8438H127.867C128.081 57.3958 128.388 57.0495 128.789 56.8047C129.19 56.5547 129.701 56.4297 130.32 56.4297C131.268 56.4297 131.995 56.7005 132.5 57.2422C133.01 57.7786 133.266 58.5469 133.266 59.5469V65H131.906V59.875C131.906 59.1146 131.745 58.5521 131.422 58.1875C131.104 57.8177 130.609 57.6328 129.938 57.6328C129.49 57.6328 129.102 57.7292 128.773 57.9219C128.445 58.1146 128.19 58.388 128.008 58.7422C127.831 59.0964 127.742 59.5208 127.742 60.0156V65H126.383ZM138.039 65.1484C137.508 65.1484 137.029 65.0469 136.602 64.8438C136.18 64.6406 135.844 64.3516 135.594 63.9766C135.349 63.6016 135.227 63.1589 135.227 62.6484V62.6328C135.227 62.1328 135.346 61.7057 135.586 61.3516C135.826 60.9922 136.174 60.7109 136.633 60.5078C137.091 60.3047 137.646 60.1849 138.297 60.1484L141.391 59.9609V61.0469L138.461 61.2344C137.82 61.2708 137.352 61.4036 137.055 61.6328C136.763 61.862 136.617 62.1849 136.617 62.6016V62.6172C136.617 63.0443 136.779 63.3776 137.102 63.6172C137.424 63.8516 137.831 63.9688 138.32 63.9688C138.784 63.9688 139.195 63.8776 139.555 63.6953C139.914 63.5078 140.195 63.2552 140.398 62.9375C140.607 62.6198 140.711 62.2604 140.711 61.8594V59.2344C140.711 58.7135 140.552 58.3177 140.234 58.0469C139.922 57.7708 139.451 57.6328 138.82 57.6328C138.315 57.6328 137.901 57.724 137.578 57.9062C137.255 58.0833 137.039 58.3359 136.93 58.6641L136.922 58.6875H135.562L135.57 58.6406C135.643 58.1979 135.826 57.8125 136.117 57.4844C136.414 57.151 136.797 56.8932 137.266 56.7109C137.734 56.5234 138.268 56.4297 138.867 56.4297C139.555 56.4297 140.135 56.5417 140.609 56.7656C141.089 56.9896 141.451 57.3125 141.695 57.7344C141.945 58.151 142.07 58.651 142.07 59.2344V65H140.711V63.7578H140.586C140.409 64.0547 140.193 64.3073 139.938 64.5156C139.688 64.724 139.404 64.8828 139.086 64.9922C138.768 65.0964 138.419 65.1484 138.039 65.1484ZM144.555 65V56.5781H145.914V57.8438H146.039C146.253 57.3958 146.56 57.0495 146.961 56.8047C147.362 56.5547 147.872 56.4297 148.492 56.4297C149.44 56.4297 150.167 56.7005 150.672 57.2422C151.182 57.7786 151.438 58.5469 151.438 59.5469V65H150.078V59.875C150.078 59.1146 149.917 58.5521 149.594 58.1875C149.276 57.8177 148.781 57.6328 148.109 57.6328C147.661 57.6328 147.273 57.7292 146.945 57.9219C146.617 58.1146 146.362 58.388 146.18 58.7422C146.003 59.0964 145.914 59.5208 145.914 60.0156V65H144.555ZM162.266 65.2656C161.443 65.2656 160.724 65.1328 160.109 64.8672C159.5 64.5964 159.016 64.2266 158.656 63.7578C158.302 63.2839 158.096 62.7422 158.039 62.1328L158.031 62.0469H159.438L159.445 62.1328C159.482 62.5078 159.625 62.8333 159.875 63.1094C160.13 63.3802 160.469 63.5911 160.891 63.7422C161.318 63.8932 161.802 63.9688 162.344 63.9688C162.854 63.9688 163.307 63.888 163.703 63.7266C164.104 63.5599 164.419 63.3307 164.648 63.0391C164.878 62.7474 164.992 62.4115 164.992 62.0312V62.0234C164.992 61.5547 164.82 61.1615 164.477 60.8438C164.133 60.5208 163.573 60.2734 162.797 60.1016L161.547 59.8281C160.417 59.5781 159.594 59.1927 159.078 58.6719C158.568 58.1458 158.312 57.474 158.312 56.6562V56.6484C158.318 56.0234 158.487 55.4714 158.82 54.9922C159.159 54.513 159.625 54.138 160.219 53.8672C160.818 53.5964 161.505 53.4609 162.281 53.4609C163.031 53.4609 163.695 53.5964 164.273 53.8672C164.852 54.1328 165.31 54.4922 165.648 54.9453C165.992 55.3984 166.182 55.9062 166.219 56.4688L166.227 56.5781H164.82L164.805 56.4766C164.753 56.1432 164.617 55.849 164.398 55.5938C164.18 55.3333 163.888 55.1276 163.523 54.9766C163.159 54.8255 162.732 54.7526 162.242 54.7578C161.773 54.7578 161.352 54.8307 160.977 54.9766C160.602 55.1224 160.302 55.3333 160.078 55.6094C159.859 55.8802 159.75 56.2135 159.75 56.6094V56.6172C159.75 57.0651 159.917 57.4427 160.25 57.75C160.583 58.0573 161.133 58.2943 161.898 58.4609L163.148 58.7422C163.935 58.9141 164.568 59.138 165.047 59.4141C165.526 59.6901 165.875 60.0286 166.094 60.4297C166.318 60.8255 166.43 61.2943 166.43 61.8359V61.8438C166.43 62.5469 166.258 63.1536 165.914 63.6641C165.57 64.1745 165.086 64.5703 164.461 64.8516C163.836 65.1276 163.104 65.2656 162.266 65.2656ZM171.422 65.1484C170.786 65.1484 170.253 65.0286 169.82 64.7891C169.388 64.5443 169.062 64.1901 168.844 63.7266C168.63 63.2578 168.523 62.6927 168.523 62.0312V56.5781H169.883V61.7031C169.883 62.4583 170.029 63.0208 170.32 63.3906C170.617 63.7604 171.102 63.9453 171.773 63.9453C172.143 63.9453 172.469 63.8906 172.75 63.7812C173.036 63.6719 173.276 63.5156 173.469 63.3125C173.661 63.1042 173.805 62.8542 173.898 62.5625C173.997 62.2656 174.047 61.9323 174.047 61.5625V56.5781H175.406V65H174.047V63.7422H173.922C173.786 64.0391 173.602 64.2943 173.367 64.5078C173.133 64.7161 172.852 64.875 172.523 64.9844C172.201 65.0938 171.833 65.1484 171.422 65.1484ZM181.391 65.1484C180.604 65.1484 179.922 64.9688 179.344 64.6094C178.766 64.25 178.318 63.7422 178 63.0859C177.682 62.4297 177.523 61.6562 177.523 60.7656V60.75C177.523 59.875 177.68 59.1146 177.992 58.4688C178.31 57.8229 178.758 57.3229 179.336 56.9688C179.914 56.6094 180.596 56.4297 181.383 56.4297C182.065 56.4297 182.654 56.5495 183.148 56.7891C183.643 57.0286 184.039 57.3516 184.336 57.7578C184.633 58.1589 184.823 58.6094 184.906 59.1094L184.914 59.1562H183.562L183.555 59.1328C183.451 58.7161 183.214 58.362 182.844 58.0703C182.474 57.7786 181.987 57.6328 181.383 57.6328C180.878 57.6328 180.44 57.7604 180.07 58.0156C179.701 58.2708 179.414 58.6328 179.211 59.1016C179.013 59.5651 178.914 60.1146 178.914 60.75V60.7656C178.914 61.4115 179.016 61.974 179.219 62.4531C179.422 62.9271 179.708 63.2943 180.078 63.5547C180.448 63.8151 180.883 63.9453 181.383 63.9453C181.951 63.9453 182.414 63.8229 182.773 63.5781C183.133 63.3333 183.391 62.9766 183.547 62.5078L183.562 62.4609L184.906 62.4531L184.891 62.5391C184.776 63.0443 184.573 63.4948 184.281 63.8906C183.99 64.2812 183.604 64.5885 183.125 64.8125C182.646 65.0365 182.068 65.1484 181.391 65.1484ZM186.93 65V56.5781H188.289V65H186.93ZM187.617 54.9531C187.362 54.9531 187.141 54.862 186.953 54.6797C186.771 54.4922 186.68 54.2708 186.68 54.0156C186.68 53.7552 186.771 53.5339 186.953 53.3516C187.141 53.1693 187.362 53.0781 187.617 53.0781C187.878 53.0781 188.099 53.1693 188.281 53.3516C188.464 53.5339 188.555 53.7552 188.555 54.0156C188.555 54.2708 188.464 54.4922 188.281 54.6797C188.099 54.862 187.878 54.9531 187.617 54.9531Z" fill="white"/>
</svg>
