<svg width="428" height="926" viewBox="0 0 428 926" fill="none" xmlns="http://www.w3.org/2000/svg">
<rect width="428" height="926" fill="url(#paint0_radial_914_52557)"/>
<path fill-rule="evenodd" clip-rule="evenodd" d="M16.4467 52.0429C18.8576 50.8767 20.3911 53.1085 20.3911 53.1085L24.4019 57.0876L27.1324 56.3849C27.1324 56.3849 24.3843 50.9704 22.1112 49.9767C19.8331 49.0206 21.2336 45.4254 12.655 42.7427C6.34742 40.7859 4.85004 39.7055 4.48778 39.2746L7.14855 44.4862C7.14855 44.4862 -2.62587 54.1016 -3.00032 55.4653C-3.00032 55.4653 14.0734 53.2141 16.4792 52.0855L16.4467 52.0429ZM-85.7788 43.4893C-88.2179 43.1613 -94.4786 39.7203 -98.1479 40.87L-93.16 45.8214C-93.16 45.8214 -100.677 61.091 -99.5462 63.1922C-98.4153 65.2935 -88.6119 58.5865 -88.6119 58.5865L-89.859 55.3613L-86.4053 56.6667L-82.1914 52.0359L-78.5718 52.6757L-74.7977 55.8586L-71.9012 54.4902L-75.995 50.8439C-75.995 50.8439 -83.3773 43.8124 -85.8589 43.5168L-85.7788 43.4893ZM109.135 169.266C107.921 167.498 93.4787 172.625 92.2328 178.764L83.9242 178.334L86.8425 181.631C86.8425 181.631 94.3078 188.33 97.8444 189.302C101.381 190.275 103.493 191.897 103.493 191.897L105.971 193.644L107.129 189.29L100.101 185.593C100.101 185.593 110.344 171.072 109.13 169.304L109.135 169.266ZM288.372 124.47C292.894 125.499 293.794 126.193 293.823 126.541L295.069 124.377L287.651 120.169C287.651 120.169 287.926 116.422 289.034 116.419C290.143 116.415 295.246 108.579 297.02 108.741C298.831 108.908 284.034 103.325 277.921 112.134L276.286 112.64L269.202 111.343C269.202 111.343 271.284 113.19 272.124 114.335C272.92 115.512 281.333 122.835 288.302 124.422L288.372 124.47ZM173.673 190.751C175.016 192.689 184.733 193.729 184.733 193.729L187.673 195.156L188.063 193.68L185.122 192.253C185.122 192.253 182.338 190.235 182.239 189.266C182.14 188.297 185.411 181.59 185.411 181.59L190.025 176.822L190.16 174.968C184.555 173.755 171.489 182.278 171.489 182.278L165.258 180.599C166.094 187.17 172.286 188.844 173.63 190.783L173.673 190.751ZM-93.4668 110.865C-85.137 102.049 -89.3039 92.6983 -89.3039 92.6983C-89.3039 92.6983 -93.5078 97.254 -94.9488 97.1748C-96.4274 97.0906 -104.08 104.851 -104.08 104.851L-112.122 103.005C-111.538 106.332 -100.362 114.409 -100.362 114.409C-100.362 114.409 -94.1311 116.088 -92.3978 116.55C-90.6645 117.013 -88.7175 120.714 -88.7175 120.714L-86.9272 119.618L-85.5231 117.131L-93.8939 112.336L-93.5043 110.86L-93.4668 110.865ZM45.9164 172.342L49.4863 174.771L51.086 171.967L45.8449 169.466L42.5614 166.043C45.2919 165.341 48.6282 156.159 48.6282 156.159L44.3137 155.005C44.3137 155.005 49.8535 154.718 50.2279 153.355C50.5973 152.028 48.9633 144.012 48.9633 144.012C48.9633 144.012 45.2732 149.86 43.6849 149.455C42.1017 149.013 33.8608 160.86 33.8608 160.86L26.6996 159.285C28.9405 168.186 45.9438 172.422 45.9438 172.422L45.9164 172.342ZM254.436 294.102L259.084 296.753L259.316 295.026C259.316 295.026 254.731 292.192 253.688 291.708C252.646 291.224 253.029 288.944 253.029 288.944L257.111 285.863L256.156 285.008C256.156 285.008 262.235 279.864 262.411 279.123C262.624 278.387 259.628 277.373 258.152 277.556C256.708 277.783 244.749 278.926 244.291 283.183L235.976 281.95C235.976 281.95 239.017 289.735 254.399 294.097L254.436 294.102ZM27.5555 128.215C28.6863 130.316 36.4534 123.412 36.4534 123.412L39.3166 120.586L44.0545 117.173L52.1806 121.514L53.0407 119.948C53.0407 119.948 40.0303 105.625 27.2046 106.116L31.9103 110.609C31.9103 110.609 26.4672 126.081 27.5981 128.182L27.5555 128.215ZM123.826 114.298C123.826 114.298 126.961 120.529 140.473 125.442L144.366 127.456L144.68 129.103L146.001 126.95L139.166 120.68L140.701 119.205C140.701 119.205 147.01 109.505 141.597 104.879C141.597 104.879 131.024 112.476 131.144 114.709C131.144 114.709 123.164 111.266 121.739 112.488L121.838 113.457L123.826 114.298ZM245.213 222.655C243.423 219.777 237.752 227.002 236.05 227.155C234.386 227.313 230.241 233.138 230.097 234.495L229.281 234.882C229.281 234.882 222.705 231.513 222.02 232.338C221.336 233.163 223.716 234.783 223.716 234.783C223.716 234.783 229.394 242.273 231.945 243.189C234.501 244.068 242.157 245.939 242.157 245.939L245.737 248.293L247.239 247.922C247.239 247.922 241.109 242.091 240.261 241.862C239.375 241.628 246.998 225.57 245.208 222.693L245.213 222.655ZM278.527 189.989L277.49 190.308C277.49 190.308 282.133 195.557 282.654 197.079C283.175 198.601 282.919 209.879 286.141 211.765C289.369 213.613 293.319 204.132 293.319 204.132L293.91 203.714L296.02 204.495L299.45 207.402L303.123 206.788C303.123 206.788 288.149 190.595 278.489 189.984L278.527 189.989ZM381.843 254.334L384.254 256.569C384.254 256.569 388.168 258.433 387.106 255.539C386.006 252.639 372.514 243.028 371.02 241.642C369.525 240.256 363.734 239.286 363.734 239.286L366.806 244.285C367.628 244.702 366.423 246.565 366.423 246.565C362.974 247.21 357.82 261.956 357.82 261.956C360.658 262.72 362.787 259.108 368.346 259.245C373.91 259.344 379.877 253.611 379.877 253.611L381.805 254.329L381.843 254.334ZM538.656 298.13C538.656 298.13 545.276 300.319 549.082 300.144C552.85 299.962 554.628 301.233 554.628 301.233L558.459 304.271L561.253 300.825L554.784 298.082L553.371 295.523C553.371 295.523 557.622 284.935 550.794 280.883C550.794 280.883 543.095 289.554 542.944 290.107C542.794 290.66 535.728 288.372 535.728 288.372L535.941 290.197L540.112 294.695L538.736 298.102L538.656 298.13ZM414.031 170.113C409.396 169.069 403.598 167.296 403.598 167.296L403.227 167.781L408.491 172.387C408.491 172.387 408.372 181.505 408.981 182.657C409.59 183.809 410.935 189.15 410.935 189.15C410.935 189.15 420.405 180.945 420.354 179.333C420.304 177.722 429.681 181.849 429.681 181.849C429.681 181.849 418.601 171.072 413.966 170.028L414.031 170.113ZM294.036 165.284L291.662 163.054L287.279 158.719C287.279 158.719 294.578 149.611 290.979 142.286L286.656 144.609C286.656 144.609 278.44 150.307 278.555 152.577C278.712 154.815 269.659 151.113 269.659 151.113L269.426 151.999C269.426 151.999 273.221 155.873 272.95 156.753C272.716 157.639 272.327 159.115 272.327 159.115C272.327 159.115 283.642 162.472 284.71 162.768C285.74 163.06 290.805 166.302 290.805 166.302L294.036 165.284ZM312.588 302.001C321.699 298.449 318.894 284.084 318.894 284.084C317.473 282.441 303.259 296.657 303.259 296.657L295.666 294.603C298.974 304.373 315.722 308.231 315.722 308.231L318.799 310.633L320.611 310.8L321.39 307.847L316.461 305.579L312.588 302.001ZM171.182 150.478L173.518 147.314L170.832 146.265L168.302 144.625C168.302 144.625 158.744 134.741 148.907 134.029L152.49 140.052C152.49 140.052 151.267 154.258 154.124 156.018C156.987 157.741 164.134 146.358 164.134 146.358L169.584 148.161L171.182 150.478ZM491.936 253.818C491.936 253.818 487.906 250.83 485.84 250.285C483.774 249.739 475.987 248.271 474.02 248.695L478.497 254.036C478.497 254.036 468.566 263.401 468.703 269.764C468.703 269.764 484.377 267.974 487.587 260.303L490.954 260.26L495.317 263.331L498.628 264.846L499.173 262.779L492.807 257.566L491.968 253.861L491.936 253.818ZM619.821 275.531C620.21 274.054 624.591 270.172 623.83 266.171C623.069 262.171 621.669 261.791 621.669 261.791L620.304 258.589C620.304 258.589 615.824 261.502 615.553 262.383C615.319 263.269 611.271 267.234 611.054 269.421C610.841 271.571 602.934 267.87 602.934 267.87L606.381 272.92C606.381 272.92 601.803 280.254 602.272 281.31C602.272 281.31 612.979 282.942 618.489 280.32L624.329 283.475L627.114 285.493L628.32 281.069C628.32 281.069 619.383 277.077 619.773 275.601L619.821 275.531ZM154.051 216.774L159.153 222.582C159.153 222.582 163.379 238.59 164.586 239.555C165.794 240.52 172.041 229.857 172.041 229.857L176.772 230.188L180.432 233.088L180.566 231.233C180.566 231.233 166.135 214.693 154.046 216.812L154.051 216.774Z" fill="white" fill-opacity="0.15"/>
<path fill-rule="evenodd" clip-rule="evenodd" d="M449.098 401.145C441.683 379.757 411.734 362.527 395.324 343.218V339.721C395.324 337.561 394.228 335.659 392.568 334.531C393.664 333.886 394.357 332.935 394.357 331.855C394.357 330.518 393.261 329.341 391.665 328.761L391.166 321.137C391.891 320.718 392.359 320.073 392.359 319.364C392.359 318.574 391.778 317.881 390.908 317.462L390.602 312.853L389.038 289.111L387.474 312.853L387.168 317.462C386.298 317.881 385.734 318.574 385.734 319.364C385.734 320.073 386.201 320.718 386.926 321.137L386.411 329.003C385.137 329.631 384.299 330.679 384.299 331.839C384.299 332.822 384.879 333.693 385.814 334.338C383.993 335.45 382.784 337.448 382.784 339.721V342.799C373.08 354.372 358.444 365.187 346.58 376.566C339.117 355.565 315.212 315.818 239.775 301.312C233.682 295.848 227.927 290.336 223.091 284.695V280.085C223.091 277.249 221.625 274.734 219.416 273.235C220.883 272.397 221.802 271.124 221.802 269.706C221.802 267.933 220.351 266.401 218.207 265.628L217.53 255.586C218.514 255.022 219.126 254.184 219.126 253.249C219.126 252.202 218.369 251.299 217.208 250.751L216.805 244.675L215.016 217.887C220.722 217.645 225.284 212.939 225.284 207.169C225.284 204.042 223.946 201.221 221.802 199.255C222.157 199.835 222.431 200.448 222.64 201.109L217.192 200.319L214.564 194.984L211.937 200.319L206.473 201.109C206.682 200.464 206.956 199.835 207.311 199.255C205.167 201.221 203.829 204.042 203.829 207.169C203.829 213.052 208.568 217.823 214.436 217.903L212.646 244.659L212.243 250.735C211.083 251.283 210.325 252.202 210.325 253.233C210.325 254.168 210.954 255.006 211.921 255.57L211.228 265.934C209.519 266.772 208.407 268.142 208.407 269.689C208.407 270.979 209.181 272.139 210.422 272.977C208.004 274.428 206.376 277.071 206.376 280.069V284.115C201.427 289.949 195.512 295.655 189.209 301.296C113.61 315.834 89.754 355.726 82.3553 376.679C70.6206 365.38 56.1133 354.662 46.3774 343.186V339.689C46.3774 337.529 45.2813 335.627 43.621 334.499C44.7171 333.854 45.4102 332.903 45.4102 331.823C45.4102 330.485 44.3141 329.309 42.7183 328.729L42.2186 321.105C42.944 320.686 43.4115 320.041 43.4115 319.332C43.4115 318.542 42.8312 317.849 41.9607 317.43L41.6545 312.82L40.0909 289.079L38.5274 312.82L38.2211 317.43C37.3507 317.849 36.7865 318.542 36.7865 319.332C36.7865 320.041 37.254 320.686 37.9793 321.105L37.4635 328.97C36.1901 329.599 35.3519 330.647 35.3519 331.807C35.3519 332.79 35.9322 333.661 36.8671 334.305C35.0456 335.417 33.8367 337.416 33.8367 339.689V342.767C17.4919 362.286 -12.9088 379.612 -20.3236 401.194C-20.8878 401.387 -21.4358 401.564 -22 401.758V974.968H451V401.79C450.371 401.564 449.743 401.371 449.114 401.145H449.098ZM222.753 201.512C222.946 202.221 223.059 202.962 223.059 203.736C223.059 206.492 221.721 208.926 219.69 210.473L218.804 205.348L222.753 201.495V201.512ZM214.548 208.442L219.158 210.876C217.821 211.73 216.241 212.246 214.548 212.246C212.856 212.246 211.26 211.73 209.938 210.876L214.548 208.442ZM206.037 203.736C206.037 202.962 206.15 202.221 206.344 201.512L210.293 205.364L209.406 210.489C207.375 208.926 206.037 206.508 206.037 203.752V203.736Z" fill="white"/>
<path opacity="0.1" d="M41.56 239.62C54.5718 239.62 65.12 229.072 65.12 216.06C65.12 203.048 54.5718 192.5 41.56 192.5C28.5482 192.5 18 203.048 18 216.06C18 229.072 28.5482 239.62 41.56 239.62Z" fill="white"/>
<path opacity="0.1" d="M44.3742 229.59C51.8458 228.031 56.6384 220.71 55.0789 213.238C53.5194 205.767 46.1982 200.974 38.7267 202.533C31.2551 204.093 26.4625 211.414 28.022 218.886C29.5815 226.357 36.9027 231.15 44.3742 229.59Z" fill="white"/>
<path d="M41.2397 224.94C41.4697 218.71 44.2197 216.16 50.4497 216.38C44.2197 216.15 41.6697 213.4 41.8897 207.17C41.6597 213.4 38.9097 215.95 32.6797 215.73C38.9097 215.96 41.4597 218.71 41.2397 224.94Z" fill="white"/>
<path d="M25.7903 233.97C25.7903 233.97 24.4803 244.31 30.0503 247.3C35.1303 250.02 41.0203 254.07 42.1303 257.33H42.3303C43.4403 254.07 49.3303 250.02 54.4103 247.3C59.9803 244.32 58.6703 233.97 58.6703 233.97V197.3C58.6703 197.3 59.9803 186.96 54.4103 183.97C49.3303 181.25 43.4403 177.2 42.3303 173.94H42.1303C41.0203 177.2 35.1303 181.25 30.0503 183.97C24.4803 186.95 25.7903 197.3 25.7903 197.3V233.97ZM32.5803 191.04L31.7003 191.68L32.0303 192.71L31.1503 192.07L30.2703 192.71L30.6003 191.68L29.7203 191.04H30.8003L31.1303 190.01L31.4603 191.04H32.5403H32.5803ZM44.8803 183.04L43.6003 183.97L44.0903 185.47L42.8103 184.54L41.5303 185.47L42.0203 183.97L40.7403 183.04H42.3203L42.8103 181.54L43.3003 183.04H44.8803ZM55.1103 191.04L54.2303 191.68L54.5603 192.71L53.6803 192.07L52.8003 192.71L53.1303 191.68L52.2503 191.04H53.3303L53.6603 190.01L53.9903 191.04H55.0703H55.1103ZM49.4703 202.65C49.4703 200.53 51.2003 198.8 53.3203 198.8C55.4403 198.8 57.1703 200.53 57.1703 202.65V228.47C57.1703 230.59 55.4403 232.32 53.3203 232.32C51.2003 232.32 49.4703 230.59 49.4703 228.47V202.65ZM48.5803 187.59C48.5803 190.78 46.0003 193.36 42.8103 193.36C39.6203 193.36 37.0403 190.78 37.0403 187.59C37.0403 186.2 37.5303 184.92 38.3603 183.92C38.3303 184.14 38.3003 184.36 38.3003 184.59C38.3003 187.08 40.3203 189.1 42.8103 189.1C45.3003 189.1 47.3203 187.08 47.3203 184.59C47.3203 184.36 47.3003 184.14 47.2603 183.92C48.0803 184.92 48.5803 186.2 48.5803 187.59ZM36.6003 204.44C36.6003 201.34 39.1303 198.81 42.2303 198.81C45.3303 198.81 47.8603 201.34 47.8603 204.44V226.7C47.8603 229.8 45.3303 232.33 42.2303 232.33C39.1303 232.33 36.6003 229.8 36.6003 226.7V204.44ZM26.9603 202.65C26.9603 200.53 28.6903 198.8 30.8103 198.8C32.9303 198.8 34.6603 200.53 34.6603 202.65V228.47C34.6603 230.59 32.9303 232.32 30.8103 232.32C28.6903 232.32 26.9603 230.59 26.9603 228.47V202.65Z" fill="#ECB751"/>
<g style="mix-blend-mode:overlay" opacity="0.18">
<path d="M42.4102 257.16C43.6602 253.93 49.4202 249.98 54.4202 247.3C59.9902 244.32 58.6802 233.97 58.6802 233.97V197.3C58.6802 197.3 59.9902 186.96 54.4202 183.97C49.4202 181.29 43.6602 177.34 42.4102 174.11V182.77L42.8102 181.54L43.3002 183.04H44.8802L43.6002 183.97L44.0902 185.47L42.8102 184.54L42.4102 184.83V189.06C42.5402 189.07 42.6702 189.1 42.8102 189.1C45.3002 189.1 47.3202 187.08 47.3202 184.59C47.3202 184.36 47.3002 184.14 47.2602 183.92C48.0802 184.92 48.5802 186.2 48.5802 187.59C48.5802 190.78 46.0002 193.36 42.8102 193.36C42.6702 193.36 42.5402 193.35 42.4102 193.34V198.81C45.4302 198.9 47.8702 201.39 47.8702 204.43V226.69C47.8702 229.73 45.4302 232.22 42.4102 232.31V257.15V257.16ZM55.1102 191.04L54.2302 191.68L54.5602 192.71L53.6802 192.07L52.8002 192.71L53.1302 191.68L52.2502 191.04H53.3302L53.6602 190.01L53.9902 191.04H55.0702H55.1102ZM49.4702 202.65C49.4702 200.53 51.2002 198.8 53.3202 198.8C55.4402 198.8 57.1702 200.53 57.1702 202.65V228.47C57.1702 230.59 55.4402 232.32 53.3202 232.32C51.2002 232.32 49.4702 230.59 49.4702 228.47V202.65Z" fill="white"/>
</g>
<path d="M38.2402 170.46C38.2402 168.34 39.9602 166.62 42.0802 166.62C44.2002 166.62 45.9202 168.34 45.9202 170.46C45.9202 172.58 44.2002 174.3 42.0802 174.3C39.9602 174.3 38.2402 172.58 38.2402 170.46ZM39.0902 170.46C39.0902 172.11 40.4302 173.45 42.0802 173.45C43.7302 173.45 45.0702 172.11 45.0702 170.46C45.0702 168.81 43.7302 167.47 42.0802 167.47C40.4302 167.47 39.0902 168.81 39.0902 170.46Z" fill="#ECB751"/>
<path d="M42.9303 257.42C42.9303 257.03 42.6203 256.72 42.2303 256.72C41.8403 256.72 41.5303 257.03 41.5303 257.42C41.5303 257.81 41.8403 258.12 42.2303 258.12C42.6203 258.12 42.9303 257.81 42.9303 257.42Z" fill="#ECB751"/>
<path d="M25.0105 197.9H59.4605C60.0238 197.9 60.4805 197.443 60.4805 196.88V196.6C60.4805 196.037 60.0238 195.58 59.4605 195.58H25.0105C24.4471 195.58 23.9905 196.037 23.9905 196.6V196.88C23.9905 197.443 24.4471 197.9 25.0105 197.9Z" fill="#ECB751"/>
<path d="M25.0105 236.6H59.4605C60.0238 236.6 60.4805 236.143 60.4805 235.58V235.3C60.4805 234.737 60.0238 234.28 59.4605 234.28H25.0105C24.4471 234.28 23.9905 234.737 23.9905 235.3V235.58C23.9905 236.143 24.4471 236.6 25.0105 236.6Z" fill="#ECB751"/>
<path d="M57.17 217.22V202.65C57.17 200.53 55.44 198.8 53.32 198.8C51.2 198.8 49.47 200.53 49.47 202.65V212.87C48.93 212.55 48.4 212.22 47.86 211.89V204.43C47.86 201.33 45.33 198.8 42.23 198.8C39.13 198.8 36.6 201.33 36.6 204.43V204.97C35.95 204.58 35.3 204.18 34.65 203.79V202.65C34.65 200.53 32.92 198.8 30.8 198.8C29.79 198.8 28.87 199.2 28.19 199.85C27.39 199.36 26.59 198.88 25.79 198.4V198H58.66V217.98C58.16 217.73 57.66 217.48 57.16 217.22H57.17Z" fill="#DC903C"/>
<path d="M25.9002 239.97C25.7102 238.72 25.6602 237.51 25.6602 236.51H58.8102C58.8102 237.51 58.7602 238.72 58.5702 239.97H25.9002Z" fill="#DC903C"/>
<path d="M42.0792 172.16C42.1892 172.16 42.3092 172.14 42.4092 172.13C42.5192 172.1 42.6292 172.08 42.7292 172.04C42.8292 172 42.9192 171.94 43.0192 171.88C43.1092 171.82 43.1992 171.74 43.2792 171.67C43.4292 171.51 43.5592 171.32 43.6392 171.12C43.7192 170.92 43.7692 170.7 43.7692 170.48C43.7692 170.37 43.7692 170.26 43.7392 170.15C43.7192 170.04 43.6892 169.93 43.6492 169.83C43.6092 169.73 43.5592 169.64 43.4892 169.54C43.4292 169.45 43.3592 169.36 43.2892 169.28C43.2092 169.2 43.1192 169.14 43.0292 169.07C42.9392 169.01 42.8392 168.96 42.7392 168.92C42.6392 168.88 42.5292 168.84 42.4192 168.83C41.8692 168.71 41.2892 168.9 40.8992 169.29C40.8192 169.37 40.7492 169.46 40.6892 169.55C40.6292 169.64 40.5692 169.74 40.5292 169.84C40.4892 169.94 40.4592 170.05 40.4392 170.16C40.4092 170.27 40.4092 170.38 40.4092 170.49C40.4092 170.71 40.4492 170.93 40.5392 171.13C40.6192 171.33 40.7492 171.52 40.9092 171.68C40.9892 171.76 41.0692 171.83 41.1592 171.89C41.2492 171.95 41.3492 172.01 41.4492 172.05C41.5492 172.09 41.6592 172.12 41.7692 172.14C41.8792 172.16 41.9892 172.17 42.0992 172.17L42.0792 172.16Z" fill="#ECB751"/>
<path d="M42.0796 147.86C41.1496 147.86 40.3896 148.61 40.3896 149.55C40.3896 150.49 41.1496 151.24 42.0796 151.24C43.0096 151.24 43.7696 150.48 43.7696 149.55C43.7696 148.62 43.0096 147.86 42.0796 147.86Z" fill="#ECB751"/>
<path d="M42.0796 154.83C41.1496 154.83 40.3896 155.58 40.3896 156.52C40.3896 157.46 41.1496 158.21 42.0796 158.21C43.0096 158.21 43.7696 157.45 43.7696 156.52C43.7696 155.59 43.0096 154.83 42.0796 154.83Z" fill="#ECB751"/>
<path d="M42.0796 140.89C41.1496 140.89 40.3896 141.64 40.3896 142.57C40.3896 143.5 41.1496 144.26 42.0796 144.26C43.0096 144.26 43.7696 143.51 43.7696 142.57C43.7696 141.63 43.0096 140.89 42.0796 140.89Z" fill="#ECB751"/>
<path d="M42.0796 161.8C41.1496 161.8 40.3896 162.55 40.3896 163.49C40.3896 164.43 41.1496 165.18 42.0796 165.18C43.0096 165.18 43.7696 164.42 43.7696 163.49C43.7696 162.56 43.0096 161.8 42.0796 161.8Z" fill="#ECB751"/>
<path d="M42.0796 119.97C41.1496 119.97 40.3896 120.73 40.3896 121.66C40.3896 122.59 41.1496 123.35 42.0796 123.35C43.0096 123.35 43.7696 122.6 43.7696 121.66C43.7696 120.72 43.0096 119.97 42.0796 119.97Z" fill="#ECB751"/>
<path d="M42.0796 133.92C41.1496 133.92 40.3896 134.67 40.3896 135.61C40.3896 136.55 41.1496 137.29 42.0796 137.29C43.0096 137.29 43.7696 136.54 43.7696 135.61C43.7696 134.68 43.0096 133.92 42.0796 133.92Z" fill="#ECB751"/>
<path d="M42.0796 113C41.1496 113 40.3896 113.76 40.3896 114.69C40.3896 115.62 41.1496 116.38 42.0796 116.38C43.0096 116.38 43.7696 115.63 43.7696 114.69C43.7696 113.75 43.0096 113 42.0796 113Z" fill="#ECB751"/>
<path d="M42.0796 126.94C41.1496 126.94 40.3896 127.7 40.3896 128.63C40.3896 129.56 41.1496 130.32 42.0796 130.32C43.0096 130.32 43.7696 129.57 43.7696 128.63C43.7696 127.69 43.0096 126.94 42.0796 126.94Z" fill="#ECB751"/>
<path d="M42.0792 109.16C42.1892 109.16 42.3092 109.14 42.4092 109.13C42.5192 109.1 42.6292 109.08 42.7292 109.04C42.8292 109 42.9192 108.94 43.0192 108.88C43.1092 108.82 43.1992 108.74 43.2792 108.67C43.4292 108.51 43.5592 108.32 43.6392 108.12C43.7192 107.92 43.7692 107.7 43.7692 107.48C43.7692 107.37 43.7692 107.26 43.7392 107.15C43.7192 107.04 43.6892 106.93 43.6492 106.83C43.6092 106.73 43.5592 106.64 43.4892 106.54C43.4292 106.45 43.3592 106.36 43.2892 106.28C43.2092 106.2 43.1192 106.14 43.0292 106.07C42.9392 106.01 42.8392 105.96 42.7392 105.92C42.6392 105.88 42.5292 105.84 42.4192 105.83C41.8692 105.71 41.2892 105.9 40.8992 106.29C40.8192 106.37 40.7492 106.46 40.6892 106.55C40.6292 106.64 40.5692 106.74 40.5292 106.84C40.4892 106.94 40.4592 107.05 40.4392 107.16C40.4092 107.27 40.4092 107.38 40.4092 107.49C40.4092 107.71 40.4492 107.93 40.5392 108.13C40.6192 108.33 40.7492 108.52 40.9092 108.68C40.9892 108.76 41.0692 108.83 41.1592 108.89C41.2492 108.95 41.3492 109.01 41.4492 109.05C41.5492 109.09 41.6592 109.12 41.7692 109.14C41.8792 109.16 41.9892 109.17 42.0992 109.17L42.0792 109.16Z" fill="#ECB751"/>
<path d="M42.0796 84.8601C41.1496 84.8601 40.3896 85.6101 40.3896 86.5501C40.3896 87.4901 41.1496 88.2401 42.0796 88.2401C43.0096 88.2401 43.7696 87.4801 43.7696 86.5501C43.7696 85.6201 43.0096 84.8601 42.0796 84.8601Z" fill="#ECB751"/>
<path d="M42.0796 91.8301C41.1496 91.8301 40.3896 92.5801 40.3896 93.5201C40.3896 94.4601 41.1496 95.2101 42.0796 95.2101C43.0096 95.2101 43.7696 94.4501 43.7696 93.5201C43.7696 92.5901 43.0096 91.8301 42.0796 91.8301Z" fill="#ECB751"/>
<path d="M42.0796 77.8899C41.1496 77.8899 40.3896 78.6399 40.3896 79.5699C40.3896 80.4999 41.1496 81.2599 42.0796 81.2599C43.0096 81.2599 43.7696 80.5099 43.7696 79.5699C43.7696 78.6299 43.0096 77.8899 42.0796 77.8899Z" fill="#ECB751"/>
<path d="M42.0796 98.8C41.1496 98.8 40.3896 99.5501 40.3896 100.49C40.3896 101.43 41.1496 102.18 42.0796 102.18C43.0096 102.18 43.7696 101.42 43.7696 100.49C43.7696 99.5601 43.0096 98.8 42.0796 98.8Z" fill="#ECB751"/>
<path d="M42.0796 56.97C41.1496 56.97 40.3896 57.73 40.3896 58.66C40.3896 59.59 41.1496 60.35 42.0796 60.35C43.0096 60.35 43.7696 59.6 43.7696 58.66C43.7696 57.72 43.0096 56.97 42.0796 56.97Z" fill="#ECB751"/>
<path d="M42.0796 70.9199C41.1496 70.9199 40.3896 71.6699 40.3896 72.6099C40.3896 73.5499 41.1496 74.2899 42.0796 74.2899C43.0096 74.2899 43.7696 73.5399 43.7696 72.6099C43.7696 71.6799 43.0096 70.9199 42.0796 70.9199Z" fill="#ECB751"/>
<path d="M42.0796 50C41.1496 50 40.3896 50.76 40.3896 51.69C40.3896 52.62 41.1496 53.38 42.0796 53.38C43.0096 53.38 43.7696 52.63 43.7696 51.69C43.7696 50.75 43.0096 50 42.0796 50Z" fill="#ECB751"/>
<path d="M42.0796 63.9399C41.1496 63.9399 40.3896 64.6999 40.3896 65.6299C40.3896 66.5599 41.1496 67.3199 42.0796 67.3199C43.0096 67.3199 43.7696 66.5699 43.7696 65.6299C43.7696 64.6899 43.0096 63.9399 42.0796 63.9399Z" fill="#ECB751"/>
<path d="M42.0796 28.8901C41.1496 28.8901 40.3896 29.6401 40.3896 30.5801C40.3896 31.5201 41.1496 32.2701 42.0796 32.2701C43.0096 32.2701 43.7696 31.5101 43.7696 30.5801C43.7696 29.6501 43.0096 28.8901 42.0796 28.8901Z" fill="#ECB751"/>
<path d="M42.0796 35.8601C41.1496 35.8601 40.3896 36.6101 40.3896 37.5501C40.3896 38.4901 41.1496 39.2401 42.0796 39.2401C43.0096 39.2401 43.7696 38.4801 43.7696 37.5501C43.7696 36.6201 43.0096 35.8601 42.0796 35.8601Z" fill="#ECB751"/>
<path d="M42.0796 21.9199C41.1496 21.9199 40.3896 22.6699 40.3896 23.5999C40.3896 24.5299 41.1496 25.2899 42.0796 25.2899C43.0096 25.2899 43.7696 24.5399 43.7696 23.5999C43.7696 22.6599 43.0096 21.9199 42.0796 21.9199Z" fill="#ECB751"/>
<path d="M42.0796 42.8301C41.1496 42.8301 40.3896 43.5801 40.3896 44.5201C40.3896 45.4601 41.1496 46.2101 42.0796 46.2101C43.0096 46.2101 43.7696 45.4501 43.7696 44.5201C43.7696 43.5901 43.0096 42.8301 42.0796 42.8301Z" fill="#ECB751"/>
<path d="M42.0796 1C41.1496 1 40.3896 1.76 40.3896 2.69C40.3896 3.62 41.1496 4.38 42.0796 4.38C43.0096 4.38 43.7696 3.63 43.7696 2.69C43.7696 1.75 43.0096 1 42.0796 1Z" fill="#ECB751"/>
<path d="M42.0796 14.95C41.1496 14.95 40.3896 15.7 40.3896 16.64C40.3896 17.58 41.1496 18.32 42.0796 18.32C43.0096 18.32 43.7696 17.57 43.7696 16.64C43.7696 15.71 43.0096 14.95 42.0796 14.95Z" fill="#ECB751"/>
<path d="M42.0796 7.96997C41.1496 7.96997 40.3896 8.72997 40.3896 9.65997C40.3896 10.59 41.1496 11.35 42.0796 11.35C43.0096 11.35 43.7696 10.6 43.7696 9.65997C43.7696 8.71997 43.0096 7.96997 42.0796 7.96997Z" fill="#ECB751"/>
<g style="mix-blend-mode:overlay" opacity="0.6">
<path d="M40.9201 177.52C40.9201 177.52 38.8901 181.04 34.8301 183.07C30.7701 185.1 26.1701 187.81 26.4401 195.52H28.4701C28.4701 195.52 27.1201 191.05 31.0401 187.8C34.9701 184.55 41.4601 182.11 40.9201 177.51V177.52Z" fill="white"/>
</g>
<g style="mix-blend-mode:overlay" opacity="0.6">
<path d="M45.4602 197.02H57.7602C58.0253 197.02 58.2402 196.805 58.2402 196.54V196.42C58.2402 196.155 58.0253 195.94 57.7602 195.94H45.4602C45.1951 195.94 44.9802 196.155 44.9802 196.42V196.54C44.9802 196.805 45.1951 197.02 45.4602 197.02Z" fill="white"/>
</g>
<g style="mix-blend-mode:overlay" opacity="0.6">
<path d="M45.7298 235.73H58.0298C58.2949 235.73 58.5098 235.515 58.5098 235.25V235.13C58.5098 234.865 58.2949 234.65 58.0298 234.65H45.7298C45.4647 234.65 45.2498 234.865 45.2498 235.13V235.25C45.2498 235.515 45.4647 235.73 45.7298 235.73Z" fill="white"/>
</g>
<g style="mix-blend-mode:overlay" opacity="0.6">
<path d="M56.6197 241.28C56.6197 241.28 57.6997 244.93 51.7497 247.64C45.7897 250.35 42.9497 252.92 42.4097 255.49C42.4097 255.49 41.0597 252.51 45.7897 249.13C50.5297 245.75 55.3997 245.34 56.6197 241.28Z" fill="white"/>
</g>
<path d="M42.2397 257.93L41.4597 260.34H38.9297L40.9797 261.82L40.1997 264.22L42.2397 262.74L44.2797 264.22L43.4997 261.82L45.5397 260.34H43.0197L42.2397 257.93Z" fill="#ECB751"/>
<g style="mix-blend-mode:overlay" opacity="0.6">
<path d="M43.8095 262.77C43.0395 261.9 42.2795 261.02 41.5195 260.15L42.0095 258.63C42.2395 258.87 42.4695 259.11 42.6995 259.35L43.0195 260.33H43.6395C43.8995 260.6 44.1595 260.87 44.4195 261.15L43.4995 261.82L43.8095 262.77Z" fill="white"/>
</g>
<path d="M52.6396 241.84C52.6396 242.26 52.9797 242.6 53.3997 242.6C53.8197 242.6 54.1596 242.26 54.1596 241.84C54.1596 241.42 53.8197 241.08 53.3997 241.08C52.9797 241.08 52.6396 241.42 52.6396 241.84Z" fill="white"/>
<path d="M49.04 241.84C49.04 242.26 49.38 242.6 49.8 242.6C50.22 242.6 50.56 242.26 50.56 241.84C50.56 241.42 50.22 241.08 49.8 241.08C49.38 241.08 49.04 241.42 49.04 241.84Z" fill="white"/>
<path d="M45.4404 241.84C45.4404 242.26 45.7804 242.6 46.2004 242.6C46.6204 242.6 46.9604 242.26 46.9604 241.84C46.9604 241.42 46.6204 241.08 46.2004 241.08C45.7804 241.08 45.4404 241.42 45.4404 241.84Z" fill="white"/>
<path d="M41.8398 241.84C41.8398 242.26 42.1798 242.6 42.5998 242.6C43.0198 242.6 43.3598 242.26 43.3598 241.84C43.3598 241.42 43.0198 241.08 42.5998 241.08C42.1798 241.08 41.8398 241.42 41.8398 241.84Z" fill="white"/>
<path d="M38.2402 241.84C38.2402 242.26 38.5802 242.6 39.0002 242.6C39.4202 242.6 39.7602 242.26 39.7602 241.84C39.7602 241.42 39.4202 241.08 39.0002 241.08C38.5802 241.08 38.2402 241.42 38.2402 241.84Z" fill="white"/>
<path d="M34.6396 241.84C34.6396 242.26 34.9796 242.6 35.3996 242.6C35.8196 242.6 36.1596 242.26 36.1596 241.84C36.1596 241.42 35.8196 241.08 35.3996 241.08C34.9796 241.08 34.6396 241.42 34.6396 241.84Z" fill="white"/>
<path d="M31.04 241.84C31.04 242.26 31.38 242.6 31.8 242.6C32.22 242.6 32.56 242.26 32.56 241.84C32.56 241.42 32.22 241.08 31.8 241.08C31.38 241.08 31.04 241.42 31.04 241.84Z" fill="white"/>
<path d="M52.6396 194.48C52.6396 194.9 52.9797 195.24 53.3997 195.24C53.8197 195.24 54.1596 194.9 54.1596 194.48C54.1596 194.06 53.8197 193.72 53.3997 193.72C52.9797 193.72 52.6396 194.06 52.6396 194.48Z" fill="white"/>
<path d="M49.7903 195.24C50.21 195.24 50.5503 194.9 50.5503 194.48C50.5503 194.06 50.21 193.72 49.7903 193.72C49.3705 193.72 49.0303 194.06 49.0303 194.48C49.0303 194.9 49.3705 195.24 49.7903 195.24Z" fill="white"/>
<path d="M45.4404 194.48C45.4404 194.9 45.7804 195.24 46.2004 195.24C46.6204 195.24 46.9604 194.9 46.9604 194.48C46.9604 194.06 46.6204 193.72 46.2004 193.72C45.7804 193.72 45.4404 194.06 45.4404 194.48Z" fill="white"/>
<path d="M41.8398 194.48C41.8398 194.9 42.1798 195.24 42.5998 195.24C43.0198 195.24 43.3598 194.9 43.3598 194.48C43.3598 194.06 43.0198 193.72 42.5998 193.72C42.1798 193.72 41.8398 194.06 41.8398 194.48Z" fill="white"/>
<path d="M39.0002 195.24C39.42 195.24 39.7602 194.9 39.7602 194.48C39.7602 194.06 39.42 193.72 39.0002 193.72C38.5805 193.72 38.2402 194.06 38.2402 194.48C38.2402 194.9 38.5805 195.24 39.0002 195.24Z" fill="white"/>
<path d="M34.6396 194.48C34.6396 194.9 34.9796 195.24 35.3996 195.24C35.8196 195.24 36.1596 194.9 36.1596 194.48C36.1596 194.06 35.8196 193.72 35.3996 193.72C34.9796 193.72 34.6396 194.06 34.6396 194.48Z" fill="white"/>
<path d="M31.04 194.48C31.04 194.9 31.38 195.24 31.8 195.24C32.22 195.24 32.56 194.9 32.56 194.48C32.56 194.06 32.22 193.72 31.8 193.72C31.38 193.72 31.04 194.06 31.04 194.48Z" fill="white"/>
<path d="M106.669 52.7223L105.616 55.9679H102.197L104.96 57.9792L103.906 61.2334L106.669 59.2222L109.431 61.2334L108.378 57.9792L111.14 55.9679H107.722L106.669 52.7223Z" fill="#ECB751"/>
<path d="M106.677 57.2023L106.669 52.7223L105.572 55.9938L106.677 57.2023Z" fill="#DC903C"/>
<path d="M106.643 57.142L102.197 55.968L104.96 57.9793L106.643 57.142Z" fill="#DC903C"/>
<path d="M106.66 57.1073L103.906 61.2334L106.668 59.2221L106.66 57.1073Z" fill="#DC903C"/>
<path d="M109.431 61.2333L106.591 57.09L108.378 57.9791L109.431 61.2333Z" fill="#DC903C"/>
<path d="M111.14 55.9679L106.643 57.1418L107.722 55.8384L111.14 55.9679Z" fill="#DC903C"/>
<g style="mix-blend-mode:soft-light">
<path d="M107.662 55.8471L106.669 52.7223L107.152 56.4858L107.662 55.8471Z" fill="white"/>
</g>
<g style="mix-blend-mode:soft-light">
<path d="M106.099 56.5982L105.616 55.968H102.197L106.099 56.5982Z" fill="white"/>
</g>
<g style="mix-blend-mode:soft-light">
<path d="M105.702 57.6166L104.959 57.9791L103.906 61.2334L105.702 57.6166Z" fill="white"/>
</g>
<g style="mix-blend-mode:soft-light">
<path d="M106.669 59.2223L109.371 61.1817L106.66 58.3418L106.669 59.2223Z" fill="white"/>
</g>
<g style="mix-blend-mode:soft-light">
<path d="M111.141 55.968L108.378 57.9793L107.809 57.6858L111.141 55.968Z" fill="white"/>
</g>
<path d="M107 -12H106V78H107V-12Z" fill="#ECB751"/>
<path opacity="0.1" d="M121.951 117.375C130.028 109.299 130.028 96.2032 121.951 88.1263C113.874 80.0493 100.779 80.0493 92.7017 88.1263C84.6248 96.2032 84.6248 109.299 92.7017 117.375C100.779 125.452 113.874 125.452 121.951 117.375Z" fill="white"/>
<path opacity="0.1" d="M115.415 111.779C120.403 107.309 120.822 99.641 116.352 94.6532C111.881 89.6654 104.213 89.2461 99.2256 93.7167C94.2378 98.1873 93.8185 105.855 98.2891 110.843C102.76 115.83 110.427 116.25 115.415 111.779Z" fill="white"/>
<path d="M121.015 125.222H120.644V96.4691C120.644 96.4691 120.756 95.8131 120.756 94.7427H121.015C121.714 94.7427 122.284 94.173 122.284 93.4738C122.284 92.7746 121.714 92.2049 121.015 92.2049H120.532C119.833 88.1565 117.148 82.2695 107.851 79.326C107.843 79.326 107.834 79.3087 107.817 79.3001C107.679 79.2396 107.549 79.1274 107.42 78.9807C108.257 78.6872 108.861 77.8844 108.861 76.9435C108.861 75.7523 107.894 74.7855 106.703 74.7855C105.512 74.7855 104.545 75.7523 104.545 76.9435C104.545 77.8585 105.115 78.6354 105.909 78.9461C105.745 79.1361 105.607 79.2655 105.555 79.3173C96.2413 82.2608 93.5481 88.1565 92.8489 92.2049H92.2533C91.5541 92.2049 90.9844 92.7746 90.9844 93.4738C90.9844 94.173 91.5541 94.7427 92.2533 94.7427H92.6245C92.6245 95.8131 92.7367 96.4691 92.7367 96.4691V125.222H92.2533C91.5541 125.222 90.9844 125.792 90.9844 126.491C90.9844 127.19 91.5541 127.76 92.2533 127.76H121.006C121.706 127.76 122.275 127.19 122.275 126.491C122.275 125.792 121.706 125.222 121.006 125.222H121.015ZM112.469 82.1486C116.837 84.203 118.262 89.4427 118.659 91.4453H110.847L110.657 83.3571C110.657 81.7257 112.469 82.1486 112.469 82.1486ZM103.199 84.5397C103.199 82.9428 104.744 81.6307 106.626 81.6307C108.507 81.6307 110.052 82.9428 110.052 84.5397V91.4453H103.199V84.5397ZM100.713 82.1486C100.713 82.1486 102.525 81.7257 102.525 83.3571L102.335 91.4453H94.5235C94.9119 89.4513 96.3362 84.203 100.713 82.1486ZM116.483 100.604L116.216 101.424L116.69 101.079V104.937L116.647 105.084H115.793L116.483 105.585L116.216 106.405L116.69 106.059V109.797L116.647 109.944H115.793L116.483 110.444L116.216 111.264L116.69 110.919V118.308H113.54V104.247C113.54 99.7061 114.947 95.9857 116.69 95.8304V99.9737L116.647 100.12H115.793L116.483 100.621V100.604ZM96.4225 125.222H93.9883V119.404H96.4225V125.222ZM97.0181 99.7148L96.8887 100.103H96.0341L96.7247 100.604L96.4571 101.424L97.0095 101.018V104.687L96.88 105.075H96.0255L96.716 105.576L96.4484 106.396L97.0009 105.99V109.547L96.8714 109.935H96.0168L96.7074 110.436L96.4398 111.256L96.9922 110.85V118.291H93.9624V104.229C93.9624 99.7924 95.309 96.1325 96.9922 95.8217V99.7061L97.0181 99.7148ZM100.505 125.222H97.4152V119.404H100.505V125.222ZM100.505 118.299H97.3721V110.919L97.8468 111.264L97.5792 110.444L98.2698 109.944H97.4152L97.3721 109.806V106.059L97.8468 106.405L97.5792 105.585L98.2698 105.084H97.4152L97.3721 104.946V101.079L97.8468 101.424L97.5792 100.604L98.2698 100.103H97.4152L97.3721 99.9651V95.8131C99.1071 95.9857 100.505 99.7061 100.505 104.229V118.291V118.299ZM103.881 125.222H101.714V119.404H103.881V125.222ZM108.749 119.568V125.222H104.882V119.404H108.784C108.766 119.456 108.749 119.508 108.749 119.568ZM112.072 125.222H109.75V119.568C109.75 119.508 109.742 119.456 109.716 119.404H112.072V125.222ZM112.072 118.299H101.723V104.238C101.723 99.6025 104.053 95.8131 106.902 95.8131C109.75 95.8131 112.081 99.6025 112.081 104.238V118.299H112.072ZM117.044 119.568V125.222H113.548V119.404H117.07C117.053 119.456 117.036 119.508 117.036 119.568H117.044ZM120.066 125.222H118.037V119.568C118.037 119.508 118.028 119.456 118.003 119.404H120.066V125.222ZM120.066 118.299H117.053V110.859L117.605 111.256L117.338 110.436L118.028 109.935H117.174L117.053 109.555V105.999L117.605 106.396L117.338 105.576L118.028 105.075H117.174L117.053 104.695V101.018L117.605 101.415L117.338 100.595L118.028 100.095H117.174L117.053 99.7148V95.8304C118.728 96.1584 120.066 99.8097 120.066 104.229V118.291V118.299Z" fill="#ECB751"/>
<path d="M103.13 102.27C102.733 102.943 102.5 103.729 102.5 104.566C102.5 107.069 104.529 109.098 107.032 109.098C109.535 109.098 111.564 107.069 111.564 104.566C111.564 103.729 111.331 102.943 110.933 102.27C110.312 103.815 108.801 104.903 107.032 104.903C105.262 104.903 103.752 103.815 103.13 102.27Z" fill="#ECB751"/>
<path d="M105.65 102.633L106.997 101.657L108.335 102.633L107.825 101.053L109.163 100.086H107.506L106.997 98.5065L106.479 100.086H104.83L106.168 101.053L105.65 102.633Z" fill="#ECB751"/>
<g style="mix-blend-mode:overlay" opacity="0.6">
<path d="M106.367 79.4384C107.973 80.3793 109.63 81.277 111.201 82.2697C111.736 81.9762 112.47 82.1402 112.47 82.1402C116.354 83.9616 117.908 88.3121 118.487 90.6514C119.54 93.5603 119.842 96.7801 120.058 99.8099C120.291 103.15 120.386 106.465 120.645 109.771V96.4607C120.645 96.4607 120.757 95.8047 120.757 94.7343H121.016C121.715 94.7343 122.285 94.1646 122.285 93.4654C122.285 92.7662 121.715 92.1965 121.016 92.1965H120.532C119.833 88.1481 117.149 82.261 107.852 79.3175C107.843 79.3175 107.835 79.3003 107.817 79.2916C107.679 79.2312 107.55 79.119 107.42 78.9723C108.258 78.6788 108.862 77.876 108.862 76.9351C108.862 75.7525 107.904 74.7857 106.721 74.7771C107.593 76.1755 107.472 78.1867 106.367 79.4211V79.4384Z" fill="white"/>
<path d="M111.563 92.9734C111.425 92.9907 111.278 92.9993 111.132 92.9993H91.0881C91.0277 93.146 90.9932 93.31 90.9932 93.4827C90.9932 93.6553 91.0277 93.8193 91.0881 93.9661H111.917C111.822 93.664 111.719 93.3705 111.606 93.077C111.598 93.0424 111.58 93.0166 111.563 92.982V92.9734Z" fill="white"/>
<path d="M105.995 106.483C108.102 107.104 109.932 104.894 111.235 102.883C111.149 102.667 111.054 102.46 110.933 102.261C110.311 103.807 108.801 104.894 107.031 104.894C105.262 104.894 103.751 103.807 103.13 102.261C103.017 102.443 102.931 102.641 102.845 102.84C103.613 104.445 104.606 106.068 105.995 106.474V106.483Z" fill="white"/>
<path d="M106.099 101.251L105.65 102.632L106.997 101.657L108.335 102.632L107.886 101.251H106.099Z" fill="white"/>
</g>
<path d="M92.7364 96.6591H95.8267C96.1892 96.2016 96.5949 95.9167 97.0092 95.839V96.6591H97.3718V95.8218C97.8293 95.8649 98.2609 96.1671 98.658 96.6591H98.7961C99.0378 96.6332 99.2795 96.6332 99.5212 96.6591H104.657C105.339 96.1239 106.099 95.8131 106.902 95.8131C107.704 95.8131 108.464 96.1239 109.146 96.6591H110.363C110.363 96.6591 110.432 96.6418 110.475 96.6418C110.915 96.5728 111.356 96.5814 111.787 96.6591H115.413C115.81 96.1584 116.25 95.8563 116.716 95.8218V96.6591H117.079V95.839C117.493 95.9254 117.89 96.2102 118.253 96.6591H120.67V96.4692C120.67 96.4692 120.756 95.9512 120.773 95.0967H92.6328C92.6501 95.9512 92.7364 96.4692 92.7364 96.4692V96.6591Z" fill="#DC903C"/>
<path d="M121.015 125.222H120.644V112.352C120.454 112.473 120.264 112.585 120.075 112.697V118.3H117.062V114.527C116.941 114.596 116.82 114.674 116.699 114.743V118.3H113.549V116.616C113.057 116.901 112.565 117.195 112.073 117.479V118.3H110.605C109.941 118.671 109.276 119.042 108.603 119.404H108.775C108.758 119.456 108.741 119.508 108.741 119.568V125.222H104.874V121.347C104.546 121.511 104.209 121.683 103.881 121.847V125.231H101.714V122.866C101.309 123.047 100.911 123.237 100.506 123.418V125.231H97.4155V124.704C97.0875 124.834 96.7508 124.955 96.4228 125.076V125.222H96.0171C94.3857 125.827 92.737 126.379 91.0537 126.862C91.2177 127.372 91.6925 127.752 92.2536 127.752H121.007C121.706 127.752 122.276 127.182 122.276 126.483C122.276 125.783 121.706 125.214 121.007 125.214L121.015 125.222ZM112.073 125.222H109.751V119.568C109.751 119.508 109.742 119.456 109.716 119.404H112.073V125.222ZM117.045 119.568V125.222H113.549V119.404H117.071C117.053 119.456 117.036 119.508 117.036 119.568H117.045ZM120.066 125.222H118.037V119.568C118.037 119.508 118.029 119.456 118.003 119.404H120.066V125.222Z" fill="#DC903C"/>
<path opacity="0.1" d="M388.56 204.79C401.572 204.79 412.12 194.242 412.12 181.23C412.12 168.218 401.572 157.67 388.56 157.67C375.548 157.67 365 168.218 365 181.23C365 194.242 375.548 204.79 388.56 204.79Z" fill="white"/>
<path opacity="0.1" d="M391.374 194.76C398.846 193.201 403.638 185.88 402.079 178.408C400.519 170.936 393.198 166.144 385.727 167.703C378.255 169.263 373.462 176.584 375.022 184.056C376.582 191.527 383.903 196.32 391.374 194.76Z" fill="white"/>
<path d="M388.24 190.11C388.47 183.88 391.22 181.33 397.45 181.55C391.22 181.32 388.67 178.57 388.89 172.34C388.66 178.57 385.91 181.12 379.68 180.9C385.91 181.13 388.46 183.88 388.24 190.11Z" fill="white"/>
<path d="M372.79 199.14C372.79 199.14 371.48 209.48 377.05 212.47C382.13 215.19 388.02 219.24 389.13 222.5H389.33C390.44 219.24 396.33 215.19 401.41 212.47C406.98 209.49 405.67 199.14 405.67 199.14V162.47C405.67 162.47 406.98 152.13 401.41 149.14C396.33 146.42 390.44 142.37 389.33 139.11H389.13C388.02 142.37 382.13 146.42 377.05 149.14C371.48 152.12 372.79 162.47 372.79 162.47V199.14ZM379.58 156.21L378.7 156.85L379.03 157.88L378.15 157.24L377.27 157.88L377.6 156.85L376.72 156.21H377.8L378.13 155.18L378.46 156.21H379.54H379.58ZM391.88 148.21L390.6 149.14L391.09 150.64L389.81 149.71L388.53 150.64L389.02 149.14L387.74 148.21H389.32L389.81 146.71L390.3 148.21H391.88ZM402.11 156.21L401.23 156.85L401.56 157.88L400.68 157.24L399.8 157.88L400.13 156.85L399.25 156.21H400.33L400.66 155.18L400.99 156.21H402.07H402.11ZM396.47 167.82C396.47 165.7 398.2 163.97 400.32 163.97C402.44 163.97 404.17 165.7 404.17 167.82V193.64C404.17 195.76 402.44 197.49 400.32 197.49C398.2 197.49 396.47 195.76 396.47 193.64V167.82ZM395.58 152.76C395.58 155.95 393 158.53 389.81 158.53C386.62 158.53 384.04 155.95 384.04 152.76C384.04 151.37 384.53 150.09 385.36 149.09C385.33 149.31 385.3 149.53 385.3 149.76C385.3 152.25 387.32 154.27 389.81 154.27C392.3 154.27 394.32 152.25 394.32 149.76C394.32 149.53 394.3 149.31 394.26 149.09C395.08 150.09 395.58 151.37 395.58 152.76ZM383.6 169.61C383.6 166.51 386.13 163.98 389.23 163.98C392.33 163.98 394.86 166.51 394.86 169.61V191.87C394.86 194.97 392.33 197.5 389.23 197.5C386.13 197.5 383.6 194.97 383.6 191.87V169.61ZM373.96 167.82C373.96 165.7 375.69 163.97 377.81 163.97C379.93 163.97 381.66 165.7 381.66 167.82V193.64C381.66 195.76 379.93 197.49 377.81 197.49C375.69 197.49 373.96 195.76 373.96 193.64V167.82Z" fill="#ECB751"/>
<g style="mix-blend-mode:overlay" opacity="0.18">
<path d="M389.41 222.33C390.66 219.1 396.42 215.15 401.42 212.47C406.99 209.49 405.68 199.14 405.68 199.14V162.47C405.68 162.47 406.99 152.13 401.42 149.14C396.42 146.46 390.66 142.51 389.41 139.28V147.94L389.81 146.71L390.3 148.21H391.88L390.6 149.14L391.09 150.64L389.81 149.71L389.41 150V154.23C389.54 154.24 389.67 154.27 389.81 154.27C392.3 154.27 394.32 152.25 394.32 149.76C394.32 149.53 394.3 149.31 394.26 149.09C395.08 150.09 395.58 151.37 395.58 152.76C395.58 155.95 393 158.53 389.81 158.53C389.67 158.53 389.54 158.52 389.41 158.51V163.98C392.43 164.07 394.87 166.56 394.87 169.6V191.86C394.87 194.9 392.43 197.39 389.41 197.48V222.32V222.33ZM402.11 156.21L401.23 156.85L401.56 157.88L400.68 157.24L399.8 157.88L400.13 156.85L399.25 156.21H400.33L400.66 155.18L400.99 156.21H402.07H402.11ZM396.47 167.82C396.47 165.7 398.2 163.97 400.32 163.97C402.44 163.97 404.17 165.7 404.17 167.82V193.64C404.17 195.76 402.44 197.49 400.32 197.49C398.2 197.49 396.47 195.76 396.47 193.64V167.82Z" fill="white"/>
</g>
<path d="M385.24 135.63C385.24 133.51 386.96 131.79 389.08 131.79C391.2 131.79 392.92 133.51 392.92 135.63C392.92 137.75 391.2 139.47 389.08 139.47C386.96 139.47 385.24 137.75 385.24 135.63ZM386.09 135.63C386.09 137.28 387.43 138.62 389.08 138.62C390.73 138.62 392.07 137.28 392.07 135.63C392.07 133.98 390.73 132.64 389.08 132.64C387.43 132.64 386.09 133.98 386.09 135.63Z" fill="#ECB751"/>
<path d="M389.93 222.59C389.93 222.2 389.62 221.89 389.23 221.89C388.84 221.89 388.53 222.2 388.53 222.59C388.53 222.98 388.84 223.29 389.23 223.29C389.62 223.29 389.93 222.98 389.93 222.59Z" fill="#ECB751"/>
<path d="M372.01 163.07H406.46C407.024 163.07 407.48 162.613 407.48 162.05V161.77C407.48 161.207 407.024 160.75 406.46 160.75H372.01C371.447 160.75 370.99 161.207 370.99 161.77V162.05C370.99 162.613 371.447 163.07 372.01 163.07Z" fill="#ECB751"/>
<path d="M372.01 201.77H406.46C407.024 201.77 407.48 201.313 407.48 200.75V200.47C407.48 199.907 407.024 199.45 406.46 199.45H372.01C371.447 199.45 370.99 199.907 370.99 200.47V200.75C370.99 201.313 371.447 201.77 372.01 201.77Z" fill="#ECB751"/>
<path d="M404.17 182.39V167.82C404.17 165.7 402.44 163.97 400.32 163.97C398.2 163.97 396.47 165.7 396.47 167.82V178.04C395.93 177.72 395.4 177.39 394.86 177.06V169.6C394.86 166.5 392.33 163.97 389.23 163.97C386.13 163.97 383.6 166.5 383.6 169.6V170.14C382.95 169.75 382.3 169.35 381.65 168.96V167.82C381.65 165.7 379.92 163.97 377.8 163.97C376.79 163.97 375.87 164.37 375.19 165.02C374.39 164.53 373.59 164.05 372.79 163.57V163.17H405.66V183.15C405.16 182.9 404.66 182.65 404.16 182.39H404.17Z" fill="#DC903C"/>
<path d="M372.9 205.14C372.71 203.89 372.66 202.68 372.66 201.68H405.81C405.81 202.68 405.76 203.89 405.57 205.14H372.9Z" fill="#DC903C"/>
<path d="M389.079 137.33C389.189 137.33 389.309 137.31 389.409 137.3C389.519 137.27 389.629 137.25 389.729 137.21C389.829 137.17 389.919 137.11 390.019 137.05C390.109 136.99 390.199 136.91 390.279 136.84C390.429 136.68 390.559 136.49 390.639 136.29C390.719 136.09 390.769 135.87 390.769 135.65C390.769 135.54 390.769 135.43 390.739 135.32C390.719 135.21 390.689 135.1 390.649 135C390.609 134.9 390.559 134.81 390.489 134.71C390.429 134.62 390.359 134.53 390.289 134.45C390.209 134.37 390.119 134.31 390.029 134.24C389.939 134.18 389.839 134.13 389.739 134.09C389.639 134.05 389.529 134.01 389.419 134C388.869 133.88 388.289 134.07 387.899 134.46C387.819 134.54 387.749 134.63 387.689 134.72C387.629 134.81 387.569 134.91 387.529 135.01C387.489 135.11 387.459 135.22 387.439 135.33C387.409 135.44 387.409 135.55 387.409 135.66C387.409 135.88 387.449 136.1 387.539 136.3C387.619 136.5 387.749 136.69 387.909 136.85C387.989 136.93 388.069 137 388.159 137.06C388.249 137.12 388.349 137.18 388.449 137.22C388.549 137.26 388.659 137.29 388.769 137.31C388.879 137.33 388.989 137.34 389.099 137.34L389.079 137.33Z" fill="#ECB751"/>
<path d="M389.08 113.03C388.15 113.03 387.39 113.78 387.39 114.72C387.39 115.66 388.15 116.41 389.08 116.41C390.01 116.41 390.77 115.65 390.77 114.72C390.77 113.79 390.01 113.03 389.08 113.03Z" fill="#ECB751"/>
<path d="M389.08 120C388.15 120 387.39 120.75 387.39 121.69C387.39 122.63 388.15 123.38 389.08 123.38C390.01 123.38 390.77 122.62 390.77 121.69C390.77 120.76 390.01 120 389.08 120Z" fill="#ECB751"/>
<path d="M389.08 106.06C388.15 106.06 387.39 106.81 387.39 107.74C387.39 108.67 388.15 109.43 389.08 109.43C390.01 109.43 390.77 108.68 390.77 107.74C390.77 106.8 390.01 106.06 389.08 106.06Z" fill="#ECB751"/>
<path d="M389.08 126.97C388.15 126.97 387.39 127.72 387.39 128.66C387.39 129.6 388.15 130.35 389.08 130.35C390.01 130.35 390.77 129.59 390.77 128.66C390.77 127.73 390.01 126.97 389.08 126.97Z" fill="#ECB751"/>
<path d="M389.08 85.1399C388.15 85.1399 387.39 85.8999 387.39 86.8299C387.39 87.7599 388.15 88.5199 389.08 88.5199C390.01 88.5199 390.77 87.7699 390.77 86.8299C390.77 85.8899 390.01 85.1399 389.08 85.1399Z" fill="#ECB751"/>
<path d="M389.08 99.0898C388.15 99.0898 387.39 99.8398 387.39 100.78C387.39 101.72 388.15 102.46 389.08 102.46C390.01 102.46 390.77 101.71 390.77 100.78C390.77 99.8498 390.01 99.0898 389.08 99.0898Z" fill="#ECB751"/>
<path d="M389.08 78.1699C388.15 78.1699 387.39 78.9299 387.39 79.8599C387.39 80.7899 388.15 81.5499 389.08 81.5499C390.01 81.5499 390.77 80.7999 390.77 79.8599C390.77 78.9199 390.01 78.1699 389.08 78.1699Z" fill="#ECB751"/>
<path d="M389.08 92.1099C388.15 92.1099 387.39 92.8699 387.39 93.7999C387.39 94.7299 388.15 95.4899 389.08 95.4899C390.01 95.4899 390.77 94.7399 390.77 93.7999C390.77 92.8599 390.01 92.1099 389.08 92.1099Z" fill="#ECB751"/>
<path d="M389.079 74.33C389.189 74.33 389.309 74.31 389.409 74.3C389.519 74.27 389.629 74.25 389.729 74.21C389.829 74.17 389.919 74.11 390.019 74.05C390.109 73.99 390.199 73.91 390.279 73.84C390.429 73.68 390.559 73.49 390.639 73.29C390.719 73.09 390.769 72.87 390.769 72.65C390.769 72.54 390.769 72.43 390.739 72.32C390.719 72.21 390.689 72.1 390.649 72C390.609 71.9 390.559 71.81 390.489 71.71C390.429 71.62 390.359 71.53 390.289 71.45C390.209 71.37 390.119 71.31 390.029 71.24C389.939 71.18 389.839 71.13 389.739 71.09C389.639 71.05 389.529 71.01 389.419 71C388.869 70.88 388.289 71.07 387.899 71.46C387.819 71.54 387.749 71.63 387.689 71.72C387.629 71.81 387.569 71.91 387.529 72.01C387.489 72.11 387.459 72.22 387.439 72.33C387.409 72.44 387.409 72.55 387.409 72.66C387.409 72.88 387.449 73.1 387.539 73.3C387.619 73.5 387.749 73.69 387.909 73.85C387.989 73.93 388.069 74 388.159 74.06C388.249 74.12 388.349 74.18 388.449 74.22C388.549 74.26 388.659 74.29 388.769 74.31C388.879 74.33 388.989 74.34 389.099 74.34L389.079 74.33Z" fill="#ECB751"/>
<path d="M389.08 50.03C388.15 50.03 387.39 50.78 387.39 51.72C387.39 52.66 388.15 53.41 389.08 53.41C390.01 53.41 390.77 52.65 390.77 51.72C390.77 50.79 390.01 50.03 389.08 50.03Z" fill="#ECB751"/>
<path d="M389.08 57C388.15 57 387.39 57.75 387.39 58.69C387.39 59.63 388.15 60.38 389.08 60.38C390.01 60.38 390.77 59.62 390.77 58.69C390.77 57.76 390.01 57 389.08 57Z" fill="#ECB751"/>
<path d="M389.08 43.0598C388.15 43.0598 387.39 43.8098 387.39 44.7398C387.39 45.6698 388.15 46.4298 389.08 46.4298C390.01 46.4298 390.77 45.6798 390.77 44.7398C390.77 43.7998 390.01 43.0598 389.08 43.0598Z" fill="#ECB751"/>
<path d="M389.08 63.97C388.15 63.97 387.39 64.72 387.39 65.66C387.39 66.6 388.15 67.35 389.08 67.35C390.01 67.35 390.77 66.59 390.77 65.66C390.77 64.73 390.01 63.97 389.08 63.97Z" fill="#ECB751"/>
<path d="M389.08 8.13989C388.15 8.13989 387.39 8.89989 387.39 9.82989C387.39 10.7599 388.15 11.5199 389.08 11.5199C390.01 11.5199 390.77 10.7699 390.77 9.82989C390.77 8.88989 390.01 8.13989 389.08 8.13989Z" fill="#ECB751"/>
<path d="M389.08 1.16992C388.15 1.16992 387.39 1.92992 387.39 2.85992C387.39 3.78992 388.15 4.54992 389.08 4.54992C390.01 4.54992 390.77 3.79992 390.77 2.85992C390.77 1.91992 390.01 1.16992 389.08 1.16992Z" fill="#ECB751"/>
<path d="M389.08 22.1399C388.15 22.1399 387.39 22.8999 387.39 23.8299C387.39 24.7599 388.15 25.5199 389.08 25.5199C390.01 25.5199 390.77 24.7699 390.77 23.8299C390.77 22.8899 390.01 22.1399 389.08 22.1399Z" fill="#ECB751"/>
<path d="M389.08 36.0898C388.15 36.0898 387.39 36.8398 387.39 37.7798C387.39 38.7198 388.15 39.4598 389.08 39.4598C390.01 39.4598 390.77 38.7098 390.77 37.7798C390.77 36.8498 390.01 36.0898 389.08 36.0898Z" fill="#ECB751"/>
<path d="M389.08 15.1699C388.15 15.1699 387.39 15.9299 387.39 16.8599C387.39 17.7899 388.15 18.5499 389.08 18.5499C390.01 18.5499 390.77 17.7999 390.77 16.8599C390.77 15.9199 390.01 15.1699 389.08 15.1699Z" fill="#ECB751"/>
<path d="M389.08 29.1099C388.15 29.1099 387.39 29.8699 387.39 30.7999C387.39 31.7299 388.15 32.4899 389.08 32.4899C390.01 32.4899 390.77 31.7399 390.77 30.7999C390.77 29.8599 390.01 29.1099 389.08 29.1099Z" fill="#ECB751"/>
<g style="mix-blend-mode:overlay" opacity="0.6">
<path d="M387.92 142.69C387.92 142.69 385.89 146.21 381.83 148.24C377.77 150.27 373.17 152.98 373.44 160.69H375.47C375.47 160.69 374.12 156.22 378.04 152.97C381.97 149.72 388.46 147.28 387.92 142.68V142.69Z" fill="white"/>
</g>
<g style="mix-blend-mode:overlay" opacity="0.6">
<path d="M392.46 162.19H404.76C405.025 162.19 405.24 161.975 405.24 161.71V161.59C405.24 161.325 405.025 161.11 404.76 161.11H392.46C392.195 161.11 391.98 161.325 391.98 161.59V161.71C391.98 161.975 392.195 162.19 392.46 162.19Z" fill="white"/>
</g>
<g style="mix-blend-mode:overlay" opacity="0.6">
<path d="M392.73 200.9H405.03C405.295 200.9 405.51 200.685 405.51 200.42V200.3C405.51 200.035 405.295 199.82 405.03 199.82H392.73C392.465 199.82 392.25 200.035 392.25 200.3V200.42C392.25 200.685 392.465 200.9 392.73 200.9Z" fill="white"/>
</g>
<g style="mix-blend-mode:overlay" opacity="0.6">
<path d="M403.62 206.45C403.62 206.45 404.7 210.1 398.75 212.81C392.79 215.52 389.95 218.09 389.41 220.66C389.41 220.66 388.06 217.68 392.79 214.3C397.53 210.92 402.4 210.51 403.62 206.45Z" fill="white"/>
</g>
<path d="M389.24 223.1L388.46 225.51H385.93L387.98 226.99L387.2 229.39L389.24 227.91L391.28 229.39L390.5 226.99L392.54 225.51H390.02L389.24 223.1Z" fill="#ECB751"/>
<g style="mix-blend-mode:overlay" opacity="0.6">
<path d="M390.81 227.94C390.04 227.07 389.28 226.19 388.52 225.32L389.01 223.8C389.24 224.04 389.47 224.28 389.7 224.52L390.02 225.5H390.64C390.9 225.77 391.16 226.04 391.42 226.32L390.5 226.99L390.81 227.94Z" fill="white"/>
</g>
<path d="M399.64 207.01C399.64 207.43 399.98 207.77 400.4 207.77C400.82 207.77 401.16 207.43 401.16 207.01C401.16 206.59 400.82 206.25 400.4 206.25C399.98 206.25 399.64 206.59 399.64 207.01Z" fill="white"/>
<path d="M396.04 207.01C396.04 207.43 396.38 207.77 396.8 207.77C397.22 207.77 397.56 207.43 397.56 207.01C397.56 206.59 397.22 206.25 396.8 206.25C396.38 206.25 396.04 206.59 396.04 207.01Z" fill="white"/>
<path d="M392.44 207.01C392.44 207.43 392.78 207.77 393.2 207.77C393.62 207.77 393.96 207.43 393.96 207.01C393.96 206.59 393.62 206.25 393.2 206.25C392.78 206.25 392.44 206.59 392.44 207.01Z" fill="white"/>
<path d="M388.84 207.01C388.84 207.43 389.18 207.77 389.6 207.77C390.02 207.77 390.36 207.43 390.36 207.01C390.36 206.59 390.02 206.25 389.6 206.25C389.18 206.25 388.84 206.59 388.84 207.01Z" fill="white"/>
<path d="M385.24 207.01C385.24 207.43 385.58 207.77 386 207.77C386.42 207.77 386.76 207.43 386.76 207.01C386.76 206.59 386.42 206.25 386 206.25C385.58 206.25 385.24 206.59 385.24 207.01Z" fill="white"/>
<path d="M381.64 207.01C381.64 207.43 381.98 207.77 382.4 207.77C382.82 207.77 383.16 207.43 383.16 207.01C383.16 206.59 382.82 206.25 382.4 206.25C381.98 206.25 381.64 206.59 381.64 207.01Z" fill="white"/>
<path d="M378.04 207.01C378.04 207.43 378.38 207.77 378.8 207.77C379.22 207.77 379.56 207.43 379.56 207.01C379.56 206.59 379.22 206.25 378.8 206.25C378.38 206.25 378.04 206.59 378.04 207.01Z" fill="white"/>
<path d="M399.64 159.65C399.64 160.07 399.98 160.41 400.4 160.41C400.82 160.41 401.16 160.07 401.16 159.65C401.16 159.23 400.82 158.89 400.4 158.89C399.98 158.89 399.64 159.23 399.64 159.65Z" fill="white"/>
<path d="M396.79 160.41C397.21 160.41 397.55 160.07 397.55 159.65C397.55 159.23 397.21 158.89 396.79 158.89C396.371 158.89 396.03 159.23 396.03 159.65C396.03 160.07 396.371 160.41 396.79 160.41Z" fill="white"/>
<path d="M392.44 159.65C392.44 160.07 392.78 160.41 393.2 160.41C393.62 160.41 393.96 160.07 393.96 159.65C393.96 159.23 393.62 158.89 393.2 158.89C392.78 158.89 392.44 159.23 392.44 159.65Z" fill="white"/>
<path d="M388.84 159.65C388.84 160.07 389.18 160.41 389.6 160.41C390.02 160.41 390.36 160.07 390.36 159.65C390.36 159.23 390.02 158.89 389.6 158.89C389.18 158.89 388.84 159.23 388.84 159.65Z" fill="white"/>
<path d="M386 160.41C386.42 160.41 386.76 160.07 386.76 159.65C386.76 159.23 386.42 158.89 386 158.89C385.58 158.89 385.24 159.23 385.24 159.65C385.24 160.07 385.58 160.41 386 160.41Z" fill="white"/>
<path d="M381.64 159.65C381.64 160.07 381.98 160.41 382.4 160.41C382.82 160.41 383.16 160.07 383.16 159.65C383.16 159.23 382.82 158.89 382.4 158.89C381.98 158.89 381.64 159.23 381.64 159.65Z" fill="white"/>
<path d="M378.04 159.65C378.04 160.07 378.38 160.41 378.8 160.41C379.22 160.41 379.56 160.07 379.56 159.65C379.56 159.23 379.22 158.89 378.8 158.89C378.38 158.89 378.04 159.23 378.04 159.65Z" fill="white"/>
<path d="M326.669 94.7223L325.616 97.9679H322.197L324.96 99.9792L323.906 103.233L326.669 101.222L329.431 103.233L328.378 99.9792L331.14 97.9679H327.722L326.669 94.7223Z" fill="#ECB751"/>
<path d="M326.677 99.2023L326.669 94.7223L325.572 97.9938L326.677 99.2023Z" fill="#DC903C"/>
<path d="M326.643 99.142L322.197 97.968L324.96 99.9793L326.643 99.142Z" fill="#DC903C"/>
<path d="M326.66 99.1072L323.906 103.233L326.668 101.222L326.66 99.1072Z" fill="#DC903C"/>
<path d="M329.431 103.233L326.591 99.09L328.378 99.9791L329.431 103.233Z" fill="#DC903C"/>
<path d="M331.14 97.9679L326.643 99.1418L327.722 97.8384L331.14 97.9679Z" fill="#DC903C"/>
<g style="mix-blend-mode:soft-light">
<path d="M327.662 97.8471L326.669 94.7223L327.152 98.4858L327.662 97.8471Z" fill="white"/>
</g>
<g style="mix-blend-mode:soft-light">
<path d="M326.099 98.5982L325.616 97.968H322.197L326.099 98.5982Z" fill="white"/>
</g>
<g style="mix-blend-mode:soft-light">
<path d="M325.702 99.6166L324.959 99.9791L323.906 103.233L325.702 99.6166Z" fill="white"/>
</g>
<g style="mix-blend-mode:soft-light">
<path d="M326.669 101.222L329.371 103.182L326.66 100.342L326.669 101.222Z" fill="white"/>
</g>
<g style="mix-blend-mode:soft-light">
<path d="M331.141 97.968L328.378 99.9793L327.809 99.6858L331.141 97.968Z" fill="white"/>
</g>
<path d="M327 -30H326V120H327V-30Z" fill="#ECB751"/>
<path opacity="0.1" d="M341.951 159.375C350.028 151.299 350.028 138.203 341.951 130.126C333.874 122.049 320.779 122.049 312.702 130.126C304.625 138.203 304.625 151.299 312.702 159.375C320.779 167.452 333.874 167.452 341.951 159.375Z" fill="white"/>
<path opacity="0.1" d="M335.415 153.779C340.403 149.309 340.822 141.641 336.352 136.653C331.881 131.665 324.213 131.246 319.226 135.717C314.238 140.187 313.818 147.855 318.289 152.843C322.76 157.83 330.427 158.25 335.415 153.779Z" fill="white"/>
<path d="M341.015 167.222H340.644V138.469C340.644 138.469 340.756 137.813 340.756 136.743H341.015C341.714 136.743 342.284 136.173 342.284 135.474C342.284 134.775 341.714 134.205 341.015 134.205H340.532C339.833 130.157 337.148 124.27 327.851 121.326C327.843 121.326 327.834 121.309 327.817 121.3C327.679 121.24 327.549 121.128 327.42 120.981C328.257 120.687 328.861 119.885 328.861 118.944C328.861 117.752 327.894 116.786 326.703 116.786C325.512 116.786 324.545 117.752 324.545 118.944C324.545 119.859 325.115 120.636 325.909 120.946C325.745 121.136 325.607 121.266 325.555 121.317C316.241 124.261 313.548 130.157 312.849 134.205H312.253C311.554 134.205 310.984 134.775 310.984 135.474C310.984 136.173 311.554 136.743 312.253 136.743H312.624C312.624 137.813 312.737 138.469 312.737 138.469V167.222H312.253C311.554 167.222 310.984 167.792 310.984 168.491C310.984 169.191 311.554 169.76 312.253 169.76H341.006C341.706 169.76 342.275 169.191 342.275 168.491C342.275 167.792 341.706 167.222 341.006 167.222H341.015ZM332.469 124.149C336.837 126.203 338.262 131.443 338.659 133.445H330.847L330.657 125.357C330.657 123.726 332.469 124.149 332.469 124.149ZM323.199 126.54C323.199 124.943 324.744 123.631 326.626 123.631C328.507 123.631 330.052 124.943 330.052 126.54V133.445H323.199V126.54ZM320.713 124.149C320.713 124.149 322.525 123.726 322.525 125.357L322.335 133.445H314.523C314.912 131.451 316.336 126.203 320.713 124.149ZM336.483 142.604L336.216 143.424L336.69 143.079V146.937L336.647 147.084H335.793L336.483 147.585L336.216 148.405L336.69 148.059V151.797L336.647 151.944H335.793L336.483 152.444L336.216 153.264L336.69 152.919V160.308H333.54V146.247C333.54 141.706 334.947 137.986 336.69 137.83V141.974L336.647 142.121H335.793L336.483 142.621V142.604ZM316.423 167.222H313.988V161.404H316.423V167.222ZM317.018 141.715L316.889 142.103H316.034L316.725 142.604L316.457 143.424L317.01 143.018V146.687L316.88 147.075H316.025L316.716 147.576L316.448 148.396L317.001 147.99V151.547L316.871 151.935H316.017L316.707 152.436L316.44 153.256L316.992 152.85V160.291H313.962V146.229C313.962 141.793 315.309 138.133 316.992 137.822V141.706L317.018 141.715ZM320.505 167.222H317.415V161.404H320.505V167.222ZM320.505 160.3H317.372V152.919L317.847 153.264L317.579 152.444L318.27 151.944H317.415L317.372 151.806V148.059L317.847 148.405L317.579 147.585L318.27 147.084H317.415L317.372 146.946V143.079L317.847 143.424L317.579 142.604L318.27 142.103H317.415L317.372 141.965V137.813C319.107 137.986 320.505 141.706 320.505 146.229V160.291V160.3ZM323.881 167.222H321.714V161.404H323.881V167.222ZM328.749 161.568V167.222H324.882V161.404H328.784C328.766 161.456 328.749 161.508 328.749 161.568ZM332.072 167.222H329.75V161.568C329.75 161.508 329.742 161.456 329.716 161.404H332.072V167.222ZM332.072 160.3H321.723V146.238C321.723 141.603 324.053 137.813 326.902 137.813C329.75 137.813 332.081 141.603 332.081 146.238V160.3H332.072ZM337.044 161.568V167.222H333.548V161.404H337.07C337.053 161.456 337.036 161.508 337.036 161.568H337.044ZM340.066 167.222H338.037V161.568C338.037 161.508 338.028 161.456 338.003 161.404H340.066V167.222ZM340.066 160.3H337.053V152.859L337.605 153.256L337.338 152.436L338.028 151.935H337.174L337.053 151.555V147.999L337.605 148.396L337.338 147.576L338.028 147.075H337.174L337.053 146.696V143.018L337.605 143.415L337.338 142.595L338.028 142.095H337.174L337.053 141.715V137.83C338.728 138.158 340.066 141.81 340.066 146.229V160.291V160.3Z" fill="#ECB751"/>
<path d="M323.13 144.27C322.733 144.943 322.5 145.729 322.5 146.566C322.5 149.069 324.529 151.098 327.032 151.098C329.535 151.098 331.564 149.069 331.564 146.566C331.564 145.729 331.331 144.943 330.933 144.27C330.312 145.815 328.801 146.903 327.032 146.903C325.262 146.903 323.752 145.815 323.13 144.27Z" fill="#ECB751"/>
<path d="M325.65 144.633L326.997 143.657L328.335 144.633L327.825 143.053L329.163 142.086H327.506L326.997 140.506L326.479 142.086H324.83L326.168 143.053L325.65 144.633Z" fill="#ECB751"/>
<g style="mix-blend-mode:overlay" opacity="0.6">
<path d="M326.367 121.438C327.973 122.379 329.63 123.277 331.201 124.27C331.736 123.976 332.47 124.14 332.47 124.14C336.354 125.962 337.908 130.312 338.487 132.651C339.54 135.56 339.842 138.78 340.058 141.81C340.291 145.15 340.386 148.465 340.645 151.771V138.461C340.645 138.461 340.757 137.805 340.757 136.734H341.016C341.715 136.734 342.285 136.165 342.285 135.465C342.285 134.766 341.715 134.196 341.016 134.196H340.532C339.833 130.148 337.149 124.261 327.852 121.318C327.843 121.318 327.835 121.3 327.817 121.292C327.679 121.231 327.55 121.119 327.42 120.972C328.258 120.679 328.862 119.876 328.862 118.935C328.862 117.753 327.904 116.786 326.721 116.777C327.593 118.175 327.472 120.187 326.367 121.421V121.438Z" fill="white"/>
<path d="M331.563 134.973C331.425 134.991 331.278 134.999 331.132 134.999H311.088C311.028 135.146 310.993 135.31 310.993 135.483C310.993 135.655 311.028 135.819 311.088 135.966H331.917C331.822 135.664 331.719 135.37 331.606 135.077C331.598 135.042 331.58 135.017 331.563 134.982V134.973Z" fill="white"/>
<path d="M325.995 148.483C328.102 149.104 329.932 146.894 331.235 144.883C331.149 144.667 331.054 144.46 330.933 144.261C330.311 145.807 328.801 146.894 327.031 146.894C325.262 146.894 323.751 145.807 323.13 144.261C323.017 144.443 322.931 144.641 322.845 144.84C323.613 146.445 324.606 148.068 325.995 148.474V148.483Z" fill="white"/>
<path d="M326.099 143.251L325.65 144.632L326.997 143.657L328.335 144.632L327.886 143.251H326.099Z" fill="white"/>
</g>
<path d="M312.736 138.659H315.827C316.189 138.202 316.595 137.917 317.009 137.839V138.659H317.372V137.822C317.829 137.865 318.261 138.167 318.658 138.659H318.796C319.038 138.633 319.279 138.633 319.521 138.659H324.657C325.339 138.124 326.099 137.813 326.902 137.813C327.704 137.813 328.464 138.124 329.146 138.659H330.363C330.363 138.659 330.432 138.642 330.475 138.642C330.915 138.573 331.356 138.581 331.787 138.659H335.413C335.81 138.158 336.25 137.856 336.716 137.822V138.659H337.079V137.839C337.493 137.925 337.89 138.21 338.253 138.659H340.67V138.469C340.67 138.469 340.756 137.951 340.773 137.097H312.633C312.65 137.951 312.736 138.469 312.736 138.469V138.659Z" fill="#DC903C"/>
<path d="M341.015 167.222H340.644V154.352C340.454 154.473 340.264 154.585 340.075 154.697V160.3H337.062V156.527C336.941 156.596 336.82 156.674 336.699 156.743V160.3H333.549V158.616C333.057 158.901 332.565 159.195 332.073 159.479V160.3H330.605C329.941 160.671 329.276 161.042 328.603 161.404H328.775C328.758 161.456 328.741 161.508 328.741 161.568V167.222H324.874V163.347C324.546 163.511 324.209 163.683 323.881 163.847V167.231H321.714V164.866C321.309 165.047 320.911 165.237 320.506 165.418V167.231H317.415V166.704C317.087 166.834 316.751 166.955 316.423 167.076V167.222H316.017C314.386 167.827 312.737 168.379 311.054 168.862C311.218 169.372 311.692 169.752 312.254 169.752H341.007C341.706 169.752 342.276 169.182 342.276 168.483C342.276 167.783 341.706 167.214 341.007 167.214L341.015 167.222ZM332.073 167.222H329.751V161.568C329.751 161.508 329.742 161.456 329.716 161.404H332.073V167.222ZM337.045 161.568V167.222H333.549V161.404H337.071C337.053 161.456 337.036 161.508 337.036 161.568H337.045ZM340.066 167.222H338.037V161.568C338.037 161.508 338.029 161.456 338.003 161.404H340.066V167.222Z" fill="#DC903C"/>
<path opacity="0.1" d="M325.916 61.9162C329.767 58.0656 329.767 51.8226 325.916 47.972C322.066 44.1214 315.823 44.1215 311.972 47.972C308.122 51.8226 308.122 58.0656 311.972 61.9162C315.823 65.7667 322.066 65.7667 325.916 61.9162Z" fill="white"/>
<path opacity="0.1" d="M324.74 54.9442C324.74 58.1342 322.15 60.7242 318.96 60.7242C315.77 60.7242 313.18 58.1342 313.18 54.9442C313.18 51.7542 315.77 49.1642 318.96 49.1642C322.15 49.1642 324.74 51.7542 324.74 54.9442Z" fill="white"/>
<path d="M319.09 58.6641C318.99 56.0541 317.84 54.9841 315.24 55.0841C317.85 54.9841 318.92 53.8341 318.82 51.2341C318.92 53.8441 320.07 54.9141 322.67 54.8141C320.06 54.9141 318.99 56.0641 319.09 58.6641Z" fill="white"/>
<path opacity="0.1" d="M71.9162 115.916C75.7668 112.066 75.7668 105.823 71.9162 101.972C68.0656 98.1214 61.8226 98.1215 57.9721 101.972C54.1215 105.823 54.1215 112.066 57.9721 115.916C61.8226 119.767 68.0656 119.767 71.9162 115.916Z" fill="white"/>
<path opacity="0.1" d="M70.7397 108.944C70.7397 112.134 68.1497 114.724 64.9597 114.724C61.7697 114.724 59.1797 112.134 59.1797 108.944C59.1797 105.754 61.7697 103.164 64.9597 103.164C68.1497 103.164 70.7397 105.754 70.7397 108.944Z" fill="white"/>
<path d="M65.0902 112.664C64.9902 110.054 63.8402 108.984 61.2402 109.084C63.8502 108.984 64.9202 107.834 64.8202 105.234C64.9202 107.844 66.0702 108.914 68.6702 108.814C66.0602 108.914 64.9902 110.064 65.0902 112.664Z" fill="white"/>
<path opacity="0.1" d="M377.916 158.916C381.767 155.066 381.767 148.823 377.916 144.972C374.066 141.121 367.823 141.121 363.972 144.972C360.122 148.823 360.122 155.066 363.972 158.916C367.823 162.767 374.066 162.767 377.916 158.916Z" fill="white"/>
<path opacity="0.1" d="M376.74 151.944C376.74 155.134 374.15 157.724 370.96 157.724C367.77 157.724 365.18 155.134 365.18 151.944C365.18 148.754 367.77 146.164 370.96 146.164C374.15 146.164 376.74 148.754 376.74 151.944Z" fill="white"/>
<path d="M371.09 155.664C370.99 153.054 369.84 151.984 367.24 152.084C369.85 151.984 370.92 150.834 370.82 148.234C370.92 150.844 372.07 151.914 374.67 151.814C372.06 151.914 370.99 153.064 371.09 155.664Z" fill="white"/>
<g style="mix-blend-mode:overlay">
<path d="M117.84 241.12C118 236.87 119.87 235.13 124.12 235.28C119.87 235.12 118.13 233.25 118.28 229C118.12 233.25 116.25 234.99 112 234.84C116.25 235 117.99 236.87 117.84 241.12Z" fill="white"/>
</g>
<g style="mix-blend-mode:overlay">
<path d="M54.77 205.98C54.92 201.78 56.78 200.05 60.98 200.21C56.78 200.06 55.05 198.2 55.21 194C55.06 198.2 53.2 199.93 49 199.77C53.2 199.92 54.93 201.78 54.77 205.98Z" fill="white"/>
</g>
<g style="mix-blend-mode:overlay">
<path d="M243.5 35.12C243.66 30.87 245.53 29.13 249.78 29.28C245.53 29.12 243.79 27.25 243.94 23C243.78 27.25 241.91 28.99 237.66 28.84C241.91 29 243.65 30.87 243.5 35.12Z" fill="white"/>
</g>
<g style="mix-blend-mode:overlay">
<path d="M21.77 112.76C21.92 108.56 23.78 106.83 27.98 106.99C23.78 106.84 22.05 104.98 22.21 100.78C22.06 104.98 20.2 106.71 16 106.55C20.2 106.7 21.93 108.56 21.77 112.76Z" fill="white"/>
</g>
<g style="mix-blend-mode:overlay">
<path d="M194.57 65.8999C194.72 61.6999 196.58 59.9699 200.78 60.1299C196.58 59.9799 194.85 58.1199 195.01 53.9199C194.86 58.1199 193 59.8499 188.8 59.6899C193 59.8399 194.73 61.6999 194.57 65.8999Z" fill="white"/>
</g>
<g style="mix-blend-mode:overlay">
<path d="M84.0102 54.9199C84.1602 50.7199 86.0202 48.9899 90.2202 49.1499C86.0202 48.9999 84.2902 47.1399 84.4502 42.9399C84.3002 47.1399 82.4402 48.8699 78.2402 48.7099C82.4402 48.8599 84.1702 50.7199 84.0102 54.9199Z" fill="white"/>
</g>
<g style="mix-blend-mode:overlay">
<path d="M150.28 175.12C150.12 170.87 148.25 169.13 144 169.28C148.25 169.12 149.99 167.25 149.84 163C150 167.25 151.87 168.99 156.12 168.84C151.87 169 150.13 170.87 150.28 175.12Z" fill="white"/>
</g>
<g style="mix-blend-mode:overlay">
<path d="M372.01 252.76C371.86 248.56 370 246.83 365.8 246.99C370 246.84 371.73 244.98 371.57 240.78C371.72 244.98 373.58 246.71 377.78 246.55C373.58 246.7 371.85 248.56 372.01 252.76Z" fill="white"/>
</g>
<g style="mix-blend-mode:overlay">
<path d="M199.21 205.9C199.06 201.7 197.2 199.97 193 200.13C197.2 199.98 198.93 198.12 198.77 193.92C198.92 198.12 200.78 199.85 204.98 199.69C200.78 199.84 199.05 201.7 199.21 205.9Z" fill="white"/>
</g>
<g style="mix-blend-mode:overlay">
<path d="M309.77 194.92C309.62 190.72 307.76 188.99 303.56 189.15C307.76 189 309.49 187.14 309.33 182.94C309.48 187.14 311.34 188.87 315.54 188.71C311.34 188.86 309.61 190.72 309.77 194.92Z" fill="white"/>
</g>
<defs>
<radialGradient id="paint0_radial_914_52557" cx="0" cy="0" r="1" gradientUnits="userSpaceOnUse" gradientTransform="translate(214 159) scale(209 209)">
<stop stop-color="#00D963"/>
<stop offset="1" stop-color="#009745"/>
</radialGradient>
</defs>
</svg>
