<svg width="16" height="16" viewBox="0 0 16 16" fill="none" xmlns="http://www.w3.org/2000/svg">
<path d="M6 1.45999H10C11.4283 1.45999 12.449 1.46062 13.2246 1.56546C13.8906 1.65551 14.3184 1.81637 14.6367 2.07816L14.7666 2.19632C15.0981 2.52968 15.292 2.98335 15.3945 3.75003C15.4989 4.53077 15.5 5.55795 15.5 6.99417V9.00589C15.5 10.4421 15.4989 11.4693 15.3945 12.25C15.3048 12.9209 15.1454 13.3522 14.8848 13.6729L14.7666 13.8037C14.4355 14.1367 13.9855 14.3307 13.2246 14.4336C12.449 14.5385 11.4283 14.5401 10 14.5401H6C4.57166 14.5401 3.55103 14.5385 2.77539 14.4336C2.10941 14.3436 1.68161 14.1837 1.36328 13.9219L1.2334 13.8037C0.901936 13.4704 0.707961 13.0167 0.605469 12.25C0.501103 11.4693 0.5 10.4421 0.5 9.00589V6.99417C0.5 5.55795 0.501111 4.53077 0.605469 3.75003C0.707961 2.98335 0.901937 2.52968 1.2334 2.19632C1.56447 1.86338 2.01444 1.66835 2.77539 1.56546C3.55101 1.46062 4.57174 1.45999 6 1.45999Z" fill="black" stroke="black"/>
<path d="M3.55566 4.48001H6.22233" stroke="white" stroke-linecap="round"/>
<path d="M14.2402 11.02H12.4268C12.0604 11.02 11.8237 11.0198 11.6455 11.0014C11.561 10.9927 11.5038 10.9803 11.4639 10.9682L11.3857 10.9331C11.3598 10.9154 11.3356 10.8956 11.3135 10.8735L11.2529 10.8012C11.2321 10.7706 11.203 10.7109 11.1855 10.5415C11.1672 10.3633 11.167 10.1265 11.167 9.76022C11.167 9.39398 11.1672 9.15711 11.1855 8.97897C11.1943 8.89401 11.2057 8.83628 11.2178 8.79636L11.2529 8.71921C11.2708 8.69298 11.2911 8.66826 11.3135 8.64597L11.3857 8.5864C11.4164 8.56559 11.4761 8.53647 11.6455 8.51901C11.8237 8.50066 12.0604 8.50046 12.4268 8.50046H14.2402C14.6065 8.50046 14.8434 8.50066 15.0215 8.51901C15.106 8.52773 15.1633 8.53919 15.2031 8.55124L15.2812 8.5864C15.3072 8.60402 15.3314 8.62392 15.3535 8.64597L15.4131 8.71921C15.4339 8.74982 15.464 8.80936 15.4814 8.97897C15.4998 9.1571 15.5 9.394 15.5 9.76022C15.5 10.1265 15.4998 10.3633 15.4814 10.5415C15.4727 10.6261 15.4603 10.6832 15.4482 10.7231L15.4131 10.8012C15.3954 10.8272 15.3756 10.8514 15.3535 10.8735L15.2812 10.9331C15.2506 10.9539 15.191 10.984 15.0215 11.0014C14.8434 11.0198 14.6065 11.02 14.2402 11.02Z" fill="white" stroke="white"/>
</svg>
