<svg width="50" height="50" viewBox="0 0 50 50" fill="none" xmlns="http://www.w3.org/2000/svg">
<path d="M25 50C38.8071 50 50 38.8071 50 25C50 11.1929 38.8071 0 25 0C11.1929 0 0 11.1929 0 25C0 38.8071 11.1929 50 25 50Z" fill="#F0F0F0"/>
<path d="M25 0C15.0885 0 6.52442 5.76807 2.48067 14.1305H47.5192C43.4756 5.76807 34.9114 0 25 0Z" fill="#0052B4"/>
<path d="M25 50C34.9114 50 43.4756 44.2319 47.5193 35.8695H2.48067C6.52442 44.2319 15.0885 50 25 50Z" fill="#0052B4"/>
<path d="M19.9795 26.087L25 17.3914L30.0205 26.087H19.9795Z" fill="#FFDA44"/>
<path d="M31.5218 28.9581L25 32.219L18.4782 28.9581V24.6104H31.5218V28.9581Z" fill="#6DA544"/>
<path d="M31.1487 17.7644L28.843 20.0702C29.8265 21.0537 30.4349 22.4124 30.4349 23.9131C30.4349 26.9147 28.0016 29.3479 25.0001 29.3479C21.9986 29.3479 19.5653 26.9146 19.5653 23.9131C19.5653 22.4124 20.1737 21.0537 21.1572 20.0702L18.8515 17.7644C17.2777 19.3378 16.3045 21.5118 16.3045 23.9131C16.3045 28.7157 20.1977 32.6087 25.0001 32.6087C29.8025 32.6087 33.6957 28.7156 33.6957 23.9131C33.6956 21.5118 32.7224 19.3378 31.1487 17.7644Z" fill="#FFDA44"/>
</svg>
