<svg width="50" height="50" viewBox="0 0 50 50" fill="none" xmlns="http://www.w3.org/2000/svg">
<path d="M25 50C38.8071 50 50 38.8071 50 25C50 11.1929 38.8071 0 25 0C11.1929 0 0 11.1929 0 25C0 38.8071 11.1929 50 25 50Z" fill="#F0F0F0"/>
<path d="M25 0C15.0885 0 6.52446 5.76807 2.48071 14.1305H47.5193C43.4756 5.76807 34.9115 0 25 0Z" fill="#D80027"/>
<path d="M25 50.0001C34.9115 50.0001 43.4756 44.232 47.5194 35.8696H2.48071C6.52446 44.232 15.0885 50.0001 25 50.0001Z" fill="#D80027"/>
<path d="M31.5218 29.3479L25 17.3914L18.4783 29.3479H23.3696V32.6087H26.6305V29.3479H31.5218Z" fill="#6DA544"/>
</svg>
