<svg width="50" height="50" viewBox="0 0 50 50" fill="none" xmlns="http://www.w3.org/2000/svg">
<path d="M50 25C50 38.807 38.807 50 25 50C11.193 50 0 38.807 0 25C0 25.006 25 0.00273438 25 0C38.807 0 50 11.193 50 25Z" fill="#0052B4"/>
<path d="M24.9331 25H25C25 24.9775 25 24.9557 25 24.9331C24.9777 24.9555 24.9555 24.9777 24.9331 25Z" fill="#F0F0F0"/>
<path d="M25 13.0435C25 8.64453 25 5.76221 25 0H24.9958C11.1905 0.00234375 0 11.1942 0 25H13.0435V17.6552L20.3883 25H24.9332C24.9555 24.9777 24.9777 24.9555 25.0001 24.9331C25.0001 23.2488 25.0001 21.746 25.0001 20.3885L17.6551 13.0435H25Z" fill="#F0F0F0"/>
<path d="M12.6479 3.26083C8.73779 5.4873 5.48711 8.73788 3.26074 12.6479V25H9.78252V9.78281V9.78261H24.9999C24.9999 7.72568 24.9999 5.76611 24.9999 3.26083H12.6479Z" fill="#D80027"/>
<path d="M25 21.9257L16.1177 13.0435H13.0435V13.0437L24.9998 25H25C25 25 25 22.8802 25 21.9257Z" fill="#D80027"/>
<path d="M28.2607 13.0435V24.9999C28.2607 30.8241 35.8694 32.6087 35.8694 32.6087C35.8694 32.6087 43.4781 30.8241 43.4781 24.9999V13.0435H28.2607Z" fill="#338AF3"/>
<path d="M28.2607 24.9999C28.2607 30.8241 35.8694 32.6087 35.8694 32.6087C35.8694 32.6087 43.4781 30.8241 43.4781 24.9999H28.2607Z" fill="#A2001D"/>
<path d="M39.1304 18.4784H36.9564V16.3044H34.7825V18.4784H32.6086V20.6522H34.7825V27.1739H36.9564V20.6522H39.1304V18.4784Z" fill="black"/>
</svg>
