<svg width="50" height="50" viewBox="0 0 50 50" fill="none" xmlns="http://www.w3.org/2000/svg">
<path d="M25 50C38.8071 50 50 38.8071 50 25C50 11.1929 38.8071 0 25 0C11.1929 0 0 11.1929 0 25C0 38.8071 11.1929 50 25 50Z" fill="#F0F0F0"/>
<path d="M7.32246 42.6777C8.37119 43.7265 9.49014 44.6617 10.6639 45.4852L45.4851 10.6639C44.6617 9.49014 43.7265 8.37119 42.6776 7.32246C41.6289 6.27373 40.51 5.33857 39.3362 4.51514L4.51514 39.3364C5.33848 40.51 6.27373 41.629 7.32246 42.6777Z" fill="#A2001D"/>
<path d="M7.32239 7.32226C-0.564715 15.2094 -2.07878 27.0543 2.77698 36.4627L36.4627 2.77705C27.0543 -2.07871 15.2093 -0.564455 7.32239 7.32226Z" fill="#0052B4"/>
<path d="M42.6777 42.6777C50.5646 34.7908 52.0787 22.9458 47.2231 13.5373L13.5374 47.223C22.9457 52.0788 34.7907 50.5647 42.6777 42.6777Z" fill="#496E2D"/>
<path d="M20.6522 14.1305L17.8508 15.4481L19.3426 18.1612L16.3007 17.5794L15.9152 20.6521L13.7964 18.3921L11.6776 20.6521L11.2922 17.5794L8.25024 18.1611L9.74194 15.448L6.94067 14.1305L9.74204 12.8127L8.25024 10.0998L11.2921 10.6816L11.6777 7.60869L13.7964 9.86884L15.9153 7.60869L16.3007 10.6816L19.3426 10.0998L17.851 12.8128L20.6522 14.1305Z" fill="#FFDA44"/>
</svg>
