<svg width="50" height="50" viewBox="0 0 50 50" fill="none" xmlns="http://www.w3.org/2000/svg">
<path d="M25 50C38.8071 50 50 38.8071 50 25C50 11.1929 38.8071 0 25 0C11.1929 0 0 11.1929 0 25C0 38.8071 11.1929 50 25 50Z" fill="#F0F0F0"/>
<path d="M0 25C0 34.4761 5.27246 42.7202 13.0435 46.9602V3.03973C5.27246 7.27977 0 15.5239 0 25Z" fill="#D80027"/>
<path d="M48.4451 33.6956C49.45 30.9873 50 28.058 50 25C50 21.942 49.45 19.0126 48.4451 16.3044H1.55508C0.550098 19.0126 0 21.942 0 25C0 28.058 0.550098 30.9873 1.55508 33.6956L25 35.8695L48.4451 33.6956Z" fill="#D80027"/>
<path d="M25.0001 50C35.7493 50 44.9128 43.2156 48.4452 33.6956H1.55518C5.0874 43.2156 14.2511 50 25.0001 50Z" fill="#6DA544"/>
<path d="M0 25C0 36.5507 7.83408 46.27 18.4782 49.1387V0.861206C7.83408 3.72996 0 13.4493 0 25Z" fill="#D80027"/>
<path d="M15.2946 11.0014L12.9888 8.69562L11.4517 10.2329L9.9146 8.69562L7.60884 11.0014L9.14604 12.5386L7.60864 14.0759L9.9144 16.3817L11.4516 14.8443L12.9888 16.3817L15.2946 14.0759L13.7574 12.5386L15.2946 11.0014Z" fill="#F0F0F0"/>
</svg>
