<svg width="50" height="50" viewBox="0 0 50 50" fill="none" xmlns="http://www.w3.org/2000/svg">
<path d="M25 50C38.8071 50 50 38.8071 50 25C50 11.1929 38.8071 0 25 0C11.1929 0 0 11.1929 0 25C0 38.8071 11.1929 50 25 50Z" fill="#F0F0F0"/>
<path d="M48.4449 16.3044H1.55488C0.550098 19.0128 0 21.942 0 25C0 28.0581 0.550098 30.9875 1.55488 33.6957H48.445C49.45 30.9875 50 28.0581 50 25C50 21.942 49.45 19.0128 48.4449 16.3044Z" fill="#A2001D"/>
<path d="M25.0723 50C33.635 50 41.1912 45.6942 45.6969 39.1305H4.44775C8.95342 45.6942 16.5095 50 25.0723 50Z" fill="#6DA544"/>
<path d="M25.0723 0.000244141C33.635 0.000244141 41.1912 4.3061 45.6969 10.8698H4.44775C8.95342 4.3061 16.5095 0.000244141 25.0723 0.000244141Z" fill="#6DA544"/>
<path d="M25.0001 16.3044L27.1584 22.947H34.1433L28.4925 27.0529L30.651 33.6957L25.0001 29.5903L19.3492 33.6957L21.5078 27.0529L15.8569 22.947H22.8418L25.0001 16.3044Z" fill="#FFDA44"/>
</svg>
