<svg width="50" height="50" viewBox="0 0 50 50" fill="none" xmlns="http://www.w3.org/2000/svg">
<path d="M2.48066 14.1305C0.891406 17.4172 0 21.1045 0 25C0 28.8955 0.891406 32.5828 2.48066 35.8695L25 38.0435L47.5193 35.8695C49.1086 32.5828 50 28.8955 50 25C50 21.1045 49.1086 17.4172 47.5193 14.1305L25 11.9565L2.48066 14.1305Z" fill="#F0F0F0"/>
<path d="M2.48157 35.8695C6.52522 44.2318 15.0886 50 25 50C34.9115 50 43.4749 44.2318 47.5185 35.8695H2.48157Z" fill="#6DA544"/>
<path d="M2.48157 14.1305H47.5185C43.4749 5.76816 34.9115 0 25 0C15.0886 0 6.52522 5.76816 2.48157 14.1305Z" fill="#D80027"/>
<path d="M20.6522 31.5218H29.3479V27.8261L27.6088 28.6956L25.0001 26.0869L22.3914 28.6956L20.6522 27.8261V31.5218Z" fill="#FFDA44"/>
<path d="M15.677 27.174L16.0818 28.4195H17.3914L16.3318 29.1893L16.7366 30.4348L15.677 29.6651L14.6174 30.4348L15.0222 29.1893L13.9626 28.4195H15.2722L15.677 27.174Z" fill="#FFDA44"/>
<path d="M16.9318 22.826L17.3365 24.0716H18.6461L17.5865 24.8414L17.9912 26.0869L16.9318 25.3172L15.8722 26.0869L16.277 24.8414L15.2174 24.0716H16.527L16.9318 22.826Z" fill="#FFDA44"/>
<path d="M20.5189 19.5653L20.9237 20.8108H22.2332L21.1738 21.5806L21.5784 22.8261L20.5189 22.0564L19.4594 22.8261L19.8641 21.5806L18.8046 20.8108H20.1142L20.5189 19.5653Z" fill="#FFDA44"/>
<path d="M34.3231 27.174L33.9183 28.4195H32.6088L33.6683 29.1893L33.2636 30.4348L34.3231 29.6651L35.3826 30.4348L34.9779 29.1893L36.0375 28.4195H34.7279L34.3231 27.174Z" fill="#FFDA44"/>
<path d="M33.0684 22.826L32.6636 24.0716H31.354L32.4136 24.8414L32.0088 26.0869L33.0684 25.3172L34.1279 26.0869L33.7231 24.8414L34.7827 24.0716H33.4731L33.0684 22.826Z" fill="#FFDA44"/>
<path d="M29.4812 19.5653L29.0764 20.8108H27.767L28.8263 21.5806L28.4217 22.8261L29.4812 22.0564L30.5407 22.8261L30.136 21.5806L31.1955 20.8108H29.8859L29.4812 19.5653Z" fill="#FFDA44"/>
<path d="M25 17.9347L25.4048 19.1802H26.7144L25.6548 19.95L26.0596 21.1955L25 20.4258L23.9404 21.1955L24.3452 19.95L23.2856 19.1802H24.5952L25 17.9347Z" fill="#FFDA44"/>
</svg>
