<svg width="25" height="25" viewBox="0 0 25 25" fill="none" xmlns="http://www.w3.org/2000/svg">
<path d="M2.47943 3.36248L4.9348 0.907108C5.32533 0.516583 5.95849 0.516584 6.34902 0.907108L10.4085 4.96658C10.799 5.3571 10.799 5.99027 10.4085 6.38079L7.6952 9.09408C7.2862 9.50308 7.18481 10.1279 7.44348 10.6452C8.93883 13.636 11.3639 16.061 14.3546 17.5563C14.8719 17.815 15.4967 17.7136 15.9057 17.3046L18.619 14.5913C19.0095 14.2008 19.6427 14.2008 20.0332 14.5913L24.0927 18.6508C24.4832 19.0413 24.4832 19.6745 24.0927 20.065L21.6373 22.5204C19.526 24.6317 16.1834 24.8693 13.7947 23.0777L9.6389 19.9609C7.89537 18.6533 6.34655 17.1044 5.0389 15.3609L1.92207 11.2051C0.130527 8.8164 0.368076 5.47383 2.47943 3.36248Z" stroke="black"/>
</svg>
