<svg width="26" height="26" viewBox="0 0 26 26" fill="none" xmlns="http://www.w3.org/2000/svg">
<path d="M24.52 7.71998L24.52 6.47198C24.52 5.31138 24.52 4.73107 24.3606 4.25496C23.9278 2.96294 22.6663 1.95375 21.0513 1.60755C20.4562 1.47998 19.7308 1.47998 18.28 1.47998" stroke="black" stroke-linecap="round" stroke-linejoin="round"/>
<path d="M24.52 18.28L24.52 19.528C24.52 20.6886 24.52 21.2689 24.3606 21.745C23.9278 23.0371 22.6663 24.0463 21.0513 24.3925C20.4562 24.52 19.7308 24.52 18.28 24.52" stroke="black" stroke-linecap="round" stroke-linejoin="round"/>
<path d="M7.71997 24.52L6.67997 24.52C4.73597 24.52 3.76397 24.52 3.03997 24.0184C2.56567 23.6898 2.17181 23.2172 1.89797 22.648C1.47997 21.7792 1.47997 20.6128 1.47997 18.28" stroke="black" stroke-linecap="round" stroke-linejoin="round"/>
<path d="M7.71997 1.47998L6.67997 1.47998C4.73597 1.47998 3.76397 1.47998 3.03997 1.98158C2.56567 2.31019 2.17181 2.78282 1.89797 3.35198C1.47997 4.22078 1.47997 5.38718 1.47997 7.71998" stroke="black" stroke-linecap="round" stroke-linejoin="round"/>
<path d="M24.04 13L1.95996 13" stroke="black" stroke-linecap="round" stroke-linejoin="round"/>
</svg>
