<svg width="50" height="50" viewBox="0 0 50 50" fill="none" xmlns="http://www.w3.org/2000/svg">
<path d="M49.1388 31.5218C49.6992 29.4423 50 27.2565 50 25C50 22.7435 49.6992 20.5577 49.1388 18.4782L22.8261 0.0951233C17.9412 0.516022 13.4585 2.34122 9.78262 5.16553L0.86123 18.4782C0.300781 20.5577 0 22.7435 0 25C0 27.2434 0.297168 29.4171 0.851367 31.4857L9.78252 44.8345C13.4584 47.6588 17.9411 49.4841 22.826 49.9049L49.1388 31.5218Z" fill="#FFDA44"/>
<path d="M0.861229 31.5218C2.30771 36.8889 5.4957 41.5406 9.78262 44.8345V31.5218H0.861229Z" fill="#0052B4"/>
<path d="M22.8261 49.9049C23.5427 49.9666 24.2674 50 25 50C36.5507 50 46.27 42.1659 49.1388 31.5218H22.8261V49.9049Z" fill="#0052B4"/>
<path d="M49.1388 18.4782C46.27 7.83408 36.5507 0 25 0C24.2674 0 23.5427 0.0333984 22.8261 0.0951172V18.4782H49.1388Z" fill="#0052B4"/>
<path d="M9.78262 5.16553C5.4957 8.45947 2.30771 13.1111 0.861229 18.4782H9.78262V5.16553Z" fill="#0052B4"/>
<path d="M49.7884 21.7392H19.5653H19.5652V0.594238C17.2549 1.10654 15.0646 1.93691 13.0435 3.03975V21.7391H0.211621C0.0724609 22.8065 0 23.8948 0 25C0 26.1052 0.0724609 27.1935 0.211621 28.2608H13.0434H13.0435V46.9602C15.0646 48.0629 17.2549 48.8935 19.5652 49.4057V28.2611V28.2609H49.7884C49.9273 27.1935 50 26.1052 50 25C50 23.8948 49.9273 22.8065 49.7884 21.7392Z" fill="#D80027"/>
</svg>
