<svg width="50" height="50" viewBox="0 0 50 50" fill="none" xmlns="http://www.w3.org/2000/svg">
<path d="M50 25C50 38.807 38.807 50 25 50C11.193 50 0 38.807 0 25C0 25.006 25 0.00273438 25 0C38.807 0 50 11.193 50 25Z" fill="#0052B4"/>
<path d="M24.9331 25H25C25 24.9775 25 24.9557 25 24.9331C24.9777 24.9555 24.9555 24.9777 24.9331 25Z" fill="#F0F0F0"/>
<path d="M25 13.0435C25 8.64453 25 5.76221 25 0H24.9958C11.1905 0.00234375 0 11.1942 0 25H13.0435V17.6552L20.3883 25H24.9332C24.9555 24.9777 24.9777 24.9555 25.0001 24.9331C25.0001 23.2488 25.0001 21.746 25.0001 20.3885L17.6551 13.0435H25Z" fill="#F0F0F0"/>
<path d="M12.648 3.26083C8.73792 5.4873 5.48723 8.73788 3.26086 12.6479V25H9.78264V9.78281V9.78261H25C25 7.72568 25 5.76611 25 3.26083H12.648Z" fill="#D80027"/>
<path d="M35.8696 25L29.1124 31.7571C30.3788 34.1996 32.9284 35.8695 35.8696 35.8695C38.8107 35.8695 41.3603 34.1996 42.6267 31.7571L35.8696 25Z" fill="#FFDA44"/>
<path d="M25 21.9257L16.1177 13.0435H13.0435V13.0437L24.9998 25H25C25 25 25 22.8802 25 21.9257Z" fill="#D80027"/>
<path d="M28.2609 13.0435V24.9999V25C28.261 30.8241 35.8696 32.6087 35.8696 32.6087C35.8696 32.6087 43.4782 30.8241 43.4782 25V24.9999V13.0435H28.2609Z" fill="#6DA544"/>
<path d="M34.2391 18.4782H37.5V27.1738H34.2391V18.4782Z" fill="#F0F0F0"/>
<path d="M35.8695 20.1087C36.77 20.1087 37.5 19.3787 37.5 18.4782C37.5 17.5777 36.77 16.8477 35.8695 16.8477C34.9691 16.8477 34.2391 17.5777 34.2391 18.4782C34.2391 19.3787 34.9691 20.1087 35.8695 20.1087Z" fill="#A2001D"/>
<path d="M30.4348 15.2174H32.6087V17.3913H30.4348V15.2174Z" fill="#FFDA44"/>
<path d="M30.4348 20.1087H32.6087V22.2826H30.4348V20.1087Z" fill="#FFDA44"/>
<path d="M30.4348 25H32.6087V27.1739H30.4348V25Z" fill="#FFDA44"/>
<path d="M39.1304 15.2174H41.3044V17.3913H39.1304V15.2174Z" fill="#FFDA44"/>
<path d="M39.1304 20.1087H41.3044V22.2826H39.1304V20.1087Z" fill="#FFDA44"/>
<path d="M39.1304 25H41.3044V27.1739H39.1304V25Z" fill="#FFDA44"/>
</svg>
