<svg width="50" height="50" viewBox="0 0 50 50" fill="none" xmlns="http://www.w3.org/2000/svg">
<path d="M25 50C38.8071 50 50 38.8071 50 25C50 11.1929 38.8071 0 25 0C11.1929 0 0 11.1929 0 25C0 38.8071 11.1929 50 25 50Z" fill="#F0F0F0"/>
<path d="M50 25C50 38.807 38.807 50 25 50C11.193 50 0 38.807 0 25C0 11.193 25 25 25 25C25 25 43.922 25 50 25Z" fill="#D80027"/>
<path d="M0 25C0 11.193 11.193 0 25 0V25C25 25 8.69561 25 0 25Z" fill="#0052B4"/>
<path d="M14.8817 8.69562L16.5006 13.6778H21.7392L17.5011 16.7569L19.1198 21.7392L14.8817 18.66L10.6437 21.7392L12.2624 16.7569L8.02432 13.6778H13.2629L14.8817 8.69562Z" fill="#F0F0F0"/>
</svg>
