<svg width="50" height="50" viewBox="0 0 50 50" fill="none" xmlns="http://www.w3.org/2000/svg">
<path d="M50 25C50 38.807 38.807 50 25 50C11.193 50 0 38.807 0 25C0 25.006 25 0.00273438 25 0C38.807 0 50 11.193 50 25Z" fill="#0052B4"/>
<path d="M24.9331 25H25C25 24.9775 25 24.9557 25 24.9331C24.9777 24.9555 24.9555 24.9777 24.9331 25Z" fill="#F0F0F0"/>
<path d="M25 13.0435C25 8.64453 25 5.76221 25 0H24.9958C11.1905 0.00234375 0 11.1942 0 25H13.0435V17.6552L20.3883 25H24.9332C24.9555 24.9777 24.9777 24.9555 25.0001 24.9331C25.0001 23.2488 25.0001 21.746 25.0001 20.3885L17.6551 13.0435H25Z" fill="#F0F0F0"/>
<path d="M12.648 3.26086C8.73792 5.48733 5.48723 8.73792 3.26086 12.648V25H9.78264V9.78284V9.78264H25C25 7.72571 25 5.76614 25 3.26086H12.648Z" fill="#D80027"/>
<path d="M25 21.9257L16.1177 13.0436H13.0435V13.0438L24.9998 25H25C25 25 25 22.8802 25 21.9257Z" fill="#D80027"/>
<path d="M33.6956 25L34.1583 26.4234H35.6549L34.4441 27.3031L34.9066 28.7267L33.6956 27.8469L32.4848 28.7267L32.9473 27.3031L31.7365 26.4234H33.2331L33.6956 25Z" fill="#F0F0F0"/>
<path d="M27.547 27.547L28.8805 28.2264L29.9389 27.1681L29.7047 28.6464L31.0383 29.3259L29.56 29.5599L29.3259 31.0384L28.6463 29.7047L27.1681 29.9389L28.2266 28.8806L27.547 27.547Z" fill="#F0F0F0"/>
<path d="M25 33.6956L26.4234 33.2331L26.4236 31.7366L27.3031 32.9473L28.7267 32.4847L27.8469 33.6956L28.7267 34.9067L27.3031 34.4442L26.4236 35.6549V34.1583L25 33.6956Z" fill="#F0F0F0"/>
<path d="M27.547 39.8443L28.2264 38.5107L27.1681 37.4525L28.6464 37.6866L29.3259 36.353L29.56 37.8313L31.0383 38.0653L29.7047 38.7449L29.9389 40.2233L28.8805 39.1647L27.547 39.8443Z" fill="#F0F0F0"/>
<path d="M33.6956 42.3913L33.2331 40.9678H31.7365L32.9473 40.0881L32.4848 38.6647L33.6956 39.5444L34.9067 38.6647L34.4442 40.0881L35.6549 40.9678H34.1583L33.6956 42.3913Z" fill="#F0F0F0"/>
<path d="M39.8443 39.8443L38.5107 39.165L37.4525 40.2233L37.6866 38.7449L36.353 38.0655L37.8313 37.8313L38.0655 36.353L38.7449 37.6866L40.2232 37.4525L39.1647 38.5108L39.8443 39.8443Z" fill="#F0F0F0"/>
<path d="M42.3913 33.6956L40.9678 34.1583V35.6549L40.0881 34.4441L38.6647 34.9067L39.5445 33.6956L38.6647 32.4847L40.0881 32.9473L40.9678 31.7366V33.2331L42.3913 33.6956Z" fill="#F0F0F0"/>
<path d="M39.8443 27.5471L39.165 28.8806L40.2232 29.9389L38.7449 29.7047L38.0655 31.0384L37.8313 29.5599L36.353 29.3258L37.6866 28.6464L37.4525 27.1682L38.5108 28.2264L39.8443 27.5471Z" fill="#F0F0F0"/>
</svg>
