<svg width="50" height="50" viewBox="0 0 50 50" fill="none" xmlns="http://www.w3.org/2000/svg">
<path d="M0.000224609 4.34784H0V45.6521H0.000224609V25.0001V4.34784Z" fill="#FF9811"/>
<path d="M24.9999 50C38.807 50 49.9998 38.8072 49.9998 25.0001C49.9998 11.1931 38.807 0.000244141 24.9999 0.000244141C11.1928 0.000244141 0 11.1931 0 25.0001C0 38.8072 11.1928 50 24.9999 50Z" fill="#F0F0F0"/>
<path d="M25.0001 0.000183105C16.8212 0.000183105 9.56009 3.92821 4.99905 10.0002H45.0011C40.4402 3.92811 33.1789 0.000183105 25.0001 0.000183105Z" fill="#0052B4"/>
<path d="M25.0001 49.9999C33.179 49.9999 40.4402 46.0719 45.0012 39.9999H4.99905C9.55999 46.0719 16.8212 49.9999 25.0001 49.9999Z" fill="#0052B4"/>
<path d="M0.00012207 25.0001C0.00012207 26.7125 0.172778 28.3845 0.500806 30.0001H49.4995C49.8276 28.3845 50.0001 26.7125 50.0001 25.0001C50.0001 23.2877 49.8275 21.6156 49.4995 20.0001H0.500806C0.172778 21.6156 0.00012207 23.2877 0.00012207 25.0001Z" fill="#0052B4"/>
<path d="M7.32236 7.32245C-2.44062 17.0854 -2.44062 32.9146 7.32236 42.6778C11.3568 38.6433 15.2369 34.7632 25 25.0002L7.32236 7.32245Z" fill="#D80027"/>
<path d="M10.1182 18.4784L11.7368 23.4603H16.9757L12.7377 26.5396L14.3562 31.5217L10.1182 28.4426L5.88007 31.5217L7.49901 26.5396L3.26093 23.4603H8.4994L10.1182 18.4784Z" fill="#F0F0F0"/>
</svg>
