<svg width="50" height="50" viewBox="0 0 50 50" fill="none" xmlns="http://www.w3.org/2000/svg">
<path d="M25 50C38.8071 50 50 38.8071 50 25C50 11.1929 38.8071 0 25 0C11.1929 0 0 11.1929 0 25C0 38.8071 11.1929 50 25 50Z" fill="#F0F0F0"/>
<path d="M0.861206 31.5218C3.1696 40.0865 9.91345 46.8305 18.4783 49.1389V31.5218H0.861206Z" fill="#D80027"/>
<path d="M18.4782 0.861206C9.91345 3.16951 3.16951 9.91345 0.861206 18.4782H18.4783V0.861206H18.4782Z" fill="#0052B4"/>
<path d="M49.1387 18.4782C46.8304 9.91345 40.0865 3.16951 31.5217 0.861206V18.4783H49.1387V18.4782Z" fill="#D80027"/>
<path d="M31.5217 49.1388C40.0865 46.8304 46.8304 40.0865 49.1388 31.5217H31.5217V49.1388Z" fill="#0052B4"/>
<path d="M31.5218 25C31.5218 28.6019 28.602 31.5218 25 31.5218C21.3982 31.5218 18.4783 28.6019 18.4783 25C18.4783 21.398 25 18.4782 25 18.4782C25 18.4782 31.5218 21.398 31.5218 25Z" fill="#496E2D"/>
<path d="M18.4783 25C18.4783 21.398 21.3982 18.4782 25 18.4782C28.602 18.4782 31.5218 21.398 31.5218 25" fill="#0052B4"/>
<path d="M21.3315 21.7391V25.8152C21.3315 27.8413 22.9739 29.4837 25 29.4837C27.0261 29.4837 28.6685 27.8413 28.6685 25.8152V21.7391H21.3315Z" fill="#D80027"/>
</svg>
