<svg width="50" height="50" viewBox="0 0 50 50" fill="none" xmlns="http://www.w3.org/2000/svg">
<path d="M25 50C38.8071 50 50 38.8071 50 25C50 11.1929 38.8071 0 25 0C11.1929 0 0 11.1929 0 25C0 38.8071 11.1929 50 25 50Z" fill="#F0F0F0"/>
<path d="M44.8338 40.2222L29.6117 25.0001H29.6116L44.8338 9.77778C44.1773 8.92466 43.4591 8.10386 42.6778 7.32231C41.8962 6.54087 41.0755 5.82261 40.2223 5.16626L25.0001 20.3884L25 20.3885L9.77788 5.16626C8.92485 5.82271 8.10396 6.54077 7.32241 7.32231C6.54087 8.10386 5.82271 8.92466 5.16636 9.77778L20.3885 24.9999L20.3886 25L5.16626 40.2223C5.8228 41.0754 6.54097 41.8962 7.32231 42.6778C8.10386 43.4592 8.92456 44.1775 9.77778 44.8338L25 29.6117L25.0001 29.6116L40.2223 44.8337C41.0753 44.1773 41.8962 43.4591 42.6778 42.6777C43.4593 41.8961 44.1774 41.0753 44.8338 40.2222Z" fill="#D80027"/>
<path d="M20.6521 7.60872L25 8.69563L29.3478 7.60872V3.91311L27.6086 4.78264L25 2.17395L22.3913 4.78264L20.6521 3.91311V7.60872Z" fill="#FFDA44"/>
<path d="M20.6521 7.60864V10.3262C20.6521 13.6543 25 14.6741 25 14.6741C25 14.6741 29.3478 13.6542 29.3478 10.3262V7.60864H20.6521Z" fill="#D80027"/>
</svg>
