<svg width="50" height="50" viewBox="0 0 50 50" fill="none" xmlns="http://www.w3.org/2000/svg">
<path d="M25 50C38.8071 50 50 38.8071 50 25C50 11.1929 38.8071 0 25 0C11.1929 0 0 11.1929 0 25C0 38.8071 11.1929 50 25 50Z" fill="#0052B4"/>
<path d="M10.9813 15.2173L11.521 16.8782H13.2671L11.8545 17.9045L12.394 19.5651L10.9813 18.5389L9.56855 19.5651L10.1083 17.9045L8.6956 16.8782H10.4416L10.9813 15.2173Z" fill="#F0F0F0"/>
<path d="M16.4161 13.5869L16.9558 15.2478H18.7018L17.2893 16.274L17.8288 17.9347L16.4161 16.9084L15.0034 17.9347L15.5431 16.274L14.1305 15.2478H15.8766L16.4161 13.5869Z" fill="#F0F0F0"/>
<path d="M21.8509 11.9565L22.3905 13.6174H24.1366L22.724 14.6438L23.2636 16.3044L21.8509 15.278L20.4382 16.3044L20.9778 14.6438L19.5652 13.6174H21.3113L21.8509 11.9565Z" fill="#F0F0F0"/>
<path d="M39.0187 15.2173L38.479 16.8782H36.7329L38.1456 17.9045L37.606 19.5651L39.0187 18.5389L40.4314 19.5651L39.8917 17.9045L41.3044 16.8782H39.5583L39.0187 15.2173Z" fill="#F0F0F0"/>
<path d="M33.5839 13.5869L33.0442 15.2478H31.2981L32.7108 16.274L32.1712 17.9347L33.5839 16.9084L34.9966 17.9347L34.4569 16.274L35.8695 15.2478H34.1234L33.5839 13.5869Z" fill="#F0F0F0"/>
<path d="M28.1491 11.9565L27.6095 13.6174H25.8634L27.276 14.6438L26.7364 16.3044L28.1491 15.278L29.5618 16.3044L29.0222 14.6438L30.4348 13.6174H28.6887L28.1491 11.9565Z" fill="#F0F0F0"/>
<path d="M29.3479 26.0869L25 20.6521L22.8261 21.739V23.9129L19.5652 26.0869H17.3913V28.8954C20.5776 30.1856 22.8261 33.3076 22.8261 36.9565H25V34.7826L27.1739 32.6086L29.3479 34.7826L31.5218 32.6086V30.4347L33.6957 27.1739L29.3479 26.0869Z" fill="#FFDA44"/>
</svg>
