<svg width="50" height="50" viewBox="0 0 50 50" fill="none" xmlns="http://www.w3.org/2000/svg">
<path d="M25 50C38.8071 50 50 38.8071 50 25C50 11.1929 38.8071 0 25 0C11.1929 0 0 11.1929 0 25C0 38.8071 11.1929 50 25 50Z" fill="#D80027"/>
<path d="M37.2263 25.0001L32.2307 27.3499L34.8909 32.1885L29.4658 31.1505L28.7787 36.6306L24.9999 32.6003L21.2214 36.6306L20.534 31.1505L15.1094 32.1883L17.7695 27.3497L12.7737 25.0001L17.7695 22.6504L15.1094 17.8117L20.5338 18.8498L21.2216 13.3696L24.9999 17.4L28.7789 13.3696L29.4658 18.8498L34.8911 17.8117L32.2308 22.6507L37.2263 25.0001Z" fill="#FFDA44"/>
<path d="M25 32.6087C29.2022 32.6087 32.6087 29.2022 32.6087 25C32.6087 20.7979 29.2022 17.3914 25 17.3914C20.7978 17.3914 17.3913 20.7979 17.3913 25C17.3913 29.2022 20.7978 32.6087 25 32.6087Z" fill="#D80027"/>
<path d="M21.1956 25C21.0123 25 20.8313 25.0094 20.6527 25.0271C20.6593 26.081 21.0405 27.0455 21.6702 27.7948C22.0061 26.8908 22.5077 26.0665 23.1402 25.361C22.5361 25.1287 21.8807 25 21.1956 25Z" fill="#FFDA44"/>
<path d="M23.5376 29.0949C23.9946 29.2582 24.4867 29.3477 25 29.3477C25.5133 29.3477 26.0054 29.2582 26.4624 29.0949C26.2133 28.1171 25.6989 27.2443 25 26.5583C24.3011 27.2442 23.7867 28.1171 23.5376 29.0949Z" fill="#FFDA44"/>
<path d="M28.7651 22.8267C28.0134 21.5273 26.6094 20.6521 25 20.6521C23.3906 20.6521 21.9866 21.5272 21.2349 22.8267C22.6054 22.8336 23.8905 23.2063 25 23.8498C26.1095 23.2063 27.3944 22.8336 28.7651 22.8267Z" fill="#FFDA44"/>
<path d="M26.8596 25.361C27.4921 26.0664 27.9936 26.8907 28.3296 27.7948C28.9593 27.0455 29.3405 26.081 29.3471 25.0271C29.1683 25.0093 28.9874 25 28.8042 25C28.1192 24.9999 27.4639 25.1286 26.8596 25.361Z" fill="#FFDA44"/>
</svg>
