<svg width="50" height="50" viewBox="0 0 50 50" fill="none" xmlns="http://www.w3.org/2000/svg">
<path d="M25 50C38.8071 50 50 38.8071 50 25C50 11.1929 38.8071 0 25 0C11.1929 0 0 11.1929 0 25C0 38.8071 11.1929 50 25 50Z" fill="#F0F0F0"/>
<path d="M13.5129 34.7826L7.32324 42.6769C11.8471 47.2013 18.0964 50 25.0001 50C35.3351 50 44.2036 43.7276 48.0109 34.7826H13.5129Z" fill="#FFDA44"/>
<path d="M48.0498 15.3079C44.2638 6.31465 35.37 0 25.0001 0C18.0964 0 11.8471 2.79873 7.32324 7.32314L13.584 15.3079H48.0498Z" fill="#496E2D"/>
<path d="M5.43481 18.3877V31.5217H49.1389C49.6997 29.4425 50 27.2565 50 25C50 22.7107 49.6917 20.4939 49.1152 18.3877H5.43481Z" fill="black"/>
<path d="M7.32231 7.32227C-2.44077 17.0854 -2.44077 32.9145 7.32231 42.6777C11.3568 38.6433 15.237 34.7631 25 25L7.32231 7.32227Z" fill="#A2001D"/>
<path d="M10.1181 18.4782L11.7367 23.4603H16.9756L12.7375 26.5396L14.3561 31.5218L10.1181 28.4426L5.87988 31.5218L7.49883 26.5396L3.26074 23.4603H8.49922L10.1181 18.4782Z" fill="#FFDA44"/>
<path d="M5.38159 25H14.8566V29.3479H5.38159V25Z" fill="#F0F0F0"/>
<path d="M16.6504 20.0155L15.1132 18.4782L10.1183 23.4731L5.12339 18.4782L3.58618 20.0155L8.5855 25.006L3.58618 30.0054L5.12339 31.5218L10.1183 26.5358L15.1132 31.5218L16.6504 30.0054L11.6511 25.006L16.6504 20.0155Z" fill="black"/>
</svg>
