<svg width="50" height="50" viewBox="0 0 50 50" fill="none" xmlns="http://www.w3.org/2000/svg">
<path d="M48.445 33.6956C49.45 30.9874 50 28.058 50 25C50 21.942 49.45 19.0126 48.445 16.3044L25 14.1305L1.55498 16.3044C0.550098 19.0126 0 21.942 0 25C0 28.058 0.550098 30.9874 1.55498 33.6956L25 35.8695L48.445 33.6956Z" fill="#6DA544"/>
<path d="M48.445 16.3044C44.9126 6.78437 35.7491 0 25 0C14.2508 0 5.08726 6.78437 1.55493 16.3044H48.445Z" fill="#FFDA44"/>
<path d="M25 50C35.7491 50 44.9126 43.2156 48.445 33.6956H1.55493C5.08726 43.2156 14.2508 50 25 50Z" fill="#D80027"/>
<path d="M42.1434 21.151H29.047L24.9999 8.6956L20.9528 21.151H7.85645L18.4517 28.8488L14.4046 41.3044L24.9999 33.6956L35.5952 41.3043L31.5482 28.8487L42.1434 21.151Z" fill="#F0F0F0"/>
</svg>
