<svg width="50" height="50" viewBox="0 0 50 50" fill="none" xmlns="http://www.w3.org/2000/svg">
<path d="M25 50C38.8071 50 50 38.8071 50 25C50 11.1929 38.8071 0 25 0C11.1929 0 0 11.1929 0 25C0 38.8071 11.1929 50 25 50Z" fill="#F0F0F0"/>
<path d="M25.0001 0C17.4229 0 10.6335 3.37148 6.04883 8.69561H43.9513C39.3667 3.37148 32.5773 0 25.0001 0Z" fill="#0052B4"/>
<path d="M43.9514 41.3044H6.04883C10.6335 46.6285 17.4229 50 25.0001 50C32.5773 50 39.3667 46.6285 43.9514 41.3044Z" fill="#0052B4"/>
<path d="M46.3307 11.9565H3.66934C1.34229 15.7539 0 20.22 0 25C0 29.78 1.34229 34.2462 3.66934 38.0435H46.3307C48.6577 34.2462 50 29.78 50 25C50 20.22 48.6577 15.7539 46.3307 11.9565Z" fill="#D80027"/>
<path d="M15.3805 34.6195C20.6932 34.6195 25 30.3127 25 25C25 19.6873 20.6932 15.3805 15.3805 15.3805C10.0678 15.3805 5.76099 19.6873 5.76099 25C5.76099 30.3127 10.0678 34.6195 15.3805 34.6195Z" fill="#F0F0F0"/>
<path d="M15.3806 15.3805L17.5389 22.0231H24.5348L18.8729 26.1288L21.0481 32.7913L15.3806 28.6661L9.72158 32.7836L11.8882 26.1288L6.23145 22.0231H13.2222L15.3806 15.3805Z" fill="#D80027"/>
</svg>
