<svg width="50" height="50" viewBox="0 0 50 50" fill="none" xmlns="http://www.w3.org/2000/svg">
<path d="M25 50C38.8071 50 50 38.8071 50 25C50 11.1929 38.8071 0 25 0C11.1929 0 0 11.1929 0 25C0 38.8071 11.1929 50 25 50Z" fill="#F0F0F0"/>
<path d="M7.32231 42.6777C-2.44077 32.9145 -2.44077 17.0854 7.32231 7.32227C7.32163 7.32334 21.7392 25 21.7392 25L7.32231 42.6777Z" fill="black"/>
<path d="M21.7393 25L3.31582 12.55C2.74463 13.5429 2.24092 14.5792 1.80811 15.6519L11.1352 25L1.8084 34.3487C2.24082 35.4206 2.74404 36.4562 3.31484 37.4484L21.7393 25Z" fill="#FFDA44"/>
<path d="M49.7883 21.7391H21.7384L7.32202 7.32263C5.76851 8.87615 4.4188 10.6331 3.31567 12.5502L15.7414 25L3.3147 37.4482C4.41782 39.3658 5.76811 41.1233 7.32202 42.6772L21.7384 28.2608H49.7883C49.9273 27.1934 50 26.1052 50 25C50 23.8948 49.9273 22.8065 49.7883 21.7391Z" fill="#6DA544"/>
<path d="M9.77905 44.8317C13.9948 48.0721 19.2718 50 25 50C36.5506 50 46.27 42.1659 49.1387 31.5217H23.0891L9.77905 44.8317Z" fill="#0052B4"/>
<path d="M49.1387 18.4782C46.27 7.83408 36.5506 0 25 0C19.2718 0 13.9948 1.92783 9.77905 5.16826L23.089 18.4782H49.1387Z" fill="#D80027"/>
</svg>
