<svg width="50" height="50" viewBox="0 0 50 50" fill="none" xmlns="http://www.w3.org/2000/svg">
<path d="M36.9566 3.03975C33.4048 1.10186 29.3312 0 25.0001 0C20.669 0 16.5954 1.10186 13.0436 3.03975L10.8696 25L13.0436 46.9603C16.5954 48.8981 20.669 50 25.0001 50C29.3312 50 33.4048 48.8981 36.9566 46.9603L39.1306 25L36.9566 3.03975Z" fill="#FFDA44"/>
<path d="M13.0435 46.9601V3.03967C5.27236 7.27991 0 15.5239 0 25C0 34.4761 5.27236 42.7201 13.0435 46.9601Z" fill="#338AF3"/>
<path d="M50 25C50 15.5239 44.7276 7.27991 36.9565 3.03967V46.9601C44.7276 42.7201 50 34.4761 50 25Z" fill="#6DA544"/>
<path d="M19.5652 31.5218L15.2173 25L19.5651 18.4783L23.9132 25L19.5652 31.5218Z" fill="#6DA544"/>
<path d="M30.4348 31.5218L26.0869 25L30.4348 18.4783L34.7826 25L30.4348 31.5218Z" fill="#6DA544"/>
<path d="M25 40.2174L20.6521 33.6956L25 27.174L29.3478 33.6956L25 40.2174Z" fill="#6DA544"/>
</svg>
