<svg width="24" height="24" viewBox="0 0 24 24" fill="none" xmlns="http://www.w3.org/2000/svg">
<path d="M2.47943 3.09934L4.67165 0.907119C5.06217 0.516595 5.69534 0.516595 6.08586 0.90712L9.9348 4.75606C10.3253 5.14659 10.3253 5.77975 9.9348 6.17028L7.35307 8.75201C6.9598 9.14528 6.86231 9.74607 7.11103 10.2435C8.54887 13.1192 10.8806 15.4509 13.7563 16.8888C14.2537 17.1375 14.8545 17.04 15.2478 16.6467L17.8295 14.065C18.2201 13.6745 18.8532 13.6745 19.2438 14.065L23.0927 17.914C23.4832 18.3045 23.4832 18.9376 23.0927 19.3282L20.9005 21.5204C18.7891 23.6317 15.4466 23.8693 13.0578 22.0777L9.32311 19.2767C7.57958 17.9691 6.03076 16.4202 4.72311 14.6767L1.92207 10.942C0.130526 8.55326 0.368076 5.21069 2.47943 3.09934Z" stroke="black"/>
</svg>
