<svg width="24" height="24" viewBox="0 0 24 24" fill="none" xmlns="http://www.w3.org/2000/svg">
<path d="M5.84622 0.756537C6.78981 0.152482 7.2616 -0.149544 7.59727 0.073194C7.93294 0.295932 7.80603 0.926832 7.5522 2.18863C6.74887 6.18211 7.92248 10.4832 11.073 13.5778C13.9981 16.4509 17.9818 17.6502 21.7907 17.1758C23.0892 17.014 23.7385 16.9331 23.9416 17.2775C24.1447 17.6219 23.8052 18.0633 23.1263 18.946C22.7702 19.4089 22.3775 19.8532 21.9479 20.2751C16.9271 25.2069 8.78657 25.2069 3.76567 20.2751C-1.25522 15.3434 -1.25522 7.34751 3.76567 2.41578C4.41194 1.78099 5.10989 1.22791 5.84622 0.756537Z" fill="black"/>
<path d="M17.9685 1.69973C18.3835 0.625967 18.591 0.0890836 18.9282 0.0146741C19.0168 -0.00489135 19.1084 -0.00489135 19.1971 0.0146741C19.5342 0.0890836 19.7418 0.625967 20.1568 1.69973C20.3928 2.31036 20.5108 2.61568 20.7317 2.82334C20.7936 2.88159 20.8608 2.93346 20.9324 2.97824C21.1876 3.13788 21.5062 3.16749 22.1435 3.22671C23.2221 3.32697 23.7615 3.37709 23.9262 3.69623C23.9603 3.76233 23.9835 3.83389 23.9948 3.90794C24.0494 4.26551 23.6529 4.63986 22.8599 5.38857L22.6397 5.59649C22.269 5.94652 22.0836 6.12154 21.9764 6.33996C21.9121 6.47098 21.8689 6.61209 21.8487 6.75763C21.815 7.00026 21.8693 7.25415 21.9779 7.76195L22.0167 7.94338C22.2114 8.85404 22.3087 9.30936 22.1872 9.53317C22.078 9.73421 21.877 9.86291 21.6549 9.87392C21.4076 9.88618 21.0592 9.59156 20.3624 9.00232C19.9033 8.6141 19.6738 8.42 19.419 8.34417C19.1861 8.27488 18.9392 8.27488 18.7063 8.34417C18.4515 8.42 18.2219 8.6141 17.7629 9.00232C17.0661 9.59156 16.7177 9.88618 16.4704 9.87392C16.2483 9.86291 16.0472 9.73421 15.9381 9.53317C15.8166 9.30936 15.9139 8.85404 16.1086 7.94338L16.1474 7.76195C16.2559 7.25415 16.3102 7.00026 16.2765 6.75763C16.2563 6.61209 16.2132 6.47098 16.1489 6.33996C16.0417 6.12154 15.8563 5.94652 15.4856 5.59649L15.2654 5.38858C14.4724 4.63986 14.0759 4.26551 14.1305 3.90794C14.1418 3.83389 14.165 3.76233 14.1991 3.69623C14.3638 3.37709 14.9031 3.32697 15.9818 3.22671C16.619 3.16749 16.9376 3.13788 17.1928 2.97824C17.2644 2.93346 17.3317 2.88159 17.3936 2.82334C17.6144 2.61568 17.7324 2.31036 17.9685 1.69973Z" fill="black"/>
</svg>
