<svg width="24" height="24" viewBox="0 0 24 24" fill="none" xmlns="http://www.w3.org/2000/svg">
<path d="M9 1.94H15C17.1355 1.94 18.687 1.94102 19.8711 2.10114C21.0401 2.25925 21.7765 2.56411 22.3271 3.11774C22.8782 3.67196 23.1824 4.41408 23.3398 5.59137C23.4991 6.78295 23.5 8.34426 23.5 10.4918V13.5084C23.5 15.6556 23.4991 17.2163 23.3398 18.4078C23.2021 19.4381 22.952 20.1352 22.5225 20.6646L22.3271 20.8824C21.7765 21.436 21.0401 21.7409 19.8711 21.899C18.687 22.0591 17.1355 22.0601 15 22.0601H9C6.86447 22.0601 5.31303 22.0591 4.12891 21.899C3.10583 21.7606 2.41453 21.5092 1.88867 21.0777L1.67285 20.8824C1.12172 20.3281 0.817566 19.5853 0.660156 18.4078C0.500929 17.2163 0.5 15.6556 0.5 13.5084V10.4918C0.5 8.34426 0.500863 6.78295 0.660156 5.59137C0.817579 4.41408 1.12177 3.67196 1.67285 3.11774C2.2235 2.56411 2.95989 2.25925 4.12891 2.10114C5.31303 1.94102 6.86447 1.94 9 1.94Z" fill="black" stroke="black"/>
<path d="M5.33325 6.72H9.33325" stroke="white" stroke-linecap="round"/>
<path d="M22 16.78H18C17.5147 16.78 17.2009 16.7788 16.9697 16.7478C16.8074 16.726 16.728 16.6944 16.6826 16.6638L16.6465 16.6335C16.6084 16.5955 16.5614 16.5271 16.5322 16.3103C16.5012 16.0791 16.5 15.7653 16.5 15.28V13.9997C16.5 13.5144 16.5012 13.2007 16.5322 12.9695C16.5541 12.8069 16.5856 12.7277 16.6162 12.6823L16.6465 12.6462C16.6846 12.6082 16.7531 12.5611 16.9697 12.532C17.2009 12.5009 17.5147 12.4997 18 12.4997H22C22.4853 12.4997 22.7991 12.5009 23.0303 12.532C23.193 12.5538 23.272 12.5862 23.3174 12.6169L23.3535 12.6462C23.3916 12.6843 23.4386 12.7526 23.4678 12.9695C23.4988 13.2007 23.5 13.5144 23.5 13.9997V15.28C23.5 15.7653 23.4988 16.0791 23.4678 16.3103C23.446 16.4726 23.4144 16.552 23.3838 16.5974L23.3535 16.6335C23.3155 16.6716 23.2471 16.7186 23.0303 16.7478C22.7991 16.7788 22.4853 16.78 22 16.78Z" fill="white" stroke="white"/>
</svg>
