<svg width="40" height="40" viewBox="0 0 40 40" fill="none" xmlns="http://www.w3.org/2000/svg">
<path d="M33.0106 35.2427C32.8876 35.2993 32.7576 35.3435 32.6242 35.3745C32.6055 35.3794 32.5851 35.3839 32.5642 35.3874L10.8587 39.7471C10.368 39.8461 9.85786 39.7668 9.41962 39.5239L9.40023 39.5138C9.00411 39.2897 8.69473 38.9505 8.50586 38.5331L0.795518 21.4904C0.637404 21.1408 0.586092 20.7561 0.646931 20.3776L0.729999 20.3833C0.738356 20.7562 0.868893 21.0549 1.10707 21.2469C1.39087 21.4757 1.81491 21.5475 2.30078 21.4486L25.1356 16.7303C26.0551 16.5453 26.9687 17.0165 27.3576 17.8759L34.0013 32.5607C34.4612 33.5773 34.0168 34.7803 33.0108 35.2426L33.0106 35.2427Z" fill="#E67E22"/>
<path d="M0.688147 20.3843C0.708705 21.2968 1.42407 21.6697 2.30891 21.49C2.31158 21.4897 2.31375 21.4887 2.31643 21.4883L25.1439 16.7717C26.0396 16.5915 26.9405 17.0561 27.3194 17.8936L33.9631 32.5784C34.4241 33.5972 33.9537 34.7632 32.9932 35.2045C32.8742 35.2591 32.7478 35.3027 32.6148 35.3335C32.5959 35.3384 32.5767 35.3428 32.5571 35.3462L10.8504 39.706C10.348 39.8074 9.84409 39.7168 9.42139 39.4769L9.42056 39.4772C9.04416 39.2643 8.73311 38.9341 8.54374 38.5157L0.833392 21.4728C0.673271 21.1187 0.630483 20.7423 0.688147 20.3843ZM0.60558 20.3708C0.543236 20.7576 0.595718 21.1508 0.757343 21.5079L8.46786 38.5506C8.6604 38.9763 8.97579 39.3221 9.37977 39.5507L9.41671 39.5716L9.41788 39.5711C9.86064 39.8108 10.3734 39.8881 10.8668 39.7885L32.5735 35.4287C32.5927 35.4253 32.6144 35.4206 32.636 35.4151C32.7697 35.3842 32.9024 35.3389 33.0279 35.2813C34.055 34.8093 34.5086 33.5812 34.0391 32.5435L27.3955 17.8587C26.9985 16.9813 26.0659 16.5004 25.1276 16.6892L2.30306 21.4051L2.30038 21.4054L2.29336 21.4073H2.29236C1.81885 21.5037 1.40718 21.4351 1.13307 21.2143C0.904761 21.0303 0.77974 20.7428 0.771717 20.3826L0.605747 20.371L0.60558 20.3708Z" fill="#66142E"/>
<path d="M1.98274 22.9825C1.95717 22.9943 1.92825 22.9997 1.89817 22.9968C1.69242 22.9776 1.50439 22.9309 1.32321 22.8545C1.23813 22.8184 1.19802 22.7197 1.23379 22.634C1.26955 22.5482 1.36733 22.5078 1.45257 22.5437C1.60183 22.6068 1.7576 22.6452 1.92909 22.6612C2.02102 22.6698 2.08871 22.7519 2.08002 22.8445C2.07433 22.9068 2.03556 22.9581 1.98274 22.9823V22.9825Z" fill="white"/>
<path d="M32.1499 34.2209C32.1383 34.2262 32.126 34.2304 32.1131 34.2329L31.0522 34.446C30.9617 34.4642 30.8737 34.4049 30.8557 34.3137C30.8376 34.2224 30.8966 34.1337 30.9869 34.1156L32.0477 33.9026C32.1383 33.8844 32.2262 33.9437 32.2443 34.0348C32.2597 34.113 32.2189 34.1893 32.1499 34.2209ZM32.8739 33.5596C32.8525 33.5694 32.8288 33.5749 32.8039 33.5748C32.7116 33.5743 32.6371 33.4984 32.6376 33.4055C32.6379 33.3388 32.6232 33.2721 32.594 33.2072L32.2595 32.468C32.2212 32.3835 32.2583 32.2834 32.3422 32.2448C32.4261 32.2063 32.5254 32.2437 32.5637 32.3282L32.8981 33.0674C32.9476 33.1769 32.9725 33.2913 32.9719 33.4071C32.9715 33.475 32.9314 33.5331 32.8739 33.5596ZM30.0283 34.6469C30.0168 34.6523 30.0044 34.6564 29.9916 34.6589L28.9307 34.872C28.8401 34.8902 28.7522 34.8309 28.7342 34.7398C28.7161 34.6485 28.775 34.5597 28.8654 34.5417L29.9262 34.3286C30.0168 34.3104 30.1047 34.3697 30.1228 34.4608C30.1382 34.539 30.0974 34.6153 30.0283 34.6469ZM27.9068 35.0731C27.8953 35.0783 27.8829 35.0825 27.8701 35.0851L26.8092 35.2982C26.7186 35.3164 26.6307 35.2571 26.6127 35.1659C26.5946 35.0746 26.6536 34.9857 26.7439 34.9678L27.8047 34.7547C27.8953 34.7366 27.9832 34.7958 28.0013 34.887C28.0166 34.9651 27.9759 35.0414 27.9068 35.0731ZM25.7853 35.4993C25.7738 35.5045 25.7614 35.5087 25.7486 35.5113L24.6877 35.7243C24.5971 35.7425 24.5092 35.6832 24.4912 35.5921C24.4731 35.501 24.5318 35.4122 24.6224 35.394L25.6832 35.1809C25.7738 35.1627 25.8617 35.222 25.8798 35.3132C25.8951 35.3913 25.8544 35.4676 25.7853 35.4993ZM23.6636 35.9253C23.6521 35.9305 23.6397 35.9347 23.6269 35.9373L22.566 36.1504C22.4754 36.1685 22.3875 36.1092 22.3695 36.0181C22.3514 35.927 22.4101 35.8384 22.5007 35.82L23.5615 35.6069C23.6521 35.5887 23.74 35.648 23.7581 35.7392C23.7735 35.8173 23.7327 35.8936 23.6636 35.9253ZM32.0322 31.5596C31.9483 31.5982 31.849 31.5608 31.8107 31.4762L31.362 30.4844C31.3237 30.3998 31.3608 30.2998 31.4447 30.2612C31.5286 30.2226 31.6279 30.26 31.6662 30.3446L32.1149 31.3364C32.1532 31.421 32.1161 31.521 32.0322 31.5596ZM21.5421 36.3515C21.5306 36.3567 21.5182 36.3609 21.5054 36.3634L20.4445 36.5765C20.3539 36.5947 20.266 36.5354 20.248 36.4443C20.2299 36.3532 20.2886 36.2642 20.3792 36.2462L21.44 36.0331C21.5306 36.0149 21.6185 36.0742 21.6366 36.1653C21.6519 36.2435 21.6112 36.3198 21.5421 36.3515ZM19.4206 36.7777C19.4091 36.783 19.3967 36.7871 19.3839 36.7896L18.323 37.0027C18.2324 37.0209 18.1445 36.9616 18.1265 36.8705C18.1084 36.7793 18.1669 36.6906 18.2577 36.6724L19.3185 36.4593C19.4091 36.4411 19.497 36.5004 19.5151 36.5915C19.5304 36.6697 19.4897 36.746 19.4206 36.7777ZM17.2991 37.2037C17.2876 37.2089 17.2752 37.2131 17.2623 37.2156L16.2015 37.4287C16.1109 37.4469 16.023 37.3876 16.0049 37.2965C15.9869 37.2052 16.0459 37.1166 16.1362 37.0984L17.197 36.8853C17.2876 36.8671 17.3755 36.9264 17.3935 37.0175C17.4089 37.0957 17.3681 37.172 17.2991 37.2037ZM15.1776 37.6298C15.1661 37.6352 15.1537 37.6393 15.1408 37.6418L14.08 37.8549C13.9894 37.8731 13.9015 37.8138 13.8834 37.7227C13.8654 37.6314 13.9244 37.5428 14.0146 37.5246L15.0755 37.3115C15.1661 37.2933 15.254 37.3526 15.272 37.4437C15.2874 37.5219 15.2466 37.5982 15.1776 37.6298ZM13.0559 38.056C13.0444 38.0612 13.032 38.0655 13.0192 38.068L11.9583 38.2811C11.8677 38.2993 11.7798 38.24 11.7618 38.1488C11.7437 38.0575 11.8027 37.9688 11.893 37.9507L12.9538 37.7376C13.0444 37.7195 13.1323 37.7788 13.1504 37.8699C13.1657 37.948 13.125 38.0244 13.0559 38.056ZM31.1347 29.5759C31.0507 29.6145 30.9515 29.5771 30.9132 29.4925L30.4644 28.5007C30.4261 28.4162 30.4632 28.3161 30.5472 28.2775C30.6311 28.2389 30.7303 28.2763 30.7686 28.3609L31.2174 29.3527C31.2557 29.4373 31.2186 29.5374 31.1347 29.5759ZM10.9344 38.482C10.9229 38.4873 10.9105 38.4915 10.8976 38.494L10.6214 38.5494C10.3257 38.6234 10.0596 38.6699 9.81508 38.6902C9.72298 38.6978 9.64242 38.6289 9.63473 38.5361C9.62721 38.4435 9.69574 38.3623 9.7875 38.3543C10.014 38.3355 10.2628 38.2919 10.5485 38.2206L10.8323 38.1635C10.9229 38.1453 11.0108 38.2044 11.0288 38.2957C11.0442 38.3739 11.0034 38.4502 10.9344 38.4819V38.482ZM30.2373 27.5921C30.1534 27.6307 30.0541 27.5933 30.0158 27.5087L29.567 26.5169C29.5288 26.4323 29.5659 26.3323 29.6498 26.2937C29.7337 26.2551 29.833 26.2925 29.8712 26.3771L30.32 27.3689C30.3583 27.4535 30.3212 27.5535 30.2373 27.5921ZM29.3397 25.6084C29.2558 25.647 29.1565 25.6096 29.1183 25.5251L28.6695 24.5332C28.6312 24.4487 28.6683 24.3486 28.7522 24.31C28.8361 24.2715 28.9354 24.3089 28.9737 24.3934L29.4225 25.3852C29.4607 25.4698 29.4236 25.5699 29.3397 25.6084ZM28.4422 23.6246C28.3583 23.6632 28.259 23.6258 28.2207 23.5412L27.772 22.5494C27.7337 22.4648 27.7708 22.3648 27.8547 22.3262C27.9386 22.2876 28.0379 22.325 28.0762 22.4096L28.5249 23.4014C28.5632 23.486 28.5261 23.586 28.4422 23.6246ZM27.5448 21.6409C27.4609 21.6795 27.3616 21.6421 27.3234 21.5576L26.8746 20.5657C26.8363 20.4812 26.8734 20.3811 26.9573 20.3425C27.0412 20.304 27.1405 20.3414 27.1788 20.4259L27.6275 21.4178C27.6658 21.5023 27.6287 21.6024 27.5448 21.6409ZM26.6473 19.6573C26.5634 19.6959 26.4641 19.6585 26.4258 19.5739L25.977 18.5821C25.9388 18.4975 25.9759 18.3974 26.0598 18.3589C26.1437 18.3203 26.243 18.3577 26.2812 18.4423L26.73 19.4341C26.7683 19.5186 26.7312 19.6187 26.6473 19.6573ZM25.3075 18.2811C25.2961 18.2863 25.2842 18.2903 25.2715 18.2928L24.212 18.5118C24.1216 18.5305 24.0332 18.4717 24.0148 18.3806C23.9963 18.2895 24.0549 18.2007 24.145 18.1818L25.2045 17.9628C25.2949 17.9442 25.3834 18.0029 25.4017 18.0941C25.4176 18.1724 25.3768 18.2492 25.3075 18.2811ZM23.1883 18.719C23.1769 18.7242 23.1651 18.7283 23.1524 18.7308L22.0927 18.9496C22.0023 18.9683 21.9139 18.9095 21.8955 18.8184C21.8769 18.7273 21.9356 18.6383 22.0257 18.6196L23.0853 18.4008C23.1758 18.3821 23.2642 18.4409 23.2826 18.532C23.2984 18.6104 23.2577 18.6872 23.1883 18.719ZM21.0691 19.1568C21.0578 19.162 21.0459 19.1661 21.0332 19.1686L19.9735 19.3876C19.8831 19.4063 19.7947 19.3475 19.7763 19.2564C19.7577 19.1652 19.8164 19.0763 19.9065 19.0576L20.9662 18.8386C21.0566 18.8199 21.145 18.8787 21.1634 18.9698C21.1793 19.0482 21.1385 19.125 21.0691 19.1568ZM18.95 19.5946C18.9386 19.5998 18.9267 19.6037 18.914 19.6064L17.8544 19.8252C17.7639 19.8439 17.6755 19.7851 17.6571 19.694C17.6386 19.6029 17.6972 19.5141 17.7873 19.4952L18.847 19.2764C18.9374 19.2577 19.0258 19.3165 19.0442 19.4076C19.0601 19.486 19.0193 19.5628 18.95 19.5946ZM16.8306 20.0324C16.8193 20.0376 16.8074 20.0417 16.7947 20.0442L15.735 20.2632C15.6446 20.2819 15.5562 20.2231 15.5378 20.132C15.5192 20.0408 15.5781 19.9521 15.668 19.9332L16.7277 19.7142C16.8181 19.6955 16.9065 19.7543 16.9249 19.8454C16.9408 19.9238 16.9 20.0006 16.8306 20.0324ZM14.7114 20.4704C14.7001 20.4756 14.6882 20.4797 14.6755 20.4822L13.616 20.7012C13.5256 20.7199 13.4372 20.6611 13.4188 20.5699C13.4002 20.4788 13.4589 20.39 13.549 20.3712L14.6085 20.1522C14.6989 20.1335 14.7873 20.1923 14.8057 20.2834C14.8216 20.3617 14.7808 20.4386 14.7114 20.4704ZM12.5923 20.9082C12.5809 20.9134 12.569 20.9175 12.5563 20.92L11.4967 21.139C11.4063 21.1577 11.3178 21.0989 11.2994 21.0077C11.2809 20.9166 11.3394 20.8277 11.4297 20.809L12.4893 20.59C12.5797 20.5713 12.6682 20.6301 12.6865 20.7212C12.7024 20.7995 12.6616 20.8764 12.5923 20.9082ZM10.4731 21.3462C10.4617 21.3514 10.4499 21.3554 10.4372 21.3579L9.3775 21.5768C9.28708 21.5955 9.19866 21.5367 9.18028 21.4455C9.16172 21.3544 9.22056 21.2656 9.31048 21.2468L10.3701 21.028C10.4606 21.0093 10.549 21.068 10.5674 21.1592C10.5833 21.2375 10.5425 21.3143 10.4731 21.3462ZM8.35394 21.784C8.34257 21.7892 8.3307 21.7932 8.318 21.7958L7.25833 22.0146C7.16791 22.0333 7.07949 21.9745 7.06111 21.8833C7.04255 21.7922 7.10122 21.7034 7.19131 21.6846L8.25098 21.4658C8.3414 21.4471 8.42982 21.5058 8.4482 21.597C8.46408 21.6753 8.4233 21.7521 8.35394 21.784ZM6.23476 22.2219C6.2234 22.2272 6.21153 22.231 6.19883 22.2337L5.13916 22.4525C5.04874 22.4712 4.96032 22.4124 4.94193 22.3213C4.92338 22.2302 4.98205 22.1412 5.07214 22.1225L6.13181 21.9037C6.22223 21.885 6.31065 21.9438 6.32903 22.0349C6.34491 22.1133 6.30413 22.1901 6.23476 22.2219ZM4.11559 22.6597C4.10423 22.665 4.09236 22.6688 4.07966 22.6715L3.01999 22.8903C2.92957 22.909 2.84115 22.8502 2.82276 22.7591C2.80421 22.668 2.86288 22.579 2.95297 22.5603L4.01263 22.3415C4.10306 22.3228 4.19147 22.3816 4.20986 22.4727C4.22574 22.5511 4.18496 22.6279 4.11559 22.6597Z" fill="white"/>
<path d="M8.81041 38.5209C8.76628 38.5412 8.7138 38.542 8.667 38.5188C8.47897 38.4251 8.31885 38.2942 8.19099 38.1301C8.13399 38.057 8.14653 37.9511 8.21923 37.8936C8.29177 37.8359 8.3969 37.849 8.4539 37.9221C8.55067 38.0464 8.67235 38.1455 8.81509 38.2167C8.89782 38.258 8.93175 38.3591 8.8908 38.4425C8.87308 38.4785 8.84417 38.5055 8.81041 38.5209Z" fill="white"/>
<g opacity="0.55">
<path d="M0.946761 21.1482C0.921523 21.4597 0.972501 21.7816 1.11006 22.0858L0.832771 21.4727C0.672651 21.1186 0.629863 20.7421 0.687527 20.3842C0.694714 20.7067 0.788813 20.9614 0.946761 21.1481V21.1482Z" fill="white"/>
<path d="M0.946761 21.1482C0.921523 21.4597 0.972501 21.7816 1.11006 22.0858L0.832771 21.4727C0.672651 21.1186 0.629863 20.7421 0.687527 20.3842C0.694714 20.7067 0.788813 20.9614 0.946761 21.1481V21.1482Z" stroke="#66142E" stroke-width="0.5" stroke-miterlimit="10"/>
</g>
<g opacity="0.55">
<path d="M27.3188 17.8936L27.596 18.5068C27.2171 17.6693 26.3163 17.2047 25.4205 17.3849L2.59304 22.1013C2.59036 22.1017 2.58819 22.1027 2.58552 22.103C1.76469 22.2701 1.08944 21.9612 0.980469 21.1865C1.27296 21.5001 1.75734 21.6024 2.30806 21.49C2.31074 21.4897 2.31291 21.4887 2.31559 21.4883L25.1431 16.7718C26.0388 16.5915 26.9397 17.0561 27.3186 17.8936H27.3188Z" fill="white"/>
</g>
<g opacity="0.55">
<path d="M0.965317 20.9973C0.966654 21.0633 0.972337 21.1265 0.981028 21.1863C0.969161 21.1742 0.957963 21.1617 0.947266 21.1482C0.951277 21.0982 0.956793 21.0475 0.965317 20.9973Z" fill="white"/>
<path d="M0.965317 20.9973C0.966654 21.0633 0.972337 21.1265 0.981028 21.1863C0.969161 21.1742 0.957963 21.1617 0.947266 21.1482C0.951277 21.0982 0.956793 21.0475 0.965317 20.9973Z" stroke="#66142E" stroke-width="0.25" stroke-miterlimit="10"/>
</g>
<path d="M33.0966 35.4344C32.9613 35.4966 32.8189 35.5455 32.6709 35.5797C32.6525 35.5847 32.6262 35.5904 32.5997 35.595L10.8995 39.9536C9.83081 40.1687 8.7683 39.6204 8.31585 38.6203L0.605337 21.5776C0.430007 21.1902 0.373179 20.7635 0.440704 20.3437C0.46143 20.2149 0.576255 20.1232 0.705454 20.1322C0.834654 20.1412 0.935773 20.2479 0.938782 20.3784C0.945802 20.6916 1.04642 20.9284 1.23746 21.0824C1.47213 21.2714 1.83465 21.3283 2.25852 21.2424C2.26103 21.2417 2.26354 21.2412 2.26604 21.2407L25.0936 16.5241C26.1096 16.3196 27.1183 16.8398 27.5475 17.7887L34.1912 32.4734C34.4688 33.0873 34.4581 33.786 34.1617 34.3907C33.9326 34.8582 33.5562 35.2232 33.0966 35.4344ZM1.18431 21.6394L8.77198 38.4108C9.12748 39.1964 9.96185 39.6272 10.8014 39.458L32.5082 35.0982C32.5273 35.0949 32.5395 35.092 32.5517 35.089C33.0625 34.9707 33.483 34.6355 33.7123 34.167C33.9416 33.6989 33.95 33.158 33.735 32.6832L27.0914 17.9984C26.7591 17.264 25.9786 16.8614 25.193 17.0195L2.36683 21.7358C2.36432 21.7365 2.36148 21.737 2.35847 21.7375C1.91471 21.8278 1.50873 21.7922 1.18431 21.6393V21.6394Z" fill="#66142E"/>
<path d="M28.1091 16.0873C27.8926 15.6088 27.5027 15.2464 27.011 15.067C26.6814 14.9468 26.325 14.9196 25.9804 14.9889L2.15723 20.119L25.1736 9.54222C25.732 9.28567 26.3667 9.29881 26.915 9.57861C27.3257 9.78664 27.6443 10.1208 27.8362 10.545L34.5244 25.3285C34.6172 25.5336 34.6749 25.7504 34.6959 25.973C34.7536 26.5706 34.5472 27.1588 34.1298 27.5869C33.9613 27.7594 33.765 27.8992 33.546 28.0026L33.5077 28.0206L28.1089 16.0875L28.1091 16.0873Z" fill="#E67E22"/>
<path d="M25.1916 9.58048C25.7581 9.32023 26.3822 9.35358 26.8968 9.6162C27.2829 9.81177 27.606 10.1364 27.7988 10.5624L34.4871 25.3458C34.5801 25.5514 34.6349 25.7639 34.6551 25.9769C34.7114 26.56 34.5067 27.141 34.1007 27.5573C33.9401 27.7218 33.7484 27.8606 33.5289 27.9644L28.1477 16.07C27.922 15.5711 27.5109 15.2047 27.0258 15.0276C26.6969 14.9075 26.3342 14.8752 25.9728 14.9478L2.52373 19.9972L25.1916 9.58048ZM25.157 9.50384L2.48913 19.9206L1.79199 20.241L2.54111 20.0796L25.9904 15.03C26.3262 14.9626 26.6748 14.9891 26.9974 15.1066C27.4784 15.2822 27.8599 15.6366 28.0716 16.1049L33.4529 27.9993L33.488 28.0768L33.5643 28.0407C33.7878 27.9351 33.9882 27.7924 34.1602 27.6164C34.5864 27.1796 34.797 26.5791 34.7382 25.9689C34.7168 25.7419 34.6578 25.5205 34.563 25.3112L27.8747 10.5277C27.6788 10.0948 27.3536 9.75365 26.9342 9.54107C26.3746 9.25555 25.7268 9.24207 25.1569 9.50401L25.157 9.50384Z" fill="#66142E"/>
<g opacity="0.3">
<path d="M27.7987 10.5624L34.487 25.3458C34.5799 25.5512 34.6347 25.7639 34.655 25.9768C34.7113 26.56 34.5065 27.141 34.1006 27.5571C33.9399 27.7216 33.7484 27.8606 33.5288 27.9642L28.1475 16.0698C27.9219 15.5709 27.5107 15.2045 27.0257 15.0275L25.5615 11.7912L25.8629 11.3751C26.8176 10.9031 27.4773 10.3759 26.8966 9.61618C27.2827 9.81175 27.6058 10.1364 27.7987 10.5624Z" fill="#66142E"/>
</g>
<path d="M33.6326 28.1942C33.5726 28.2218 33.5041 28.2243 33.4421 28.2014C33.3792 28.1782 33.3283 28.1305 33.3005 28.069L27.9193 16.1746C27.587 15.4403 26.8066 15.0376 26.0216 15.1952L2.57563 20.2443C2.45061 20.2713 2.32526 20.1989 2.28514 20.0766C2.24503 19.9541 2.30286 19.8209 2.41919 19.7673L25.0872 9.35054C26.2004 8.83896 27.519 9.33555 28.0266 10.4576L34.7149 25.2411C34.8173 25.4675 34.881 25.707 34.9042 25.9529C34.9679 26.6124 34.7399 27.2618 34.279 27.7343C34.0929 27.9246 33.8763 28.0791 33.6348 28.1931L33.6325 28.1942H33.6326ZM4.71854 19.2662L25.9201 14.7007C26.9378 14.4962 27.9462 15.0163 28.3754 15.9652L33.644 27.6105C33.7443 27.5438 33.837 27.4668 33.9216 27.3802C34.2781 27.0147 34.4543 26.5122 34.4052 26.0016C34.3873 25.8113 34.338 25.6261 34.2586 25.451L27.5703 10.6675C27.1773 9.79912 26.1568 9.41472 25.2952 9.81058L4.71854 19.2662Z" fill="#66142E"/>
<g opacity="0.3">
<path d="M2.94141 19.9073L7.44935 17.8357L8.05506 18.6789L2.94141 19.9073Z" fill="#66142E"/>
</g>
<g opacity="0.3">
<path d="M11.1357 18.1428L11.3562 18.0414L12.5287 17.5025L22.3004 13.012L23.4737 12.4728L25.6158 11.4885C27.3418 10.736 27.4095 9.99218 26.6968 9.52726C25.8493 9.08036 24.5556 9.7422 23.1339 10.7226L11.1357 18.1426V18.1428Z" fill="#66142E"/>
</g>
<path d="M33.5479 35.075C33.2651 35.205 32.954 35.3057 32.6236 35.3746L32.6059 35.2923C32.7337 35.2628 32.8584 35.2202 32.9763 35.1661C33.9403 34.7231 34.3662 33.57 33.9254 32.5957L27.2818 17.911C27.1581 17.6374 26.9702 17.3935 26.7389 17.2057C26.2928 16.843 25.7145 16.7 25.1526 16.8128L2.31371 21.5318C1.80677 21.635 1.3585 21.5574 1.05498 21.3128C0.796743 21.1048 0.65551 20.784 0.646484 20.3853C0.749944 19.7366 1.16128 19.1932 1.74694 18.924L25.8476 7.84896C26.8559 7.38556 28.0503 7.83532 28.5101 8.85158L35.1984 23.6352C36.1028 25.5656 35.547 26.4818 34.1263 27.5904L34.071 27.5276C34.4712 27.1174 34.6689 26.5538 34.6136 25.9809C34.5933 25.7676 34.5382 25.5599 34.4491 25.3632L27.7608 10.5797C27.6879 10.4185 27.5952 10.2704 27.4852 10.1394L27.4815 10.135L27.4809 10.1335C26.9269 9.46995 25.9936 9.25821 25.2089 9.61869L2.88967 19.8753L25.9644 14.9063C26.606 14.7776 27.2714 14.9725 27.7448 15.4278C27.93 15.6047 28.0784 15.8149 28.1858 16.0523L34.7972 30.6658C35.3069 31.6236 35.4329 32.561 35.1606 33.3745C34.9122 34.1161 34.3547 34.7042 33.5479 35.075Z" fill="#D3623B"/>
<path d="M25.8647 7.88737C26.854 7.43273 28.0212 7.87289 28.472 8.86926L35.1602 23.6529C36.0688 25.5921 35.4596 26.497 34.1006 27.5574C34.5065 27.1412 34.7111 26.5603 34.655 25.977C34.6349 25.7641 34.5799 25.5515 34.487 25.346L27.7987 10.5625C27.7235 10.3961 27.6286 10.2453 27.5171 10.1124L27.5164 10.1109C26.963 9.44418 26.015 9.20212 25.1915 9.58063L2.5236 19.9972L25.9729 14.9476C26.6162 14.8186 27.2624 15.0224 27.7158 15.4583C27.8938 15.6283 28.0412 15.8345 28.1477 16.0698L34.7591 30.6833C35.796 32.6324 35.1372 34.2982 33.5303 35.0366C33.2522 35.1644 32.946 35.2643 32.6149 35.3332C32.7479 35.3024 32.8744 35.2589 32.9933 35.2042C33.9538 34.7628 34.424 33.5968 33.9632 32.578L27.3195 17.8933C27.1892 17.6052 26.9969 17.3611 26.7648 17.1725C26.3217 16.8123 25.7317 16.6532 25.144 16.7712L2.31651 21.4883C2.31384 21.4887 2.31166 21.4897 2.30899 21.49C1.42415 21.6699 0.708788 21.2968 0.688229 20.3843C0.785171 19.7806 1.17043 19.2353 1.76428 18.9623L25.8647 7.88737ZM25.8301 7.81073L1.72951 18.8856C1.13098 19.1607 0.710793 19.7159 0.605662 20.3708L0.604492 20.3784V20.3862C0.614019 20.7977 0.760601 21.1294 1.02869 21.3455C1.34141 21.5975 1.80055 21.6783 2.32169 21.5732L2.32453 21.5729L2.33205 21.571L2.33322 21.5707L25.1607 16.8541C25.7101 16.7436 26.2759 16.8836 26.7123 17.2383C26.9388 17.4221 27.1225 17.6608 27.2435 17.9285L33.8871 32.6132C34.3184 33.5663 33.9018 34.6944 32.9587 35.1279C32.8433 35.1809 32.7215 35.2224 32.5963 35.2513L32.6319 35.4159C32.9654 35.3465 33.2792 35.2448 33.5651 35.1134C34.3825 34.7377 34.948 34.1411 35.2 33.3881C35.476 32.5641 35.3494 31.6159 34.834 30.6459L28.2237 16.0349C28.1141 15.7925 27.9625 15.5781 27.7733 15.3972C27.2901 14.9328 26.611 14.7337 25.9567 14.8649L3.25534 19.7535L25.2263 9.6571C25.9921 9.30521 26.9028 9.51055 27.4452 10.1562L27.4532 10.1667C27.5607 10.2947 27.6513 10.4397 27.7227 10.5974L34.4109 25.3809C34.4979 25.5731 34.552 25.7764 34.5717 25.9849C34.6259 26.5455 34.4323 27.097 34.0411 27.4983L34.1519 27.6239C34.7439 27.1619 35.3244 26.6407 35.5597 25.9625C35.7847 25.314 35.6817 24.5688 35.236 23.6169L28.548 8.8344C28.0787 7.79691 26.8594 7.33789 25.8301 7.8109V7.81073Z" fill="#66142E"/>
<g opacity="0.55">
<path d="M33.9626 32.5784L34.1792 33.0573C34.4157 33.58 34.4072 34.1419 34.2121 34.6242C33.7862 34.9579 33.2447 35.2022 32.6143 35.3334C33.8223 35.0541 34.4805 33.7232 33.9626 32.5782V32.5784Z" fill="white"/>
<path d="M33.9626 32.5784L34.1792 33.0573C34.4157 33.58 34.4072 34.1419 34.2121 34.6242C33.7862 34.9579 33.2447 35.2022 32.6143 35.3334C33.8223 35.0541 34.4805 33.7232 33.9626 32.5782V32.5784Z" stroke="#66142E" stroke-width="0.5" stroke-miterlimit="10"/>
</g>
<g opacity="0.55">
<path d="M34.7588 30.6833C34.8552 30.8639 34.9371 31.043 35.0045 31.2183C34.9951 31.1995 34.9856 31.1808 34.9754 31.1622L34.7588 30.6833Z" fill="white"/>
<path d="M34.7588 30.6833C34.8552 30.8639 34.9371 31.043 35.0045 31.2183C34.9951 31.1995 34.9856 31.1808 34.9754 31.1622L34.7588 30.6833Z" stroke="#66142E" stroke-width="0.5" stroke-miterlimit="10"/>
</g>
<g opacity="0.55">
<path d="M34.655 25.9768C34.6349 25.7639 34.5799 25.5512 34.487 25.3458L34.7036 25.8247C34.7966 26.0301 34.8514 26.2428 34.8716 26.4557C34.8856 26.5984 34.8831 26.7411 34.8666 26.8811C34.6513 27.1078 34.3932 27.3292 34.1006 27.5571C34.5066 27.141 34.7113 26.56 34.655 25.9768Z" fill="white"/>
<path d="M34.655 25.9768C34.6349 25.7639 34.5799 25.5512 34.487 25.3458L34.7036 25.8247C34.7966 26.0301 34.8514 26.2428 34.8716 26.4557C34.8856 26.5984 34.8831 26.7411 34.8666 26.8811C34.6513 27.1078 34.3932 27.3292 34.1006 27.5571C34.5066 27.141 34.7113 26.56 34.655 25.9768Z" stroke="#66142E" stroke-width="0.5" stroke-miterlimit="10"/>
</g>
<g opacity="0.55">
<path d="M28.4714 8.86912L28.688 9.34802C28.2372 8.35181 27.0701 7.91165 26.0808 8.36613L1.98033 19.4414C1.38648 19.7142 1.00139 20.2597 0.904281 20.8634C0.906454 20.9596 0.916816 21.0494 0.93353 21.1333C0.783438 20.9476 0.694353 20.698 0.6875 20.3845C0.784441 19.7808 1.1697 19.2353 1.76355 18.9625L25.8642 7.88723C26.8535 7.43258 28.0206 7.87291 28.4714 8.86912Z" fill="white"/>
</g>
<g opacity="0.3">
<path d="M34.7586 30.6833C35.9749 32.9699 34.8581 34.8661 32.6144 35.3334C33.8225 35.0541 34.4807 33.7232 33.9627 32.5782L27.319 17.8935C27.1887 17.6052 26.9965 17.3613 26.7643 17.1727C26.0747 16.0909 26.7115 15.2085 27.7153 15.4582C27.8933 15.6281 28.0407 15.8343 28.1472 16.0696L34.7586 30.6832V30.6833Z" fill="#66142E"/>
</g>
<path d="M33.6406 35.265C33.344 35.4013 33.0177 35.5076 32.6655 35.5808C32.531 35.6088 32.3991 35.5226 32.3699 35.3873C32.3406 35.252 32.425 35.1181 32.5587 35.0873C33.0625 34.9709 33.4827 34.6355 33.7122 34.1672C33.9415 33.6991 33.9499 33.1582 33.7349 32.6833L27.0913 17.9986C26.759 17.2641 25.9784 16.8615 25.1929 17.0197L2.36686 21.7358C2.36436 21.7365 2.36151 21.737 2.35851 21.7375C1.78638 21.8539 1.27711 21.7614 0.924275 21.4771C0.616235 21.2288 0.447925 20.853 0.437562 20.3901C0.437228 20.3746 0.438231 20.3591 0.440738 20.3439C0.554895 19.6334 1.01085 19.0308 1.66036 18.7323L25.7608 7.65746C26.874 7.14588 28.1925 7.64247 28.7001 8.76434L35.3884 23.548C36.342 25.5832 35.6948 26.633 34.254 27.757C34.1501 27.8387 34.0008 27.8244 33.9131 27.7252C33.8255 27.6258 33.8292 27.475 33.9218 27.3802C34.2783 27.0145 34.4546 26.512 34.4053 26.0014C34.3874 25.8111 34.3381 25.626 34.2587 25.4508L27.5704 10.6673C27.1775 9.79896 26.1569 9.41456 25.2953 9.81041L4.71903 19.2662L25.9206 14.7007C26.9383 14.4962 27.9467 15.0163 28.3759 15.9652L34.984 30.5713C35.5775 31.691 35.6692 32.8139 35.2425 33.7336C34.9328 34.4009 34.3786 34.9259 33.6408 35.265H33.6406ZM2.26608 21.2407L25.0936 16.5241C26.1096 16.3196 27.1183 16.8398 27.5475 17.7887L34.1912 32.4735C34.4561 33.059 34.4585 33.722 34.2009 34.3069C34.4519 34.081 34.6502 33.8167 34.7882 33.5195C35.1524 32.7345 35.066 31.7951 34.5382 30.8028C34.5357 30.7981 34.5333 30.7932 34.531 30.7883L27.9196 16.1748C27.5873 15.4403 26.8069 15.0377 26.0219 15.1954L2.57595 20.2443C2.45093 20.2713 2.32558 20.1989 2.28547 20.0766C2.24535 19.9541 2.30318 19.8209 2.41951 19.7673L25.0876 9.35055C26.2007 8.83896 27.5193 9.33555 28.0269 10.4576L34.7152 25.2411C34.8176 25.4675 34.8813 25.707 34.9046 25.9529C34.9211 26.1246 34.9179 26.2956 34.896 26.463C35.4458 25.7599 35.5126 24.9963 34.9336 23.7606L28.2439 8.97389C27.8511 8.10554 26.8303 7.72113 25.9687 8.11716L1.86828 19.1922C1.37873 19.4173 1.03292 19.8682 0.939485 20.4017C0.95085 20.7034 1.05113 20.9323 1.2375 21.0826C1.47216 21.2717 1.83469 21.3285 2.25856 21.2424C2.26106 21.2419 2.26357 21.2412 2.26608 21.2407Z" fill="#66142E"/>
<path d="M25.8563 11.6575C25.8103 11.6787 25.7632 11.6997 25.7151 11.7206L11.2395 18.3727C11.1135 18.4307 10.9649 18.3746 10.9074 18.2475C10.8499 18.1205 10.9056 17.9708 11.0316 17.9128L25.5116 11.2587C26.7005 10.7391 26.8588 10.3328 26.8712 10.182C26.8867 9.99402 26.7107 9.8377 26.5604 9.73966C26.4443 9.66386 26.4109 9.50737 26.4861 9.3903C26.5613 9.27306 26.7166 9.23954 26.8327 9.31551C27.3136 9.62899 27.3906 9.98257 27.3707 10.224C27.3288 10.733 26.8195 11.2148 25.8563 11.6575Z" fill="#66142E"/>
<g opacity="0.3">
<path d="M28.5608 9.06602L35.16 23.6526C36.0685 25.5918 35.4593 26.4967 34.1003 27.5571C34.5063 27.141 34.711 26.56 34.6547 25.9768C34.6346 25.7639 34.5797 25.5512 34.4867 25.3458L27.7984 10.5624C27.7232 10.3961 27.6283 10.2453 27.5168 10.1123L27.5161 10.1107C27.0142 8.82884 27.4575 7.59579 28.5608 9.06602Z" fill="#66142E"/>
</g>
<g opacity="0.3">
<path d="M27.2397 19.3426L33.3542 32.8578C33.6517 33.5153 33.3652 34.2932 32.7159 34.5915C32.636 34.6282 32.5516 34.6569 32.4648 34.6762L32.4453 34.6816L10.719 39.045C10.6249 39.0642 10.5295 39.0728 10.4346 39.0721C18.9723 35.4959 25.7998 28.1928 27.2397 19.3428V19.3426Z" fill="#66142E"/>
</g>
<path d="M37.7466 21.1848L36.8276 20.9276C36.6093 20.8664 36.4786 20.6444 36.5264 20.4239C36.5279 20.4165 36.5303 20.4081 36.5323 20.4008L37.9969 15.0869C38.0596 14.8595 38.2934 14.7259 38.5196 14.7893L39.4385 15.0465C39.6647 15.1098 39.7965 15.3458 39.7339 15.5732L38.2692 20.8871C38.2065 21.1145 37.9727 21.2481 37.7466 21.1848Z" fill="#F7C714"/>
<path d="M38.0531 21.2001C37.9569 21.2444 37.8451 21.2562 37.7352 21.2254L36.8163 20.9681C36.5781 20.9014 36.4327 20.6585 36.4854 20.415C36.487 20.407 36.4895 20.3974 36.4919 20.3893L37.9564 15.0756C38.0252 14.8258 38.2828 14.6792 38.5305 14.7485L39.4494 15.0059C39.6971 15.0753 39.8427 15.3349 39.7739 15.5845L38.3092 20.8984C38.2709 21.0375 38.174 21.1445 38.053 21.2003L38.0531 21.2001ZM37.7576 21.1443C37.9611 21.2013 38.1723 21.0807 38.2288 20.876L39.6935 15.5621C39.75 15.3571 39.6304 15.144 39.427 15.0872L38.5081 14.8298C38.3047 14.7729 38.0934 14.8935 38.0369 15.0983L36.5725 20.4124C36.5706 20.419 36.5686 20.4262 36.5673 20.4328C36.524 20.6331 36.6431 20.8325 36.8387 20.8873L37.7576 21.1445V21.1443Z" fill="#66142E"/>
<path d="M37.2232 17.8834L36.5898 20.1818L38.3269 20.668L38.9602 18.3695L37.2232 17.8834Z" fill="#F89E1D"/>
<g opacity="0.55">
<path d="M37.918 15.3628L37.6104 16.4793L39.3474 16.9655L39.655 15.849L37.918 15.3628Z" fill="#FCE5E5"/>
</g>
<path d="M38.1392 21.3923C37.9949 21.4585 37.8338 21.4715 37.6792 21.4282L36.7604 21.171C36.5866 21.1225 36.442 21.0084 36.3533 20.8501C36.2645 20.6917 36.2423 20.5081 36.2906 20.3329L37.7551 15.0194C37.8547 14.6579 38.2276 14.4453 38.5864 14.5457L39.5052 14.8029C39.679 14.8514 39.8236 14.9655 39.9124 15.1238C40.0011 15.2822 40.0233 15.4658 39.975 15.6409L38.5106 20.9545C38.4623 21.1297 38.3493 21.2754 38.1922 21.3649C38.1748 21.3748 38.1571 21.3839 38.139 21.3922L38.1392 21.3923ZM38.3337 15.0421C38.2886 15.0628 38.2525 15.1028 38.2381 15.1546L36.7736 20.4682C36.7613 20.5134 36.7669 20.5605 36.7898 20.6013C36.8127 20.642 36.85 20.6714 36.8946 20.684L37.8134 20.9412C37.8582 20.9538 37.9053 20.9474 37.9456 20.925C37.9861 20.902 38.0152 20.8646 38.0277 20.8194L39.4922 15.5059C39.5045 15.4607 39.4989 15.4135 39.476 15.3728C39.4531 15.332 39.4158 15.3027 39.3712 15.2901L38.4524 15.0328C38.4114 15.0214 38.3698 15.0258 38.3339 15.0423L38.3337 15.0421Z" fill="#66142E"/>
<path d="M5.36789 29.3979C3.48054 28.5947 1.67292 28.5214 1.09411 29.1797C1.09411 29.1797 0.181524 29.865 0.335962 31.169C0.246542 32.1066 1.53519 33.3416 3.46533 34.163C4.94302 34.7918 6.3719 34.9732 7.20058 34.7066C7.20058 34.7066 8.56478 34.4866 8.49876 32.3769C8.61208 31.4981 7.28699 30.2147 5.36789 29.3979Z" fill="#F7C714"/>
<path d="M7.4615 34.6616C7.31442 34.7292 7.21163 34.7475 7.20779 34.7482C6.3415 35.0273 4.89908 34.8186 3.44964 34.2017C1.50396 33.3736 0.207785 32.1274 0.294531 31.1693C0.146445 29.9016 1.0022 29.1991 1.06605 29.1488C1.67361 28.4642 3.48825 28.5519 5.38462 29.359C7.30088 30.1744 8.65773 31.4742 8.54073 32.3821C8.5897 33.929 7.86181 34.4775 7.4615 34.6616ZM1.47003 28.9619C1.3293 29.0266 1.21313 29.1083 1.12589 29.2077L1.11954 29.2134C1.11068 29.2202 0.228176 29.9007 0.377934 31.1639V31.1728C0.290018 32.0953 1.56647 33.309 3.4819 34.1241C4.89206 34.7243 6.34685 34.937 7.18806 34.6665C7.20745 34.6626 8.52134 34.4246 8.45716 32.3781C8.56998 31.4996 7.2347 30.2379 5.35186 29.4366C3.79478 28.774 2.25224 28.6023 1.46969 28.9619H1.47003Z" fill="#66142E"/>
<path d="M4.76623 32.858L4.25879 34.5152L6.7582 34.996C6.7582 34.996 7.40972 33.6463 7.39869 33.3945C7.39869 33.3945 4.94122 33.3911 4.76623 32.858Z" fill="#F89E1D"/>
<g opacity="0.55">
<path d="M1.72267 30.9517L1.42383 32.9682L2.77298 33.8636L3.17746 32.2287L1.72267 30.9517Z" fill="#FCE5E5"/>
</g>
<g opacity="0.55">
<path d="M1.11234 30.1281C1.11234 30.1281 0.618272 30.6454 0.8989 31.5123C0.8989 31.5123 0.990159 32.4323 1.78591 32.9488C1.78591 32.9488 0.579997 31.9486 0.490243 31.8621C0.400655 31.7757 0.253906 30.2134 0.253906 30.2134L0.595541 29.7789L1.11234 30.1283V30.1281Z" fill="white"/>
</g>
<g opacity="0.55">
<path d="M3.16021 29.0677C3.16021 29.0677 2.35209 29.1112 1.78665 29.3659C1.47393 29.5067 1.33788 29.8724 1.49031 30.1815C1.69021 30.5868 2.15068 31.2331 3.21136 32.0548L1.42847 30.7943C1.42847 30.7943 0.802531 29.689 0.972679 29.2712C0.972679 29.2712 2.10572 28.5005 3.16021 29.0677Z" fill="white"/>
</g>
<path d="M6.8539 31.8953C7.0415 31.4447 6.15657 30.6409 4.87737 30.1C3.59817 29.5591 2.4091 29.486 2.2215 29.9366C2.03391 30.3872 2.91883 31.191 4.19803 31.7319C5.47724 32.2728 6.66631 32.3459 6.8539 31.8953Z" fill="#F9DD6A"/>
<path d="M6.65519 32.1364C6.20324 32.3441 5.23399 32.2144 4.18251 31.7697C2.8621 31.2114 1.98395 30.3987 2.18352 29.9192C2.38325 29.4398 3.57379 29.5018 4.8942 30.0601C6.2146 30.6183 7.09276 31.4311 6.89319 31.9105C6.85258 32.008 6.77085 32.0833 6.65519 32.1364ZM2.45445 29.7703C2.35951 29.814 2.29283 29.8744 2.26057 29.9519C2.08524 30.3732 2.98011 31.1702 4.21477 31.6922C5.44944 32.214 6.64064 32.2989 6.81597 31.878C6.9913 31.4567 6.09644 30.6598 4.86177 30.1377C3.85425 29.7119 2.87581 29.5768 2.45445 29.7703Z" fill="#66142E"/>
<path d="M6.69268 32.2172C6.16819 32.4583 5.09148 32.2489 4.14897 31.8505C2.96863 31.3514 1.85046 30.4932 2.10351 29.8856C2.35656 29.2778 3.7475 29.4804 4.92785 29.9794C6.10819 30.4785 7.22636 31.3368 6.97331 31.9444C6.92233 32.0668 6.82505 32.1564 6.69268 32.2172ZM2.49044 29.8495C2.41539 29.884 2.36408 29.9297 2.34068 29.9858C2.20363 30.3151 2.95342 31.0637 4.24842 31.6113C5.50615 32.1431 6.59891 32.1728 6.73597 31.8441C6.87302 31.5148 6.12323 30.7662 4.82823 30.2186C3.78511 29.7776 2.85531 29.6819 2.49044 29.8497V29.8495Z" fill="#66142E"/>
<path d="M4.99867 30.4985C5.2203 30.5888 5.38193 30.7687 5.38995 31.0177L5.67158 31.1346L5.57414 31.422L5.33162 31.3195C5.2681 31.4799 5.15696 31.6169 5.06988 31.6758L4.74445 31.4526C4.83889 31.3852 4.95137 31.2707 5.00636 31.1295C5.06436 30.9808 5.01673 30.8715 4.89956 30.823C4.78858 30.7768 4.69765 30.8161 4.54873 30.952C4.34048 31.1464 4.10163 31.2336 3.83805 31.1198C3.59169 31.0133 3.46215 30.7974 3.51046 30.5509L3.24805 30.4401L3.38761 30.1871L3.62746 30.2866C3.69231 30.1909 3.76451 30.1274 3.8297 30.0835L4.10481 30.2726C4.04664 30.3105 3.95288 30.3833 3.88886 30.512C3.82334 30.6439 3.86864 30.7416 3.96023 30.7802C4.07272 30.8277 4.15913 30.7702 4.32677 30.6301C4.54673 30.4421 4.75381 30.3988 4.99867 30.4985Z" fill="#66142E"/>
<mask id="mask0_1155_8725" style="mask-type:luminance" maskUnits="userSpaceOnUse" x="0" y="28" width="9" height="6">
<path d="M8.44871 32.5716C8.81472 31.6979 7.43582 30.2767 5.36884 29.3971C3.30185 28.5176 1.32952 28.5128 0.963507 29.3865C0.597494 30.2602 1.9764 31.6815 4.04338 32.561C6.11036 33.4406 8.0827 33.4453 8.44871 32.5716Z" fill="white"/>
</mask>
<g mask="url(#mask0_1155_8725)">
<g opacity="0.27">
<path d="M7.63536 30.2602L1.274 32.4935C1.12825 31.8645 1.15834 31.1887 1.39618 30.5405L6.33668 28.8063C6.91431 29.1597 7.35874 29.6708 7.63536 30.26V30.2602Z" fill="#FCE5E5"/>
</g>
<g opacity="0.27">
<path d="M7.95804 31.5443L1.94517 33.8349C1.69145 33.5467 1.58565 33.3737 1.44141 33.0209L7.83017 30.7785C7.9348 31.1437 7.98043 31.1572 7.9582 31.5443H7.95804Z" fill="#FCE5E5"/>
</g>
</g>
<path d="M8.04793 33.2269C7.74757 33.3649 7.35429 33.4368 6.88329 33.4356C6.02402 33.4336 4.98658 33.1922 3.96185 32.7563C1.7551 31.8172 0.353458 30.3013 0.77064 29.3052C1.18799 28.309 3.24348 28.2646 5.45023 29.2037C6.4748 29.6396 7.37 30.2208 7.97071 30.84C8.6152 31.5042 8.85337 32.1487 8.64127 32.6545C8.53765 32.902 8.33524 33.0949 8.04776 33.2269H8.04793ZM1.5338 29.1237C1.34577 29.2101 1.21607 29.3266 1.1564 29.4691C0.881454 30.1254 2.03288 31.4772 4.12481 32.3675C5.0994 32.7822 6.07951 33.0116 6.88429 33.0137C7.61587 33.0153 8.11562 32.8247 8.25585 32.4905C8.39591 32.1561 8.18297 31.662 7.67153 31.1349C7.10876 30.555 6.2622 30.0072 5.28744 29.5923C3.64946 28.8952 2.21239 28.812 1.5338 29.1238V29.1237Z" fill="#66142E"/>
<path d="M7.55775 34.892C7.42922 34.951 7.32776 34.9793 7.27896 34.9909C6.35116 35.2838 4.84824 35.0711 3.352 34.4345C2.17099 33.932 1.27294 33.3462 0.682938 32.6936C-0.244858 31.6674 -0.224968 30.0975 0.728233 29.1194C0.802944 29.043 0.862112 28.9909 0.892532 28.9653C1.59135 28.2061 3.47117 28.2706 5.48187 29.1262C7.5148 29.9913 8.89955 31.359 8.79191 32.3895C8.83704 34.0643 8.02156 34.6788 7.55742 34.892H7.55775ZM7.15243 34.4158C7.20559 34.4061 8.26325 34.1832 8.20692 32.3862C8.20642 32.3703 8.20726 32.3545 8.20926 32.3388C8.29233 31.695 7.1862 30.4915 5.25472 29.6694C3.36688 28.8659 1.73926 28.8914 1.31372 29.3751C1.30186 29.3886 1.28882 29.4009 1.27478 29.412C1.27478 29.412 1.2223 29.4543 1.14575 29.5326C0.409998 30.2875 0.396794 31.5015 1.1155 32.2966C1.64817 32.8856 2.47719 33.4223 3.57965 33.8914C4.93799 34.4694 6.32459 34.6793 7.11199 34.4258C7.12519 34.4216 7.13873 34.4182 7.15243 34.4158Z" fill="#66142E"/>
<path d="M15.0039 0.841782C15.9515 0.800892 16.8662 1.04888 17.6465 1.52049V1.51952C17.8681 1.65422 18.078 1.80691 18.2754 1.97459C18.681 2.31969 19.0302 2.73308 19.3037 3.20311L19.3047 3.20409C19.557 3.63423 19.7457 4.11408 19.8564 4.63182C20.4115 7.22969 18.7713 9.78392 16.2021 10.3418H16.2012C15.4449 10.5059 14.6934 10.4788 13.9941 10.2939C13.4751 10.1567 12.9838 9.93145 12.541 9.63182L12.3838 9.52049C12.2285 9.40582 12.0799 9.28061 11.9385 9.14647H11.9375C11.3622 8.60325 10.9157 7.91191 10.6631 7.11327L10.5674 6.76366L10.543 6.65623C9.98797 4.05767 11.6281 1.50388 14.1973 0.946274C14.4679 0.887641 14.7368 0.853732 15.0029 0.842758L15.0039 0.841782Z" fill="#F7C714" stroke="#66142E"/>
<path d="M15.9721 9.26072C13.9935 9.69023 12.0372 8.41723 11.611 6.42311C11.1849 4.42899 12.448 2.45741 14.4266 2.02789C16.4052 1.59837 18.3615 2.87137 18.7876 4.86549C19.2138 6.85961 17.9507 8.8312 15.9721 9.26072Z" fill="#F9DD6A"/>
<path d="M14.4795 2.27266C16.3212 1.87286 18.1454 3.0577 18.543 4.91817C18.9405 6.77906 17.7612 8.61688 15.9189 9.0168C14.0774 9.41645 12.2532 8.23146 11.8555 6.37129C11.4578 4.51035 12.6372 2.6727 14.4795 2.27266Z" stroke="#66142E" stroke-width="0.5" stroke-miterlimit="10"/>
<path d="M16.6507 6.15899C16.7519 6.63335 16.5688 7.11312 16.0358 7.41667L16.1587 7.99266L15.4307 8.15063L15.327 7.66478C14.9213 7.74252 14.511 7.72089 14.2879 7.65261L14.3091 6.91301C14.5611 6.98017 14.9348 7.02186 15.2948 6.94388C15.6825 6.8596 15.8522 6.65341 15.7996 6.408C15.7498 6.17409 15.5438 6.07877 15.0609 6.01409C14.3946 5.93139 13.9163 5.67291 13.7996 5.12576C13.6891 4.60836 13.9456 4.11439 14.5102 3.84217L14.3867 3.2646L15.1148 3.10663L15.2295 3.64386C15.5286 3.60668 15.7712 3.62921 15.9618 3.67L15.9208 4.39743C15.756 4.35709 15.4669 4.30909 15.102 4.38842C14.7364 4.46774 14.5949 4.67326 14.6367 4.86909C14.6879 5.10864 14.9213 5.1688 15.4419 5.24858C16.1536 5.35089 16.5375 5.62987 16.6507 6.15967V6.15899Z" fill="#66142E"/>
<path d="M5.30176 11.5779C5.99136 11.5482 6.6576 11.7281 7.22559 12.0711V12.0721C7.38718 12.1703 7.54065 12.2809 7.68457 12.4031C7.97994 12.6545 8.23441 12.9554 8.43359 13.2977L8.43457 13.2986C8.6183 13.6119 8.75534 13.9616 8.83594 14.3387C9.23996 16.2306 8.04565 18.0907 6.1748 18.4969C5.62404 18.6165 5.07662 18.5963 4.56738 18.4617C4.18927 18.3618 3.83137 18.1976 3.50879 17.9793L3.28223 17.8123L3.06934 17.6258C2.65046 17.2303 2.32559 16.7268 2.1416 16.1453L2.07129 15.8904L2.05371 15.8123C1.6495 13.9198 2.8439 12.0602 4.71484 11.6541C4.81352 11.6327 4.91184 11.6159 5.00977 11.6033L5.30176 11.5779Z" fill="#F7C714" stroke="#66142E" stroke-width="0.75"/>
<path d="M6.00901 17.7165C4.564 18.0301 3.13532 17.1005 2.82407 15.6441C2.51283 14.1878 3.43529 12.7479 4.8803 12.4342C6.32531 12.1206 7.754 13.0503 8.06524 14.5066C8.37648 15.9629 7.45402 17.4028 6.00901 17.7165Z" fill="#F9DD6A"/>
<path d="M4.93359 12.679C6.24165 12.3952 7.53764 13.2363 7.82031 14.5589C8.1031 15.8821 7.26478 17.1878 5.95605 17.472C4.64801 17.7559 3.35112 16.9147 3.06836 15.5921C2.78556 14.2689 3.62481 12.9631 4.93359 12.679Z" stroke="#66142E" stroke-width="0.5" stroke-miterlimit="10"/>
<path d="M6.50485 15.4512C6.57883 15.7977 6.44509 16.1481 6.05579 16.3697L6.1456 16.7904L5.61391 16.9058L5.53814 16.5509C5.24192 16.6077 4.94227 16.5919 4.7793 16.542L4.79481 16.0019C4.97885 16.051 5.25172 16.0814 5.51462 16.0245C5.79778 15.9629 5.92172 15.8123 5.88335 15.6331C5.84693 15.4623 5.69654 15.3927 5.34381 15.3454C4.85719 15.285 4.5079 15.0963 4.42266 14.6967C4.34199 14.3188 4.52929 13.958 4.94162 13.7592L4.85148 13.3374L5.38317 13.2221L5.46694 13.6144C5.68543 13.5873 5.86261 13.6037 6.00174 13.6335L5.97185 14.1648C5.8515 14.1353 5.64036 14.1002 5.37386 14.1582C5.10687 14.2161 5.0035 14.3662 5.03404 14.5092C5.07144 14.6842 5.24192 14.7281 5.62207 14.7864C6.14185 14.8611 6.42222 15.0648 6.50485 15.4517V15.4512Z" fill="#66142E"/>
</svg>
