<svg width="50" height="50" viewBox="0 0 50 50" fill="none" xmlns="http://www.w3.org/2000/svg">
<path d="M25.0002 0.000225067C38.8072 0.000225067 50.0001 11.1932 50.0001 25.0002C50.0001 38.8072 38.8072 50.0001 25.0002 50.0001C11.1932 50.0001 0.000244141 38.8072 0.000244141 25.0002" fill="#FFDA44"/>
<path d="M24.4567 11.1112H45.789C44.3844 9.01287 42.6702 7.13983 40.7122 5.55565H24.4567V11.1112Z" fill="#D80027"/>
<path d="M24.4567 22.2223H49.8458C49.6327 20.296 49.201 18.4359 48.5757 16.6669H24.4567V22.2223Z" fill="#D80027"/>
<path d="M1.42466 33.3334H48.5754C49.2007 31.5644 49.6326 29.7041 49.8457 27.7778H0.154541C0.367431 29.7042 0.799266 31.5645 1.42466 33.3334Z" fill="#D80027"/>
<path d="M9.28795 44.4444H40.7121C42.67 42.8604 44.3843 40.9871 45.789 38.8889H4.2113C5.61599 40.9871 7.33005 42.8603 9.28795 44.4444Z" fill="#D80027"/>
<path d="M25.0001 0.000225067C11.1929 0.000225067 -9.76554e-05 11.1932 6.39011e-10 25.0004C5.70565 25.0002 11.1929 25.0004 25 25.0004L25.0001 0.000225067Z" fill="#4A1F63"/>
<path d="M20.6523 13.0435V15.2174H19.5654V13.0435H17.3914V15.2174H16.3045V10.8696H11.9567V15.2174H10.8697V13.0435H8.69584V15.2174H7.60883V13.0435H5.43481V19.5652H22.8262V13.0435H20.6523Z" fill="#F0F0F0"/>
</svg>
