<svg width="50" height="50" viewBox="0 0 50 50" fill="none" xmlns="http://www.w3.org/2000/svg">
<path d="M25.0002 49.9965C38.8053 49.9965 49.9966 38.8052 49.9966 25.0002C49.9966 11.1951 38.8053 0.0038147 25.0002 0.0038147C11.1951 0.0038147 0.00390625 11.1951 0.00390625 25.0002C0.00390625 38.8052 11.1951 49.9965 25.0002 49.9965Z" fill="#F0F0F0"/>
<path d="M3.35259 12.5018C2.22435 14.4558 1.3921 16.4986 0.837891 18.5794L42.6413 42.7148C44.1663 41.1943 45.5194 39.452 46.6474 37.4982L3.35259 12.5018Z" fill="black"/>
<path d="M37.4983 3.35251C27.4965 -2.42193 15.1642 -0.497379 7.35864 7.28521L49.1621 31.4204C51.9993 20.7696 47.4998 9.12705 37.4983 3.35251Z" fill="#FFDA44"/>
<path d="M12.5019 46.6475C22.5035 52.4219 34.8361 50.4974 42.6414 42.7149L0.837893 18.5794C-1.99918 29.2305 2.50013 40.873 12.5019 46.6475Z" fill="#FFDA44"/>
<path d="M32.0642 22.283C32.0642 26.1844 28.9015 29.3472 25 29.3472C21.0986 29.3472 17.9358 26.1845 17.9358 22.283C17.9358 21.0666 18.2433 19.9219 18.785 18.9226C17.252 20.4903 16.3056 22.6341 16.3056 25C16.3056 29.8017 20.1982 33.6944 25 33.6944C29.8019 33.6944 33.6945 29.8018 33.6945 25C33.6945 22.6341 32.7481 20.4903 31.2151 18.9226C31.7567 19.9221 32.0642 21.0666 32.0642 22.283Z" fill="#D80027"/>
<path d="M23.37 14.1321H26.6304V30.4342H23.37V14.1321Z" fill="#D80027"/>
<path d="M30.434 17.3925H19.5661C19.5661 18.1428 20.2197 18.751 20.9699 18.751H20.9246C20.9246 19.5013 21.5329 20.1095 22.2832 20.1095C22.2832 20.8598 22.8915 21.468 23.6417 21.468H26.3586C27.1089 21.468 27.7172 20.8598 27.7172 20.1095C28.4675 20.1095 29.0757 19.5013 29.0757 18.751H29.0305C29.7805 18.7509 30.434 18.1429 30.434 17.3925Z" fill="#D80027"/>
<path d="M17.3926 31.5209H32.6078V34.7813H17.3926V31.5209Z" fill="#D80027"/>
<path d="M28.2606 32.6077H34.7813V35.8682H28.2606V32.6077Z" fill="#D80027"/>
<path d="M15.2191 32.6077H21.7398V35.8682H15.2191V32.6077Z" fill="#D80027"/>
</svg>
