<svg width="50" height="50" viewBox="0 0 50 50" fill="none" xmlns="http://www.w3.org/2000/svg">
<path d="M25 50C38.8071 50 50 38.8071 50 25C50 11.1929 38.8071 0 25 0C11.1929 0 0 11.1929 0 25C0 38.8071 11.1929 50 25 50Z" fill="#F0F0F0"/>
<path d="M46.9603 13.0435C43.7298 7.12266 38.1748 2.65303 31.5218 0.859863L30.4349 13.0435H46.9603Z" fill="#0052B4"/>
<path d="M3.03973 13.0435H19.5651L18.4782 0.859863C11.8252 2.65303 6.2703 7.12275 3.03973 13.0435Z" fill="#0052B4"/>
<path d="M30.4348 25V36.9565H46.9601C48.8981 33.4047 50 29.3311 50 25H30.4348Z" fill="#6DA544"/>
<path d="M19.5652 25H0C0 29.3311 1.10186 33.4047 3.03975 36.9565H19.5651V25H19.5652Z" fill="#6DA544"/>
<path d="M3.03973 36.9565C6.2703 42.8773 11.8252 47.347 18.4782 49.1401L19.5651 38.485L3.03973 36.9565Z" fill="#FFDA44"/>
<path d="M31.5218 49.1401C38.1748 47.347 43.7298 42.8773 46.9603 36.9565L30.4349 38.4848L31.5218 49.1401Z" fill="#FFDA44"/>
<path d="M30.4348 38.4848L46.9602 36.9565H30.4348V38.4848Z" fill="#FFDA44"/>
<path d="M19.5652 36.9565H3.03973L19.5652 38.4848V36.9565Z" fill="#FFDA44"/>
<path d="M25 0C22.7434 0 20.5577 0.300781 18.4782 0.86123V49.1389C20.5577 49.6992 22.7434 50 25 50C27.2565 50 29.4423 49.6992 31.5218 49.1388V0.86123C29.4423 0.300781 27.2565 0 25 0V0Z" fill="#D80027"/>
<path d="M13.4471 5.43475L14.1215 7.51063H16.3044L14.5386 8.79364L15.2131 10.8695L13.4471 9.58661L11.6811 10.8695L12.3558 8.79364L10.59 7.51063H12.7727L13.4471 5.43475Z" fill="#FFDA44"/>
</svg>
