<svg width="50" height="50" viewBox="0 0 50 50" fill="none" xmlns="http://www.w3.org/2000/svg">
<path d="M25 50C38.8071 50 50 38.8071 50 25C50 11.1929 38.8071 0 25 0C11.1929 0 0 11.1929 0 25C0 38.8071 11.1929 50 25 50Z" fill="#FFDA44"/>
<path d="M25 50C33.2031 50 40.4833 46.049 45.0419 39.9464H4.9581C9.51669 46.049 16.7969 50 25 50Z" fill="#0052B4"/>
<path d="M50 25C50 11.193 38.807 0 25 0C11.193 0 0 11.193 0 25C0 27.9563 0.514551 30.7922 1.45664 33.4247H48.5433C49.4855 30.7922 50 27.9563 50 25Z" fill="#0052B4"/>
<path d="M17.1115 16.0334L18.4604 20.1849H22.8261L19.2943 22.7512L20.6432 26.9029L17.1115 24.3369L13.5798 26.9029L14.9289 22.7512L11.3972 20.1849H15.7626L17.1115 16.0334Z" fill="#F0F0F0"/>
<path d="M9.61464 11.6855L10.424 14.1766H13.0435L10.9244 15.7162L11.7338 18.2073L9.61464 16.6677L7.4956 18.2073L8.30507 15.7162L6.18613 14.1766H8.80546L9.61464 11.6855Z" fill="#F0F0F0"/>
</svg>
