<svg width="50" height="50" viewBox="0 0 50 50" fill="none" xmlns="http://www.w3.org/2000/svg">
<path d="M25 50C38.8071 50 50 38.8071 50 25C50 11.1929 38.8071 0 25 0C11.1929 0 0 11.1929 0 25C0 38.8071 11.1929 50 25 50Z" fill="#F0F0F0"/>
<path d="M15.2174 16.3044H48.4449C44.9127 6.78437 35.749 0 25 0C18.0963 0 11.847 2.79873 7.32315 7.32314L15.2174 16.3044Z" fill="#6DA544"/>
<path d="M15.2174 33.6956H48.4449C44.9127 43.2156 35.749 50 25 50C18.0963 50 11.847 47.2012 7.32315 42.6768L15.2174 33.6956Z" fill="#D80027"/>
<path d="M7.32225 7.32227C-2.44083 17.0854 -2.44083 32.9145 7.32225 42.6777C11.3567 38.6433 15.2369 34.7631 25 25L7.32225 7.32227Z" fill="#0052B4"/>
<path d="M29.3478 20.6521V26.0869C29.3478 29.415 33.6957 30.4348 33.6957 30.4348C33.6957 30.4348 38.0435 29.415 38.0435 26.0869V20.6521H29.3478Z" fill="#DEDDE0"/>
<path d="M32.6087 25.1086H34.7826V28.2608H32.6087V25.1086Z" fill="#786145"/>
<path d="M35.8695 23.9131C35.8695 22.7124 34.8963 21.7391 33.6956 21.7391C32.4949 21.7391 31.5217 22.7124 31.5217 23.9131C30.9214 23.9131 30.4348 24.3997 30.4348 25C30.4348 25.6003 30.9214 26.0869 31.5217 26.0869H35.8695C36.4698 26.0869 36.9564 25.6003 36.9564 25C36.9564 24.3997 36.4699 23.9131 35.8695 23.9131Z" fill="#6DA544"/>
</svg>
