<svg width="50" height="50" viewBox="0 0 50 50" fill="none" xmlns="http://www.w3.org/2000/svg">
<path d="M25 50C38.8071 50 50 38.8071 50 25C50 11.1929 38.8071 0 25 0C11.1929 0 0 11.1929 0 25C0 38.8071 11.1929 50 25 50Z" fill="#F9F9F9"/>
<path d="M25 50.0001C35.749 50.0001 44.9127 43.2157 48.4449 33.6957H1.55487C5.08729 43.2157 14.2508 50.0001 25 50.0001Z" fill="#D80027"/>
<path d="M34.7826 20.6522V17.3914H35.8695V15.2174H33.6956V16.3044H31.5218V15.2174H29.3479V17.3914H30.4348V20.6522H28.2608V13.0437H29.3479V10.8699H27.1739V11.9566H26.0869V10.8699H23.9131V11.9566H22.8261V10.8699H20.6521V13.0437H21.7392V20.6522H19.5652V17.3914H20.6521V15.2174H18.4782V16.3044H16.3044V15.2174H14.1305V17.3914H15.2174V20.6522H13.0435V29.3479H36.9565V20.6522H34.7826Z" fill="#D80027"/>
<path d="M25 28.2609C23.1991 28.2609 21.7392 29.7208 21.7392 31.5217C21.7392 32.9412 22.6468 34.1487 23.9131 34.5963V39.1305H20.6523V43.4783H26.087V34.5964C27.3533 34.1488 28.2609 32.9414 28.2609 31.5218C28.2608 29.7209 26.8009 28.2609 25 28.2609ZM25 32.6087C24.3997 32.6087 23.9131 32.122 23.9131 31.5218C23.9131 30.9215 24.3997 30.4349 25 30.4349C25.6003 30.4349 26.0869 30.9215 26.0869 31.5218C26.0869 32.122 25.6003 32.6087 25 32.6087Z" fill="#FFDA44"/>
</svg>
