<svg width="50" height="50" viewBox="0 0 50 50" fill="none" xmlns="http://www.w3.org/2000/svg">
<path d="M25 50C38.8071 50 50 38.8071 50 25C50 11.1929 38.8071 0 25 0C11.1929 0 0 11.1929 0 25C0 38.8071 11.1929 50 25 50Z" fill="#F0F0F0"/>
<path d="M25 18.4782H49.1388C48.5119 16.1526 47.5592 13.9611 46.3307 11.9564H25V18.4782Z" fill="#338AF3"/>
<path d="M9.43779 44.5652H40.5621C42.8437 42.748 44.8003 40.5408 46.3306 38.0435H3.66933C5.19971 40.5407 7.15635 42.748 9.43779 44.5652Z" fill="#338AF3"/>
<path d="M8.6956 6.04871C6.73017 7.74119 5.03105 9.73425 3.66933 11.9565H8.6956V6.04871Z" fill="#338AF3"/>
<path d="M25 25C25 22.4536 25 20.3224 25 18.4783H15.2174V25H8.69561V18.4783H0.86123C0.300781 20.5578 0 22.7435 0 25C0 27.2566 0.300781 29.4423 0.86123 31.5218H49.1389C49.6992 29.4423 50 27.2566 50 25H25Z" fill="#338AF3"/>
<path d="M25 0C21.5284 0 18.2223 0.708301 15.2174 1.98711V11.9565H25C25 9.67998 25 7.74375 25 5.43477H40.5622C36.2916 2.03359 30.8837 0 25 0Z" fill="#338AF3"/>
</svg>
