<svg width="50" height="50" viewBox="0 0 50 50" fill="none" xmlns="http://www.w3.org/2000/svg">
<path d="M25 50C38.8071 50 50 38.8071 50 25C50 11.1929 38.8071 0 25 0C11.1929 0 0 11.1929 0 25C0 38.8071 11.1929 50 25 50Z" fill="#FFDA44"/>
<path d="M10.9095 4.34785C14.9217 1.60508 19.7731 0 25 0C30.227 0 35.0783 1.60508 39.0905 4.34785L25 5.43477L10.9095 4.34785Z" fill="#A2001D"/>
<path d="M25 25L23.4045 23.4045L22.9809 24.1634L25 25Z" fill="#0052B4"/>
<path d="M7.32225 7.32227C-2.44083 17.0854 -2.44083 32.9145 7.32225 42.6777C11.3567 38.6433 15.2369 34.7631 25 25L7.32225 7.32227Z" fill="#496E2D"/>
<path d="M42.6777 7.32227C52.4408 17.0854 52.4408 32.9145 42.6777 42.6777C38.6433 38.6433 34.7631 34.7631 25 25L42.6777 7.32227Z" fill="#496E2D"/>
<path d="M25 33.6957C29.8024 33.6957 33.6956 29.8025 33.6956 25C33.6956 20.1976 29.8024 16.3044 25 16.3044C20.1975 16.3044 16.3044 20.1976 16.3044 25C16.3044 29.8025 20.1975 33.6957 25 33.6957Z" fill="#A2001D"/>
<path d="M24.9999 16.3044L26.949 22.3034H33.2574L28.1541 26.0117L30.1032 32.0109L24.9999 28.3033L19.8964 32.0109L21.8459 26.0117L16.7426 22.3034H23.0506L24.9999 16.3044Z" fill="#FFDA44"/>
<path d="M25 0C24.9972 0 24.9944 0.000195313 24.9916 0.000195313H25.0083C25.0056 0.000195313 25.0028 0 25 0Z" fill="#FFDA44"/>
<path d="M25.0084 0H24.9917C18.092 0.00224609 11.8458 2.79941 7.32364 7.32109H42.6765C38.1542 2.79941 31.908 0.00224609 25.0084 0Z" fill="#A2001D"/>
<path d="M7.32373 42.679C11.8478 47.2023 18.0972 50 25 50C31.9028 50 38.1523 47.2023 42.6763 42.679H7.32373Z" fill="#A2001D"/>
<path d="M25 2.71741L25.4048 3.96292H26.7144L25.6549 4.73274L26.0597 5.97825L25 5.20852L23.9405 5.97825L24.3453 4.73274L23.2856 3.96292H24.5952L25 2.71741Z" fill="#FFDA44"/>
<path d="M18.9378 2.71741L19.3426 3.96292H20.6522L19.5927 4.73274L19.9975 5.97825L18.9378 5.20852L17.8784 5.97825L18.2831 4.73274L17.2234 3.96292H18.533L18.9378 2.71741Z" fill="#FFDA44"/>
<path d="M31.0622 2.71741L31.467 3.96292H32.7765L31.7171 4.73274L32.1219 5.97825L31.0622 5.20852L30.0027 5.97825L30.4075 4.73274L29.3478 3.96292H30.6574L31.0622 2.71741Z" fill="#FFDA44"/>
<path d="M25 44.0219L25.4048 45.2674H26.7144L25.6549 46.0372L26.0597 47.2827L25 46.5129L23.9405 47.2827L24.3453 46.0372L23.2856 45.2674H24.5952L25 44.0219Z" fill="#FFDA44"/>
<path d="M18.9378 44.0219L19.3426 45.2674H20.6522L19.5927 46.0372L19.9975 47.2827L18.9378 46.5129L17.8784 47.2827L18.2831 46.0372L17.2234 45.2674H18.533L18.9378 44.0219Z" fill="#FFDA44"/>
<path d="M31.0622 44.0219L31.467 45.2674H32.7765L31.7171 46.0372L32.1219 47.2827L31.0622 46.5129L30.0027 47.2827L30.4075 46.0372L29.3478 45.2674H30.6574L31.0622 44.0219Z" fill="#FFDA44"/>
<path d="M7.61748 24.5871C8.25957 25.6017 7.95781 26.9445 6.94326 27.5867C5.92881 28.2289 4.58584 27.9271 3.94365 26.9126C2.78106 25.0759 3.45518 22.0762 3.45518 22.0762C3.45518 22.0762 6.45479 22.7503 7.61748 24.5871Z" fill="#FFDA44"/>
<path d="M6.36191 27.7554C6.96219 27.7554 7.44882 27.2687 7.44882 26.6685C7.44882 26.0682 6.96219 25.5815 6.36191 25.5815C5.76162 25.5815 5.27499 26.0682 5.27499 26.6685C5.27499 27.2687 5.76162 27.7554 6.36191 27.7554Z" fill="#A2001D"/>
</svg>
