<svg width="50" height="50" viewBox="0 0 50 50" fill="none" xmlns="http://www.w3.org/2000/svg">
<path d="M25 50C38.8071 50 50 38.8071 50 25C50 11.1929 38.8071 0 25 0C11.1929 0 0 11.1929 0 25C0 38.8071 11.1929 50 25 50Z" fill="#D80027"/>
<path d="M27.5811 18.9129C27.0129 21.2761 26.0034 20.8254 25.508 22.8864C22.5898 22.1847 20.7925 19.2502 21.4942 16.3317C22.1955 13.4134 25.1304 11.6162 28.0487 12.3178C27.0578 16.4396 28.0894 16.7994 27.5811 18.9129Z" fill="#F0F0F0"/>
<path d="M20.0085 20.6641C22.0805 21.9346 21.3399 22.7556 23.1467 23.8637C21.5775 26.4224 18.2314 27.2247 15.6726 25.6556C13.1139 24.0866 12.3114 20.7402 13.8806 18.1815C17.4944 20.3975 18.1551 19.5277 20.0085 20.6641Z" fill="#F0F0F0"/>
<path d="M19.3338 28.4075C21.1825 26.8296 21.7342 27.7876 23.3464 26.4116C25.2951 28.6945 25.024 32.125 22.7412 34.0737C20.4582 36.0225 17.0278 35.7511 15.0793 33.4684C18.3033 30.7161 17.6802 29.8187 19.3338 28.4075Z" fill="#F0F0F0"/>
<path d="M26.4896 31.442C25.56 29.1962 26.6416 28.9673 25.8311 27.009C28.6045 25.8612 31.7834 27.179 32.9312 29.9523C34.079 32.7257 32.761 35.9045 29.9877 37.0523C28.3669 33.1354 27.3211 33.4507 26.4896 31.442Z" fill="#F0F0F0"/>
<path d="M31.5869 25.5739C29.1638 25.764 29.2801 24.6644 27.1673 24.8302C26.9326 21.8381 29.1684 19.2218 32.1607 18.9869C35.1528 18.7527 37.7691 20.9882 38.0036 23.9806C33.7774 24.3119 33.754 25.404 31.5869 25.5739Z" fill="#F0F0F0"/>
</svg>
