<svg width="50" height="50" viewBox="0 0 50 50" fill="none" xmlns="http://www.w3.org/2000/svg">
<path d="M0 25C0 11.193 11.193 0 25 0C38.807 0 50 11.193 50 25" fill="#D80027"/>
<path d="M33.6956 23.2498L30.1424 24.9209L32.0346 28.3623L28.1763 27.6241L27.6874 31.5217L25 28.655L22.3125 31.5217L21.8237 27.6241L17.9654 28.3621L19.8575 24.9209L16.3044 23.2498L19.8575 21.5783L17.9654 18.1374L21.8236 18.8752L22.3126 14.9778L25 17.8443L27.6875 14.9778L28.1763 18.8752L32.0347 18.1374L30.1427 21.5786L33.6956 23.2498Z" fill="#FFDA44"/>
<path d="M31.5218 8.1522H26.6305C26.6305 7.2519 25.9004 6.52173 25 6.52173C24.0996 6.52173 23.3695 7.25181 23.3695 8.1522H18.4782C18.4782 9.05259 19.2626 9.78267 20.163 9.78267H20.1086C20.1086 10.6831 20.8385 11.4131 21.7391 11.4131C21.7391 12.3135 22.4689 13.0436 23.3695 13.0436H26.6304C27.5307 13.0436 28.2608 12.3136 28.2608 11.4131C29.1611 11.4131 29.8913 10.6832 29.8913 9.78267H29.8369C30.7374 9.78267 31.5218 9.05269 31.5218 8.1522Z" fill="#FFDA44"/>
<path d="M50 25C50 38.807 38.807 50 25 50C11.193 50 0 38.807 0 25H50Z" fill="#F0F0F0"/>
<path d="M25 50.0001C32.8146 50.0001 39.7906 46.4138 44.3752 40.7981C43.5506 40.2359 43.1054 39.3271 41.6663 39.3271C39.583 39.3271 39.583 41.232 37.4998 41.232C35.4166 41.232 35.4165 39.3271 33.3333 39.3271C31.25 39.3271 31.25 41.232 29.1666 41.232C27.0832 41.232 27.0831 39.3271 24.9996 39.3271C22.9163 39.3271 22.9163 41.232 20.8331 41.232C18.7501 41.232 18.7501 39.3271 16.6668 39.3271C14.5833 39.3271 14.5833 41.232 12.4998 41.232C10.4163 41.232 10.4163 39.3271 8.33281 39.3271C6.89395 39.3271 6.44873 40.2357 5.62451 40.7979C10.2089 46.4138 17.1853 50.0001 25 50.0001Z" fill="#0052B4"/>
<path d="M45.833 28.1886C43.7497 28.1886 43.7497 26.2837 41.6663 26.2837C39.583 26.2837 39.583 28.1886 37.4998 28.1886C35.4166 28.1886 35.4165 26.2837 33.3333 26.2837C31.25 26.2837 31.25 28.1886 29.1666 28.1886C27.0832 28.1886 27.0831 26.2837 24.9996 26.2837C22.9163 26.2837 22.9163 28.1886 20.8331 28.1886C18.7501 28.1886 18.7501 26.2837 16.6668 26.2837C14.5833 26.2837 14.5833 28.1886 12.4998 28.1886C10.4163 28.1886 10.4163 26.2837 8.33281 26.2837C6.2498 26.2837 6.2498 28.1886 4.1665 28.1886C2.09443 28.1886 2.08242 26.3047 0.0325165 26.2846C0.0902313 27.4281 0.226755 28.5508 0.4332 29.6486C2.09375 29.8927 2.23916 31.5219 4.1666 31.5219C6.2499 31.5219 6.2499 29.6172 8.33291 29.6172C10.4164 29.6172 10.4164 31.5219 12.4999 31.5219C14.5834 31.5219 14.5834 29.6172 16.6669 29.6172C18.7502 29.6172 18.7502 31.5219 20.8332 31.5219C22.9165 31.5219 22.9165 29.6172 24.9997 29.6172C27.0832 29.6172 27.0832 31.5219 29.1667 31.5219C31.2502 31.5219 31.2502 29.6172 33.3334 29.6172C35.4167 29.6172 35.4167 31.5219 37.4999 31.5219C39.5831 31.5219 39.5832 29.6172 41.6664 29.6172C43.7499 29.6172 43.7499 31.5219 45.8331 31.5219C47.7607 31.5219 47.9061 29.8928 49.5668 29.6487C49.7733 28.5508 49.9097 27.4282 49.9677 26.2847C47.9174 26.3049 47.9052 28.1886 45.833 28.1886Z" fill="#0052B4"/>
<path d="M41.6663 32.8054C39.583 32.8054 39.583 34.7103 37.4998 34.7103C35.4166 34.7103 35.4165 32.8054 33.3333 32.8054C31.25 32.8054 31.25 34.7103 29.1666 34.7103C27.0831 34.7103 27.0831 32.8054 24.9996 32.8054C22.9163 32.8054 22.9163 34.7103 20.8331 34.7103C18.7501 34.7103 18.7501 32.8054 16.6668 32.8054C14.5833 32.8054 14.5833 34.7103 12.4998 34.7103C10.4163 34.7103 10.4163 32.8054 8.33281 32.8054C6.2498 32.8054 6.2498 34.7103 4.1665 34.7103C2.67793 34.7103 2.25273 33.738 1.37138 33.1826C1.9581 34.8778 2.72138 36.4904 3.64062 37.9978C3.80048 38.0273 3.97451 38.0436 4.1665 38.0436C6.2498 38.0436 6.2498 36.1389 8.33281 36.1389C10.4163 36.1389 10.4163 38.0436 12.4998 38.0436C14.5833 38.0436 14.5833 36.1389 16.6668 36.1389C18.7501 36.1389 18.7501 38.0436 20.8331 38.0436C22.9164 38.0436 22.9164 36.1389 24.9996 36.1389C27.0831 36.1389 27.0831 38.0436 29.1666 38.0436C31.2501 38.0436 31.2501 36.1389 33.3333 36.1389C35.4166 36.1389 35.4166 38.0436 37.4998 38.0436C39.583 38.0436 39.5831 36.1389 41.6663 36.1389C43.7498 36.1389 43.7498 38.0436 45.833 38.0436C46.0252 38.0436 46.1992 38.0273 46.3591 37.9977C47.2783 36.4904 48.0415 34.8778 48.6285 33.1827C47.7471 33.7378 47.3218 34.7103 45.833 34.7103C43.7498 34.7103 43.7498 32.8054 41.6663 32.8054Z" fill="#0052B4"/>
<path d="M49.9225 23.0249C47.9176 23.0722 47.8899 24.9276 45.833 24.9276C43.7497 24.9276 43.7497 23.0227 41.6663 23.0227C39.583 23.0227 39.583 24.9276 37.4998 24.9276C35.4166 24.9276 35.4165 23.0227 33.3333 23.0227C31.25 23.0227 31.25 24.9276 29.1666 24.9276C27.0832 24.9276 27.0831 23.0227 24.9996 23.0227C22.9163 23.0227 22.9163 24.9276 20.8331 24.9276C18.7501 24.9276 18.7501 23.0227 16.6668 23.0227C14.5833 23.0227 14.5833 24.9276 12.4998 24.9276C10.4163 24.9276 10.4163 23.0227 8.33281 23.0227C6.2498 23.0227 6.2498 24.9276 4.1665 24.9276C2.10996 24.9276 2.08213 23.0724 0.0774414 23.0249C0.0265625 23.6766 0 24.3352 0 25C0 25.4553 0.0128906 25.9078 0.037207 26.3571C2.08242 26.38 2.096 28.2608 4.1666 28.2608C6.2499 28.2608 6.2499 26.3561 8.33291 26.3561C10.4164 26.3561 10.4164 28.2608 12.4999 28.2608C14.5834 28.2608 14.5834 26.3561 16.6669 26.3561C18.7502 26.3561 18.7502 28.2608 20.8332 28.2608C22.9165 28.2608 22.9165 26.3561 24.9997 26.3561C27.0832 26.3561 27.0832 28.2608 29.1667 28.2608C31.2502 28.2608 31.2502 26.3561 33.3334 26.3561C35.4167 26.3561 35.4167 28.2608 37.4999 28.2608C39.5831 28.2608 39.5832 26.3561 41.6664 26.3561C43.7499 26.3561 43.7499 28.2608 45.8331 28.2608C47.9039 28.2608 47.9175 26.38 49.9631 26.3571C49.9871 25.9077 50 25.4553 50 25C50 24.3352 49.9734 23.6766 49.9225 23.0249Z" fill="#F0F0F0"/>
</svg>
