<svg width="50" height="50" viewBox="0 0 50 50" fill="none" xmlns="http://www.w3.org/2000/svg">
<path d="M47.5193 14.1305C43.4756 5.76807 34.9115 0 25 0C15.0885 0 6.5244 5.76807 2.48065 14.1305L25 16.3044L47.5193 14.1305Z" fill="#D80027"/>
<path d="M2.48065 35.8695C6.5244 44.2319 15.0885 50 25 50C34.9115 50 43.4756 44.2319 47.5193 35.8695L25 33.6956L2.48065 35.8695Z" fill="#D80027"/>
<path d="M47.5193 14.1304H2.48066C0.891406 17.417 0 21.1043 0 24.9999C0 28.8955 0.891406 32.5828 2.48066 35.8694H47.5192C49.1087 32.5828 50 28.8955 50 24.9999C50 21.1043 49.1087 17.417 47.5193 14.1304Z" fill="#0052B4"/>
<path d="M25 33.6957C29.8024 33.6957 33.6956 29.8025 33.6956 25C33.6956 20.1976 29.8024 16.3044 25 16.3044C20.1975 16.3044 16.3044 20.1976 16.3044 25C16.3044 29.8025 20.1975 33.6957 25 33.6957Z" fill="#F0F0F0"/>
</svg>
