<svg width="50" height="50" viewBox="0 0 50 50" fill="none" xmlns="http://www.w3.org/2000/svg">
<path d="M25 50C38.8071 50 50 38.8071 50 25C50 11.1929 38.8071 0 25 0C11.1929 0 0 11.1929 0 25C0 38.8071 11.1929 50 25 50Z" fill="#D80027"/>
<path d="M8.69556 13.0435H41.3042V36.9565H8.69556V13.0435Z" fill="#6DA544"/>
<path d="M29.026 32.0652C25.1241 32.0652 21.9608 28.902 21.9608 25C21.9608 21.098 25.1241 17.9348 29.026 17.9348C30.2426 17.9348 31.3875 18.2424 32.3869 18.784C30.819 17.2507 28.675 16.3043 26.3086 16.3043C21.5063 16.3043 17.613 20.1975 17.613 24.9999C17.613 29.8023 21.5063 33.6955 26.3086 33.6955C28.675 33.6955 30.8191 32.7491 32.3869 31.2158C31.3875 31.7576 30.2426 32.0652 29.026 32.0652Z" fill="#F0F0F0"/>
</svg>
