<svg width="50" height="50" viewBox="0 0 50 50" fill="none" xmlns="http://www.w3.org/2000/svg">
<path d="M25 50C38.8071 50 50 38.8071 50 25C50 11.1929 38.8071 0 25 0C11.1929 0 0 11.1929 0 25C0 38.8071 11.1929 50 25 50Z" fill="#338AF3"/>
<path d="M25 10.8695L26.0792 14.191H29.5717L26.7463 16.2438L27.8254 19.5652L25 17.5125L22.1746 19.5652L23.254 16.2438L20.4285 14.191H23.9209L25 10.8695Z" fill="#F0F0F0"/>
<path d="M10.8696 25.0002L14.1911 23.9209V20.4283L16.2439 23.2539L19.5653 22.1747L17.5126 25.0002L19.5653 27.8254L16.2439 26.7461L14.1911 29.5716V26.0792L10.8696 25.0002Z" fill="#F0F0F0"/>
<path d="M25.0002 39.1305L23.921 35.809H20.4285L23.2541 33.7562L22.1749 30.4348L25.0002 32.4875L27.8255 30.4348L26.7462 33.7562L29.5717 35.809H26.0793L25.0002 39.1305Z" fill="#F0F0F0"/>
<path d="M39.1305 24.9999L35.809 26.0791V29.5716L33.7562 26.7461L30.4348 27.8253L32.4875 24.9999L30.4348 22.1746L33.7562 23.2539L35.809 20.4283V23.9208L39.1305 24.9999Z" fill="#F0F0F0"/>
</svg>
