<svg width="50" height="50" viewBox="0 0 50 50" fill="none" xmlns="http://www.w3.org/2000/svg">
<path d="M25 50C38.8071 50 50 38.8071 50 25C50 11.1929 38.8071 0 25 0C11.1929 0 0 11.1929 0 25C0 38.8071 11.1929 50 25 50Z" fill="#0052B4"/>
<path d="M25 50C38.8071 50 50 38.8071 50 25C50 11.1929 38.8071 0 25 0C11.1929 0 0 11.1929 0 25C0 38.8071 11.1929 50 25 50Z" fill="#FFDA44"/>
<path d="M25 0C11.9254 0 1.19707 10.0372 0.0952148 22.8261H49.9049C48.8029 10.0372 38.0746 0 25 0Z" fill="#0052B4"/>
<path d="M25 50C38.0746 50 48.8029 39.9628 49.9049 27.1739H0.0952148C1.19707 39.9628 11.9254 50 25 50Z" fill="#0052B4"/>
<path d="M20.6523 33.6956L17.8509 35.0134L19.3426 37.7264L16.3007 37.1444L15.9153 40.2174L13.7964 37.9573L11.6777 40.2174L11.2922 37.1444L8.25024 37.7263L9.74204 35.0133L6.94067 33.6956L9.74214 32.3779L8.25024 29.665L11.2921 30.2469L11.6778 27.1739L13.7964 29.434L15.9154 27.1739L16.3007 30.2469L19.3427 29.665L17.851 32.378L20.6523 33.6956Z" fill="#F0F0F0"/>
</svg>
