<svg width="50" height="50" viewBox="0 0 50 50" fill="none" xmlns="http://www.w3.org/2000/svg">
<path d="M35.8695 2.48066C32.5828 0.891406 28.8956 0 25 0C21.1044 0 17.4172 0.891406 14.1305 2.48066L11.9565 25L14.1305 47.5193C17.4172 49.1086 21.1044 50 25 50C28.8956 50 32.5828 49.1086 35.8695 47.5193L38.0435 25L35.8695 2.48066Z" fill="#F0F0F0"/>
<path d="M14.1305 2.48154C5.76807 6.52509 0 15.0885 0 25C0 34.9115 5.76807 43.4749 14.1305 47.5185V2.48154Z" fill="#6DA544"/>
<path d="M35.8696 2.48154V47.5185C44.232 43.4749 50.0001 34.9114 50.0001 25C50.0001 15.0886 44.232 6.52509 35.8696 2.48154Z" fill="#6DA544"/>
<path d="M31.5218 32.6087L25 11.9565L18.4783 32.6087H23.3696V38.0435H26.6305V32.6087H31.5218Z" fill="#6DA544"/>
</svg>
