<svg width="50" height="50" viewBox="0 0 50 50" fill="none" xmlns="http://www.w3.org/2000/svg">
<path d="M47.5193 35.8695C49.1087 32.5828 50 28.8956 50 25C50 21.1044 49.1087 17.4172 47.5193 14.1305L25 11.9565L2.48066 14.1305C0.891309 17.4172 0 21.1044 0 25C0 28.8956 0.891309 32.5828 2.48066 35.8695L25 38.0435L47.5193 35.8695Z" fill="#0052B4"/>
<path d="M25 50.0001C34.9115 50.0001 43.4756 44.232 47.5194 35.8696H2.48071C6.52446 44.232 15.0885 50.0001 25 50.0001Z" fill="#D80027"/>
<path d="M43.2978 29.9076L41.9773 30.9394L42.5504 32.5137L41.161 31.5769L39.8405 32.6085L40.3022 30.9977L38.9131 30.0606L40.5878 30.0022L41.0499 28.3914L41.6231 29.966L43.2978 29.9076Z" fill="#F0F0F0"/>
<path d="M39.9163 24.0509L39.0285 25.4721L40.1058 26.7555L38.4797 26.3506L37.5916 27.7714L37.4745 26.0999L35.8486 25.6943L37.4025 25.0665L37.2857 23.3948L38.3628 24.6787L39.9163 24.0509Z" fill="#F0F0F0"/>
<path d="M34.7359 19.7041L34.3877 21.3433L35.8389 22.1812L34.1724 22.3568L33.8239 23.9955L33.1423 22.4648L31.4756 22.6397L32.7211 21.5185L32.0396 19.9878L33.4907 20.8255L34.7359 19.7041Z" fill="#F0F0F0"/>
<path d="M28.3813 17.3914L28.6147 19.0508L30.2648 19.3416L28.7588 20.0766L28.9921 21.736L27.828 20.5305L26.3216 21.2651L27.1085 19.7853L25.9443 18.58L27.5947 18.8709L28.3813 17.3914Z" fill="#F0F0F0"/>
<path d="M21.6188 17.3914L22.4057 18.8709L24.0557 18.5798L22.8919 19.7856L23.6783 21.2653L22.1723 20.5305L21.008 21.7357L21.2415 20.0766L19.7354 19.342L21.3856 19.0508L21.6188 17.3914Z" fill="#F0F0F0"/>
<path d="M15.2643 19.7041L16.5098 20.8255L17.9606 19.9878L17.2793 21.519L18.5245 22.6401L16.858 22.4648L16.1762 23.9955L15.8282 22.3565L14.1616 22.1815L15.6128 21.3435L15.2643 19.7041Z" fill="#F0F0F0"/>
<path d="M10.084 24.0511L11.638 24.6789L12.7147 23.3953L12.5982 25.0672L14.1518 25.6951L12.5259 26.1002L12.4088 27.7716L11.5211 26.3508L9.89502 26.756L10.9722 25.4723L10.084 24.0511Z" fill="#F0F0F0"/>
<path d="M6.70264 29.9074L8.37764 29.9658L8.95049 28.3914L9.41289 30.0023L11.0874 30.0608L9.69814 30.9979L10.1599 32.6086L8.83955 31.577L7.4502 32.5138L8.02334 30.9392L6.70264 29.9074Z" fill="#F0F0F0"/>
<path d="M47.5194 14.1305C43.4756 5.76807 34.9115 0 25 0C15.0885 0 6.52446 5.76807 2.48071 14.1305H47.5194Z" fill="#FFDA44"/>
</svg>
