<svg width="24" height="24" viewBox="0 0 24 24" fill="none" xmlns="http://www.w3.org/2000/svg">
<mask id="path-1-inside-1_48_3511" fill="white">
<path fill-rule="evenodd" clip-rule="evenodd" d="M23.0652 2.43801C24 3.82164 24 5.74776 24 9.6C24 13.4522 24 15.3784 23.0652 16.762C22.6605 17.361 22.1405 17.8753 21.5349 18.2755C20.2045 19.1547 18.378 19.1978 14.8524 19.1999V19.2385L13.112 22.8247C12.7475 23.5759 11.6773 23.5759 11.3127 22.8247L9.57237 19.2385V19.2C5.76668 19.1999 3.84794 19.1893 2.46511 18.2755C1.85947 17.8753 1.33946 17.361 0.934786 16.762C0 15.3784 0 13.4522 0 9.6C0 5.74776 0 3.82164 0.934786 2.43801C1.33946 1.83903 1.85947 1.32474 2.46511 0.92451C3.86412 0 5.81165 0 9.70671 0H14.2933C18.1884 0 20.1359 0 21.5349 0.92451C22.1405 1.32474 22.6605 1.83903 23.0652 2.43801Z"/>
</mask>
<path d="M23.0652 2.43801L23.8938 1.8782V1.8782L23.0652 2.43801ZM23.0652 16.762L23.8938 17.3218L23.0652 16.762ZM21.5349 18.2755L22.0862 19.1098L21.5349 18.2755ZM14.8524 19.1999L14.8518 18.1999C14.2997 18.2002 13.8524 18.6478 13.8524 19.1999H14.8524ZM14.8524 19.2385L15.752 19.6751C15.8181 19.5391 15.8524 19.3898 15.8524 19.2385H14.8524ZM13.112 22.8247L12.2124 22.3881H12.2124L13.112 22.8247ZM11.3127 22.8247L12.2124 22.3881H12.2124L11.3127 22.8247ZM9.57237 19.2385H8.57237C8.57237 19.3898 8.60668 19.5391 8.67272 19.6751L9.57237 19.2385ZM9.57237 19.2H10.5724C10.5724 18.6477 10.1247 18.2 9.57241 18.2L9.57237 19.2ZM2.46511 18.2755L1.91379 19.1098H1.91379L2.46511 18.2755ZM0.934786 16.762L0.10617 17.3218H0.10617L0.934786 16.762ZM0.934786 2.43801L0.10617 1.8782L0.934786 2.43801ZM2.46511 0.92451L1.91379 0.0902199L1.91379 0.09022L2.46511 0.92451ZM21.5349 0.92451L20.9836 1.7588V1.7588L21.5349 0.92451ZM25 9.6C25 7.69492 25.0012 6.19001 24.8779 4.99096C24.7528 3.77463 24.4911 2.76232 23.8938 1.8782L22.2366 2.99783C22.5741 3.49733 22.7798 4.13989 22.8884 5.1956C22.9988 6.26857 23 7.65284 23 9.6H25ZM23.8938 17.3218C24.4911 16.4377 24.7528 15.4254 24.8779 14.209C25.0012 13.01 25 11.5051 25 9.6H23C23 11.5472 22.9988 12.9314 22.8884 14.0044C22.7798 15.0601 22.5741 15.7027 22.2366 16.2022L23.8938 17.3218ZM22.0862 19.1098C22.8009 18.6375 23.4153 18.0301 23.8938 17.3218L22.2366 16.2022C21.9058 16.6919 21.4801 17.1131 20.9836 17.4412L22.0862 19.1098ZM14.853 20.1999C16.6013 20.1988 17.9993 20.1887 19.1298 20.0602C20.2766 19.9298 21.2392 19.6695 22.0862 19.1098L20.9836 17.4412C20.5001 17.7607 19.8843 17.9615 18.9039 18.073C17.9072 18.1863 16.6291 18.1988 14.8518 18.1999L14.853 20.1999ZM15.8524 19.2385V19.1999H13.8524V19.2385H15.8524ZM14.0117 23.2613L15.752 19.6751L13.9527 18.8019L12.2124 22.3881L14.0117 23.2613ZM10.4131 23.2613C11.1422 24.7637 13.2826 24.7637 14.0117 23.2613L12.2124 22.3881H12.2124L10.4131 23.2613ZM8.67272 19.6751L10.4131 23.2613L12.2124 22.3881L10.472 18.8019L8.67272 19.6751ZM8.57237 19.2V19.2385H10.5724V19.2H8.57237ZM1.91379 19.1098C2.79409 19.6915 3.7997 19.95 5.00712 20.0751C6.19834 20.1985 7.68864 20.1999 9.57234 20.2L9.57241 18.2C7.65041 18.1999 6.2785 18.1961 5.21322 18.0857C4.16414 17.977 3.51896 17.7733 3.01644 17.4412L1.91379 19.1098ZM0.10617 17.3218C0.58468 18.0301 1.19907 18.6375 1.91379 19.1098L3.01644 17.4412C2.51987 17.1131 2.09425 16.6919 1.7634 16.2022L0.10617 17.3218ZM-1 9.6C-1 11.5051 -1.00124 13.01 -0.877903 14.209C-0.752795 15.4254 -0.49115 16.4377 0.10617 17.3218L1.7634 16.2022C1.42594 15.7027 1.22019 15.0601 1.1116 14.0044C1.00124 12.9314 1 11.5472 1 9.6H-1ZM0.10617 1.8782C-0.49115 2.76232 -0.752795 3.77463 -0.877904 4.99096C-1.00124 6.19001 -1 7.69492 -1 9.6H1C1 7.65284 1.00124 6.26857 1.1116 5.1956C1.22019 4.13989 1.42594 3.49733 1.7634 2.99783L0.10617 1.8782ZM1.91379 0.09022C1.19907 0.562531 0.58468 1.16993 0.10617 1.8782L1.7634 2.99783C2.09425 2.50813 2.51987 2.08695 3.01644 1.7588L1.91379 0.09022ZM9.70671 -1C7.77977 -1 6.26011 -1.00118 5.04979 -0.879413C3.8233 -0.756018 2.80435 -0.498293 1.91379 0.0902199L3.01644 1.7588C3.52488 1.4228 4.1792 1.21827 5.24999 1.11054C6.33695 1.00118 7.73859 1 9.70671 1V-1ZM14.2933 -1H9.70671V1H14.2933V-1ZM22.0862 0.0902199C21.1956 -0.498293 20.1767 -0.756018 18.9502 -0.879413C17.7399 -1.00118 16.2202 -1 14.2933 -1V1C16.2614 1 17.663 1.00118 18.75 1.11054C19.8208 1.21827 20.4751 1.4228 20.9836 1.7588L22.0862 0.0902199ZM23.8938 1.8782C23.4153 1.16993 22.8009 0.562531 22.0862 0.0902198L20.9836 1.7588C21.4801 2.08695 21.9058 2.50813 22.2366 2.99783L23.8938 1.8782Z" fill="black" mask="url(#path-1-inside-1_48_3511)"/>
<path d="M16.7597 11.0755L18.4061 12.7219C18.7341 13.0499 18.7341 13.5817 18.4061 13.9097C16.6329 15.6829 13.8256 15.8824 11.8195 14.3778L11.7025 14.29C10.1892 13.1551 8.84493 11.8108 7.70996 10.2975L7.62224 10.1805C6.11761 8.17436 6.31712 5.36709 8.09034 3.59387C8.41833 3.26588 8.95009 3.26588 9.27808 3.59387L10.9245 5.24026C11.315 5.63079 11.315 6.26395 10.9245 6.65447L9.78983 7.78912C9.5696 8.00935 9.515 8.34579 9.65429 8.62436C10.4595 10.2347 11.7653 11.5405 13.3756 12.3457C13.6542 12.485 13.9907 12.4304 14.2109 12.2102L15.3455 11.0755C15.736 10.685 16.3692 10.685 16.7597 11.0755Z" fill="black"/>
</svg>
