<svg width="50" height="50" viewBox="0 0 50 50" fill="none" xmlns="http://www.w3.org/2000/svg">
<path d="M25 50C38.8071 50 50 38.8071 50 25C50 11.1929 38.8071 0 25 0C11.1929 0 0 11.1929 0 25C0 38.8071 11.1929 50 25 50Z" fill="#F0F0F0"/>
<path d="M42.4939 7.14297C37.9849 2.725 31.8112 0 25 0C22.8261 0 16.4654 2.725 11.9565 7.14297H42.4939Z" fill="#6DA544"/>
<path d="M25 21.4286H49.7449C49.3842 18.9066 48.6476 16.5062 47.5928 14.2857H23.9131L25 21.4286Z" fill="#6DA544"/>
<path d="M2.40731 35.7144H47.5927C48.6475 33.494 49.3842 31.0934 49.7449 28.5714H0.255066C0.615906 31.0935 1.35233 33.4941 2.40731 35.7144Z" fill="#6DA544"/>
<path d="M7.50604 42.857C12.0151 47.275 18.1888 50 25 50C31.8112 50 37.9848 47.275 42.4939 42.857H7.50604Z" fill="#6DA544"/>
<path d="M25 0C12.4057 0 1.98827 9.31357 0.255066 21.4286H25V0Z" fill="#D80027"/>
<path d="M12.5 19.1667L11.4131 16.9929V12.645L14.1305 10.4711L16.8479 12.645V15.9059L17.9348 14.819V16.9929L15.7608 19.1667H12.5Z" fill="#F0F0F0"/>
<path d="M6.6538 12.5L6.94159 13.3858H7.87284L7.11942 13.9333L7.40731 14.819L6.6538 14.2715L5.90028 14.819L6.18817 13.9333L5.43475 13.3858H6.366L6.6538 12.5Z" fill="#F0F0F0"/>
<path d="M8.82772 10.3261L9.11551 11.2118H10.0469L9.29334 11.7594L9.58113 12.645L8.82772 12.0977L8.0743 12.645L8.36219 11.7594L7.60867 11.2118H8.53983L8.82772 10.3261Z" fill="#F0F0F0"/>
<path d="M11.0016 8.15216L11.2894 9.0379H12.2206L11.4673 9.58546L11.755 10.4711L11.0016 9.92374L10.2481 10.4711L10.5359 9.58546L9.78259 9.0379H10.7137L11.0016 8.15216Z" fill="#F0F0F0"/>
<path d="M21.607 12.5L21.3192 13.3858H20.3881L21.1414 13.9333L20.8536 14.819L21.607 14.2715L22.3605 14.819L22.0727 13.9333L22.826 13.3858H21.8949L21.607 12.5Z" fill="#F0F0F0"/>
<path d="M19.4331 10.3261L19.1453 11.2118H18.2141L18.9675 11.7594L18.6797 12.645L19.4331 12.0977L20.1866 12.645L19.8987 11.7594L20.6521 11.2118H19.721L19.4331 10.3261Z" fill="#F0F0F0"/>
<path d="M17.2593 8.15216L16.9714 9.0379H16.0402L16.7935 9.58546L16.5057 10.4711L17.2593 9.92374L18.0127 10.4711L17.7249 9.58546L18.4782 9.0379H17.5471L17.2593 8.15216Z" fill="#F0F0F0"/>
<path d="M14.1305 7.06525L13.8426 7.95099H12.9114L13.6647 8.49845L13.3769 9.38409L14.1305 8.83673L14.8839 9.38409L14.5961 8.49845L15.3494 7.95099H14.4182L14.1305 7.06525Z" fill="#F0F0F0"/>
</svg>
