<svg width="50" height="50" viewBox="0 0 50 50" fill="none" xmlns="http://www.w3.org/2000/svg">
<path d="M25 50C38.8071 50 50 38.8071 50 25C50 11.1929 38.8071 0 25 0C11.1929 0 0 11.1929 0 25C0 38.8071 11.1929 50 25 50Z" fill="#F0F0F0"/>
<path d="M37.1285 3.13594C33.5363 1.13906 29.4014 0 25 0C11.1939 0 0.00175781 11.1912 0 24.9971L17.3913 16.3044L37.1285 3.13594Z" fill="#0052B4"/>
<path d="M0 25.0029C0.00175781 38.8088 11.1939 50 25 50C29.4014 50 33.5363 48.8611 37.1285 46.8641L17.3913 33.6956L0 25.0029Z" fill="#0052B4"/>
<path d="M39.2119 4.43183C38.5404 3.96708 37.8446 3.53486 37.1276 3.13632L0 24.9971V25C0 25 0 25.002 0 25.0029L37.1277 46.8636C37.8447 46.4649 38.5404 46.0328 39.212 45.5681L4.27949 25L39.2119 4.43183Z" fill="#D80027"/>
<path d="M43.4782 24.0677H40.5003C41.2746 23.138 41.2268 21.7549 40.3545 20.8827C41.2785 19.9588 41.2785 18.4606 40.3545 17.5365L40.2988 17.5924C41.2227 16.6685 41.2785 15.1144 40.3545 14.1905L26.9701 27.5749C27.8941 28.499 29.366 28.488 30.2899 27.564L30.5475 27.3285L36.9565 26.7459V29.5023H39.1304V26.5482L42.3913 26.2518L43.4782 24.0677Z" fill="#A2001D"/>
<path d="M27.1747 30.4348L25 29.3478L27.1747 28.2608H41.3051V30.4348H27.1747Z" fill="#FFDA44"/>
</svg>
