<svg width="50" height="50" viewBox="0 0 50 50" fill="none" xmlns="http://www.w3.org/2000/svg">
<path d="M14.1305 47.5193C17.4172 49.1086 21.1044 50 25 50C28.8956 50 32.5828 49.1086 35.8695 47.5193L38.0435 25L35.8695 2.48066C32.5828 0.891406 28.8956 0 25 0C21.1044 0 17.4172 0.891406 14.1305 2.48066L11.9565 25L14.1305 47.5193Z" fill="#FFDA44"/>
<path d="M35.8695 47.5185C44.2319 43.4749 50 34.9114 50 25C50 15.0886 44.2319 6.52509 35.8695 2.48154V47.5185Z" fill="#D80027"/>
<path d="M14.1305 47.5185V2.48154C5.76807 6.52509 0 15.0885 0 25C0 34.9115 5.76807 43.4749 14.1305 47.5185Z" fill="#0052B4"/>
<path d="M25 33.6956C25 29.7062 25 25 25 25H31.5218V28.2608C31.5218 28.8273 30.4349 30.9031 27.752 32.6087C26.7358 33.2548 25.684 33.4626 25 33.6956Z" fill="#D80027"/>
<path d="M18.4782 18.4782H25V25H18.4782V18.4782Z" fill="#D80027"/>
<path d="M28.2608 16.3044C28.2608 15.1037 27.2875 14.1305 26.0869 14.1305C25.6904 14.1305 25.3199 14.2383 25 14.4236C24.68 14.2383 24.3096 14.1305 23.9131 14.1305C22.7125 14.1305 21.7391 15.1037 21.7391 16.3044H16.3044V27.1738C16.3044 31.2203 19.5179 33.5604 22.0379 34.7735C21.8493 35.0956 21.7391 35.4693 21.7391 35.8696C21.7391 37.0703 22.7125 38.0435 23.9131 38.0435C24.3096 38.0435 24.6801 37.9357 25 37.7504C25.32 37.9357 25.6904 38.0435 26.0869 38.0435C27.2875 38.0435 28.2608 37.0703 28.2608 35.8696C28.2608 35.4693 28.1507 35.0956 27.962 34.7735C30.482 33.5604 33.6956 31.2204 33.6956 27.1738V16.3044H28.2608ZM30.4348 27.1738C30.4348 27.7403 30.4348 29.4641 27.7519 31.1697C26.7357 31.8158 25.684 32.2348 25 32.4677C24.316 32.2348 23.2642 31.8158 22.248 31.1697C19.5652 29.4641 19.5652 27.7403 19.5652 27.1738V19.5652H30.4348V27.1738Z" fill="#FF9811"/>
</svg>
