<svg width="50" height="50" viewBox="0 0 50 50" fill="none" xmlns="http://www.w3.org/2000/svg">
<path d="M0 25C0 11.193 11.193 0 25 0C38.807 0 50 11.193 50 25C48.9131 25 25 28.2608 25 28.2608L0 25Z" fill="#D80027"/>
<path d="M50 25C50 38.807 38.807 50 25 50C11.193 50 0 38.807 0 25" fill="black"/>
<path d="M21.5721 19.884L23.6914 21.4221L22.8838 23.9131L25.0016 22.3725L27.1211 23.9105L26.3104 21.4203L28.4279 19.8799L25.8093 19.8814L24.9984 17.3913L24.1907 19.8823L21.5721 19.884Z" fill="#FFDA44"/>
<path d="M31.25 14.1747C29.28 13.0373 27.126 12.5005 25 12.5042V15.7644C26.5714 15.7615 28.1634 16.158 29.6195 16.9988C34.0314 19.5461 35.5485 25.2078 33.0012 29.6197C30.454 34.0316 24.7924 35.5487 20.3804 33.0015C19.095 32.2594 18.0574 31.2518 17.2926 30.089L14.5703 31.8862C15.6052 33.4594 17.011 34.8214 18.75 35.8253C24.7191 39.2716 32.379 37.2191 35.8252 31.25C39.2715 25.2809 37.2191 17.621 31.25 14.1747Z" fill="#FFDA44"/>
<path d="M17.792 22.8261C16.9277 24.4061 17.508 26.3876 19.0879 27.2519L29.6786 33.039C28.9584 34.3555 29.3409 35.9579 30.6574 36.6781L33.5183 38.2431C34.8348 38.9634 36.4862 38.4798 37.2064 37.1632L38.7714 34.3024L17.792 22.8261Z" fill="#FFDA44"/>
</svg>
