<svg width="50" height="50" viewBox="0 0 50 50" fill="none" xmlns="http://www.w3.org/2000/svg">
<path d="M0 25C0 26.7124 0.172656 28.3845 0.500684 30L25 31.5218L49.4994 30C49.8275 28.3845 50 26.7124 50 25C50 23.2876 49.8273 21.6155 49.4994 20L25 18.4782L0.500684 20C0.172656 21.6155 0 23.2876 0 25H0Z" fill="#0052B4"/>
<path d="M49.4995 30H0.500732C2.81704 41.4111 12.9054 50 25 50C37.0947 50 47.1831 41.4111 49.4995 30Z" fill="#F0F0F0"/>
<path d="M0.500732 20H49.4996C47.1831 8.58887 37.0949 0 25.0001 0C12.9052 0 2.81704 8.58887 0.500732 20Z" fill="black"/>
<path d="M35.8696 20H14.1305L18.5719 17.9107L16.2068 13.6095L21.0295 14.5318L21.6408 9.65985L25 13.2432L28.3594 9.65985L28.9703 14.5318L33.7933 13.6095L31.4283 17.9109L35.8696 20Z" fill="#FFDA44"/>
<path d="M0 25C0 38.807 11.193 50 25 50L4.99961 9.99911C1.86055 14.1777 0 19.3714 0 25Z" fill="#A2001D"/>
<path d="M25 50C38.807 50 50 38.807 50 25C50 19.3714 48.1395 14.1777 45.0004 9.99911L25 50Z" fill="#A2001D"/>
</svg>
