<svg width="50" height="50" viewBox="0 0 50 50" fill="none" xmlns="http://www.w3.org/2000/svg">
<path d="M25 50C38.8071 50 50 38.8071 50 25C50 11.1929 38.8071 0 25 0C11.1929 0 0 11.1929 0 25C0 38.8071 11.1929 50 25 50Z" fill="#FFDA44"/>
<path d="M25 50C32.5772 50 39.3666 46.6285 43.9513 41.3044H6.04873C10.6334 46.6285 17.4228 50 25 50Z" fill="#338AF3"/>
<path d="M50 25C50 11.193 38.807 0 25 0C11.193 0 0 11.193 0 25C0 27.2565 0.300781 29.4423 0.86123 31.5218H49.1389C49.6992 29.4423 50 27.2565 50 25Z" fill="#338AF3"/>
<path d="M1.98721 34.7826C2.46914 35.915 3.03252 37.0041 3.66933 38.0435H46.3307C46.9675 37.004 47.5309 35.9149 48.013 34.7826H1.98721Z" fill="#338AF3"/>
<path d="M11.4567 15.7679L6.57236 13.6122L11.4567 11.4565L13.6123 6.57227L15.7679 11.4565L20.6521 13.6122L15.7679 15.7679L13.6123 20.6521L11.4567 15.7679Z" fill="#F0F0F0"/>
<path d="M13.6123 9.26435L14.9435 12.2809L17.9601 13.6122L14.9435 14.9435L13.6123 17.96L12.281 14.9435L9.26445 13.6122L12.281 12.2809L13.6123 9.26435Z" fill="#D80027"/>
</svg>
