<svg width="50" height="50" viewBox="0 0 50 50" fill="none" xmlns="http://www.w3.org/2000/svg">
<path d="M25 50C38.8071 50 50 38.8071 50 25C50 11.1929 38.8071 0 25 0C11.1929 0 0 11.1929 0 25C0 38.8071 11.1929 50 25 50Z" fill="#F0F0F0"/>
<path d="M0 25C0 34.4761 5.27246 42.7202 13.0435 46.9603V3.03975C5.27246 7.27978 0 15.5239 0 25Z" fill="#D80027"/>
<path d="M0 25C0 36.5507 7.83408 46.27 18.4782 49.1388V0.861229C7.83408 3.72998 0 13.4493 0 25Z" fill="#0052B4"/>
<path d="M8.96741 8.69561V12.7717C8.96741 14.7978 10.6098 16.4401 12.6359 16.4401C14.6619 16.4401 16.3043 14.7978 16.3043 12.7717V8.69561H8.96741Z" fill="#D80027"/>
<path d="M12.6358 14.2663C11.8117 14.2663 11.1413 13.5959 11.1413 12.7718V10.8696H14.1305V12.7718C14.1305 13.5959 13.4599 14.2663 12.6358 14.2663Z" fill="#F0F0F0"/>
<path d="M27.1739 26.0869H20.6522C20.6522 24.8863 19.6788 23.913 18.4782 23.913C17.2776 23.913 16.3043 24.8863 16.3043 26.0869H9.78253C9.78253 27.2876 10.8283 28.2608 12.0288 28.2608H11.9565C11.9565 29.4615 12.9296 30.4348 14.1304 30.4348C14.1304 31.6354 15.1035 32.6087 16.3043 32.6087H20.6522C21.8527 32.6087 22.8261 31.6354 22.8261 30.4348C24.0267 30.4348 25 29.4615 25 28.2608H24.9276C26.1281 28.2608 27.1739 27.2876 27.1739 26.0869Z" fill="#FFDA44"/>
<path d="M28.0673 22.6081L27.4966 23.5219L28.1889 24.3469L27.1436 24.0866L26.5728 25L26.4975 23.9253L25.4521 23.6646L26.4513 23.2611L26.3761 22.1864L27.0686 23.0118L28.0673 22.6081Z" fill="#FFDA44"/>
<path d="M24.737 19.8137L24.5132 20.8675L25.4461 21.4061L24.3746 21.5191L24.1507 22.5727L23.7124 21.5885L22.6411 21.701L23.4417 20.9801L23.0037 19.9961L23.9365 20.5347L24.737 19.8137Z" fill="#FFDA44"/>
<path d="M20.652 18.327L20.8019 19.3938L21.8627 19.5809L20.8945 20.0531L21.0444 21.12L20.2962 20.345L19.3278 20.8173L19.8336 19.866L19.0853 19.0912L20.1463 19.2781L20.652 18.327Z" fill="#FFDA44"/>
<path d="M16.3046 18.327L16.8105 19.2781L17.8713 19.0911L17.123 19.8662L17.6287 20.8174L16.6606 20.345L15.9121 21.1198L16.0621 20.0531L15.0939 19.581L16.1547 19.3938L16.3046 18.327Z" fill="#FFDA44"/>
<path d="M12.2196 19.8137L13.0202 20.5347L13.953 19.9961L13.5151 20.9805L14.3154 21.7011L13.2442 21.5885L12.8058 22.5727L12.5822 21.5189L11.5107 21.4064L12.4435 20.8676L12.2196 19.8137Z" fill="#FFDA44"/>
<path d="M8.88927 22.6081L9.88839 23.0118L10.5805 22.1865L10.5057 23.2614L11.5044 23.665L10.459 23.9254L10.3836 25L9.8132 24.0866L8.76788 24.3471L9.46036 23.5219L8.88927 22.6081Z" fill="#FFDA44"/>
</svg>
