<svg width="50" height="50" viewBox="0 0 50 50" fill="none" xmlns="http://www.w3.org/2000/svg">
<path d="M25 50C38.8071 50 50 38.8071 50 25C50 11.1929 38.8071 0 25 0C11.1929 0 0 11.1929 0 25C0 38.8071 11.1929 50 25 50Z" fill="#FCFCFC"/>
<path d="M10.3261 23.1884L7.6087 18.2584L10.3261 13.4058L13.0435 18.2584L10.3261 23.1884Z" fill="#A2001D"/>
<path d="M4.89131 23.1884L2.17393 18.2584L4.89131 13.4058L7.60869 18.2584L4.89131 23.1884Z" fill="#A2001D"/>
<path d="M10.3261 36.5942L7.6087 31.6643L10.3261 26.8116L13.0435 31.6643L10.3261 36.5942Z" fill="#A2001D"/>
<path d="M4.89131 36.5942L2.17393 31.6643L4.89131 26.8116L7.60869 31.6643L4.89131 36.5942Z" fill="#A2001D"/>
<path d="M13.0435 4.85274L12.2741 3.47891C10.8942 4.29649 9.6 5.24307 8.40752 6.30206L10.3261 9.78262L13.0435 4.85274Z" fill="#A2001D"/>
<path d="M10.3261 40.2174L8.38721 43.6799C9.57861 44.7402 10.872 45.6883 12.2513 46.5075L13.0436 45.0701L10.3261 40.2174Z" fill="#A2001D"/>
<path d="M15.2174 31.5218V48.0123C18.2222 49.2913 21.5281 50 25 50C35.7491 50 44.9127 43.2156 48.445 33.6956L15.2174 31.5218Z" fill="#6DA544"/>
<path d="M48.445 33.6956C49.45 30.9873 50 28.058 50 25C50 11.193 38.807 0 25 0C21.5284 0 18.2222 0.708301 15.2174 1.98711V33.6957H48.445V33.6956Z" fill="#A2001D"/>
</svg>
