<svg width="50" height="50" viewBox="0 0 50 50" fill="none" xmlns="http://www.w3.org/2000/svg">
<path d="M42.6777 42.6777C32.9146 52.4408 17.0855 52.4408 7.32231 42.6777C-2.44077 32.9146 -2.44077 17.0855 7.32231 7.32227C7.32583 7.32227 29.7889 0.684866 39.5521 10.448C49.3153 20.211 42.6844 42.6709 42.6777 42.6777Z" fill="#FFDA44"/>
<path d="M42.6776 42.6777C52.4407 32.9146 52.4407 17.0854 42.6776 7.32226C32.9146 -2.44092 17.0854 -2.44083 7.32227 7.32226L42.6776 42.6777Z" fill="#D80027"/>
<path d="M31.5348 31.5372C30.5079 31.9405 29.3146 31.8978 28.2793 31.3168C26.4502 30.2902 25.7973 27.9666 26.8242 26.1372L26.5125 25.9624C29.6444 25.2072 31.9615 22.3645 31.9208 19.0098C31.8957 16.9241 30.9637 15.0582 29.506 13.7814L27.2235 16.1199C28.0864 16.8076 28.6459 17.8625 28.6602 19.0493C28.6856 21.147 26.9999 22.8742 24.9023 22.8995L24.9067 23.2566C22.6867 20.9221 19.0664 20.3368 16.1815 22.0493C14.3879 23.1142 13.2381 24.854 12.8611 26.7549L16.0275 27.5625C16.1916 26.4713 16.8253 25.4594 17.8459 24.8534C19.6498 23.7826 21.9884 24.3791 23.0592 26.1828L23.3666 26.0005C22.4547 29.0901 23.758 32.5182 26.6836 34.1604C28.5026 35.1813 30.5842 35.3071 32.419 34.6832L31.5348 31.5372ZM24.9286 25.073L24.9284 25.073L24.9286 25.073Z" fill="#FF9811"/>
<path d="M34.2564 16.9317L32.4894 23.2375L27.1877 22.2585L23.775 15.2238L14.5555 18.4954L13.8285 16.4466L11.4164 16.1494L13.2339 21.2714L19.5785 19.6487L21.3815 24.7297L16.9956 31.2024L24.4386 37.5507L23.0278 39.2047L23.9765 41.4425L27.5037 37.3073L22.9261 32.624L26.4249 28.5222L34.2235 29.0841L35.9998 19.464L38.1376 19.8588L39.6013 17.9184L34.2564 16.9317ZM24.9981 25.1701V25.1703V25.1701Z" fill="#FFEACF"/>
</svg>
