<svg width="50" height="50" viewBox="0 0 50 50" fill="none" xmlns="http://www.w3.org/2000/svg">
<path d="M25 50C38.8071 50 50 38.8071 50 25C50 11.1929 38.8071 0 25 0C11.1929 0 0 11.1929 0 25C0 38.8071 11.1929 50 25 50Z" fill="#F0F0F0"/>
<path d="M7.32225 7.32227C1.96434 12.6802 -0.452359 19.8651 0.0703953 26.8716L26.8715 0.0705106C19.865 -0.452341 12.6802 1.96436 7.32225 7.32227Z" fill="#FFDA44"/>
<path d="M8.92676 44.1476C18.7491 52.4114 33.4326 51.9227 42.6777 42.6776C51.9229 33.4326 52.4116 18.749 44.1477 8.92676L8.92676 44.1476Z" fill="#0052B4"/>
<path d="M24.9108 23.9931L27.0652 22.8261L24.9108 21.6591C24.4078 18.3914 21.826 15.8095 18.5583 15.3065L17.3912 13.152L16.2242 15.3064C12.9566 15.8094 10.3748 18.3913 9.87169 21.659L7.71719 22.8261L9.87159 23.9931C10.3746 27.2607 12.9565 29.8427 16.2241 30.3456L17.3912 32.5001L18.5582 30.3457C21.826 29.8427 24.4078 27.2607 24.9108 23.9931ZM17.3913 27.1739C14.99 27.1739 13.0435 25.2274 13.0435 22.8261C13.0435 20.4247 14.9899 18.4782 17.3913 18.4782C19.7927 18.4782 21.7392 20.4247 21.7392 22.8261C21.7392 25.2274 19.7926 27.1739 17.3913 27.1739Z" fill="black"/>
<path d="M17.3913 19.5652L18.3326 21.1956H20.2153L19.2739 22.8261L20.2153 24.4566H18.3326L17.3913 26.0869L16.45 24.4566H14.5674L15.5087 22.8261L14.5674 21.1956H16.45L17.3913 19.5652Z" fill="#D80027"/>
</svg>
