<svg width="50" height="50" viewBox="0 0 50 50" fill="none" xmlns="http://www.w3.org/2000/svg">
<path d="M1.18057 17.3912C0.414748 19.7905 1.54311e-06 22.3465 9.91994e-05 24.9999C1.54311e-06 27.6531 0.414748 30.2092 1.18067 32.6086L25.0001 33.6957L48.8194 32.6086C49.5852 30.2092 50 27.653 50 25C50 22.3467 49.5853 19.7905 48.8194 17.3912L25 16.3043L1.18057 17.3912Z" fill="#F0F0F0"/>
<path d="M50 25C50 23.5169 49.8701 22.0641 49.6224 20.652H0.377734C0.129883 22.0641 0 23.5167 0 24.9999C0 26.4831 0.12998 27.9356 0.377734 29.3477H49.6224C49.87 27.9355 50 26.483 50 25Z" fill="black"/>
<path d="M25.0001 49.9999C36.154 49.9999 45.6003 42.6949 48.8194 32.6085H1.18066C4.3999 42.6948 13.8463 49.9997 25.0001 49.9999Z" fill="#338AF3"/>
<path d="M25.0001 9.15567e-05C13.8463 9.15567e-05 4.4 7.30507 1.18056 17.3912L48.8192 17.3913C45.6002 7.30507 36.1538 -0.000103756 25.0001 9.15567e-05Z" fill="#338AF3"/>
</svg>
