<svg width="50" height="50" viewBox="0 0 50 50" fill="none" xmlns="http://www.w3.org/2000/svg">
<path d="M50 25C50 38.807 38.807 50 25 50C11.193 50 0 38.807 0 25C0 25.006 25 0.00273438 25 0C38.807 0 50 11.193 50 25Z" fill="#0052B4"/>
<path d="M24.9331 25H25C25 24.9775 25 24.9557 25 24.9331C24.9777 24.9555 24.9555 24.9777 24.9331 25Z" fill="#F0F0F0"/>
<path d="M25 13.0435C25 8.64453 25 5.76221 25 0H24.9958C11.1905 0.00234375 0 11.1942 0 25H13.0435V17.6552L20.3883 25H24.9332C24.9555 24.9777 24.9777 24.9555 25.0001 24.9331C25.0001 23.2488 25.0001 21.746 25.0001 20.3885L17.6551 13.0435H25Z" fill="#F0F0F0"/>
<path d="M35.8695 18.4783C38.2708 18.4783 40.2174 16.5317 40.2174 14.1304C40.2174 11.7292 38.2708 9.78259 35.8695 9.78259C33.4683 9.78259 31.5217 11.7292 31.5217 14.1304C31.5217 16.5317 33.4683 18.4783 35.8695 18.4783Z" fill="#6DA544"/>
<path d="M12.648 3.26086C8.73792 5.48733 5.48723 8.73792 3.26086 12.648V25H9.78264V9.78284V9.78264H25C25 7.72571 25 5.76614 25 3.26086H12.648Z" fill="#D80027"/>
<path d="M25 21.9257L16.1177 13.0436H13.0435V13.0438L24.9998 25H25C25 25 25 22.8802 25 21.9257Z" fill="#D80027"/>
<path d="M28.2609 13.0435H43.4782V19.5652H28.2609V13.0435Z" fill="#D80027"/>
<path d="M28.2609 29.3478V33.6957H30.5484C31.9199 35.0398 33.7974 35.8696 35.8696 35.8696C37.9417 35.8696 39.8192 35.0398 41.1907 33.6957H41.3043H43.4782V29.3478H28.2609Z" fill="#FFDA44"/>
<path d="M28.2609 18.4782V25C28.2609 30.8241 35.8696 32.6087 35.8696 32.6087C35.8696 32.6087 43.4782 30.8241 43.4782 25V18.4782H28.2609Z" fill="#338AF3"/>
<path d="M35.8691 21.9618C33.9671 21.9618 33.9671 23.701 32.065 23.701C30.163 23.701 30.163 21.9618 28.2609 21.9618V25.0052C30.163 25.0052 30.163 26.7444 32.065 26.7444C33.9671 26.7444 33.9671 25.0052 35.8691 25.0052C37.7714 25.0052 37.7714 26.7444 39.6737 26.7444C41.5761 26.7444 41.576 25.0052 43.4783 25.0052V21.9618C41.5761 21.9618 41.5761 23.701 39.6737 23.701C37.7714 23.701 37.7714 21.9618 35.8691 21.9618Z" fill="#F3F3F3"/>
<path d="M35.8691 15.8695C33.9671 15.8695 33.9671 17.6087 32.065 17.6087C30.163 17.6087 30.163 15.8695 28.2609 15.8695V18.913C30.163 18.913 30.163 20.6521 32.065 20.6521C33.9671 20.6521 33.9671 18.913 35.8691 18.913C37.7714 18.913 37.7714 20.6521 39.6737 20.6521C41.5761 20.6521 41.576 18.913 43.4783 18.913V15.8695C41.5761 15.8695 41.5761 17.6087 39.6737 17.6087C37.7714 17.6087 37.7714 15.8695 35.8691 15.8695Z" fill="#F3F3F3"/>
</svg>
