<svg width="50" height="50" viewBox="0 0 50 50" fill="none" xmlns="http://www.w3.org/2000/svg">
<path d="M25 50C38.8071 50 50 38.8071 50 25C50 11.1929 38.8071 0 25 0C11.1929 0 0 11.1929 0 25C0 38.8071 11.1929 50 25 50Z" fill="#F0F0F0"/>
<path d="M49.9991 24.9276H22.8986C17.518 30.3083 14.2643 34.4623 10.942 37.7845L25.0725 39.058L46.9996 36.8841C48.9132 33.3494 50 29.3016 50 25C50 24.9758 49.9991 24.9518 49.9991 24.9276Z" fill="#D80027"/>
<path d="M10.9421 12.9711H46.9198C42.668 5.23984 34.4464 0 25 0C18.1147 0 11.8807 2.78428 7.35974 7.2875L10.9421 12.9711Z" fill="#FFDA44"/>
<path d="M12.029 36.8841C9.78156 39.1316 8.913 41.0146 7.28693 42.6405C11.8138 47.1861 18.0779 50 25 50C34.5055 50 42.7715 44.6948 46.9997 36.8841H12.029Z" fill="#0052B4"/>
<path d="M7.32225 7.24988C-2.44083 17.013 -2.44083 32.8422 7.32225 42.6053C11.3567 38.5709 15.2369 34.6907 25 24.9276L7.32225 7.24988Z" fill="#6DA544"/>
<path d="M6.59425 24.9277C6.59425 21.2853 9.15411 18.2424 12.5725 17.4959C12.0471 17.3812 11.502 17.319 10.942 17.319C6.73976 17.319 3.33331 20.7254 3.33331 24.9277C3.33331 29.1299 6.73976 32.5364 10.942 32.5364C11.5019 32.5364 12.047 32.4741 12.5725 32.3594C9.15411 31.6128 6.59425 28.57 6.59425 24.9277Z" fill="#F0F0F0"/>
<path d="M12.4886 18.4059L12.8934 19.6514H14.2029L13.1434 20.4212L13.5482 21.6667L12.4886 20.897L11.429 21.6667L11.8338 20.4212L10.7742 19.6514H12.0838L12.4886 18.4059Z" fill="#F0F0F0"/>
<path d="M12.4886 21.6667L12.8934 22.9124H14.2029L13.1434 23.6821L13.5482 24.9277L12.4886 24.1579L11.429 24.9277L11.8338 23.6821L10.7742 22.9124H12.0838L12.4886 21.6667Z" fill="#F0F0F0"/>
<path d="M12.4886 24.9277L12.8934 26.1732H14.2029L13.1434 26.943L13.5482 28.1885L12.4886 27.4187L11.429 28.1885L11.8338 26.943L10.7742 26.1732H12.0838L12.4886 24.9277Z" fill="#F0F0F0"/>
<path d="M12.4886 28.1885L12.8934 29.434H14.2029L13.1434 30.2038L13.5482 31.4493L12.4886 30.6796L11.429 31.4493L11.8338 30.2038L10.7742 29.434H12.0838L12.4886 28.1885Z" fill="#F0F0F0"/>
</svg>
