<svg width="50" height="50" viewBox="0 0 50 50" fill="none" xmlns="http://www.w3.org/2000/svg">
<path d="M25 50C38.8071 50 50 38.8071 50 25C50 11.1929 38.8071 0 25 0C11.1929 0 0 11.1929 0 25C0 38.8071 11.1929 50 25 50Z" fill="#F0F0F0"/>
<path d="M29.8913 49.5202C39.7744 47.5597 47.5597 39.7743 49.5202 29.8913H29.8913V49.5202Z" fill="#496E2D"/>
<path d="M0.479797 29.8913C2.44025 39.7743 10.2256 47.5597 20.1087 49.5202V29.8913H0.479797Z" fill="#496E2D"/>
<path d="M49.5202 20.1087C47.5597 10.2257 39.7744 2.44034 29.8913 0.479797V20.1087H49.5202Z" fill="#496E2D"/>
<path d="M20.1087 0.479797C10.2256 2.44034 2.44025 10.2257 0.479797 20.1087H20.1087V0.479797Z" fill="#496E2D"/>
<path d="M23.3695 29.8913H20.1087V49.5202C21.1729 49.7312 22.2614 49.8742 23.3695 49.9456V29.8913Z" fill="#FFDA44"/>
<path d="M23.3695 20.1087V0.0543823C22.2614 0.125671 21.1728 0.268738 20.1087 0.479773V20.1087H23.3695Z" fill="#FFDA44"/>
<path d="M26.6304 0.0543945C26.0912 0.0195312 25.5479 0 25 0C24.452 0 23.9088 0.0195312 23.3695 0.0543945V20.1088H26.6303V0.0543945H26.6304Z" fill="black"/>
<path d="M23.3695 49.9456C23.9088 49.9805 24.452 50 25 50C25.5479 50 26.0912 49.9805 26.6304 49.9456V29.8913H23.3696V49.9456H23.3695Z" fill="black"/>
<path d="M20.1087 23.3695V20.1087H0.479773C0.26864 21.173 0.125671 22.2614 0.0543823 23.3695H20.1087Z" fill="#FFDA44"/>
<path d="M29.8913 23.3695H49.9457C49.8744 22.2614 49.7313 21.173 49.5203 20.1087H29.8914V23.3695H29.8913Z" fill="#FFDA44"/>
<path d="M29.8913 26.6304H49.9457C49.9805 26.0913 50 25.5479 50 25C50 24.452 49.9805 23.9087 49.9456 23.3695H29.8913V26.6304Z" fill="black"/>
<path d="M0.0543945 23.3695C0.0196289 23.9087 0 24.452 0 25C0 25.5479 0.0196289 26.0913 0.0543945 26.6304H20.1088V23.3696H0.0543945V23.3695Z" fill="black"/>
<path d="M25 36.9565C31.6034 36.9565 36.9565 31.6034 36.9565 25C36.9565 18.3966 31.6034 13.0435 25 13.0435C18.3966 13.0435 13.0435 18.3966 13.0435 25C13.0435 31.6034 18.3966 36.9565 25 36.9565Z" fill="#D80027"/>
<path d="M27.724 26.334C26.8347 24.5554 25.6787 22.7527 25.6787 22.7527C25.6787 22.7527 25.7074 21.9319 25.7074 21.4428C25.7074 20.7061 25.1101 20.1088 24.3734 20.1088C23.6755 20.1088 23.1036 20.6451 23.0453 21.3278C22.4965 21.3636 22.0622 21.8189 22.0622 22.3767C22.0622 22.7823 22.292 23.1337 22.6283 23.3094C22.7955 22.9184 23.1228 22.6131 23.5277 22.474C23.5937 22.528 23.6646 22.5762 23.7403 22.6171L23.9112 22.699C23.9112 22.699 23.2775 24.4852 23.2775 25.4448C23.2775 28.1424 25.0562 28.9744 25.0562 28.9744V29.0022L24.1669 29.8914H25.9455V28.1127L26.8349 29.0021C26.8427 28.9854 28.5194 27.9249 27.724 26.334Z" fill="#496E2D"/>
<path d="M25 15.2174L25.4047 16.4629H26.7142L25.6547 17.2327L26.0595 18.4782L25 17.7085L23.9404 18.4782L24.3452 17.2327L23.2857 16.4629H24.5953L25 15.2174Z" fill="#496E2D"/>
<path d="M19.25 17.0858L20.3094 17.8556L21.3689 17.0857L20.9642 18.3314L22.0238 19.101L20.7141 19.1011L20.3094 20.3466L19.9047 19.1011L18.5951 19.101L19.6546 18.3312L19.25 17.0858Z" fill="#496E2D"/>
<path d="M15.6962 21.9771H17.0056L17.4104 20.7316L17.8151 21.9771L19.1248 21.977L18.0653 22.7469L18.4701 23.9924L17.4104 23.2226L16.351 23.9923L16.7555 22.7468L15.6962 21.9771Z" fill="#496E2D"/>
<path d="M15.6962 28.023L16.7555 27.2534L16.3509 26.0078L17.4104 26.7776L18.47 26.0078L18.0653 27.2533L19.1249 28.0231L17.8151 28.0232L17.4104 29.2686L17.0056 28.023H15.6962Z" fill="#496E2D"/>
<path d="M19.25 32.9143L19.6545 31.669L18.595 30.8992H19.9046L20.3094 29.6536L20.7141 30.8991H22.0238L20.9642 31.669L21.3689 32.9144L20.3093 32.1446L19.25 32.9143Z" fill="#496E2D"/>
<path d="M25 34.7826L24.5953 33.5373H23.2857L24.3452 32.7674L23.9404 31.5219L25 32.2915L26.0594 31.5218L25.6547 32.7674L26.7142 33.5372L25.4047 33.5373L25 34.7826Z" fill="#496E2D"/>
<path d="M30.75 32.9143L29.6906 32.1446L28.6311 32.9145L29.0357 31.669L27.9761 30.8992L29.2858 30.8991L29.6904 29.6536L30.0953 30.8992H31.4048L30.3454 31.669L30.75 32.9143Z" fill="#496E2D"/>
<path d="M34.3038 28.0229H32.9943L32.5895 29.2686L32.1848 28.0231H30.8751L31.9346 27.2532L31.5298 26.0078L32.5895 26.7775L33.6489 26.0078L33.2444 27.2533L34.3038 28.0229Z" fill="#496E2D"/>
<path d="M34.3038 21.9771L33.2444 22.7468L33.649 23.9923L32.5895 23.2226L31.5299 23.9925L31.9346 22.7469L30.8751 21.9772L32.1848 21.977L32.5894 20.7317L32.9943 21.9771H34.3038Z" fill="#496E2D"/>
<path d="M30.75 17.0858L30.3454 18.3312L31.4048 19.101H30.0953L29.6906 20.3466L29.2858 19.1011L27.9761 19.1012L29.0357 18.3312L28.631 17.0859L29.6906 17.8555L30.75 17.0858Z" fill="#496E2D"/>
</svg>
