<svg width="50" height="50" viewBox="0 0 50 50" fill="none" xmlns="http://www.w3.org/2000/svg">
<path d="M25 50C38.8071 50 50 38.8071 50 25C50 11.1929 38.8071 0 25 0C11.1929 0 0 11.1929 0 25C0 38.8071 11.1929 50 25 50Z" fill="#F0F0F0"/>
<path d="M48.9131 25L49.788 21.7391C49.6427 20.6277 49.4247 19.539 49.1389 18.4783H22.8261V0.0950928C21.7167 0.190601 20.6283 0.359448 19.5653 0.59519L15.2174 3.26082L13.0435 3.04138C11.8994 3.6656 10.8095 4.37654 9.78264 5.1655V18.4782H0.861255C0.575415 19.5389 0.357446 20.6276 0.212134 21.739L1.08694 25L0.212036 28.2608C0.357349 29.3722 0.575317 30.4609 0.861157 31.5217H9.78254V44.8344C10.8094 45.6234 11.8994 46.3343 13.0434 46.9585L16.3042 46.739L19.5651 49.4047C20.6282 49.6403 21.7166 49.8092 22.8259 49.9048V31.5218H49.1386C49.4244 30.461 49.6424 29.3723 49.7877 28.2609L48.9131 25Z" fill="#0052B4"/>
<path d="M49.7884 21.7392H19.5653H19.5652V0.594238C17.2549 1.10654 15.0646 1.93691 13.0435 3.03975V21.7391H0.211621C0.0726563 22.8065 0 23.8948 0 25C0 26.1052 0.0726563 27.1935 0.211621 28.2608H13.0434H13.0435V46.9602C15.0646 48.0629 17.2549 48.8935 19.5652 49.4057V28.2611V28.2609H49.7884C49.9273 27.1935 50 26.1052 50 25C50 23.8948 49.9273 22.8065 49.7884 21.7392Z" fill="#D80027"/>
</svg>
