<svg width="50" height="50" viewBox="0 0 50 50" fill="none" xmlns="http://www.w3.org/2000/svg">
<path d="M50 25C50 38.807 38.807 50 25 50C11.193 50 0 38.807 0 25C0 25.006 25 0.00273438 25 0C38.807 0 50 11.193 50 25Z" fill="#338AF3"/>
<path d="M25 11.9565V20.3885L16.3044 11.9565H25Z" fill="#0052B4"/>
<path d="M13.0435 25H20.3884L13.0435 15.2174L11.9565 22.8261L13.0435 25Z" fill="#0052B4"/>
<path d="M24.9331 25H25C25 24.9775 25 24.9557 25 24.9331C24.9777 24.9555 24.9555 24.9777 24.9331 25Z" fill="#F0F0F0"/>
<path d="M25 13.0435C25 8.64453 25 5.76221 25 0H24.9958C11.1906 0.00234375 0 11.1942 0 25H13.0435V17.6552L20.3884 25H24.9333C24.9556 24.9777 24.9778 24.9555 25.0002 24.9331C25.0002 23.2488 25.0002 21.746 25.0002 20.3885L17.6551 13.0435H25Z" fill="#F0F0F0"/>
<path d="M12.6479 3.26086C8.73788 5.48733 5.4873 8.73792 3.26083 12.648V25H9.78261V9.78284V9.78264H25C25 7.72571 25 5.76614 25 3.26086H12.6479Z" fill="#D80027"/>
<path d="M25 21.9257L16.1179 13.0436H13.0435V13.0438L24.9998 25H25C25 25 25 22.8802 25 21.9257Z" fill="#D80027"/>
<path d="M28.2608 16.3044V24.9999C28.2608 30.8241 35.8695 32.6087 35.8695 32.6087C35.8695 32.6087 43.4782 30.8241 43.4782 24.9999V16.3044L35.8695 14.1305L28.2608 16.3044Z" fill="#F3F3F3"/>
<path d="M43.4782 16.3044V13.0436H28.2608V16.3044H34.7824V22.8263H28.2608V25V25.0002L34.7824 25.0003V32.2754C35.4385 32.5074 35.8695 32.6088 35.8695 32.6088C35.8695 32.6088 36.3004 32.5076 36.9563 32.2754V25.0002H43.4782V25V22.8262H36.9563V16.3043H43.4782V16.3044Z" fill="#D80027"/>
</svg>
