<svg width="50" height="50" viewBox="0 0 50 50" fill="none" xmlns="http://www.w3.org/2000/svg">
<path d="M25 50C38.8071 50 50 38.8071 50 25C50 11.1929 38.8071 0 25 0C11.1929 0 0 11.1929 0 25C0 38.8071 11.1929 50 25 50Z" fill="#F0F0F0"/>
<path d="M25 0C14.6646 0 5.79464 6.27207 1.98712 15.2174H48.013C44.2055 6.27207 35.3355 0 25 0Z" fill="#A2001D"/>
<path d="M25 50C35.3355 50 44.2055 43.7279 48.0129 34.7826H1.98712C5.79464 43.7279 14.6646 50 25 50Z" fill="#496E2D"/>
<path d="M49.1388 18.4783H0.86123C0.300781 20.5577 0 22.7435 0 25C0 27.2566 0.300781 29.4424 0.86123 31.5218H49.1389C49.6992 29.4424 50 27.2566 50 25C50 22.7435 49.6992 20.5577 49.1388 18.4783Z" fill="#0052B4"/>
</svg>
