<svg width="50" height="50" viewBox="0 0 50 50" fill="none" xmlns="http://www.w3.org/2000/svg">
<path d="M10.9095 45.6522C14.9216 48.3949 19.7732 50 25 50C30.2269 50 35.0783 48.3949 39.0905 45.6522L25 43.4783L10.9095 45.6522Z" fill="#D80027"/>
<path d="M39.0905 4.34785C35.0783 1.60518 30.2269 0 25 0C19.7732 0 14.9216 1.60518 10.9095 4.34785L25 6.52178L39.0905 4.34785Z" fill="#D80027"/>
<path d="M50 25C50 16.7276 45.0473 8.41997 39.0905 4.3479H10.9095C4.32324 8.85024 0 16.42 0 25C0 33.5804 4.32324 41.1498 10.9095 45.6522H39.0905C45.6769 41.1498 50 33.5804 50 25Z" fill="#0052B4"/>
<path d="M23.5853 40.781C23.2437 40.488 15.2174 33.5106 15.2174 25C15.2174 16.4894 23.2436 9.51191 23.5853 9.21904L25 8.00635L26.4148 9.21895C26.7564 9.51191 34.7826 16.4893 34.7826 25C34.7826 33.5107 26.7565 40.4882 26.4148 40.781L25 41.9937L23.5853 40.781Z" fill="#D80027"/>
<path d="M32.6087 25C32.6087 17.3913 25 10.8695 25 10.8695C25 10.8695 17.3913 17.3915 17.3913 25C17.3913 27.3276 18.1039 29.5531 19.0924 31.5218H30.9076C31.8961 29.5531 32.6087 27.3276 32.6087 25Z" fill="#338AF3"/>
<path d="M32.6087 25C32.6087 27.3276 31.8961 29.5531 30.9076 31.5218L25 32.6087L19.0924 31.5218C18.1039 29.5532 17.3913 27.3276 17.3913 25H32.6087Z" fill="#0052B4"/>
<path d="M25 39.1304C25 39.1304 28.6649 35.9881 30.9076 31.5217H19.0924C21.3352 35.9881 25 39.1304 25 39.1304Z" fill="#FFDA44"/>
<path d="M20.1087 20.6521H29.8913L25 25.5434L20.1087 20.6521Z" fill="#6DA544"/>
<path d="M23.3695 23.9131H26.6303V33.6957H23.3695V23.9131Z" fill="#A2001D"/>
</svg>
