<svg width="50" height="50" viewBox="0 0 50 50" fill="none" xmlns="http://www.w3.org/2000/svg">
<path d="M25 0C22.7436 0 20.5577 0.300781 18.4783 0.86123L16.3044 25L18.4784 49.1388C20.5577 49.6992 22.7436 50 25 50C38.8071 50 50 38.807 50 25C50 11.193 38.8071 0 25 0Z" fill="#FFDA44"/>
<path d="M16.3044 25L18.4784 49.1388C20.5577 49.6992 22.7436 50 25 50C38.8071 50 50 38.807 50 25H16.3044Z" fill="#6DA544"/>
<path d="M0 24.9999C0 34.476 5.27246 42.7201 13.0435 46.9602V3.03967C5.27246 7.27971 0 15.5239 0 24.9999Z" fill="#D80027"/>
<path d="M0 25C0 36.5507 7.83408 46.27 18.4782 49.1387V0.861206C7.83408 3.72996 0 13.4493 0 25Z" fill="#D80027"/>
<path d="M9.44692 18.4783L11.0656 23.4603H16.3044L12.0664 26.5396L13.6849 31.5218L9.44692 28.4426L5.20874 31.5218L6.82769 26.5396L2.5896 23.4603H7.82817L9.44692 18.4783Z" fill="black"/>
</svg>
