<svg width="50" height="50" viewBox="0 0 50 50" fill="none" xmlns="http://www.w3.org/2000/svg">
<path d="M25 50C38.8071 50 50 38.8071 50 25C50 11.1929 38.8071 0 25 0C11.1929 0 0 11.1929 0 25C0 38.8071 11.1929 50 25 50Z" fill="#F0F0F0"/>
<path d="M25 50C34.9114 50 43.4756 44.2319 47.5193 35.8695H2.48067C6.52442 44.2319 15.0885 50 25 50Z" fill="#338AF3"/>
<path d="M25 0C15.0885 0 6.52442 5.76807 2.48067 14.1305H47.5192C43.4756 5.76807 34.9114 0 25 0Z" fill="#338AF3"/>
<path d="M15.3853 16.3044L16.1946 18.7956H18.8139L16.6949 20.335L17.5044 22.8261L15.3853 21.2866L13.2661 22.8261L14.0756 20.335L11.9565 18.7956H14.5758L15.3853 16.3044Z" fill="#338AF3"/>
<path d="M15.3853 27.174L16.1946 29.6652H18.8139L16.6949 31.2046L17.5044 33.6956L15.3853 32.1561L13.2661 33.6956L14.0756 31.2046L11.9565 29.6652H14.5758L15.3853 27.174Z" fill="#338AF3"/>
<path d="M34.6147 16.3044L35.4242 18.7956H38.0435L35.9244 20.335L36.7339 22.8261L34.6147 21.2866L32.4956 22.8261L33.3051 20.335L31.186 18.7956H33.8054L34.6147 16.3044Z" fill="#338AF3"/>
<path d="M34.6147 27.174L35.4242 29.6652H38.0435L35.9244 31.2046L36.7339 33.6956L34.6147 32.1561L32.4956 33.6956L33.3051 31.2046L31.186 29.6652H33.8054L34.6147 27.174Z" fill="#338AF3"/>
<path d="M25 21.7391L25.8095 24.2303H28.4287L26.3097 25.7698L27.1191 28.2608L25 26.7213L22.8809 28.2608L23.6903 25.7698L21.5713 24.2303H24.1905L25 21.7391Z" fill="#338AF3"/>
</svg>
