<svg width="50" height="50" viewBox="0 0 50 50" fill="none" xmlns="http://www.w3.org/2000/svg">
<path d="M25 50C38.8071 50 50 38.8071 50 25C50 11.1929 38.8071 0 25 0C11.1929 0 0 11.1929 0 25C0 38.8071 11.1929 50 25 50Z" fill="#FFDA44"/>
<path d="M40.2203 5.16797C36.0048 1.92764 30.7279 0 25 0C19.2721 0 13.9951 1.92773 9.7796 5.16797L25 20.3883L40.2203 5.16797Z" fill="#6DA544"/>
<path d="M5.16787 9.77966C1.92773 13.9952 0 19.272 0 25C0 30.7279 1.92773 36.0049 5.16797 40.2205L20.3884 25L5.16787 9.77966Z" fill="black"/>
<path d="M9.7796 44.832C13.9952 48.0723 19.2721 50 25 50C30.7279 50 36.0048 48.0722 40.2204 44.832L25 29.6117L9.7796 44.832Z" fill="#6DA544"/>
<path d="M44.832 40.2203C48.0723 36.0048 50 30.7279 50 25C50 19.272 48.0723 13.9952 44.832 9.77966L29.6117 25L44.832 40.2203Z" fill="black"/>
</svg>
