<svg width="50" height="50" viewBox="0 0 50 50" fill="none" xmlns="http://www.w3.org/2000/svg">
<path d="M25 50C38.8071 50 50 38.8071 50 25C50 11.1929 38.8071 0 25 0C11.1929 0 0 11.1929 0 25C0 38.8071 11.1929 50 25 50Z" fill="#F0F0F0"/>
<path d="M15.2174 16.3044H48.4449C44.9127 6.78437 35.749 0 25 0C18.0963 0 11.8469 2.79873 7.32312 7.32314L15.2174 16.3044Z" fill="black"/>
<path d="M15.2174 33.6956H48.4449C44.9127 43.2156 35.749 50 25 50C18.0963 50 11.8469 47.2012 7.32312 42.6768L15.2174 33.6956Z" fill="#6DA544"/>
<path d="M7.32231 7.32227C-2.44077 17.0854 -2.44077 32.9145 7.32231 42.6777C11.3568 38.6433 15.237 34.7631 25 25L7.32231 7.32227Z" fill="#D80027"/>
<path d="M9.92241 19.5652L11.2944 22.4342L14.3929 21.7181L13.0052 24.5795L15.4969 26.5555L12.3947 27.2546L12.4033 30.4347L9.92241 28.4452L7.44145 30.4347L7.45015 27.2546L4.3479 26.5555L6.8395 24.5795L5.452 21.7181L8.55034 22.4342L9.92241 19.5652Z" fill="#F0F0F0"/>
</svg>
