<svg width="50" height="50" viewBox="0 0 50 50" fill="none" xmlns="http://www.w3.org/2000/svg">
<path d="M0 25C0 28.8955 0.891309 32.5828 2.48066 35.8695L25 36.9565L47.5193 35.8696C49.1087 32.5828 50 28.8955 50 25C50 21.1045 49.1087 17.4172 47.5193 14.1305L25 13.0435L2.48066 14.1304C0.891309 17.4172 0 21.1045 0 25H0Z" fill="#F0F0F0"/>
<path d="M25 50.0001C34.9115 50.0001 43.4756 44.232 47.5194 35.8696H2.48071C6.52446 44.232 15.0885 50.0001 25 50.0001Z" fill="#6DA544"/>
<path d="M25 0C15.0885 0 6.52446 5.76807 2.48071 14.1305H47.5193C43.4756 5.76807 34.9115 0 25 0Z" fill="#0052B4"/>
<path d="M26.6305 24.4565V18.4783H23.3696V24.4565L19.4312 28.3951C20.5766 30.2701 22.6421 31.5217 25.0001 31.5217C27.3581 31.5217 29.4235 30.2701 30.569 28.3951L26.6305 24.4565Z" fill="black"/>
</svg>
