<svg width="50" height="50" viewBox="0 0 50 50" fill="none" xmlns="http://www.w3.org/2000/svg">
<path d="M25 50C38.807 50 50 38.807 50 25C50 20.8044 48.9648 16.851 47.1385 13.3789L24.9706 25.0293L36.6211 2.86152C33.149 1.03516 29.1956 0 25 0C11.193 0 0 11.193 0 25C0 31.9036 2.79824 38.1536 7.32227 42.6777C11.8464 47.2019 18.0964 50 25 50Z" fill="#0052B4"/>
<path d="M47.112 13.4062C45.9677 11.228 44.4799 9.18301 42.6484 7.35156C40.8169 5.52012 38.7722 4.03232 36.5938 2.88808L7.29297 42.7069L47.112 13.4062Z" fill="#F0F0F0"/>
<path d="M7.29297 42.7069L47.112 13.4062C45.9677 11.228 44.4799 9.18301 42.6484 7.35156L7.29297 42.7069Z" fill="#FF9811"/>
<path d="M21.7097 14.6603L18.6566 16.0965L20.2825 19.0535L16.967 18.4192L16.5469 21.7685L14.2375 19.3051L11.9282 21.7685L11.5083 18.4192L8.19282 19.0533L9.81851 16.0964L6.76538 14.6603L9.8186 13.2241L8.19282 10.2673L11.5081 10.9014L11.9283 7.55215L14.2375 10.0155L16.5469 7.55215L16.967 10.9014L20.2826 10.2673L18.6567 13.2242L21.7097 14.6603Z" fill="#F0F0F0"/>
</svg>
