<svg width="50" height="50" viewBox="0 0 50 50" fill="none" xmlns="http://www.w3.org/2000/svg">
<path d="M3.03979 13.0435L25 15.2174L46.9603 13.0435C42.7202 5.27236 34.4761 0 25 0C15.524 0 7.27993 5.27236 3.03979 13.0435Z" fill="#D80027"/>
<path d="M3.03975 36.9565L25 39.1305L46.9603 36.9565C48.8981 33.4047 50 29.3311 50 25L25 22.8261L0 25C0 29.3311 1.10186 33.4047 3.03975 36.9565Z" fill="#FFDA44"/>
<path d="M3.03975 13.0435C1.10186 16.5953 0 20.6689 0 25H50C50 20.6689 48.8981 16.5953 46.9603 13.0435H25H3.03975Z" fill="#0052B4"/>
<path d="M25 50C34.4761 50 42.7202 44.7276 46.9603 36.9565H3.03979C7.27993 44.7276 15.524 50 25 50Z" fill="#6DA544"/>
</svg>
