<svg width="50" height="50" viewBox="0 0 50 50" fill="none" xmlns="http://www.w3.org/2000/svg">
<path d="M25 50C28.058 50 30.9874 49.45 33.6956 48.445L34.7826 25L33.6957 1.55498C30.9874 0.550098 28.058 0 25 0C21.942 0 19.0126 0.550098 16.3044 1.55498L15.2174 25L16.3043 48.445C19.0126 49.45 21.942 50 25 50Z" fill="#0052B4"/>
<path d="M0 25C0 35.7491 6.78437 44.9127 16.3044 48.445V1.55498C6.78437 5.0873 0 14.2509 0 25Z" fill="#A2001D"/>
<path d="M33.6956 1.55498V48.4451C43.2156 44.9127 50 35.7491 50 25C50 14.2509 43.2156 5.0873 33.6956 1.55498Z" fill="#A2001D"/>
<path d="M11.9565 25H14.1305V33.6956H11.9565V25Z" fill="#FFDA44"/>
<path d="M3.26086 25H5.43479V33.6956H3.26086V25Z" fill="#FFDA44"/>
<path d="M8.69565 30.4348C9.89628 30.4348 10.8696 29.4615 10.8696 28.2608C10.8696 27.0602 9.89628 26.0869 8.69565 26.0869C7.49503 26.0869 6.52173 27.0602 6.52173 28.2608C6.52173 29.4615 7.49503 30.4348 8.69565 30.4348Z" fill="#FFDA44"/>
<path d="M8.69568 21.7391C9.29596 21.7391 9.78259 21.2524 9.78259 20.6521C9.78259 20.0519 9.29596 19.5652 8.69568 19.5652C8.09539 19.5652 7.60876 20.0519 7.60876 20.6521C7.60876 21.2524 8.09539 21.7391 8.69568 21.7391Z" fill="#FFDA44"/>
<path d="M6.52185 31.5218H10.8697V33.6957H6.52185V31.5218Z" fill="#FFDA44"/>
<path d="M6.52185 22.8261H10.8697V25H6.52185V22.8261Z" fill="#FFDA44"/>
<path d="M8.69565 13.0435L9.46558 15.4126H11.9566L9.94145 16.8769L10.7108 19.246L8.69565 17.7817L6.68061 19.246L7.44995 16.8769L5.43481 15.4126H7.92583L8.69565 13.0435Z" fill="#FFDA44"/>
</svg>
