<svg width="50" height="50" viewBox="0 0 50 50" fill="none" xmlns="http://www.w3.org/2000/svg">
<path d="M2.48066 14.1305C0.891406 17.4172 0 21.1044 0 25C0 28.8956 0.891406 32.5828 2.48066 35.8695L25 38.0435L47.5193 35.8695C49.1086 32.5828 50 28.8956 50 25C50 21.1044 49.1086 17.4172 47.5193 14.1305L25 11.9565L2.48066 14.1305Z" fill="#F0F0F0"/>
<path d="M2.48145 35.8695C6.525 44.2319 15.0884 50 24.9999 50C34.9114 50 43.4748 44.2319 47.5184 35.8695H2.48145Z" fill="#6DA544"/>
<path d="M2.48145 14.1305H47.5184C43.4748 5.76807 34.9113 0 24.9999 0C15.0885 0 6.525 5.76807 2.48145 14.1305Z" fill="#FF9811"/>
<path d="M24.9998 33.6956C29.8023 33.6956 33.6954 29.8024 33.6954 25C33.6954 20.1975 29.8023 16.3044 24.9998 16.3044C20.1974 16.3044 16.3042 20.1975 16.3042 25C16.3042 29.8024 20.1974 33.6956 24.9998 33.6956Z" fill="#FF9811"/>
</svg>
