<svg width="50" height="50" viewBox="0 0 50 50" fill="none" xmlns="http://www.w3.org/2000/svg">
<path d="M50 25C50 38.807 38.807 50 25 50C11.193 50 0 38.807 0 25C0 25.006 25 0.00273438 25 0C38.807 0 50 11.193 50 25Z" fill="#FFDA44"/>
<path d="M25 11.9565V20.3885L16.3044 11.9565H25Z" fill="#0052B4"/>
<path d="M13.0435 25H20.3883L13.0435 15.2174L11.9565 22.8261L13.0435 25Z" fill="#0052B4"/>
<path d="M24.9331 25H25C25 24.9775 25 24.9557 25 24.9331C24.9777 24.9555 24.9555 24.9777 24.9331 25Z" fill="#F0F0F0"/>
<path d="M25 13.0435C25 8.64453 25 5.76221 25 0H24.9958C11.1905 0.00234375 0 11.1942 0 25H13.0435V17.6552L20.3883 25H24.9332C24.9555 24.9777 24.9777 24.9555 25.0001 24.9331C25.0001 23.2488 25.0001 21.746 25.0001 20.3885L17.6551 13.0435H25Z" fill="#F0F0F0"/>
<path d="M25 21.9257L16.1177 13.0435H13.0435V13.0437L24.9998 25H25C25 25 25 22.8802 25 21.9257Z" fill="#D80027"/>
<path d="M12.6479 3.26083C11.6841 3.80966 10.7607 4.42128 9.88262 5.08896H10.9084L8.19727 7.05908L9.23262 10.2463L6.52148 8.27656L6.23301 8.48622C5.10732 9.76454 4.10928 11.1579 3.26074 12.6479V25H9.78252V9.78281V9.78261H24.9999C24.9999 7.72568 24.9999 5.76611 24.9999 3.26083H12.6479Z" fill="#D80027"/>
<path d="M10.6796 4.50702C10.41 4.69579 10.1441 4.88983 9.88232 5.08895L8.19727 7.05907L6.52148 8.27645L6.23057 8.48778C5.6167 9.18505 5.04102 9.91669 4.50684 10.6797C5.11572 10.9752 5.79922 11.1413 6.52148 11.1413C9.07285 11.1413 11.141 9.07313 11.141 6.52176C11.1412 5.7993 10.9752 5.116 10.6796 4.50702Z" fill="#0052B4"/>
<path d="M6.23071 8.48779L6.52163 8.27646L9.23276 10.2463L8.19731 7.05908L10.9083 5.08896H9.88228C8.55474 6.09863 7.3314 7.23769 6.23071 8.48779Z" fill="#FFDA44"/>
<path d="M17.2793 4.34784L17.819 6.00848H19.5651L18.1525 7.03495L18.6918 8.69559L17.2793 7.66923L15.8667 8.69559L16.406 7.03495L14.9934 6.00848H16.7396L17.2793 4.34784Z" fill="#FFDA44"/>
<path d="M6.52168 15.2174L7.06133 16.878H8.80742L7.39492 17.9046L7.93428 19.5652L6.52168 18.5388L5.10898 19.5652L5.64834 17.9046L4.23584 16.878H5.98193L6.52168 15.2174Z" fill="#FFDA44"/>
</svg>
