<svg width="50" height="50" viewBox="0 0 50 50" fill="none" xmlns="http://www.w3.org/2000/svg">
<path d="M25 50C38.8071 50 50 38.8071 50 25C50 11.1929 38.8071 0 25 0C11.1929 0 0 11.1929 0 25C0 38.8071 11.1929 50 25 50Z" fill="#F0F0F0"/>
<path d="M6.04868 8.69562C5.17144 9.71447 4.37505 10.8046 3.66919 11.9565H46.3305C45.6247 10.8046 44.8284 9.71437 43.951 8.69562H6.04868Z" fill="#D80027"/>
<path d="M6.04871 41.3044H43.9511C44.8284 40.2856 45.6248 39.1954 46.3306 38.0436H3.66931C4.37507 39.1953 5.17146 40.2856 6.04871 41.3044Z" fill="#D80027"/>
<path d="M21.8008 20.4283L23.852 23.255L27.1739 22.1779L25.1195 25.0021L27.1705 27.8286L23.8497 26.7474L21.7953 29.5716L21.7974 26.0793L18.4766 24.9981L21.7986 23.9209L21.8008 20.4283Z" fill="#D80027"/>
<path d="M16.2025 32.0653C12.3006 32.0653 9.1373 28.902 9.1373 25C9.1373 21.0981 12.3006 17.9348 16.2025 17.9348C17.4191 17.9348 18.564 18.2424 19.5634 18.784C17.9955 17.2507 15.8513 16.3043 13.4852 16.3043C8.68262 16.3043 4.78955 20.1975 4.78955 24.9999C4.78955 29.8024 8.68271 33.6955 13.4852 33.6955C15.8513 33.6955 17.9955 32.7491 19.5634 31.2158C18.564 31.7576 17.4192 32.0653 16.2025 32.0653Z" fill="#D80027"/>
</svg>
