<svg width="50" height="50" viewBox="0 0 50 50" fill="none" xmlns="http://www.w3.org/2000/svg">
<path d="M25 50C38.8071 50 50 38.8071 50 25C50 11.1929 38.8071 0 25 0C11.1929 0 0 11.1929 0 25C0 38.8071 11.1929 50 25 50Z" fill="#FCFCFC"/>
<path d="M32.6088 20.6522V22.8261H35.5924C34.3473 24.5566 32.6888 25.9692 30.7618 26.9205C30.2675 26.4069 29.5734 26.0869 28.8044 26.0869C27.508 26.0869 26.4244 26.995 26.153 28.2098C25.7731 28.2432 25.3887 28.2609 25.0001 28.2609C24.6115 28.2609 24.227 28.243 23.8472 28.2098C23.5758 26.9951 22.4922 26.0869 21.1958 26.0869C20.4268 26.0869 19.7329 26.4069 19.2384 26.9205C17.3114 25.9693 15.653 24.5565 14.4079 22.8261H17.3914V20.6522H9.78271C9.78271 29.0564 16.5959 35.8695 25.0001 35.8695C33.4045 35.8695 40.2175 29.0564 40.2175 20.6522H32.6088Z" fill="#D80027"/>
</svg>
