<svg width="50" height="50" viewBox="0 0 50 50" fill="none" xmlns="http://www.w3.org/2000/svg">
<path d="M10.9094 45.6522C14.9217 48.3949 19.773 50 25 50C30.2269 50 35.0783 48.3949 39.0905 45.6522L25 43.4783L10.9094 45.6522Z" fill="#D80027"/>
<path d="M39.0905 4.34785C35.0783 1.60518 30.2269 0 25 0C19.773 0 14.9215 1.60518 10.9094 4.34785L25 6.52178L39.0905 4.34785Z" fill="#D80027"/>
<path d="M10.9094 45.6522C14.9217 48.3949 19.773 50 25 50C30.2269 50 35.0783 48.3949 39.0905 45.6522L25 43.4783L10.9094 45.6522Z" fill="#D80027"/>
<path d="M39.0905 4.34785C35.0783 1.60518 30.2269 0 25 0C19.773 0 14.9215 1.60518 10.9094 4.34785L25 6.52178L39.0905 4.34785Z" fill="#D80027"/>
<path d="M49.9363 23.3696C49.344 15.6537 44.6558 8.15217 39.0905 4.34778H10.9094C4.7438 8.56272 0.561475 15.4658 0.0524902 23.3696L25 25L49.9363 23.3696Z" fill="#0052B4"/>
<path d="M0.0524902 26.6305C0.561475 34.5343 4.7437 41.4373 10.9093 45.6522H39.0904C45.2563 41.4374 49.4383 34.5343 49.9473 26.6305L25 25L0.0524902 26.6305Z" fill="#0052B4"/>
<path d="M49.9363 23.3695H26.6305V3.26086H23.3696V23.3695H0.0526367C0.0179687 23.9085 0 24.4522 0 25C0 25.5478 0.0178711 26.0913 0.0525391 26.6304H23.3696V46.7392H26.6305V26.6304H49.9476C49.9821 26.0913 50 25.5478 50 25C50 24.4562 49.978 23.9123 49.9363 23.3695Z" fill="#D80027"/>
<path d="M9.78271 25L25 15.4353L40.2175 25L25 34.5647L9.78271 25Z" fill="#F0F0F0"/>
<path d="M16.3044 29.3478H35.8696L31.5218 22.826L29.3479 25L27.174 23.9131L25 27.1739H20.6522L18.4783 25L16.3044 29.3478Z" fill="#6DA544"/>
<path d="M25 18.4783L25.5396 20.1389H27.2856L25.873 21.1654L26.4127 22.8261L25 21.7998L23.5873 22.8261L24.127 21.1654L22.7144 20.1389H24.4604L25 18.4783Z" fill="#FFDA44"/>
<path d="M25 12.7025L5.43481 25L25 37.2974L44.5653 25L25 12.7025ZM11.5625 25L25 16.554L38.4375 25L25 33.446L11.5625 25Z" fill="#D80027"/>
</svg>
