<svg width="50" height="50" viewBox="0 0 50 50" fill="none" xmlns="http://www.w3.org/2000/svg">
<path d="M48.445 33.6956C49.4499 30.9873 50 28.058 50 25C50 21.942 49.4499 19.0127 48.445 16.3044L25 14.1305L1.55498 16.3044C0.550098 19.0127 0 21.942 0 25C0 28.058 0.550098 30.9873 1.55498 33.6956L25 35.8696L48.445 33.6956Z" fill="#F0F0F0"/>
<path d="M25 50C35.7491 50 44.9127 43.2156 48.445 33.6956H1.55493C5.08735 43.2156 14.2508 50 25 50Z" fill="#D80027"/>
<path d="M25 0C14.2508 0 5.08735 6.78437 1.55493 16.3044H48.4451C44.9127 6.78437 35.7491 0 25 0Z" fill="#496E2D"/>
<path d="M25.0001 19.5652L26.349 23.7168H30.7146L27.1828 26.283L28.5319 30.4347L25.0001 27.869L21.4683 30.4347L22.8174 26.283L19.2856 23.7168H23.6512L25.0001 19.5652Z" fill="black"/>
<path d="M32.4275 4.89136V9.96372C32.4275 10.763 31.7774 11.413 30.9783 11.413V13.587C32.9761 13.587 34.6014 11.9617 34.6014 9.96372V4.89136H32.4275Z" fill="#F0F0F0"/>
<path d="M16.8478 9.96372C16.8478 10.763 16.1977 11.413 15.3984 11.413V13.587C17.3964 13.587 19.0217 11.9617 19.0217 9.96372V4.89136H16.8478V9.96372Z" fill="#F0F0F0"/>
<path d="M29.1663 4.89136H31.3402V9.96372H29.1663V4.89136Z" fill="#F0F0F0"/>
<path d="M25.9056 7.78979C25.9056 7.9896 25.743 8.1522 25.5433 8.1522C25.3435 8.1522 25.1809 7.9896 25.1809 7.78979V4.89136H23.0069V7.78979C23.0069 7.9896 22.8444 8.1522 22.6446 8.1522C22.4448 8.1522 22.2823 7.9896 22.2823 7.78979V4.89136H20.1084V7.78979C20.1084 9.18843 21.2461 10.3261 22.6446 10.3261C23.1832 10.3261 23.6828 10.1569 24.0938 9.86948C24.5051 10.1569 25.0046 10.3261 25.5432 10.3261C25.6517 10.3261 25.7583 10.3185 25.8632 10.3051C25.7091 10.9398 25.1375 11.413 24.4563 11.413V13.587C26.4541 13.587 28.0794 11.9617 28.0794 9.96372V7.78979V4.89136H25.9055L25.9056 7.78979Z" fill="#F0F0F0"/>
<path d="M20.1086 11.4131H23.3695V13.587H20.1086V11.4131Z" fill="#F0F0F0"/>
</svg>
