<svg width="50" height="50" viewBox="0 0 50 50" fill="none" xmlns="http://www.w3.org/2000/svg">
<path d="M47.5193 35.8695C49.1086 32.5829 50 28.8955 50 25C50 21.1045 49.1086 17.4171 47.5193 14.1305L25 13.0435L2.48066 14.1304C0.891406 17.4171 0 21.1045 0 25C0 28.8955 0.891406 32.5829 2.48066 35.8695L25 36.9565L47.5193 35.8695Z" fill="#FFDA44"/>
<path d="M25 0C15.0885 0 6.52446 5.76807 2.48071 14.1305H47.5193C43.4756 5.76807 34.9115 0 25 0Z" fill="black"/>
<path d="M25 50C15.0885 50 6.52446 44.2319 2.48071 35.8695H47.5193C43.4756 44.2319 34.9115 50 25 50Z" fill="#0052B4"/>
<path d="M48.8194 17.3914H1.18057C0.414746 19.7907 0 22.3468 0 25C0 27.6533 0.414746 30.2094 1.18057 32.6087H48.8193C49.5853 30.2094 50 27.6533 50 25C50 22.3468 49.5853 19.7907 48.8194 17.3914Z" fill="#A2001D"/>
<path d="M8.69556 23.9131H41.3042V26.087H8.69556V23.9131Z" fill="#FFDA44"/>
<path d="M13.0435 19.5652H36.9565V21.7391H13.0435V19.5652Z" fill="#FFDA44"/>
<path d="M37.1119 25C37.1119 25 31.5217 31.5218 25 31.5218C18.4784 31.5218 18.4783 25 18.4783 25C18.4783 25 18.4783 18.4783 25 18.4783C31.5218 18.4783 37.1119 25 37.1119 25Z" fill="#F0F0F0"/>
<path d="M25 31.5218C18.4782 31.5218 12.8882 25 12.8882 25C12.8882 25 18.4782 18.4783 25 18.4783" fill="black"/>
<path d="M20.6521 22.826H22.826V27.1739H20.6521V22.826Z" fill="#F0F0F0"/>
<path d="M27.1738 22.826H29.3478V27.1739H27.1738V22.826Z" fill="black"/>
<path d="M8.69565 27.1739C9.89628 27.1739 10.8696 26.2006 10.8696 25C10.8696 23.7993 9.89628 22.826 8.69565 22.826C7.49503 22.826 6.52173 23.7993 6.52173 25C6.52173 26.2006 7.49503 27.1739 8.69565 27.1739Z" fill="#0052B4"/>
<path d="M41.3045 27.1739C42.5052 27.1739 43.4785 26.2006 43.4785 25C43.4785 23.7993 42.5052 22.826 41.3045 22.826C40.1039 22.826 39.1306 23.7993 39.1306 25C39.1306 26.2006 40.1039 27.1739 41.3045 27.1739Z" fill="#0052B4"/>
</svg>
