<svg width="50" height="50" viewBox="0 0 50 50" fill="none" xmlns="http://www.w3.org/2000/svg">
<path d="M50 25C50 38.807 38.807 50 25 50C11.193 50 0 38.807 0 25C0 25.006 25 0.00273438 25 0C38.807 0 50 11.193 50 25Z" fill="#0052B4"/>
<path d="M24.9331 25H25C25 24.9775 25 24.9557 25 24.9331C24.9777 24.9555 24.9555 24.9777 24.9331 25Z" fill="#F0F0F0"/>
<path d="M25 13.0435C25 8.64453 25 5.76221 25 0H24.9958C11.1905 0.00234375 0 11.1942 0 25H13.0435V17.6552L20.3883 25H24.9332C24.9555 24.9777 24.9777 24.9555 25.0001 24.9331C25.0001 23.2488 25.0001 21.746 25.0001 20.3885L17.6551 13.0435H25Z" fill="#F0F0F0"/>
<path d="M12.6479 3.26086C8.73779 5.48733 5.48711 8.73792 3.26074 12.648V25H9.78252V9.78284V9.78264H24.9999C24.9999 7.72571 24.9999 5.76614 24.9999 3.26086H12.6479Z" fill="#D80027"/>
<path d="M25 21.9257L16.1177 13.0436H13.0435V13.0438L24.9998 25H25C25 25 25 22.8802 25 21.9257Z" fill="#D80027"/>
<path d="M28.2607 13.0435V24.9999C28.2607 30.8241 35.8694 32.6087 35.8694 32.6087C35.8694 32.6087 43.4781 30.8241 43.4781 24.9999V13.0435H28.2607Z" fill="#FFDA44"/>
<path d="M34.7827 17.3913C34.7827 18.592 33.8094 21.7392 32.6087 21.7392C31.4081 21.7392 30.4348 18.592 30.4348 17.3913C30.4348 16.1906 32.6087 15.2174 32.6087 15.2174C32.6087 15.2174 34.7827 16.1906 34.7827 17.3913Z" fill="#FF9811"/>
<path d="M40.5513 19.759C40.9021 18.9031 41.175 17.6519 41.175 17.029C41.175 16.0284 39.8706 15.2174 39.8706 15.2174C39.8706 15.2174 38.5662 16.0285 38.5662 17.029C38.5662 17.6519 38.839 18.9031 39.1898 19.759L38.4368 21.4592C38.8793 21.6391 39.3631 21.7391 39.8705 21.7391C40.3778 21.7391 40.8616 21.6391 41.3042 21.4592L40.5513 19.759Z" fill="#A2001D"/>
<path d="M34.2393 25C34.2393 25 33.1523 27.1739 33.1523 29.3479H38.5871C38.587 27.1739 37.5001 25 37.5001 25L35.8696 23.9131L34.2393 25Z" fill="#6DA544"/>
<path d="M37.5 25V24.4565C37.5 23.5561 36.77 22.826 35.8695 22.826C34.9691 22.826 34.239 23.556 34.239 24.4565V25H37.5Z" fill="#D80027"/>
</svg>
