<svg width="50" height="50" viewBox="0 0 50 50" fill="none" xmlns="http://www.w3.org/2000/svg">
<path d="M50 25C50 38.807 38.807 50 25.0001 50C11.193 50 0 38.807 0 25C0 25.006 25.0001 0.00273438 25.0001 0C38.807 0 50 11.193 50 25Z" fill="#338AF3"/>
<path d="M11.9565 25H20.3884L13.0435 16.3044L11.9565 19.5653V25Z" fill="#0052B4"/>
<path d="M25.0001 20.3885L16.3044 11.9565H25L25.0001 20.3885Z" fill="#0052B4"/>
<path d="M24.9331 25H25C25 24.9775 25 24.9557 25 24.9331C24.9777 24.9555 24.9555 24.9777 24.9331 25Z" fill="#F0F0F0"/>
<path d="M25.0001 13.0435C25.0001 8.64453 25.0001 5.76211 25.0001 0H24.9959C11.1906 0.00234375 0 11.1942 0 25H13.0436V17.6552L20.3884 25H24.9333C24.9556 24.9777 24.9778 24.9555 25.0002 24.9331C25.0002 23.2488 25.0002 21.746 25.0002 20.3885L17.6551 13.0435H25.0001Z" fill="#F0F0F0"/>
<path d="M12.6479 3.26086C8.73779 5.48733 5.48721 8.73792 3.26074 12.648V25H9.78252V9.78284V9.78264H24.9999C24.9999 7.72571 24.9999 5.76614 24.9999 3.26086H12.6479Z" fill="#D80027"/>
<path d="M25 21.9257L16.1177 13.0436H13.0435V13.0438L24.9998 25H25C25 25 25 22.8802 25 21.9257Z" fill="#D80027"/>
<path d="M27.2857 41.3044L27.8254 42.9652H29.5716L28.159 43.9916L28.6986 45.6522L27.2857 44.6259L25.8731 45.6522L26.4128 43.9916L25 42.9652H26.7461L27.2857 41.3044Z" fill="#FFDA44"/>
<path d="M41.1926 30.4348L41.7321 32.0956H43.4783L42.0657 33.122L42.6055 34.7827L41.1926 33.7564L39.78 34.7827L40.3196 33.122L38.9067 32.0956H40.6529L41.1926 30.4348Z" fill="#FFDA44"/>
<path d="M44.6771 14.1305L45.2167 15.7912H46.9629L45.5503 16.8176L46.0899 18.4782L44.6771 17.452L43.2645 18.4782L43.8041 16.8176L42.3914 15.7912H44.1375L44.6771 14.1305Z" fill="#FFDA44"/>
<path d="M45.5402 26.0869L46.0798 27.7478H47.826L46.4134 28.7741L46.953 30.4348L45.5402 29.4085L44.1276 30.4348L44.6673 28.7741L43.2544 27.7478H45.0006L45.5402 26.0869Z" fill="#FFDA44"/>
<path d="M29.7897 37.3983L31.3458 38.1912L32.5805 36.9565L32.3075 38.6811L33.8632 39.4738L32.1384 39.7471L31.8653 41.4718L31.0727 39.9158L29.3479 40.1892L30.5826 38.9545L29.7897 37.3983Z" fill="#FFDA44"/>
<path d="M29.7897 30.8767L31.3458 31.6695L32.5805 30.4348L32.3075 32.1594L33.8632 32.9521L32.1384 33.2253L31.8653 34.95L31.0727 33.3942L29.3479 33.6674L30.5826 32.4328L29.7897 30.8767Z" fill="#FFDA44"/>
<path d="M35.2245 35.057L36.7807 35.8499L38.0153 34.6152L37.7423 36.3397L39.298 37.1325L37.5732 37.4058L37.3001 39.1305L36.5075 37.5744L34.7827 37.8479L36.0174 36.6132L35.2245 35.057Z" fill="#FFDA44"/>
<path d="M35.2245 21.0941L36.7807 21.8869L38.0153 20.6522L37.7423 22.3768L39.298 23.1695L37.5732 23.4427L37.3001 25.1675L36.5075 23.6116L34.7827 23.8848L36.0174 22.6502L35.2245 21.0941Z" fill="#FFDA44"/>
<path d="M40.4916 20.9266L42.0478 21.7194L43.2824 20.4847L43.0093 22.2093L44.5651 23.002L42.8403 23.2753L42.5672 25L41.7746 23.4441L40.0498 23.7174L41.2845 22.4827L40.4916 20.9266Z" fill="#FFDA44"/>
</svg>
