<svg width="50" height="50" viewBox="0 0 50 50" fill="none" xmlns="http://www.w3.org/2000/svg">
<path d="M25 50C38.8071 50 50 38.8071 50 25C50 11.1929 38.8071 0 25 0C11.1929 0 0 11.1929 0 25C0 38.8071 11.1929 50 25 50Z" fill="#FCFCFC"/>
<path d="M29.246 17.4654C29.246 15.1205 27.345 13.2195 25 13.2195C22.655 13.2195 20.754 15.1205 20.754 17.4654H11.4131C11.4131 19.7741 13.4242 21.6459 15.7329 21.6459H15.5938C15.5938 23.9547 17.4653 25.8266 19.7744 25.8266C19.7744 27.8708 21.2426 29.5695 23.1815 29.9326L23.1707 29.957H26.8294L26.8186 29.9326C28.7576 29.5693 30.2257 27.8708 30.2257 25.8266C32.5347 25.8266 34.4063 23.9547 34.4063 21.6459H34.267C36.5757 21.6459 38.5869 19.7741 38.5869 17.4654H29.246Z" fill="#FFDA44"/>
<path d="M23.1336 29.5237L20.501 35.4673C21.89 36.032 23.4083 36.3459 25.0002 36.3459C26.5921 36.3459 28.1104 36.0321 29.4993 35.4673L26.8668 29.5237H23.1336Z" fill="#FFDA44"/>
<path d="M19.5652 19.5535V26.867C19.5652 31.027 25 32.3018 25 32.3018C25 32.3018 30.4347 31.027 30.4347 26.867V19.5535H19.5652Z" fill="#F0F0F0"/>
<path d="M6.06235 25.176L9.00171 33.3971L11.9105 25.176H14.1304L9.8896 36.0456H8.11372L3.84253 25.176H6.06235Z" fill="#338AF3"/>
<path d="M40.2173 36.0456V25.176H42.3299V36.0456H40.2173Z" fill="#338AF3"/>
<path d="M21.7393 21.915V30.7777C22.4864 31.3276 23.2903 31.7059 23.9132 31.948V21.915H21.7393Z" fill="#D80027"/>
<path d="M28.2608 21.915V30.7777C27.5137 31.3276 26.7098 31.7059 26.0869 31.948V21.915H28.2608Z" fill="#D80027"/>
<path d="M19.5652 19.5532H30.4347V23.0021H19.5652V19.5532Z" fill="#0052B4"/>
</svg>
