<svg width="50" height="50" viewBox="0 0 50 50" fill="none" xmlns="http://www.w3.org/2000/svg">
<path d="M25 50C38.8071 50 50 38.8071 50 25C50 11.1929 38.8071 0 25 0C11.1929 0 0 11.1929 0 25C0 38.8071 11.1929 50 25 50Z" fill="#F0F0F0"/>
<path d="M50 25C50 38.807 38.807 50 25 50C11.193 50 0 38.807 0 25" fill="#496E2D"/>
<path d="M43.263 17.3967C42.369 14.8612 39.9533 13.0435 37.112 13.0435H31.5217C27.9199 13.0435 25 15.9634 25 19.5652C25 20.742 25.3132 21.873 25.8584 22.8261C23.7826 22.8091 21.8614 22.8404 20.6521 22.8261C20.6521 20.3108 20.6521 17.1067 20.6521 16.4363L20.9089 16.1795C22.0619 15.0266 21.6774 13.1051 21.6774 13.1051C21.6774 13.1051 19.7561 12.7208 18.6032 13.8737L17.2595 15.2174H15.7608C12.459 15.2174 9.78257 17.8939 9.78257 21.1956H14.1304V26.0869C14.1304 26.8023 14.2747 27.4839 14.5353 28.1046L13.0434 29.3478H10.8695V27.1738H8.69556V31.5217H18.4782V35.8695H16.3042V38.0435H20.6521V33.6956L22.6448 31.3043H27.355L29.3477 33.6956V35.8695H27.1738V38.0435H35.8694V26.0868C35.8694 24.2859 37.3293 22.826 39.1302 22.826C39.1765 22.826 39.2224 22.8276 39.2683 22.8295C39.1783 22.4811 39.1302 22.1157 39.1302 21.7391C39.1304 19.4101 40.9618 17.5089 43.263 17.3967ZM31.5217 35.8694V31.3042H31.7029L33.6956 33.6955V35.8694H31.5217Z" fill="#D80027"/>
</svg>
