<svg width="24" height="24" viewBox="0 0 24 24" fill="none" xmlns="http://www.w3.org/2000/svg">
<mask id="path-1-inside-1_213_22849" fill="white">
<path d="M14.293 0C18.188 0 20.1362 0.000295103 21.5352 0.924805C22.1407 1.325 22.6608 1.8396 23.0654 2.43848C23.9999 3.82203 24 5.74802 24 9.59961C24 13.4516 24 15.3781 23.0654 16.7617C22.6608 17.3606 22.1407 17.8752 21.5352 18.2754C20.2048 19.1546 18.3781 19.1971 14.8525 19.1992V19.2383L13.1123 22.8242C12.7478 23.5754 11.6771 23.5754 11.3125 22.8242L9.57227 19.2383V19.1992C5.76665 19.1991 3.84766 19.1892 2.46484 18.2754C1.8593 17.8752 1.3392 17.3606 0.93457 16.7617C-2.4861e-05 15.3781 0 13.4516 0 9.59961C1.06777e-09 5.74802 9.7879e-05 3.82203 0.93457 2.43848C1.33918 1.8396 1.85934 1.325 2.46484 0.924805C3.86385 0.000295103 5.81197 0 9.70703 0H14.293Z"/>
</mask>
<path d="M21.5352 0.924805L22.0865 0.0905537L22.0865 0.090515L21.5352 0.924805ZM23.0654 2.43848L23.8941 1.87877L23.894 1.87866L23.0654 2.43848ZM24 9.59961H25H24ZM23.0654 16.7617L23.894 17.3215L23.8941 17.3215L23.0654 16.7617ZM21.5352 18.2754L22.0865 19.1097L22.0865 19.1097L21.5352 18.2754ZM14.8525 19.1992L14.8519 18.1992C14.2999 18.1996 13.8525 18.6472 13.8525 19.1992H14.8525ZM14.8525 19.2383L15.7522 19.6749C15.8182 19.5388 15.8525 19.3895 15.8525 19.2383H14.8525ZM13.1123 22.8242L12.2126 22.3876L13.1123 22.8242ZM11.3125 22.8242L12.2122 22.3876L11.3125 22.8242ZM9.57227 19.2383H8.57227C8.57227 19.3895 8.60657 19.5388 8.67261 19.6749L9.57227 19.2383ZM9.57227 19.1992H10.5723C10.5723 18.6469 10.1246 18.1992 9.5723 18.1992L9.57227 19.1992ZM2.46484 18.2754L1.91348 19.1097L1.91352 19.1097L2.46484 18.2754ZM0.93457 16.7617L0.105905 17.3215L0.105954 17.3215L0.93457 16.7617ZM0 9.59961H-1H0ZM0.93457 2.43848L0.105954 1.87866L0.105882 1.87877L0.93457 2.43848ZM2.46484 0.924805L1.91352 0.090515L1.91346 0.0905536L2.46484 0.924805ZM14.293 1C16.261 1 17.6628 1.00126 18.7499 1.11068C19.8209 1.21849 20.4754 1.42309 20.9838 1.75909L22.0865 0.090515C21.1959 -0.497989 20.1768 -0.755789 18.9502 -0.879261C17.7397 -1.00111 16.22 -1 14.293 -1V1ZM20.9838 1.75906C21.4802 2.08714 21.906 2.50862 22.2368 2.99829L23.894 1.87866C23.4157 1.17058 22.8012 0.562871 22.0865 0.0905537L20.9838 1.75906ZM22.2367 2.99819C22.5741 3.49768 22.7798 4.14024 22.8884 5.19584C22.9987 6.2687 23 7.65279 23 9.59961H25C25 7.69483 25.0012 6.19013 24.8779 4.99121C24.7528 3.77503 24.4912 2.76282 23.8941 1.87877L22.2367 2.99819ZM23 9.59961C23 11.5466 22.9988 12.931 22.8884 14.004C22.7799 15.0598 22.5742 15.7025 22.2368 16.202L23.8941 17.3215C24.4913 16.4373 24.7529 15.4249 24.8779 14.2086C25.0012 13.0095 25 11.5046 25 9.59961H23ZM22.2368 16.2019C21.906 16.6916 21.4802 17.1131 20.9838 17.4411L22.0865 19.1097C22.8012 18.6373 23.4157 18.0296 23.894 17.3215L22.2368 16.2019ZM20.9838 17.4411C20.5005 17.7605 19.8848 17.9612 18.9042 18.0726C17.9074 18.1858 16.6293 18.1982 14.8519 18.1992L14.8531 20.1992C16.6014 20.1982 17.9994 20.1882 19.1299 20.0598C20.2766 19.9296 21.2394 19.6695 22.0865 19.1097L20.9838 17.4411ZM13.8525 19.1992V19.2383H15.8525V19.1992H13.8525ZM13.9529 18.8017L12.2126 22.3876L14.012 23.2608L15.7522 19.6749L13.9529 18.8017ZM12.2126 22.3876H12.2122L10.4128 23.2608C11.142 24.7632 13.2829 24.7632 14.012 23.2608L12.2126 22.3876ZM12.2122 22.3876L10.4719 18.8017L8.67261 19.6749L10.4128 23.2608L12.2122 22.3876ZM10.5723 19.2383V19.1992H8.57227V19.2383H10.5723ZM9.5723 18.1992C7.65025 18.1992 6.27829 18.1955 5.2129 18.0852C4.16371 17.9767 3.51858 17.7731 3.01617 17.4411L1.91352 19.1097C2.79393 19.6915 3.7997 19.9497 5.00711 20.0746C6.19832 20.1979 7.68866 20.1992 9.57223 20.1992L9.5723 18.1992ZM3.01621 17.4411C2.51981 17.1131 2.09404 16.6916 1.76319 16.2019L0.105954 17.3215C0.584349 18.0296 1.19879 18.6373 1.91348 19.1097L3.01621 17.4411ZM1.76324 16.202C1.42585 15.7025 1.22013 15.0598 1.11157 14.004C1.00123 12.931 1 11.5466 1 9.59961H-1C-1 11.5046 -1.00124 13.0095 -0.877943 14.2086C-0.752872 15.4249 -0.491303 16.4373 0.105905 17.3215L1.76324 16.202ZM1 9.59961C1 7.65279 1.00126 6.2687 1.11161 5.19584C1.22019 4.14024 1.42589 3.49768 1.76326 2.99819L0.105882 1.87877C-0.491222 2.76282 -0.752802 3.77503 -0.877894 4.99121C-1.00121 6.19013 -1 7.69483 -1 9.59961H1ZM1.76319 2.99829C2.09402 2.50861 2.51984 2.08714 3.01623 1.75906L1.91346 0.0905536C1.19884 0.562871 0.584337 1.17058 0.105954 1.87866L1.76319 2.99829ZM3.01617 1.75909C3.52463 1.42309 4.17911 1.21849 5.25007 1.11068C6.33716 1.00126 7.73896 1 9.70703 1V-1C7.78004 -1 6.26025 -1.00111 5.04976 -0.879261C3.82315 -0.755789 2.80407 -0.497989 1.91352 0.090515L3.01617 1.75909ZM9.70703 1H14.293V-1H9.70703V1Z" fill="black" mask="url(#path-1-inside-1_213_22849)"/>
<path d="M16.7597 11.0755L18.4061 12.7219C18.7341 13.0499 18.7341 13.5817 18.4061 13.9097C16.6329 15.6829 13.8256 15.8824 11.8195 14.3778L11.7025 14.29C10.1892 13.1551 8.84493 11.8108 7.70996 10.2975L7.62224 10.1805C6.11761 8.17436 6.31712 5.36709 8.09034 3.59387C8.41833 3.26588 8.95009 3.26588 9.27808 3.59387L10.9245 5.24026C11.315 5.63079 11.315 6.26395 10.9245 6.65447L9.78983 7.78912C9.5696 8.00935 9.515 8.34579 9.65429 8.62436C10.4595 10.2347 11.7653 11.5405 13.3756 12.3457C13.6542 12.485 13.9907 12.4304 14.2109 12.2102L15.3455 11.0755C15.736 10.685 16.3692 10.685 16.7597 11.0755Z" fill="black"/>
</svg>
